<svg width="64" height="29" viewBox="0 0 64 29" fill="none" xmlns="http://www.w3.org/2000/svg">
<path d="M63.6843 0H57.025V6.11199H63.6843V0Z" fill="#41C8FF"/>
<path d="M52.2027 21.2515C54.4855 21.2515 56.336 19.3967 56.336 17.1087C56.336 14.8206 54.4855 12.9658 52.2027 12.9658C49.9199 12.9658 48.0693 14.8206 48.0693 17.1087C48.0693 19.3967 49.9199 21.2515 52.2027 21.2515Z" fill="#0032C8"/>
<path d="M52.5344 29C58.3772 29 63.6587 25.1895 63.6587 19.231V6.77686H56.9994V17.0828C56.9994 19.6402 55.0348 21.7116 52.5344 21.8906V29Z" fill="#41C8FF"/>
<path d="M51.8711 21.9162C49.3707 21.7372 47.4061 19.6657 47.4061 17.1084C47.4061 14.4488 49.5493 12.2751 52.2283 12.2751V6.77686H41.4357V12.2751H45.3904C45.3904 12.2751 41.1805 13.7072 41.1805 19.589C41.1805 25.343 46.2579 29 51.8967 29V21.9162H51.8711Z" fill="#0032C8"/>
<path d="M34.7512 6.77686H33.0928V15.5996H34.7512V6.77686Z" fill="#232323"/>
<path d="M11.5074 14.1164H9.95098V10.6128H8.26702C6.71063 10.6128 5.46042 11.8659 5.46042 13.4259V14.1164H2.70485C2.14353 14.1164 1.68426 13.656 1.68426 13.0934V12.3007H0.0258179V13.0679C0.0258179 14.4488 1.14846 15.5996 2.55176 15.5996H7.14438V13.2469C7.14438 12.6075 7.65467 12.0961 8.29253 12.0961V15.5996H13.1913V6.77686H11.5329V14.1164H11.5074Z" fill="#232323"/>
<path d="M20.1056 9.66659C20.5988 9.66659 20.9986 9.26586 20.9986 8.77153C20.9986 8.2772 20.5988 7.87646 20.1056 7.87646C19.6124 7.87646 19.2126 8.2772 19.2126 8.77153C19.2126 9.26586 19.6124 9.66659 20.1056 9.66659Z" fill="#232323"/>
<path d="M25.4032 18.0182C25.89 17.939 26.2206 17.4792 26.1416 16.9913C26.0626 16.5033 25.6039 16.172 25.1171 16.2511C24.6303 16.3303 24.2996 16.7901 24.3787 17.278C24.4577 17.766 24.9164 18.0974 25.4032 18.0182Z" fill="#232323"/>
<path d="M5.79218 18.0289C6.28537 18.0289 6.68519 17.6282 6.68519 17.1338C6.68519 16.6395 6.28537 16.2388 5.79218 16.2388C5.29898 16.2388 4.89917 16.6395 4.89917 17.1338C4.89917 17.6282 5.29898 18.0289 5.79218 18.0289Z" fill="#232323"/>
<path d="M3.64875 18.0289C4.14194 18.0289 4.54176 17.6282 4.54176 17.1338C4.54176 16.6395 4.14194 16.2388 3.64875 16.2388C3.15555 16.2388 2.75574 16.6395 2.75574 17.1338C2.75574 17.6282 3.15555 18.0289 3.64875 18.0289Z" fill="#232323"/>
<path d="M30.2349 14.1164H29.1378C28.9337 9.84564 25.3361 10.306 23.9839 10.8174V12.3262C25.132 12.0449 27.3007 11.5079 27.4794 14.1164H22.453C22.453 13.8606 22.453 13.5282 22.453 13.119C22.453 11.6358 21.7386 10.485 20.1312 10.485C18.1921 10.485 17.248 12.5308 17.7583 14.1164H16.304C16.1254 14.1164 15.9723 13.9629 15.9723 13.7839V6.77686H14.3138V14.1164C14.3138 14.9347 14.9772 15.5996 15.7937 15.5996H31.9189V6.77686H30.2604V14.1164H30.2349ZM20.769 14.1164H20.1822C19.7484 14.1164 19.2637 13.9373 19.2637 13.0679C19.2637 12.6331 19.3912 12.0961 20.0546 12.0961C20.6925 12.0961 20.769 12.7098 20.769 13.2469C20.769 13.7839 20.769 14.1164 20.769 14.1164Z" fill="#232323"/>
<path d="M19.2637 21.8138C19.2637 21.9929 19.2637 22.3765 19.2637 22.9135H18.2177V24.2689H19.2637C19.2637 26.3147 19.2637 28.872 19.2637 28.872H20.9222C20.9222 28.872 20.9222 26.2636 20.9222 24.2689H22.351V22.9135H20.9222C20.9222 22.5299 20.9222 22.2486 20.9222 22.0951C20.9222 21.2768 21.9938 21.3791 22.351 21.4302V20.0493C19.9526 19.768 19.2637 20.9444 19.2637 21.8138Z" fill="#232323"/>
<path d="M14.1866 21.8138C14.1866 21.9929 14.1866 22.3765 14.1866 22.9135H13.1405V24.2689H14.1866C14.1866 26.3147 14.1866 28.872 14.1866 28.872H15.845C15.845 28.872 15.845 26.2636 15.845 24.2689H17.2739V22.9135H15.845C15.845 22.5299 15.845 22.2486 15.845 22.0951C15.845 21.2768 16.9167 21.3791 17.2739 21.4302V20.0493C14.8755 19.768 14.1866 20.9444 14.1866 21.8138Z" fill="#232323"/>
<path d="M10.4868 26.3913C10.4868 27.133 9.92546 27.4654 9.44069 27.4654C8.95591 27.4654 8.39459 27.133 8.39459 26.3913V22.939H6.73615V26.4425C6.73615 27.9769 7.8843 28.9998 9.44069 28.9998C10.9971 28.9998 12.1452 27.9769 12.1452 26.4425V22.939H10.4868V26.3913Z" fill="#232323"/>
<path d="M27.3518 23.6294C27.1987 23.3992 26.6884 22.811 25.6934 22.811C24.137 22.811 22.9123 24.1408 22.9123 25.8798C22.9123 27.6699 24.1115 28.9742 25.6934 28.9742C26.6374 28.9742 27.0456 28.5394 27.3518 28.1047V28.8463H29.0103V22.9133H27.3518V23.6294ZM26.0251 27.5421C25.3107 27.5421 24.6218 26.9283 24.6218 25.9054C24.6218 24.8569 25.3107 24.2943 26.0251 24.2943C26.8415 24.2943 27.4539 24.908 27.4539 25.8798C27.4539 26.8772 26.867 27.5421 26.0251 27.5421Z" fill="#232323"/>
<path d="M31.8935 20.0493H30.235V28.8721H31.8935V20.0493Z" fill="#232323"/>
<path d="M34.7511 22.939H33.0927V28.8719H34.7511V22.939Z" fill="#232323"/>
<path d="M3.92961 26.2892C3.92961 26.9029 3.47034 27.3121 2.80697 27.3121C2.14359 27.3121 1.68433 26.9029 1.68433 26.2892V25.4964H0.000366211V26.417C0.000366211 28.0282 1.19955 28.9999 2.80697 28.9999C4.41438 28.9999 5.61357 28.0282 5.61357 26.417V20.0493H3.92961V26.2892Z" fill="#232323"/>
<path d="M33.9346 21.8394C34.4278 21.8394 34.8276 21.4387 34.8276 20.9444C34.8276 20.45 34.4278 20.0493 33.9346 20.0493C33.4414 20.0493 33.0416 20.45 33.0416 20.9444C33.0416 21.4387 33.4414 21.8394 33.9346 21.8394Z" fill="#232323"/>
</svg>
