<svg width="56" height="44" viewBox="0 0 56 44" fill="none" xmlns="http://www.w3.org/2000/svg">
<path d="M2.27138 41.6236H3.71254L2.99203 39.4176L2.27138 41.6236ZM3.60747 38.3741L5.48406 43.5615H4.35811L4.01277 42.5033H1.98641L1.64107 43.5615H0.5L2.24139 38.717C2.32153 38.4884 2.49174 38.3741 2.75177 38.3741H3.60747Z" fill="#3AB82F"/>
<path d="M6.00879 38.9256C6.00879 38.7765 6.06133 38.6473 6.1664 38.5382C6.27147 38.4289 6.3991 38.3741 6.54914 38.3741H7.07477V42.6076H9.62663V43.5615H6.00879V38.9256Z" fill="#3AB82F"/>
<path d="M10.872 43.5615V41.6236L8.98065 38.3741H10.2866L11.4124 40.6101L12.2981 38.6872C12.3983 38.4785 12.5633 38.3741 12.7935 38.3741H13.6641L11.9528 41.6236V43.5615H10.872Z" fill="#3AB82F"/>
<path d="M14.5342 41.6236H15.9754L15.2548 39.4176L14.5342 41.6236ZM15.8703 38.3741L17.7469 43.5615H16.6209L16.2756 42.5033H14.2491L13.9039 43.5615H12.7628L14.5042 38.717C14.5843 38.4884 14.7544 38.3741 15.0146 38.3741H15.8703Z" fill="#3AB82F"/>
<path d="M19.3827 41.9368C19.4228 42.4833 19.7831 42.7567 20.4636 42.7567C21.1442 42.7567 21.4794 42.5431 21.4693 42.1156C21.4693 41.8672 21.3092 41.6982 20.9888 41.6089C20.6788 41.5195 20.3334 41.425 19.9532 41.3257C18.9323 41.0672 18.422 40.5953 18.422 39.9096C18.442 38.8163 19.0975 38.2747 20.3885 38.2846C21.6194 38.2846 22.2651 38.8214 22.325 39.8947H21.7246C21.5044 39.8947 21.3442 39.7953 21.2442 39.5965C21.0639 39.2985 20.7488 39.1493 20.2985 39.1493C19.748 39.1592 19.4629 39.3629 19.4428 39.7605C19.4428 40.0884 19.7831 40.3268 20.4636 40.476C20.8537 40.5654 21.2691 40.6846 21.7096 40.8336C22.29 41.0324 22.5652 41.4598 22.5352 42.1156C22.4752 43.1293 21.7845 43.6362 20.4636 43.6362C19.0824 43.6362 18.377 43.0696 18.3469 41.9368H19.3827Z" fill="#3AB82F"/>
<path d="M23.0898 38.9256C23.0898 38.5678 23.2699 38.3841 23.6303 38.3741H26.8729V39.2686H24.1406V40.3865H26.1823V40.7294C26.1923 41.0871 26.0071 41.2661 25.6268 41.2661H24.1406V42.6076H26.8729V43.5615H23.0898V38.9256Z" fill="#3AB82F"/>
<path d="M27.4277 38.9256C27.4277 38.5678 27.6077 38.3841 27.9682 38.3741H31.2107V39.2686H28.4784V40.3865H30.5202V40.7294C30.5301 41.0871 30.3449 41.2661 29.9647 41.2661H28.4784V42.6076H31.2107V43.5615H27.4277V38.9256Z" fill="#3AB82F"/>
<path d="M31.7507 38.9256C31.7507 38.7765 31.8032 38.6473 31.9083 38.5382C32.0134 38.4289 32.1408 38.3741 32.291 38.3741H32.8616L34.9932 41.9368V38.3741H36.0439V43.5615H34.9331L32.8015 39.9989V43.5615H31.7507V38.9256Z" fill="#3AB82F"/>
<path d="M41.5219 41.6236H42.9631L42.2426 39.4176L41.5219 41.6236ZM42.858 38.3741L44.7346 43.5615H43.6087L43.2633 42.5033H41.2368L40.8916 43.5615H39.7505L41.4919 38.717C41.5719 38.4884 41.7422 38.3741 42.0023 38.3741H42.858Z" fill="#3AB82F"/>
<path d="M48.0213 43.4722C47.7613 43.5816 47.4759 43.6362 47.1658 43.6362C46.4451 43.6362 45.8647 43.3926 45.4244 42.9057C44.9839 42.409 44.7638 41.7629 44.7638 40.9679C44.7539 40.1728 44.9689 39.517 45.4094 39.0002C45.8496 38.4934 46.4451 38.2548 47.1956 38.2846C47.8062 38.2846 48.3315 38.4387 48.772 38.7469C49.1722 39.0648 49.3925 39.517 49.4325 40.1034H48.772C48.5817 40.1034 48.4266 40.0139 48.3066 39.835C48.0964 39.4177 47.7361 39.2089 47.2257 39.2089C46.3251 39.2089 45.8696 39.7779 45.8598 40.9157C45.8496 42.0535 46.3251 42.6574 47.2858 42.7268C47.6261 42.7268 47.9062 42.6275 48.1265 42.4288C48.3466 42.2299 48.4866 41.9617 48.5468 41.6237H47.9163C47.7662 41.6237 47.6386 41.5716 47.5334 41.4673C47.4284 41.3628 47.3759 41.2362 47.3759 41.0871V40.7592H49.5076V43.5617H49.2375C49.1074 43.5617 48.9895 43.5244 48.8846 43.45C48.7794 43.3754 48.722 43.2783 48.7119 43.1592L48.6669 42.9057C48.4568 43.1741 48.2416 43.363 48.0213 43.4722Z" fill="#3AB82F"/>
<path d="M52.3441 40.6398C52.6044 40.6398 52.8095 40.5852 52.9596 40.4758C53.0796 40.3566 53.1398 40.1827 53.1398 39.9541C53.1398 39.7256 53.0796 39.5565 52.9596 39.4472C52.8394 39.328 52.6542 39.2684 52.4042 39.2684H51.0832V40.6398H52.3441ZM50.0172 38.9255C50.0172 38.7764 50.0697 38.6473 50.175 38.5381C50.2799 38.4287 50.4075 38.3741 50.5577 38.3741H52.5392C53.0996 38.3741 53.5251 38.4933 53.8154 38.7319C54.0855 38.9702 54.2207 39.343 54.2207 39.8497C54.2207 40.1778 54.1555 40.441 54.0255 40.6398C53.8853 40.8584 53.6901 41.0025 53.4399 41.0722C53.6601 41.1516 53.8253 41.2709 53.9354 41.4299C54.0255 41.6088 54.0806 41.8671 54.1006 42.205L54.1456 43.2186C54.1555 43.3776 54.2106 43.4918 54.3106 43.5615H53.1398C53.0898 43.4622 53.0597 43.3577 53.0497 43.2485C53.0297 43.1688 53.0147 42.8758 53.0046 42.369C52.9846 42.041 52.9245 41.8224 52.8245 41.7131C52.7143 41.6038 52.5143 41.5492 52.224 41.5492H51.0832V43.5615H50.0172V38.9255Z" fill="#3AB82F"/>
<path d="M54.8206 38.9256C54.8206 38.558 55.0006 38.3741 55.3611 38.3741H55.8866V43.5615H54.8206V38.9256Z" fill="#3AB82F"/>
<path d="M3.26201 29.4185C3.16715 29.4185 3.07521 29.3948 2.98672 29.3477C2.90128 29.2942 2.83495 29.2268 2.78745 29.145C2.73359 29.0539 2.70666 28.9613 2.70666 28.867C2.70666 28.776 2.73359 28.6849 2.78745 28.5938C2.838 28.4996 2.90606 28.4304 2.99136 28.3864C3.07693 28.3393 3.16715 28.3157 3.26201 28.3157C3.35686 28.3157 3.44708 28.3393 3.53252 28.3864C3.62419 28.4335 3.69384 28.5027 3.74133 28.5938C3.79188 28.6818 3.81735 28.7728 3.81735 28.867C3.81735 28.9645 3.79347 29.0571 3.74598 29.145C3.69543 29.2299 3.62737 29.2974 3.54193 29.3477C3.45026 29.3948 3.35686 29.4185 3.26201 29.4185ZM3.50399 33.4993V30.9028L3.05796 30.9122H2.17533C1.80518 30.9122 1.61998 31.1008 1.61998 31.4777V32.948C1.61998 33.3157 1.80518 33.4993 2.17533 33.4993H3.50399ZM1.85255 29.4185C1.75769 29.4185 1.66734 29.3948 1.58204 29.3477C1.49341 29.2974 1.42536 29.2299 1.37799 29.145C1.32413 29.0539 1.29733 28.9613 1.29733 28.867C1.29733 28.776 1.32413 28.6849 1.37799 28.5938C1.42854 28.4996 1.4966 28.4304 1.58204 28.3864C1.66734 28.3393 1.75769 28.3157 1.85255 28.3157C1.94754 28.3157 2.03762 28.3393 2.12305 28.3864C2.21473 28.4335 2.28438 28.5027 2.33187 28.5938C2.38242 28.6818 2.40776 28.7728 2.40776 28.867C2.40776 28.9645 2.38414 29.0571 2.33665 29.145C2.28915 29.2299 2.2211 29.2974 2.13261 29.3477C2.04067 29.3948 1.94754 29.4185 1.85255 29.4185ZM4.62397 33.4993H4.90629C5.07557 33.4993 5.32326 33.5009 5.64896 33.5041C5.83244 33.5041 5.92743 33.691 5.93367 34.0648C5.93685 34.4324 5.84677 34.6162 5.66329 34.6162H2.18952C1.06304 34.6162 0.5 34.057 0.5 32.9385V31.4636C0.5 30.3516 1.05535 29.7954 2.16577 29.7954L3.05796 29.8001C3.22552 29.8189 3.37424 29.9117 3.50399 30.0781C3.50399 29.7043 3.68906 29.5174 4.05934 29.5174C4.43572 29.5174 4.62397 29.7043 4.62397 30.0781V33.4993Z" fill="#3AB82F"/>
<path d="M7.72302 35.0353C7.81788 35.0857 7.88739 35.1532 7.93184 35.2381C7.98238 35.326 8.00772 35.4186 8.00772 35.5162C8.00772 35.6104 7.98238 35.7015 7.93184 35.7894C7.88448 35.8774 7.81788 35.9466 7.73257 35.9968C7.64063 36.0439 7.5475 36.0674 7.45264 36.0674C7.35752 36.0674 7.26585 36.0439 7.17722 35.9968C7.09192 35.9433 7.02227 35.8743 6.96841 35.7894C6.92104 35.7015 6.8973 35.6104 6.8973 35.5162C6.8973 35.4217 6.92104 35.3291 6.96841 35.2381C7.01908 35.1532 7.08874 35.0857 7.17722 35.0353C7.26585 34.9883 7.35752 34.9647 7.45264 34.9647C7.541 34.9647 7.63135 34.9883 7.72302 35.0353ZM6.04305 34.9647C6.13154 34.9647 6.22175 34.9883 6.31356 35.0353C6.40855 35.0857 6.47807 35.1532 6.52251 35.2381C6.57292 35.326 6.59826 35.4186 6.59826 35.5162C6.59826 35.6104 6.57292 35.7015 6.52251 35.7894C6.47488 35.8774 6.40855 35.9466 6.32311 35.9968C6.23131 36.0439 6.13791 36.0674 6.04305 36.0674C5.94819 36.0674 5.85639 36.0439 5.7679 35.9968C5.68246 35.9433 5.61281 35.8743 5.55895 35.7894C5.51158 35.7015 5.48784 35.6104 5.48784 35.5162C5.48784 35.4217 5.51158 35.3291 5.55895 35.2381C5.60962 35.1501 5.68073 35.0825 5.77254 35.0353C5.85798 34.9883 5.94819 34.9647 6.04305 34.9647ZM8.2119 33.5039C8.39206 33.5039 8.48241 33.6908 8.48241 34.0646C8.47591 34.4322 8.38092 34.616 8.19757 34.616H7.34823C6.97796 34.6065 6.79448 34.4229 6.79766 34.0646C6.77219 34.4322 6.58088 34.616 6.22348 34.616H5.36446C5.18098 34.616 5.08917 34.4322 5.08917 34.0646C5.08293 33.6908 5.17302 33.5039 5.35968 33.5039H6.22348V30.3559C6.22348 29.9884 6.40536 29.8047 6.76914 29.8047C7.14883 29.8047 7.3416 29.9932 7.34823 30.3701V33.5039H8.2119Z" fill="#3AB82F"/>
<path d="M10.8407 30.9075C10.4611 30.9075 10.2713 31.0883 10.2713 31.4495V32.9385C10.2713 33.3157 10.4611 33.5041 10.8407 33.5041H13.0095C13.3763 33.5041 13.56 33.6926 13.56 34.0695C13.56 34.434 13.3716 34.6162 12.9952 34.6162H8.19262C7.81625 34.6162 7.62799 34.434 7.62799 34.0695C7.62799 33.6926 7.81147 33.5041 8.1783 33.5041H9.21761C9.19559 33.413 9.17901 33.3196 9.16786 33.2237C9.15672 33.128 9.15128 33.0251 9.15128 32.9151V31.4637C9.15128 30.3484 9.71432 29.7906 10.8407 29.7906H13.0095C13.3763 29.7906 13.56 29.9776 13.56 30.3516C13.56 30.719 13.3716 30.9028 12.9952 30.9028L10.8407 30.9075Z" fill="#3AB82F"/>
<path d="M15.406 28.3624C15.7762 28.3718 15.9614 28.5573 15.9614 28.9186V34.0503C15.9614 34.4273 15.7778 34.6157 15.4108 34.6157C15.0311 34.6157 14.8413 34.4273 14.8413 34.0503V29.484C14.4616 29.484 14.275 29.3049 14.2813 28.9467C14.2813 28.5665 14.4679 28.3718 14.8413 28.3624H15.406Z" fill="#3AB82F"/>
<path d="M18.3057 29.8001C18.6821 29.8001 18.8703 29.9839 18.8703 30.3516L18.8608 34.6162C18.7944 35.6152 18.2376 36.1147 17.1904 36.1147L16.7538 36.1053C16.3837 36.1053 16.1987 35.9246 16.1987 35.5634V35.5539C16.1987 35.1864 16.3837 35.0026 16.7538 35.0026L17.1809 34.9979C17.5606 34.9979 17.7503 34.8093 17.7503 34.4324V30.3608C17.7503 29.9871 17.9354 29.8001 18.3057 29.8001Z" fill="#3AB82F"/>
<path d="M20.7686 29.4185C20.6705 29.4185 20.5772 29.3933 20.4887 29.343C20.4032 29.2958 20.3368 29.23 20.2893 29.145C20.2387 29.0571 20.2132 28.9645 20.2132 28.867C20.2132 28.7665 20.2387 28.6755 20.2893 28.5938C20.3368 28.5028 20.4063 28.4335 20.4981 28.3864C20.5835 28.3393 20.6737 28.3157 20.7686 28.3157C20.8634 28.3157 20.9537 28.3393 21.0392 28.3864C21.1245 28.4304 21.1925 28.4996 21.2433 28.5938C21.2969 28.685 21.3239 28.776 21.3239 28.867C21.3239 28.9645 21.3001 29.0571 21.2526 29.145C21.202 29.23 21.1324 29.2958 21.044 29.343C20.9553 29.3933 20.8634 29.4185 20.7686 29.4185ZM21.3096 33.4993C21.7146 33.5025 22.0767 33.5072 22.3964 33.5136C22.5798 33.5136 22.6748 33.6972 22.6811 34.0648C22.6811 34.4324 22.5909 34.6162 22.4106 34.6162H21.3001C21.2337 35.6152 20.6769 36.1147 19.6296 36.1147L19.2026 36.1053C18.8261 36.1053 18.6378 35.9246 18.6378 35.5634L18.6472 35.5539H18.6378C18.6378 35.1864 18.8261 35.0026 19.2026 35.0026H19.6202C19.9999 35.0026 20.1896 34.8125 20.1896 34.4324V30.3655C20.1896 29.9886 20.3779 29.8001 20.7544 29.8001C21.1245 29.8001 21.3096 29.9871 21.3096 30.3608V33.4993Z" fill="#3AB82F"/>
<path d="M23.5307 28.3624C23.901 28.3624 24.0861 28.5494 24.0861 28.9232V34.055C24.0861 34.4289 23.901 34.6157 23.5307 34.6157H22.1166C21.9331 34.6157 21.8383 34.4289 21.8319 34.055C21.8256 33.6874 21.9156 33.5037 22.1023 33.5037H22.9707V28.9091C22.9707 28.5447 23.1575 28.3624 23.5307 28.3624Z" fill="#3AB82F"/>
<path d="M25.9321 28.3624C26.3022 28.3718 26.4874 28.5573 26.4874 28.9186V34.0503C26.4874 34.4273 26.3038 34.6157 25.9369 34.6157C25.5572 34.6157 25.3673 34.4273 25.3673 34.0503V29.484C24.9876 29.484 24.8011 29.3049 24.8073 28.9467C24.8073 28.5665 24.994 28.3718 25.3673 28.3624H25.9321Z" fill="#3AB82F"/>
<path d="M32.2151 30.8929C32.1171 30.8929 32.0237 30.8679 31.9352 30.8176C31.8497 30.7704 31.7833 30.7014 31.7358 30.6102C31.6852 30.5285 31.6599 30.4391 31.6599 30.3416C31.6599 30.2411 31.6852 30.1501 31.7358 30.0682C31.7833 29.9772 31.8528 29.9082 31.9446 29.861C32.03 29.814 32.1202 29.7903 32.2151 29.7903C32.31 29.7903 32.4003 29.814 32.4857 29.861C32.5711 29.905 32.6391 29.9741 32.6898 30.0682C32.7434 30.1564 32.7705 30.2474 32.7705 30.3416C32.7705 30.4359 32.7466 30.5254 32.6991 30.6102C32.6453 30.7014 32.5758 30.7704 32.4904 30.8176C32.4018 30.8679 32.31 30.8929 32.2151 30.8929ZM36.0496 33.5037C36.2363 33.5037 36.3263 33.6905 36.3201 34.0644C36.3201 34.4321 36.2252 34.6157 36.0353 34.6157H34.8491C34.792 35.6147 34.2193 36.1143 33.131 36.1143H31.2661C30.1366 36.1143 29.5718 35.5583 29.5718 34.4461V32.613C29.5718 32.2235 29.7568 32.0286 30.1271 32.0286C30.494 32.035 30.6824 32.2251 30.6918 32.5988V34.4603C30.6886 34.8214 30.8831 35.0021 31.2754 35.0021H33.1596C33.5391 35.0021 33.729 34.8122 33.729 34.4321L33.7384 30.3323C33.7384 29.971 33.9251 29.7903 34.2985 29.7903C34.6685 29.7903 34.8537 29.9758 34.8537 30.3465V33.5037H36.0496Z" fill="#3AB82F"/>
<path d="M38.1141 35.0353C38.2089 35.0857 38.2784 35.1532 38.3229 35.2381C38.3734 35.326 38.3988 35.4186 38.3988 35.5162C38.3988 35.6104 38.3734 35.7015 38.3229 35.7894C38.2754 35.8774 38.2089 35.9466 38.1236 35.9968C38.0317 36.0439 37.9386 36.0674 37.8436 36.0674C37.7486 36.0674 37.6569 36.0439 37.5683 35.9968C37.483 35.9433 37.4132 35.8743 37.3595 35.7894C37.312 35.7015 37.2883 35.6104 37.2883 35.5162C37.2883 35.4217 37.312 35.3291 37.3595 35.2381C37.41 35.1532 37.4798 35.0857 37.5683 35.0353C37.6569 34.9883 37.7486 34.9647 37.8436 34.9647C37.9321 34.9647 38.0224 34.9883 38.1141 35.0353ZM36.4341 34.9647C36.5226 34.9647 36.6128 34.9883 36.7046 35.0353C36.7996 35.0857 36.8691 35.1532 36.9136 35.2381C36.964 35.326 36.9893 35.4186 36.9893 35.5162C36.9893 35.6104 36.964 35.7015 36.9136 35.7894C36.8659 35.8774 36.7996 35.9466 36.7142 35.9968C36.6222 36.0439 36.529 36.0674 36.4341 36.0674C36.3392 36.0674 36.2474 36.0439 36.1589 35.9968C36.0735 35.9433 36.0039 35.8743 35.95 35.7894C35.9026 35.7015 35.8789 35.6104 35.8789 35.5162C35.8789 35.4217 35.9026 35.3291 35.95 35.2381C36.0007 35.1501 36.0718 35.0825 36.1636 35.0353C36.249 34.9883 36.3392 34.9647 36.4341 34.9647ZM38.6028 33.5039C38.7831 33.5039 38.8735 33.6908 38.8735 34.0646C38.867 34.4322 38.772 34.616 38.5886 34.616H37.7392C37.369 34.6065 37.1855 34.4229 37.1887 34.0646C37.1632 34.4322 36.9719 34.616 36.6145 34.616H35.7555C35.572 34.616 35.4802 34.4322 35.4802 34.0646C35.474 33.6908 35.5641 33.5039 35.7507 33.5039H36.6145V30.3559C36.6145 29.9884 36.7964 29.8047 37.1602 29.8047C37.5399 29.8047 37.7327 29.9932 37.7392 30.3701V33.5039H38.6028Z" fill="#3AB82F"/>
<path d="M45.2371 29.795C45.6072 29.795 45.7923 29.9804 45.7923 30.3511V32.91C45.7923 34.0471 45.2323 34.6157 44.1122 34.6157H43.2249C42.8546 34.6062 42.6713 34.4226 42.6745 34.0644C42.649 34.4289 42.4577 34.6126 42.1 34.6157H40.7809C40.4108 34.6062 40.2288 34.4226 40.2351 34.0644C40.213 34.4258 40.0201 34.6094 39.6562 34.6157H38.3037C38.1203 34.6157 38.0254 34.4289 38.019 34.055C38.019 33.6874 38.1123 33.5037 38.299 33.5037L39.6562 33.499V30.3465C39.6562 29.9788 39.8395 29.795 40.2067 29.795C40.5831 29.795 40.7745 29.9835 40.7809 30.3604L40.7761 33.499H42.1V30.3465C42.1 29.9788 42.2822 29.795 42.6458 29.795C43.0257 29.795 43.2184 29.9835 43.2249 30.3604L43.2155 33.499L44.1077 33.5037C44.4872 33.5037 44.6771 33.3136 44.6771 32.9336V30.3604C44.6771 29.9835 44.8638 29.795 45.2371 29.795Z" fill="#3AB82F"/>
<path d="M48.6683 33.5037C48.855 33.5037 48.9451 33.6905 48.939 34.0644C48.939 34.4321 48.844 34.6157 48.6543 34.6157H48.3884C47.2589 34.6157 46.6941 34.0597 46.6941 32.9475V28.9467C46.6941 28.5542 46.8793 28.3576 47.2494 28.3576C47.6131 28.3609 47.7983 28.5526 47.8047 28.9327V32.9617C47.8047 33.3231 48.0022 33.5037 48.3978 33.5037H48.6683Z" fill="#3AB82F"/>
<path d="M51.0363 35.0353C51.1311 35.0857 51.2006 35.1532 51.2451 35.2381C51.2956 35.326 51.321 35.4186 51.321 35.5162C51.321 35.6104 51.2956 35.7015 51.2451 35.7894C51.1976 35.8774 51.1311 35.9466 51.0458 35.9968C50.9539 36.0439 50.8607 36.0674 50.7657 36.0674C50.6708 36.0674 50.5791 36.0439 50.4905 35.9968C50.4052 35.9433 50.3354 35.8743 50.2816 35.7894C50.2341 35.7015 50.2105 35.6104 50.2105 35.5162C50.2105 35.4217 50.2341 35.3291 50.2816 35.2381C50.3322 35.1532 50.402 35.0857 50.4905 35.0353C50.5791 34.9883 50.6708 34.9647 50.7657 34.9647C50.8542 34.9647 50.9446 34.9883 51.0363 35.0353ZM49.3561 34.9647C49.4448 34.9647 49.535 34.9883 49.6268 35.0353C49.7216 35.0857 49.7913 35.1532 49.8356 35.2381C49.8862 35.326 49.9115 35.4186 49.9115 35.5162C49.9115 35.6104 49.8862 35.7015 49.8356 35.7894C49.7881 35.8774 49.7216 35.9466 49.6363 35.9968C49.5444 36.0439 49.4511 36.0674 49.3561 36.0674C49.2613 36.0674 49.1696 36.0439 49.081 35.9968C48.9957 35.9433 48.926 35.8743 48.8722 35.7894C48.8248 35.7015 48.8011 35.6104 48.8011 35.5162C48.8011 35.4217 48.8248 35.3291 48.8722 35.2381C48.9229 35.1501 48.9938 35.0825 49.0858 35.0353C49.1712 34.9883 49.2613 34.9647 49.3561 34.9647ZM51.525 33.5039C51.7053 33.5039 51.7956 33.6908 51.7956 34.0646C51.7891 34.4322 51.6941 34.616 51.5108 34.616H50.6613C50.2912 34.6065 50.1077 34.4229 50.1109 34.0646C50.0854 34.4322 49.8941 34.616 49.5367 34.616H48.6777C48.4942 34.616 48.4024 34.4322 48.4024 34.0646C48.3962 33.6908 48.4862 33.5039 48.6729 33.5039H49.5367V30.3559C49.5367 29.9884 49.7185 29.8047 50.0824 29.8047C50.4621 29.8047 50.6548 29.9932 50.6613 30.3701V33.5039H51.525Z" fill="#3AB82F"/>
<path d="M52.9297 28.3624C53.3 28.3624 53.4851 28.5494 53.4851 28.9232V34.055C53.4851 34.4289 53.3 34.6157 52.9297 34.6157H51.5156C51.3321 34.6157 51.2373 34.4289 51.2309 34.055C51.2245 33.6874 51.3146 33.5037 51.5013 33.5037H52.3697V28.9091C52.3697 28.5447 52.5565 28.3624 52.9297 28.3624Z" fill="#3AB82F"/>
<path d="M55.3311 28.3624C55.7012 28.3718 55.8864 28.5573 55.8864 28.9186V34.0503C55.8864 34.4273 55.7028 34.6157 55.3359 34.6157C54.9562 34.6157 54.7663 34.4273 54.7663 34.0503V29.484C54.3866 29.484 54.2001 29.3049 54.2063 28.9467C54.2063 28.5665 54.393 28.3718 54.7663 28.3624H55.3311Z" fill="#3AB82F"/>
<path d="M55.8863 37.3037H0.5V36.8858H55.8863V37.3037Z" fill="#3AB82F"/>
<path d="M32.9888 3.22113C32.9888 3.22113 32.969 3.22389 32.9346 3.22877C31.8492 2.90351 30.6984 2.72763 29.5061 2.72763C25.2718 2.72763 21.5573 4.93307 19.4604 8.2492C19.4195 8.30966 19.3807 8.37053 19.3451 8.43231C18.9828 8.28226 16.8862 7.5021 15.0247 7.30357C15.6844 7.60526 18.595 8.976 18.8772 9.14686C18.8771 9.14726 18.8768 9.14752 18.8767 9.14792C18.895 9.15608 18.9133 9.16438 18.9317 9.17242C18.9523 9.18138 18.973 9.19007 18.9931 9.19969C19.6593 9.50098 20.3416 9.7796 20.9851 10.137L21.4752 10.3926C21.638 10.4793 21.8056 10.5587 21.961 10.658L22.9119 11.2304C24.1605 12.028 25.3609 12.9283 26.4505 13.9771C26.4617 13.9883 26.4732 13.9993 26.4843 14.0107C26.7721 13.4199 27.4422 12.2874 28.7236 11.2752L27.1708 14.7079C27.1957 14.7356 27.2216 14.7622 27.2459 14.7905L27.6297 15.2153C27.7538 15.361 27.8727 15.5121 27.9945 15.6609L28.1764 15.8856L28.3486 16.1202C28.3507 16.1231 28.7215 16.6022 28.7236 16.605C29.0118 14.305 29.419 8.0421 32.9751 3.24023C32.9798 3.2339 32.9841 3.22745 32.9888 3.22113Z" fill="#3AB82F"/>
<path d="M41.3536 14.0855C36.7572 17.3168 35.4996 23.6713 35.314 24.7646C37.6187 23.476 39.4456 21.4446 40.4652 18.9969C40.7501 18.3133 40.9723 17.5975 41.1241 16.8562C41.2797 16.0949 41.3618 15.307 41.3618 14.5C41.3618 14.3612 41.3585 14.2232 41.3536 14.0855Z" fill="#3AB82F"/>
<path d="M41.3525 14.0596C41.2427 11.0997 40.0332 8.41892 38.1168 6.40872C37.1003 5.34243 35.8851 4.46531 34.53 3.83481C34.5763 3.56844 34.8979 1.88324 35.9086 -9.72748e-05C35.9086 -9.72748e-05 34.7931 1.09992 33.5248 3.42181C31.3838 7.3413 28.8089 14.7471 30.4248 26.2378C30.4399 26.3446 30.4534 26.45 30.4691 26.5576H31.8618C31.852 26.391 31.8411 26.2201 31.8296 26.0459C31.5237 21.3991 30.759 14.1792 35.9674 8.39508C32.247 14.2808 34.0409 22.5696 34.0409 22.5696C36.2659 16.5103 39.2661 14.967 41.3525 14.0596Z" fill="#3AB82F"/>
<path d="M26.0616 25.7671C26.0732 25.8394 26.0803 25.8782 26.0803 25.8782L28.2008 26.2227C28.2011 26.2154 28.2011 26.2086 28.2015 26.2012C28.4877 19.9279 26.5802 17.067 26.5802 17.067C25.4597 21.4365 25.9546 25.0959 26.0616 25.7671Z" fill="#3AB82F"/>
<path d="M22.2577 12.1248L21.4236 11.4647C21.2872 11.3502 21.1372 11.2547 20.9921 11.1517L20.5535 10.8465C19.9778 10.4222 19.3547 10.0705 18.7428 9.69317C18.7269 9.6829 18.7106 9.67341 18.6943 9.66366C18.0239 11.1391 17.6507 12.7761 17.6507 14.4999C17.6507 18.8909 20.072 22.7199 23.6608 24.7437C23.7266 23.5722 23.7484 19.4196 21.0901 16.3223C21.0901 16.3223 23.465 18.0599 24.2981 20.3766C24.2981 20.3766 24.9331 17.0167 25.6576 15.6537C25.4963 15.4288 25.3853 15.3159 25.2165 15.0942C24.3511 14.0155 23.3428 13.0317 22.2577 12.1248Z" fill="#3AB82F"/>
</svg>
