<svg width="48" height="48" viewBox="0 0 48 48" fill="none" xmlns="http://www.w3.org/2000/svg">
<path d="M0 24C0 10.7452 10.7452 0 24 0C37.2548 0 48 10.7452 48 24C48 37.2548 37.2548 48 24 48C10.7452 48 0 37.2548 0 24Z" fill="#E7EFCC"/>
<path d="M23.75 14C20.9886 14 18.75 16.2386 18.75 19C18.75 21.7614 20.9886 24 23.75 24C26.5114 24 28.75 21.7614 28.75 19C28.75 16.2386 26.5114 14 23.75 14ZM20 19C20 16.9289 21.6789 15.25 23.75 15.25C25.8211 15.25 27.5 16.9289 27.5 19C27.5 21.0711 25.8211 22.75 23.75 22.75C21.6789 22.75 20 21.0711 20 19ZM17.5109 25.25C16.1289 25.25 15 26.3586 15 27.75C15 29.864 16.041 31.4579 17.6687 32.4957C19.2712 33.5175 21.4316 34 23.75 34C26.0684 34 28.2288 33.5175 29.8313 32.4957C31.459 31.4579 32.5 29.864 32.5 27.75C32.5 26.3695 31.3806 25.25 30 25.25L17.5109 25.25ZM16.25 27.75C16.25 27.0584 16.8098 26.5 17.5109 26.5L30 26.5C30.6902 26.5 31.25 27.0598 31.25 27.75C31.25 29.386 30.4722 30.6046 29.1592 31.4418C27.821 32.295 25.9189 32.75 23.75 32.75C21.5811 32.75 19.679 32.295 18.3408 31.4418C17.0278 30.6046 16.25 29.386 16.25 27.75Z" fill="#0A7A58"/>
</svg>
