<svg width="16" height="17" viewBox="0 0 16 17" fill="none" xmlns="http://www.w3.org/2000/svg">
<path fill-rule="evenodd" clip-rule="evenodd" d="M2.77332 5.1399C2.77332 3.90278 3.7762 2.8999 5.01332 2.8999H12.48C12.7628 2.8999 13.0213 3.05969 13.1478 3.31265C13.2743 3.56561 13.247 3.86832 13.0773 4.09457L11.1733 6.63324L13.0773 9.1719C13.247 9.39816 13.2743 9.70086 13.1478 9.95382C13.0213 10.2068 12.7628 10.3666 12.48 10.3666H5.01332C4.60094 10.3666 4.26665 10.7009 4.26665 11.1132V13.3532C4.26665 13.7656 3.93235 14.0999 3.51998 14.0999C3.10761 14.0999 2.77332 13.7656 2.77332 13.3532V5.1399Z" fill="#0E0E0E"/>
</svg>
