<svg width="20" height="20" viewBox="0 0 20 20" fill="none" xmlns="http://www.w3.org/2000/svg">
<g clip-path="url(#clip0_5727_33079)">
<path d="M6.2788 10C5.76504 10 5.34856 10.4165 5.34856 10.9302C5.34856 11.444 5.76504 11.8605 6.2788 11.8605H6.28714C6.8009 11.8605 7.21738 11.444 7.21738 10.9302C7.21738 10.4165 6.8009 10 6.28714 10H6.2788Z" fill="#161616"/>
<path d="M9.99555 10C9.4818 10 9.06532 10.4165 9.06532 10.9302C9.06532 11.444 9.4818 11.8605 9.99555 11.8605H10.0039C10.5177 11.8605 10.9341 11.444 10.9341 10.9302C10.9341 10.4165 10.5177 10 10.0039 10H9.99555Z" fill="#161616"/>
<path d="M13.7123 10C13.1986 10 12.7821 10.4165 12.7821 10.9302C12.7821 11.444 13.1986 11.8605 13.7123 11.8605H13.7207C14.2344 11.8605 14.6509 11.444 14.6509 10.9302C14.6509 10.4165 14.2344 10 13.7207 10H13.7123Z" fill="#161616"/>
<path d="M6.2788 13.7209C5.76504 13.7209 5.34856 14.1374 5.34856 14.6512C5.34856 15.1649 5.76504 15.5814 6.2788 15.5814H6.28714C6.8009 15.5814 7.21738 15.1649 7.21738 14.6512C7.21738 14.1374 6.8009 13.7209 6.28714 13.7209H6.2788Z" fill="#161616"/>
<path d="M9.99555 13.7209C9.4818 13.7209 9.06532 14.1374 9.06532 14.6512C9.06532 15.1649 9.4818 15.5814 9.99555 15.5814H10.0039C10.5177 15.5814 10.9341 15.1649 10.9341 14.6512C10.9341 14.1374 10.5177 13.7209 10.0039 13.7209H9.99555Z" fill="#161616"/>
<path fill-rule="evenodd" clip-rule="evenodd" d="M5.11601 0.697674C5.11601 0.312359 4.80365 0 4.41833 0C4.03302 0 3.72066 0.312359 3.72066 0.697674V1.28818C2.97205 1.50035 2.34066 1.84521 1.81512 2.41336C1.09148 3.19567 0.76982 4.18411 0.615773 5.4228C0.464826 6.63656 0.464834 8.19206 0.464844 10.1768V10.7535C0.464834 12.7382 0.464826 14.2937 0.615773 15.5074C0.76982 16.7461 1.09148 17.7346 1.81512 18.5169C2.54591 19.3069 3.48137 19.6652 4.65209 19.8353C5.78514 20 7.23279 20 9.05949 20H10.94C12.7667 20 14.2143 20 15.3474 19.8353C16.5181 19.6652 17.4535 19.3069 18.1843 18.5169C18.908 17.7346 19.2296 16.7461 19.3837 15.5074C19.5346 14.2937 19.5346 12.7382 19.5346 10.7534V10.1768C19.5346 8.19208 19.5346 6.63657 19.3837 5.4228C19.2296 4.18411 18.908 3.19567 18.1843 2.41336C17.6588 1.84521 17.0274 1.50035 16.2788 1.28818V0.697674C16.2788 0.312359 15.9664 0 15.5811 0C15.1958 0 14.8834 0.312359 14.8834 0.697674V1.03804C13.8266 0.930205 12.5262 0.930218 10.94 0.930233H9.05949C7.47324 0.930218 6.17281 0.930205 5.11601 1.03804V0.697674ZM3.74726 2.74962C3.83048 3.04184 4.09942 3.25581 4.41833 3.25581C4.80365 3.25581 5.11601 2.94345 5.11601 2.55814V2.44147C6.10299 2.32703 7.37868 2.32558 9.11601 2.32558H10.8834C12.6208 2.32558 13.8965 2.32703 14.8834 2.44147V2.55814C14.8834 2.94345 15.1958 3.25581 15.5811 3.25581C15.9 3.25581 16.169 3.04184 16.2522 2.74962C16.6311 2.90038 16.9188 3.10005 17.16 3.36086C17.6001 3.83664 17.8606 4.48919 17.998 5.58732C17.9681 5.58341 17.9377 5.58139 17.9067 5.58139H2.09275C2.06179 5.58139 2.03131 5.58341 2.00141 5.58732C2.13881 4.48919 2.39934 3.83664 2.83944 3.36086C3.08069 3.10005 3.36837 2.90038 3.74726 2.74962ZM1.89752 6.94906C1.86071 7.84479 1.86019 8.91752 1.86019 10.2263V10.704C1.86019 12.7489 1.86146 14.2176 2.00045 15.3352C2.1376 16.438 2.39832 17.0925 2.83944 17.5694C3.27341 18.0385 3.85766 18.3099 4.85279 18.4545C5.87392 18.6029 7.22008 18.6046 9.11601 18.6046H10.8834C12.7794 18.6046 14.1255 18.6029 15.1467 18.4545C16.1418 18.3099 16.726 18.0385 17.16 17.5694C17.6011 17.0925 17.8619 16.438 17.999 15.3352C18.138 14.2176 18.1393 12.7489 18.1393 10.704V10.2263C18.1393 8.91752 18.1387 7.84479 18.1019 6.94906C18.04 6.96708 17.9745 6.97674 17.9067 6.97674H2.09275C2.02498 6.97674 1.95947 6.96708 1.89752 6.94906Z" fill="#161616"/>
</g>
<defs>
<clipPath id="clip0_5727_33079">
<rect width="20" height="20" fill="white"/>
</clipPath>
</defs>
</svg>
