<svg width="20" height="21" viewBox="0 0 20 21" fill="none" xmlns="http://www.w3.org/2000/svg">
<path fill-rule="evenodd" clip-rule="evenodd" d="M10 19.4577C5.05252 19.4577 1.04169 15.4468 1.04169 10.4993C1.04169 5.55185 5.05252 1.54102 10 1.54102C14.9475 1.54102 18.9584 5.55185 18.9584 10.4993C18.9584 15.4468 14.9475 19.4577 10 19.4577ZM13.7334 8.31433C14.1375 8.0935 14.2859 7.58687 14.065 7.1827C13.8442 6.77937 13.3375 6.63101 12.9333 6.85185C11.41 7.68518 10.15 9.29352 9.30251 10.591C8.98918 11.0702 8.72169 11.5244 8.50753 11.9085C8.30836 11.7152 8.11085 11.5469 7.93335 11.4069C7.70252 11.2244 7.4942 11.0802 7.34253 10.9802L7.08002 10.8177C6.68002 10.5893 6.17086 10.7285 5.94336 11.1285C5.71503 11.5277 5.85419 12.0368 6.25336 12.2652L6.42918 12.3743C6.54835 12.4527 6.71502 12.5677 6.90002 12.7144C7.28169 13.016 7.69251 13.411 7.95168 13.8444C8.11085 14.1094 8.40336 14.2652 8.71252 14.2485C9.02169 14.231 9.29586 14.0444 9.42503 13.7627L9.50669 13.5918C9.56336 13.476 9.64753 13.3077 9.75753 13.0994C9.97753 12.6835 10.2984 12.1135 10.6975 11.5018C11.5175 10.2477 12.5909 8.93933 13.7334 8.31433Z" fill="#1B8354"/>
</svg>
