<svg width="20" height="20" viewBox="0 0 20 20" fill="none" xmlns="http://www.w3.org/2000/svg">
<path fill-rule="evenodd" clip-rule="evenodd" d="M7.95775 1.0415H7.87623C6.54101 1.04149 5.48322 1.04149 4.64637 1.1404C3.78723 1.24196 3.07998 1.45516 2.48919 1.94C2.28876 2.10449 2.10498 2.28827 1.94049 2.4887C1.45565 3.07949 1.24245 3.78674 1.14089 4.64588C1.04197 5.48273 1.04198 6.54053 1.04199 7.87575V7.95726C1.04198 9.29248 1.04197 10.3503 1.14089 11.1871C1.24245 12.0463 1.45564 12.7535 1.94049 13.3443C2.10498 13.5447 2.28876 13.7285 2.48919 13.893C3.04908 14.3525 3.71357 14.568 4.51319 14.6758C5.16224 14.7632 5.94353 14.7844 6.88425 14.7897C6.8951 15.3081 6.91915 15.7634 6.97243 16.1596C7.07328 16.9097 7.28902 17.5413 7.79062 18.0429C8.29221 18.5445 8.92378 18.7602 9.67387 18.8611C10.3963 18.9582 11.3149 18.9582 12.4546 18.9582H13.3794C14.519 18.9582 15.4376 18.9582 16.1601 18.8611C16.9102 18.7602 17.5418 18.5445 18.0434 18.0429C18.545 17.5413 18.7607 16.9097 18.8616 16.1596C18.9587 15.4372 18.9587 14.5186 18.9587 13.3789V12.4541C18.9587 11.3145 18.9587 10.3959 18.8616 9.67338C18.7607 8.92329 18.545 8.29173 18.0434 7.79013C17.5418 7.28853 16.9102 7.07279 16.1601 6.97194C15.7639 6.91866 15.3086 6.89462 14.7902 6.88376C14.7849 5.94304 14.7637 5.16176 14.6763 4.5127C14.5685 3.71308 14.353 3.04859 13.8935 2.4887C13.729 2.28827 13.5452 2.10449 13.3448 1.94C12.754 1.45516 12.0468 1.24196 11.1876 1.1404C10.3508 1.04149 9.29297 1.04149 7.95775 1.0415ZM13.5401 6.87485C13.5345 5.94969 13.5137 5.24554 13.4375 4.67964C13.3468 4.00649 13.185 3.59578 12.9272 3.28169C12.8147 3.14456 12.6889 3.01881 12.5518 2.90627C12.2206 2.63448 11.782 2.46937 11.0409 2.38176C10.286 2.29253 9.30209 2.2915 7.91699 2.2915C6.5319 2.2915 5.54803 2.29253 4.7931 2.38176C4.05197 2.46937 3.61335 2.63448 3.28218 2.90627C3.14504 3.01881 3.0193 3.14456 2.90676 3.28169C2.63497 3.61286 2.46986 4.05148 2.38225 4.79261C2.29302 5.54754 2.29199 6.53141 2.29199 7.9165C2.29199 9.3016 2.29302 10.2855 2.38225 11.0404C2.46985 11.7815 2.63497 12.2201 2.90676 12.5513C3.0193 12.6885 3.14504 12.8142 3.28218 12.9267C3.59627 13.1845 4.00698 13.3463 4.68012 13.437C5.24603 13.5132 5.95018 13.534 6.87533 13.5396C6.87532 13.4865 6.87533 13.433 6.87533 13.3789V12.4541C6.87531 11.3145 6.8753 10.3959 6.97243 9.67338C7.07328 8.92329 7.28902 8.29173 7.79062 7.79013C8.29222 7.28853 8.92378 7.07279 9.67387 6.97194C10.3963 6.87481 11.3149 6.87482 12.4546 6.87484H13.3794C13.4334 6.87484 13.487 6.87484 13.5401 6.87485ZM8.6745 8.67401C8.90514 8.44338 9.22895 8.293 9.84043 8.21079C10.4699 8.12616 11.3041 8.12484 12.5003 8.12484H13.3337C14.5298 8.12484 15.3641 8.12617 15.9936 8.21079C16.605 8.29301 16.9288 8.44338 17.1595 8.67401C17.3901 8.90465 17.5405 9.22846 17.6227 9.83994C17.7073 10.4694 17.7087 11.3037 17.7087 12.4998V13.3332C17.7087 14.5294 17.7073 15.3636 17.6227 15.9931C17.5405 16.6045 17.3901 16.9284 17.1595 17.159C16.9288 17.3896 16.605 17.54 15.9936 17.6222C15.3641 17.7068 14.5298 17.7082 13.3337 17.7082H12.5003C11.3041 17.7082 10.4699 17.7068 9.84043 17.6222C9.22895 17.54 8.90514 17.3896 8.6745 17.159C8.44386 16.9284 8.29349 16.6045 8.21128 15.9931C8.12665 15.3636 8.12533 14.5293 8.12533 13.3332V12.4998C8.12533 11.3037 8.12665 10.4694 8.21128 9.83994C8.29349 9.22846 8.44387 8.90465 8.6745 8.67401Z" fill="#29912D"/>
</svg>
