<svg width="16" height="16" viewBox="0 0 16 16" fill="none" xmlns="http://www.w3.org/2000/svg">
<path fill-rule="evenodd" clip-rule="evenodd" d="M2.98019 2.98043C3.17545 2.78517 3.49203 2.78517 3.68729 2.98043L8.00041 7.29354L12.3135 2.98043C12.5088 2.78517 12.8254 2.78517 13.0206 2.98043C13.2159 3.17569 13.2159 3.49228 13.0206 3.68754L8.70751 8.00065L13.0206 12.3138C13.2159 12.509 13.2159 12.8256 13.0206 13.0209C12.8254 13.2161 12.5088 13.2161 12.3135 13.0209L8.00041 8.70776L3.68729 13.0209C3.49203 13.2161 3.17545 13.2161 2.98019 13.0209C2.78492 12.8256 2.78492 12.509 2.98019 12.3138L7.2933 8.00065L2.98019 3.68754C2.78492 3.49228 2.78492 3.17569 2.98019 2.98043Z" fill="#D92D20"/>
</svg>
