<svg width="53" height="58" viewBox="0 0 53 58" fill="none" xmlns="http://www.w3.org/2000/svg">
<path d="M51.5391 56.4921L2.0564 1.47656L19.0564 1.4819L51.5448 38.4921L51.5391 56.4921Z" fill="#C73A3A" stroke="#C73A3A"/>
<path d="M26.5589 26.3622L21.1742 20.4524L22.6593 20.256L25.1445 22.9836L27.2512 21.0641C27.9719 20.4074 27.9842 19.6859 27.2871 18.9209C26.7112 18.2889 25.9351 18.0829 24.9586 18.303L26.1561 17.2119C27.0431 17.3168 27.7195 17.6137 28.1741 18.1127C28.7702 18.7669 29.0676 19.4496 29.0977 20.1731C29.1277 20.8965 28.855 21.5103 28.2784 22.0356L26.1163 24.0056L27.4903 25.5135L26.5589 26.3622ZM36.9248 24.5541C36.6143 24.837 36.1058 24.8134 35.8229 24.5029C35.54 24.1925 35.5637 23.6839 35.8741 23.401C36.1846 23.1181 36.6821 23.1519 36.9649 23.4624C37.2478 23.7728 37.2352 24.2713 36.9248 24.5541ZM35.571 23.0684C35.2606 23.3513 34.752 23.3276 34.459 23.0061C34.1762 22.6956 34.1998 22.187 34.5103 21.9042C34.8207 21.6213 35.3182 21.6551 35.6011 21.9655C35.8941 22.2871 35.8815 22.7855 35.571 23.0684ZM31.9773 32.3089L29.785 29.9029C29.593 29.6922 29.4132 29.4502 29.2555 29.1881C29.0192 29.0178 28.805 28.8274 28.5929 28.5945L26.3602 26.1441L27.2694 25.3157L28.7545 26.9456C28.8392 26.0364 29.1694 25.3297 29.7026 24.8236C30.3809 24.165 31.0888 23.7838 31.8152 23.6901C32.701 23.5933 33.4924 23.9274 34.1895 24.6924C34.8967 25.4686 35.1559 26.2876 34.9672 27.1495C34.8066 27.8641 34.3714 28.5446 33.6628 29.17C33.0993 29.6429 32.3549 29.8949 31.4418 29.895L32.8864 31.4805L31.9773 32.3089ZM33.2581 25.541C32.6015 24.8203 31.5977 24.9436 30.8437 25.6305C30.4556 25.9841 30.1816 26.3961 30.0318 26.8776C29.868 27.4327 29.8756 27.9534 30.087 28.4304C30.5525 28.6962 31.0702 28.7522 31.628 28.6294C32.1213 28.525 32.5671 28.3015 32.9551 27.9479C33.7091 27.2609 33.9451 26.295 33.2581 25.541ZM37.1927 38.033L31.7979 32.1121L32.7293 31.2635L33.8507 32.4942L35.7467 30.7667C36.3565 30.211 37.0595 29.9358 37.8233 29.9501C38.6084 29.9653 39.3241 30.3278 39.9606 31.0263C40.5061 31.625 40.7592 32.3482 40.7309 33.1857L39.304 33.0451C39.3831 32.486 39.2655 32.0452 38.9625 31.7125C38.3563 31.0473 37.5158 31.0825 36.8838 31.6584L34.8104 33.5476L37.4068 36.3971L37.1927 38.033Z" fill="white"/>
</svg>
