<svg width="25" height="19" viewBox="0 0 25 19" fill="none" xmlns="http://www.w3.org/2000/svg">
<rect x="0.329102" y="0.929688" width="24" height="17.1429" rx="2" fill="white"/>
<mask id="mask0_6965_30361" style="mask-type:luminance" maskUnits="userSpaceOnUse" x="0" y="0" width="25" height="19">
<rect x="0.329102" y="0.929688" width="24" height="17.1429" rx="2" fill="white"/>
</mask>
<g mask="url(#mask0_6965_30361)">
<path fill-rule="evenodd" clip-rule="evenodd" d="M24.3291 0.929688H0.329102V2.07254H24.3291V0.929688ZM24.3291 3.2154H0.329102V4.35826H24.3291V3.2154ZM0.329102 5.50112H24.3291V6.64397H0.329102V5.50112ZM24.3291 7.78683H0.329102V8.92969H24.3291V7.78683ZM0.329102 10.0725H24.3291V11.2154H0.329102V10.0725ZM24.3291 12.3583H0.329102V13.5011H24.3291V12.3583ZM0.329102 14.644H24.3291V15.7868H0.329102V14.644ZM24.3291 16.9297H0.329102V18.0725H24.3291V16.9297Z" fill="#D02F44"/>
<rect x="0.329102" y="0.929688" width="10.2857" height="8" fill="#46467F"/>
<g filter="url(#filter0_d_6965_30361)">
<path fill-rule="evenodd" clip-rule="evenodd" d="M2.61503 2.64369C2.61503 2.95929 2.35919 3.21512 2.0436 3.21512C1.72801 3.21512 1.47217 2.95929 1.47217 2.64369C1.47217 2.3281 1.72801 2.07227 2.0436 2.07227C2.35919 2.07227 2.61503 2.3281 2.61503 2.64369ZM4.90074 2.64369C4.90074 2.95929 4.6449 3.21512 4.32931 3.21512C4.01372 3.21512 3.75788 2.95929 3.75788 2.64369C3.75788 2.3281 4.01372 2.07227 4.32931 2.07227C4.6449 2.07227 4.90074 2.3281 4.90074 2.64369ZM6.61503 3.21512C6.93062 3.21512 7.18645 2.95929 7.18645 2.64369C7.18645 2.3281 6.93062 2.07227 6.61503 2.07227C6.29943 2.07227 6.0436 2.3281 6.0436 2.64369C6.0436 2.95929 6.29943 3.21512 6.61503 3.21512ZM9.47217 2.64369C9.47217 2.95929 9.21633 3.21512 8.90074 3.21512C8.58515 3.21512 8.32931 2.95929 8.32931 2.64369C8.32931 2.3281 8.58515 2.07227 8.90074 2.07227C9.21633 2.07227 9.47217 2.3281 9.47217 2.64369ZM3.18645 4.35798C3.50205 4.35798 3.75788 4.10214 3.75788 3.78655C3.75788 3.47096 3.50205 3.21512 3.18645 3.21512C2.87086 3.21512 2.61503 3.47096 2.61503 3.78655C2.61503 4.10214 2.87086 4.35798 3.18645 4.35798ZM6.0436 3.78655C6.0436 4.10214 5.78776 4.35798 5.47217 4.35798C5.15658 4.35798 4.90074 4.10214 4.90074 3.78655C4.90074 3.47096 5.15658 3.21512 5.47217 3.21512C5.78776 3.21512 6.0436 3.47096 6.0436 3.78655ZM7.75788 4.35798C8.07347 4.35798 8.32931 4.10214 8.32931 3.78655C8.32931 3.47096 8.07347 3.21512 7.75788 3.21512C7.44229 3.21512 7.18645 3.47096 7.18645 3.78655C7.18645 4.10214 7.44229 4.35798 7.75788 4.35798ZM9.47217 4.92941C9.47217 5.245 9.21633 5.50084 8.90074 5.50084C8.58515 5.50084 8.32931 5.245 8.32931 4.92941C8.32931 4.61382 8.58515 4.35798 8.90074 4.35798C9.21633 4.35798 9.47217 4.61382 9.47217 4.92941ZM6.61503 5.50084C6.93062 5.50084 7.18645 5.245 7.18645 4.92941C7.18645 4.61382 6.93062 4.35798 6.61503 4.35798C6.29943 4.35798 6.0436 4.61382 6.0436 4.92941C6.0436 5.245 6.29943 5.50084 6.61503 5.50084ZM4.90074 4.92941C4.90074 5.245 4.6449 5.50084 4.32931 5.50084C4.01372 5.50084 3.75788 5.245 3.75788 4.92941C3.75788 4.61382 4.01372 4.35798 4.32931 4.35798C4.6449 4.35798 4.90074 4.61382 4.90074 4.92941ZM2.0436 5.50084C2.35919 5.50084 2.61503 5.245 2.61503 4.92941C2.61503 4.61382 2.35919 4.35798 2.0436 4.35798C1.72801 4.35798 1.47217 4.61382 1.47217 4.92941C1.47217 5.245 1.72801 5.50084 2.0436 5.50084ZM3.75788 6.07227C3.75788 6.38786 3.50205 6.64369 3.18645 6.64369C2.87086 6.64369 2.61503 6.38786 2.61503 6.07227C2.61503 5.75667 2.87086 5.50084 3.18645 5.50084C3.50205 5.50084 3.75788 5.75667 3.75788 6.07227ZM5.47217 6.64369C5.78776 6.64369 6.0436 6.38786 6.0436 6.07227C6.0436 5.75667 5.78776 5.50084 5.47217 5.50084C5.15658 5.50084 4.90074 5.75667 4.90074 6.07227C4.90074 6.38786 5.15658 6.64369 5.47217 6.64369ZM8.32931 6.07227C8.32931 6.38786 8.07347 6.64369 7.75788 6.64369C7.44229 6.64369 7.18645 6.38786 7.18645 6.07227C7.18645 5.75667 7.44229 5.50084 7.75788 5.50084C8.07347 5.50084 8.32931 5.75667 8.32931 6.07227ZM8.90074 7.78655C9.21633 7.78655 9.47217 7.53071 9.47217 7.21512C9.47217 6.89953 9.21633 6.64369 8.90074 6.64369C8.58515 6.64369 8.32931 6.89953 8.32931 7.21512C8.32931 7.53071 8.58515 7.78655 8.90074 7.78655ZM7.18645 7.21512C7.18645 7.53071 6.93062 7.78655 6.61503 7.78655C6.29943 7.78655 6.0436 7.53071 6.0436 7.21512C6.0436 6.89953 6.29943 6.64369 6.61503 6.64369C6.93062 6.64369 7.18645 6.89953 7.18645 7.21512ZM4.32931 7.78655C4.6449 7.78655 4.90074 7.53071 4.90074 7.21512C4.90074 6.89953 4.6449 6.64369 4.32931 6.64369C4.01372 6.64369 3.75788 6.89953 3.75788 7.21512C3.75788 7.53071 4.01372 7.78655 4.32931 7.78655ZM2.61503 7.21512C2.61503 7.53071 2.35919 7.78655 2.0436 7.78655C1.72801 7.78655 1.47217 7.53071 1.47217 7.21512C1.47217 6.89953 1.72801 6.64369 2.0436 6.64369C2.35919 6.64369 2.61503 6.89953 2.61503 7.21512Z" fill="url(#paint0_linear_6965_30361)"/>
</g>
</g>
<defs>
<filter id="filter0_d_6965_30361" x="1.47217" y="2.07227" width="8" height="6.71387" filterUnits="userSpaceOnUse" color-interpolation-filters="sRGB">
<feFlood flood-opacity="0" result="BackgroundImageFix"/>
<feColorMatrix in="SourceAlpha" type="matrix" values="0 0 0 0 0 0 0 0 0 0 0 0 0 0 0 0 0 0 127 0" result="hardAlpha"/>
<feOffset dy="1"/>
<feColorMatrix type="matrix" values="0 0 0 0 0 0 0 0 0 0 0 0 0 0 0 0 0 0 0.06 0"/>
<feBlend mode="normal" in2="BackgroundImageFix" result="effect1_dropShadow_6965_30361"/>
<feBlend mode="normal" in="SourceGraphic" in2="effect1_dropShadow_6965_30361" result="shape"/>
</filter>
<linearGradient id="paint0_linear_6965_30361" x1="1.47217" y1="2.07227" x2="1.47217" y2="7.78655" gradientUnits="userSpaceOnUse">
<stop stop-color="white"/>
<stop offset="1" stop-color="#F0F0F0"/>
</linearGradient>
</defs>
</svg>
