<svg width="20" height="20" viewBox="0 0 20 20" fill="none" xmlns="http://www.w3.org/2000/svg">
<path fill-rule="evenodd" clip-rule="evenodd" d="M9.99998 19.1673C15.0626 19.1673 19.1666 15.0633 19.1666 10.0007C19.1666 4.93804 15.0626 0.833984 9.99998 0.833984C4.93737 0.833984 0.833313 4.93804 0.833313 10.0007C0.833313 15.0633 4.93737 19.1673 9.99998 19.1673Z" fill="white"/>
<path fill-rule="evenodd" clip-rule="evenodd" d="M9.99998 19.1673C15.0626 19.1673 19.1666 15.0633 19.1666 10.0007C19.1666 4.93804 15.0626 0.833984 9.99998 0.833984C4.93737 0.833984 0.833313 4.93804 0.833313 10.0007C0.833313 15.0633 4.93737 19.1673 9.99998 19.1673ZM9.99998 5.83398C9.53974 5.83398 9.16665 6.20708 9.16665 6.66732V10.0007C9.16665 10.4609 9.53974 10.834 9.99998 10.834C10.4602 10.834 10.8333 10.4609 10.8333 10.0007V6.66732C10.8333 6.20708 10.4602 5.83398 9.99998 5.83398ZM9.99998 12.5007C9.53974 12.5007 9.16665 12.8737 9.16665 13.334C9.16665 13.7942 9.53974 14.1673 9.99998 14.1673C10.4602 14.1673 10.8333 13.7942 10.8333 13.334C10.8333 12.8737 10.4602 12.5007 9.99998 12.5007Z" fill="#B42318"/>
</svg>
