<svg width="16" height="16" viewBox="0 0 16 16" fill="none" xmlns="http://www.w3.org/2000/svg">
<path d="M14.294 5.66706L14.2933 5.66626L14.2885 5.66095C14.2838 5.65587 14.2764 5.64777 14.2662 5.63685C14.2458 5.61499 14.2145 5.58185 14.1728 5.53903C14.0893 5.45336 13.9645 5.32918 13.8027 5.17931C13.4786 4.8791 13.009 4.47832 12.4296 4.07806C11.2611 3.27098 9.69511 2.5 7.99968 2.5C6.30424 2.5 4.73823 3.27098 3.5698 4.07806C2.99035 4.47832 2.52077 4.8791 2.1967 5.17931C2.0349 5.32918 1.91004 5.45336 1.82658 5.53903C1.78486 5.58185 1.75353 5.61499 1.73316 5.63685C1.72297 5.64777 1.71553 5.65587 1.71089 5.66095L1.70606 5.66626L1.7055 5.66687C1.52125 5.8723 1.20509 5.88994 0.999472 5.70583C0.79375 5.52162 0.776311 5.20551 0.96052 4.99979C0.960469 4.99986 0.961048 5.00039 1.00691 5.04143C1.05341 5.08303 1.14643 5.16626 1.3325 5.33288L0.96052 4.99979L0.96187 4.99829L0.964318 4.99558L0.972481 4.9866C0.979368 4.97906 0.989133 4.96844 1.00171 4.95495C1.02685 4.92798 1.06325 4.88951 1.11033 4.84118C1.20448 4.74455 1.34157 4.60832 1.51713 4.44569C1.86775 4.1209 2.37449 3.68835 3.00146 3.25527C4.2459 2.39569 6.01322 1.5 7.99968 1.5C9.98614 1.5 11.7535 2.39569 12.9979 3.25527C13.6249 3.68835 14.1316 4.1209 14.4822 4.44569C14.6578 4.60832 14.7949 4.74455 14.889 4.84118C14.9361 4.88951 14.9725 4.92798 14.9977 4.95495C15.0102 4.96844 15.02 4.97906 15.0269 4.9866L15.035 4.99558L15.0375 4.99829L15.0383 4.99919C15.0384 4.99933 15.0388 4.99979 14.6663 5.33333L15.0388 4.99979C15.223 5.20551 15.2056 5.52162 14.9999 5.70583C14.7942 5.88998 14.4783 5.87261 14.294 5.66706Z" fill="white"/>
<path fill-rule="evenodd" clip-rule="evenodd" d="M7.99968 11.8333C6.61897 11.8333 5.49968 10.714 5.49968 9.33333C5.49968 7.95262 6.61897 6.83333 7.99968 6.83333C9.3804 6.83333 10.4997 7.95262 10.4997 9.33333C10.4997 10.714 9.3804 11.8333 7.99968 11.8333ZM6.49968 9.33333C6.49968 10.1618 7.17126 10.8333 7.99968 10.8333C8.82811 10.8333 9.49968 10.1618 9.49968 9.33333C9.49968 8.50491 8.82811 7.83333 7.99968 7.83333C7.17126 7.83333 6.49968 8.50491 6.49968 9.33333Z" fill="white"/>
<path fill-rule="evenodd" clip-rule="evenodd" d="M3.67989 5.80866C4.81699 4.92094 6.28598 4.16667 7.99968 4.16667C9.71339 4.16667 11.1824 4.92094 12.3195 5.80866C13.4576 6.69717 14.2988 7.74649 14.7694 8.40635L14.8049 8.45582C14.9737 8.69054 15.1664 8.95853 15.1664 9.33333C15.1664 9.70814 14.9737 9.97612 14.8049 10.2108L14.7694 10.2603C14.2988 10.9202 13.4576 11.9695 12.3195 12.858C11.1824 13.7457 9.71339 14.5 7.99968 14.5C6.28598 14.5 4.81699 13.7457 3.67989 12.858C2.54177 11.9695 1.70053 10.9202 1.22996 10.2603L1.19448 10.2108C1.02571 9.97612 0.833017 9.70814 0.833017 9.33333C0.833017 8.95853 1.02571 8.69054 1.19448 8.45582L1.22996 8.40635C1.70053 7.74649 2.54177 6.69717 3.67989 5.80866ZM4.29526 6.5969C3.26127 7.40412 2.48427 8.36979 2.04413 8.98697C1.93525 9.13965 1.88343 9.2142 1.85254 9.27355C1.8329 9.31127 1.83296 9.32161 1.83301 9.33174L1.83302 9.33333L1.83301 9.33493C1.83296 9.34505 1.8329 9.35539 1.85254 9.39312C1.88343 9.45247 1.93525 9.52702 2.04413 9.6797C2.48427 10.2969 3.26127 11.2625 4.29526 12.0698C5.33027 12.8778 6.58724 13.5 7.99968 13.5C9.41212 13.5 10.6691 12.8778 11.7041 12.0698C12.7381 11.2625 13.5151 10.2969 13.9552 9.6797C14.0641 9.52702 14.1159 9.45247 14.1468 9.39312C14.1665 9.35539 14.1664 9.34505 14.1664 9.33493L14.1664 9.33333L14.1664 9.33174C14.1664 9.32161 14.1665 9.31127 14.1468 9.27355C14.1159 9.2142 14.0641 9.13965 13.9552 8.98697C13.5151 8.36979 12.7381 7.40412 11.7041 6.5969C10.6691 5.78888 9.41212 5.16667 7.99968 5.16667C6.58724 5.16667 5.33027 5.78888 4.29526 6.5969Z" fill="white"/>
</svg>
