<svg width="16" height="16" viewBox="0 0 16 16" fill="none" xmlns="http://www.w3.org/2000/svg">
<path fill-rule="evenodd" clip-rule="evenodd" d="M9.0302 3.19816C8.79895 3.16707 8.4851 3.16601 7.99956 3.16601L1.33289 3.16601C1.05675 3.16601 0.832888 2.94216 0.832889 2.66601C0.832889 2.38987 1.05675 2.16601 1.33289 2.16601L8.03247 2.16601C8.4757 2.16599 8.85763 2.16597 9.16345 2.20708C9.49121 2.25115 9.80539 2.35052 10.0602 2.60535C10.315 2.86018 10.4144 3.17436 10.4585 3.50212C10.4723 3.60473 10.4814 3.71592 10.4875 3.83511C13.0853 3.91676 15.1662 6.04838 15.1662 8.66601L15.1662 10.5346C15.1663 10.6548 15.1663 10.7582 15.1547 10.8515C15.0698 11.5329 14.5331 12.0696 13.8518 12.1545C13.7584 12.1661 13.655 12.1661 13.5348 12.166L13.4416 12.166C13.2159 13.1216 12.3574 13.8327 11.3329 13.8327C10.3084 13.8327 9.44992 13.1216 9.2242 12.166L6.77491 12.166C6.54919 13.1216 5.69075 13.8327 4.66622 13.8327C3.64078 13.8327 2.78172 13.1203 2.55693 12.1634C2.43587 12.161 2.32485 12.1563 2.22446 12.1472C2.005 12.1273 1.7877 12.0833 1.58289 11.9651C1.35486 11.8334 1.1655 11.644 1.03385 11.416C0.915605 11.2112 0.871568 10.9939 0.851678 10.7744C0.832869 10.5669 0.832878 10.314 0.832889 10.0209L0.832889 8.49935C0.832889 8.2232 1.05675 7.99935 1.33289 7.99935C1.60903 7.99935 1.83289 8.2232 1.83289 8.49935L1.83289 9.99935C1.83289 10.3201 1.83337 10.5272 1.8476 10.6842C1.8612 10.8343 1.88415 10.8888 1.89988 10.916C1.94376 10.992 2.00688 11.0551 2.08289 11.099C2.11013 11.1148 2.16462 11.1377 2.31472 11.1513C2.38421 11.1576 2.46353 11.1612 2.55818 11.1633C2.7849 10.2091 3.64267 9.49934 4.66622 9.49934C5.69075 9.49934 6.54919 10.2104 6.77491 11.166L9.2242 11.166C9.28296 10.9172 9.38461 10.6851 9.5209 10.4777C9.50702 10.4318 9.49956 10.3831 9.49956 10.3327L9.49956 4.66601C9.49956 4.18047 9.4985 3.86662 9.4674 3.63536C9.43825 3.41849 9.39117 3.35052 9.35311 3.31246C9.31505 3.2744 9.24707 3.22732 9.0302 3.19816ZM13.5083 11.166L13.4416 11.166C13.2159 10.2104 12.3574 9.49934 11.3329 9.49934C11.0376 9.49934 10.7561 9.55842 10.4996 9.6654L10.4996 4.83624C12.5393 4.9235 14.1662 6.60476 14.1662 8.66601L14.1662 10.5081C14.1662 10.6698 14.1653 10.7048 14.1624 10.7279C14.1341 10.955 13.9552 11.1339 13.7281 11.1622C13.705 11.165 13.67 11.166 13.5083 11.166ZM11.3329 12.8327C10.6889 12.8327 10.1667 12.3109 10.1662 11.667L10.1662 11.666C10.1662 11.0217 10.6886 10.4993 11.3329 10.4993C11.9772 10.4993 12.4996 11.0217 12.4996 11.666C12.4996 12.3103 11.9772 12.8327 11.3329 12.8327ZM4.66622 12.8327C4.02217 12.8327 3.5 12.3108 3.49956 11.6668L3.49956 11.666C3.49956 11.0217 4.02189 10.4993 4.66622 10.4993C5.31055 10.4993 5.83289 11.0217 5.83289 11.666C5.83289 12.3103 5.31055 12.8327 4.66622 12.8327Z" fill="#0D121C"/>
<path d="M1.33289 4.16601C1.05675 4.16601 0.832888 4.38987 0.832889 4.66601C0.832889 4.94215 1.05675 5.16601 1.33289 5.16601L5.33289 5.16601C5.60903 5.16601 5.83289 4.94215 5.83289 4.66601C5.83289 4.38987 5.60903 4.16601 5.33289 4.16601L1.33289 4.16601Z" fill="#0D121C"/>
<path d="M1.33289 6.16601C1.05675 6.16601 0.832889 6.38987 0.832889 6.66601C0.83289 6.94215 1.05675 7.16601 1.33289 7.16601L3.99956 7.16601C4.2757 7.16601 4.49956 6.94215 4.49956 6.66601C4.49956 6.38987 4.2757 6.16601 3.99956 6.16601L1.33289 6.16601Z" fill="#0D121C"/>
</svg>
