<svg width="40" height="41" viewBox="0 0 40 41" fill="none" xmlns="http://www.w3.org/2000/svg">
<path d="M25.0833 8.83268C26.7112 9.15029 28.2073 9.94644 29.3801 11.1192C30.5529 12.292 31.349 13.7881 31.6666 15.416M25.0833 2.16602C28.4654 2.54174 31.6193 4.05631 34.027 6.46103C36.4348 8.86575 37.9533 12.0177 38.3333 15.3993M36.6666 28.6993V33.6993C36.6685 34.1635 36.5734 34.623 36.3875 35.0483C36.2015 35.4736 35.9288 35.8553 35.5868 36.1691C35.2447 36.4829 34.8409 36.7218 34.4012 36.8705C33.9615 37.0192 33.4956 37.0745 33.0333 37.0327C27.9047 36.4754 22.9783 34.7229 18.65 31.916C14.623 29.3571 11.2089 25.943 8.64997 21.916C5.83327 17.568 4.08037 12.6177 3.5333 7.46602C3.49165 7.00513 3.54643 6.54062 3.69414 6.10206C3.84185 5.6635 4.07925 5.2605 4.39125 4.91872C4.70324 4.57694 5.08298 4.30386 5.50629 4.11689C5.9296 3.92991 6.3872 3.83312 6.84997 3.83268H11.85C12.6588 3.82472 13.443 4.11115 14.0562 4.63857C14.6695 5.16599 15.0701 5.89843 15.1833 6.69935C15.3943 8.29946 15.7857 9.87056 16.35 11.3827C16.5742 11.9792 16.6227 12.6275 16.4898 13.2508C16.3569 13.8741 16.0481 14.4462 15.6 14.8993L13.4833 17.016C15.8559 21.1886 19.3107 24.6434 23.4833 27.016L25.6 24.8993C26.0531 24.4512 26.6252 24.1424 27.2485 24.0095C27.8718 23.8766 28.5201 23.9251 29.1166 24.1493C30.6288 24.7136 32.1999 25.105 33.8 25.316C34.6096 25.4302 35.349 25.838 35.8775 26.4618C36.4061 27.0857 36.6869 27.882 36.6666 28.6993Z" stroke="#1B8354" stroke-width="2" stroke-linecap="round" stroke-linejoin="round"/>
</svg>
