<svg width="40" height="35" viewBox="0 0 40 35" fill="none" xmlns="http://www.w3.org/2000/svg">
<g clip-path="url(#clip0_6135_59846)">
<path d="M23.1543 4.31425V4.11695C23.1543 2.37421 21.734 0.993164 20.0164 0.993164C18.2658 0.993164 16.8455 2.40709 16.8455 4.11695V4.31425" stroke="#0A7A58" stroke-width="1.2" stroke-miterlimit="10"/>
<path d="M13.3113 5.20227V11.8116C13.3113 12.4363 13.8067 12.9295 14.4343 12.9295H14.8967C15.4583 12.9295 15.9537 12.5021 16.0198 11.9431L16.0528 11.8116C16.3171 9.83863 18.0016 8.35894 19.9835 8.35894C21.9653 8.35894 23.6829 9.83863 23.9141 11.8116L23.9471 11.9431C24.0132 12.5021 24.5086 12.9295 25.0702 12.9295C25.6977 12.9295 26.1932 12.4363 26.1932 11.8116V5.20227C26.1932 4.70904 25.7968 4.31445 25.3014 4.31445H14.2031C13.7076 4.31445 13.3113 4.70904 13.3113 5.20227Z" stroke="#0A7A58" stroke-width="1.2" stroke-miterlimit="10"/>
<path d="M10.9 6.97722H1.55234C0.99082 6.97722 0.495361 7.43757 0.495361 8.02944V32.9869C0.495361 33.5459 0.957789 34.0391 1.55234 34.0391H38.4805C39.042 34.0391 39.5375 33.5788 39.5375 32.9869V7.99656C39.5375 7.43757 39.075 6.94434 38.4805 6.94434H28.6374" stroke="#0A7A58" stroke-width="1.2" stroke-miterlimit="10"/>
<path d="M14.7976 25.9506C14.7315 25.5889 14.5003 25.3259 14.203 25.293L12.8818 24.9971C12.8818 24.9971 12.1551 25.3259 11.2963 25.4574C10.4375 25.3588 9.71085 24.9971 9.71085 24.9971L8.38963 25.293C8.09235 25.3588 7.86114 25.6218 7.79508 25.9506L7.4978 28.1866H11.2963H15.0948L14.7976 25.9506Z" stroke="#0A7A58" stroke-width="1.2" stroke-miterlimit="10"/>
<path d="M12.9809 21.8075C12.9809 22.794 12.2212 23.616 11.2964 23.616C10.3715 23.616 9.61182 22.794 9.61182 21.8075C9.61182 20.8211 10.3715 19.999 11.2964 19.999C12.2543 19.999 12.9809 20.8211 12.9809 21.8075Z" stroke="#0A7A58" stroke-width="1.2" stroke-miterlimit="10"/>
<path d="M22.0974 17.5332H34.7151" stroke="#0A7A58" stroke-width="1.2" stroke-miterlimit="10"/>
<path d="M22.0974 22.8604H34.7151" stroke="#0A7A58" stroke-width="1.2" stroke-miterlimit="10"/>
<path d="M22.0974 28.1865H34.7151" stroke="#0A7A58" stroke-width="1.2" stroke-miterlimit="10"/>
<path d="M16.6802 17.5332H5.94531V28.2199H16.6802V17.5332Z" stroke="#0A7A58" stroke-width="1.2" stroke-miterlimit="10"/>
</g>
<defs>
<clipPath id="clip0_6135_59846">
<rect width="40" height="34" fill="white" transform="translate(0 0.5)"/>
</clipPath>
</defs>
</svg>
