<svg width="21" height="21" viewBox="0 0 21 21" fill="none" xmlns="http://www.w3.org/2000/svg">
<path fill-rule="evenodd" clip-rule="evenodd" d="M2.04175 9.99935C2.04175 14.9469 6.05253 18.9577 11.0001 18.9577C15.9476 18.9577 19.9584 14.9469 19.9584 9.99935C19.9584 5.0518 15.9476 1.04102 11.0001 1.04102C6.05253 1.04102 2.04175 5.0518 2.04175 9.99935ZM10.735 9.18873C10.9409 9.21641 11.2256 9.2905 11.4673 9.53216C11.709 9.77382 11.7831 10.0586 11.8107 10.2645C11.8337 10.435 11.8335 10.6333 11.8334 10.7999L11.8334 14.166C11.8334 14.6263 11.4603 14.9994 11.0001 14.9994C10.5398 14.9994 10.1667 14.6263 10.1667 14.166V10.8327C9.70651 10.8327 9.33342 10.4596 9.33342 9.99938C9.33342 9.53914 9.70651 9.16604 10.1667 9.16604L10.1996 9.16603C10.3661 9.16593 10.5644 9.1658 10.735 9.18873ZM10.9963 5.83268C10.5381 5.83268 10.1667 6.20578 10.1667 6.66602C10.1667 7.12625 10.5381 7.49935 10.9963 7.49935H11.0037C11.4619 7.49935 11.8333 7.12625 11.8333 6.66602C11.8333 6.20578 11.4619 5.83268 11.0037 5.83268H10.9963Z" fill="#FEC84B"/>
</svg>
