<svg width="25" height="25" viewBox="0 0 25 25" fill="none" xmlns="http://www.w3.org/2000/svg">
<path d="M12.7502 7.10938C12.7502 6.69516 12.4145 6.35938 12.0002 6.35938C11.586 6.35938 11.2502 6.69516 11.2502 7.10938V7.73869H7.50024C7.08603 7.73869 6.75024 8.07447 6.75024 8.48869C6.75024 8.9029 7.08603 9.23869 7.50024 9.23869H13.9573C13.5111 10.3748 12.8556 11.4769 12.0934 12.5142C11.95 12.3282 11.8066 12.1362 11.6711 11.9483C11.333 11.4795 11.0825 11.088 10.9872 10.8835C10.8122 10.508 10.366 10.3455 9.99055 10.5205C9.61512 10.6955 9.45261 11.1417 9.62759 11.5171C9.78939 11.8643 10.1175 12.3584 10.4544 12.8256C10.671 13.1261 10.9072 13.4369 11.1356 13.7239C10.2297 14.7928 9.26209 15.7512 8.38545 16.5573C8.08054 16.8377 8.06066 17.3121 8.34103 17.617C8.6214 17.9219 9.09585 17.9418 9.40076 17.6614C10.2639 16.8677 11.2277 15.9174 12.1476 14.8488L13.4954 16.25C13.7826 16.5485 14.2574 16.5577 14.5559 16.2706C14.8544 15.9834 14.8636 15.5086 14.5765 15.2101L13.0991 13.6742C14.113 12.3384 15.0144 10.8395 15.5536 9.23869H17.5002C17.9145 9.23869 18.2502 8.9029 18.2502 8.48869C18.2502 8.07447 17.9145 7.73869 17.5002 7.73869L12.7502 7.73869V7.10938Z" fill="#161616"/>
<path fill-rule="evenodd" clip-rule="evenodd" d="M12.5002 1.35938C6.56318 1.35938 1.75024 6.17231 1.75024 12.1094C1.75024 18.0464 6.56318 22.8594 12.5002 22.8594C18.4373 22.8594 23.2502 18.0464 23.2502 12.1094C23.2502 6.17231 18.4373 1.35938 12.5002 1.35938ZM3.25024 12.1094C3.25024 7.00074 7.39161 2.85938 12.5002 2.85938C17.6089 2.85938 21.7502 7.00074 21.7502 12.1094C21.7502 17.218 17.6089 21.3594 12.5002 21.3594C7.39161 21.3594 3.25024 17.218 3.25024 12.1094Z" fill="#161616"/>
</svg>
