<svg width="17" height="17" viewBox="0 0 17 17" fill="none" xmlns="http://www.w3.org/2000/svg">
<path fill-rule="evenodd" clip-rule="evenodd" d="M8.50033 8.90169C7.30566 8.90169 6.33366 7.92969 6.33366 6.73503C6.33366 5.54036 7.30566 4.56836 8.50033 4.56836C9.69499 4.56836 10.667 5.54036 10.667 6.73503C10.667 7.92969 9.69499 8.90169 8.50033 8.90169ZM8.50033 5.56836C7.85699 5.56836 7.33366 6.09169 7.33366 6.73503C7.33366 7.37836 7.85699 7.90169 8.50033 7.90169C9.14366 7.90169 9.66699 7.37836 9.66699 6.73503C9.66699 6.09169 9.14366 5.56836 8.50033 5.56836Z" fill="#161616"/>
<path fill-rule="evenodd" clip-rule="evenodd" d="M7.31563 12.7584C7.63563 13.0657 8.0563 13.235 8.5003 13.235C8.9443 13.235 9.36428 13.0657 9.68428 12.7577C9.84028 12.6077 10.0003 12.4557 10.1623 12.3024C12.1603 10.4077 14.6469 8.04966 13.273 4.74569C12.483 2.84502 10.5643 1.56836 8.5003 1.56836C6.4363 1.56836 4.51829 2.84502 3.72829 4.74569C2.35896 8.03702 4.82495 10.3844 6.80629 12.2704L6.82546 12.2886C6.99092 12.4464 7.15452 12.6024 7.31563 12.7584ZM4.65163 5.12969C5.2883 3.59769 6.83497 2.56836 8.5003 2.56836V2.56769C10.1656 2.56769 11.713 3.59702 12.3503 5.12902C13.4596 7.79702 11.4343 9.71837 9.47497 11.5764C9.31097 11.7317 9.14964 11.885 8.99164 12.037C8.85897 12.165 8.6843 12.235 8.5003 12.235C8.3163 12.235 8.14163 12.1644 8.01029 12.0384C7.84229 11.8757 7.67031 11.7117 7.49564 11.5457C5.55438 9.69775 3.54634 7.78625 4.65163 5.12969Z" fill="#161616"/>
<path d="M8.50033 15.9017C6.33366 15.9017 2.66699 15.481 2.66699 13.9044C2.66699 13.1624 3.471 12.6044 5.057 12.247C5.32633 12.1864 5.59365 12.3557 5.65498 12.625C5.71565 12.8944 5.54632 13.1617 5.27699 13.223C4.13032 13.4817 3.73898 13.793 3.67298 13.905C3.83298 14.2044 5.42431 14.9017 8.50098 14.9017C11.5776 14.9017 13.1683 14.2044 13.329 13.905C13.263 13.793 12.8717 13.481 11.725 13.223C11.4557 13.1624 11.2863 12.895 11.347 12.625C11.4077 12.3557 11.675 12.1864 11.945 12.247C13.531 12.6044 14.335 13.1617 14.335 13.9044C14.335 14.567 13.6863 15.0857 12.4083 15.4443C11.3583 15.739 9.97099 15.9017 8.50166 15.9017H8.50033Z" fill="#161616"/>
</svg>
