<svg width="180" height="60" viewBox="0 0 180 60" fill="none" xmlns="http://www.w3.org/2000/svg">
<g clip-path="url(#clip0_6819_12422)">
<path d="M150.245 59.8125C166.677 59.8125 179.998 46.465 179.998 30C179.998 13.535 166.677 0.1875 150.245 0.1875C133.813 0.1875 120.492 13.535 120.492 30C120.492 46.465 133.813 59.8125 150.245 59.8125Z" fill="#F9D129"/>
<path d="M150.245 59.8125C166.677 59.8125 179.998 46.465 179.998 30C179.998 13.535 166.677 0.1875 150.245 0.1875C133.813 0.1875 120.492 13.535 120.492 30C120.492 46.465 133.813 59.8125 150.245 59.8125Z" fill="url(#paint0_linear_6819_12422)"/>
<path d="M150.253 58.0883C165.734 58.0883 178.285 45.5128 178.285 30.0002C178.285 14.4876 165.734 1.91211 150.253 1.91211C134.772 1.91211 122.222 14.4876 122.222 30.0002C122.222 45.5128 134.772 58.0883 150.253 58.0883Z" fill="white"/>
<path d="M150.253 57.7127C165.528 57.7127 177.91 45.3054 177.91 30.0004C177.91 14.6953 165.528 2.28809 150.253 2.28809C134.978 2.28809 122.596 14.6953 122.596 30.0004C122.596 45.3054 134.978 57.7127 150.253 57.7127Z" fill="#8BC441"/>
<path style="mix-blend-mode:multiply" d="M150.245 57.7127C165.521 57.7127 177.904 45.3054 177.904 30.0004C177.904 14.6953 165.521 2.28809 150.245 2.28809C134.97 2.28809 122.586 14.6953 122.586 30.0004C122.586 45.3054 134.97 57.7127 150.245 57.7127Z" fill="url(#paint1_radial_6819_12422)"/>
<path d="M132.081 42.4258C132.081 42.4258 145.97 43.3453 158.07 50.829C158.07 50.829 156.833 52.93 155.32 53.4548C155.32 53.4548 145.213 44.5268 132.081 42.4258Z" fill="white"/>
<path d="M167.963 42.4258C167.963 42.4258 154.074 43.3453 141.974 50.829C141.974 50.829 143.211 52.93 144.724 53.4548C144.724 53.4548 154.831 44.5268 167.963 42.4258Z" fill="white"/>
<path d="M134.374 19.2754C138.266 15.359 140.765 14.6623 143.877 14.1743C140.69 16.2016 137.713 20.9159 138.64 24.2337C140.323 20.7135 143.262 17.2732 145.971 16.0196C144.439 18.1723 144.39 20.8539 145.865 23.144C146.207 20.1729 148.284 17.318 150.02 15.406C151.756 17.3187 153.833 20.1729 154.175 23.144C155.65 20.8539 155.601 18.1723 154.068 16.0196C156.778 17.2732 159.716 20.7135 161.4 24.2337C162.328 20.9159 159.35 16.2016 156.163 14.1743C159.276 14.6631 161.775 15.359 165.667 19.2754C164.382 14.0362 159.86 12.2208 156.245 11.5728C160.223 11.2315 161.013 11.6363 164.526 13.0932C160.711 9.33606 158.037 8.659 154.216 9.0246C154.871 8.45188 155.497 8.14199 156.46 7.8878C154.857 7.25546 152.35 7.58811 151.374 8.52328C151.374 8.52328 151.182 6.802 150.032 6.10846V6.09277C150.027 6.09513 150.024 6.09827 150.019 6.1014C150.014 6.09905 150.011 6.09591 150.007 6.09277V6.10925C148.856 6.80278 148.664 8.52406 148.664 8.52406C147.688 7.58889 145.182 7.25625 143.578 7.88858C144.542 8.14278 145.167 8.45188 145.822 9.02538C142.001 8.659 139.327 9.33684 135.512 13.094C139.025 11.6371 139.815 11.2315 143.793 11.5736C140.18 12.2208 135.658 14.0362 134.374 19.2754Z" fill="white"/>
<path d="M151.497 21.8078C151.292 21.283 150.085 18.5496 150.086 18.5449C150.086 18.5496 147.375 23.4883 147.467 26.1165C147.506 27.2415 147.843 28.2803 148.369 28.9864C148.756 29.512 149.109 29.6124 149.644 29.7458C149.768 29.8093 150.02 29.7921 150.054 29.6815C150.885 26.9332 150.148 24.1222 150.148 24.1222C150.148 24.1222 151.278 25.7619 151.051 29.6658C151.042 29.8329 151.137 29.8423 151.157 29.8392C152.962 29.5724 152.955 26.9968 152.9 25.8702C152.844 24.7326 152.03 22.8505 151.497 21.8078Z" fill="white"/>
<path d="M142.411 37.2446C143.331 37.6039 147.901 37.4815 148.516 42.4336C147.979 42.0068 146.865 41.8695 146.115 41.7243C140.857 40.7068 140.528 36.4326 140.37 35.5947C140.509 35.8332 140.88 36.3369 144.098 36.4687C146.31 36.5589 150.886 36.9912 151.079 44.5699L150.287 44.9205L149.491 44.5699C149.791 36.1729 143.279 37.4086 142.411 37.2446Z" fill="white"/>
<path d="M156.381 36.4679C154.697 36.537 151.9 36.7229 150.45 39.1973C150.703 39.6539 150.903 40.1623 151.051 40.7225C152.855 36.8594 157.31 37.3874 158.067 37.2438C157.315 37.538 154.087 37.68 152.27 40.393C151.88 40.9743 151.339 42.5677 151.34 42.592C151.911 42.177 153.627 41.8671 154.364 41.7243C159.622 40.7068 159.951 36.4326 160.108 35.5947C159.97 35.8324 159.599 36.3361 156.381 36.4679Z" fill="white"/>
<path d="M150.496 34.9816C150.279 33.2792 150.888 31.6293 151.848 30.5043C152.808 29.3792 154.071 28.8316 155.328 28.6363C155.748 28.5712 156.173 28.5413 156.58 28.3915C156.987 28.2416 157.385 27.9569 157.628 27.4854C157.506 29.3886 155.896 36.5648 150.953 36.5068C150.838 34.8898 153.217 32.7206 154.424 32.0459C151.799 32.6202 150.839 34.4364 150.496 34.9816Z" fill="white"/>
<path d="M149.932 34.9816C150.149 33.2792 149.54 31.6293 148.58 30.5043C147.62 29.3792 146.357 28.8316 145.1 28.6363C144.68 28.5712 144.255 28.5413 143.848 28.3915C143.44 28.2424 143.043 27.9569 142.8 27.4854C142.922 29.3886 144.531 36.5648 149.474 36.5068C149.589 34.8898 147.211 32.599 146.004 31.9243C148.628 32.4986 149.589 34.4364 149.932 34.9816Z" fill="white"/>
<path d="M22.8905 43.2617C23.1511 43.2617 23.3561 43.057 23.3561 42.7949C23.3561 42.5329 23.1511 42.3281 22.8905 42.3281C22.6205 42.3281 22.4248 42.5243 22.4248 42.7949C22.4248 43.0656 22.6212 43.2617 22.8905 43.2617Z" fill="#0E0E0E"/>
<path d="M24.1644 43.2617C24.4297 43.2617 24.63 43.0609 24.63 42.7949C24.63 42.5282 24.4297 42.3281 24.1644 42.3281C23.8991 42.3281 23.6987 42.529 23.6987 42.7949C23.6987 43.0617 23.8983 43.2617 24.1644 43.2617Z" fill="#0E0E0E"/>
<path d="M27.8968 48.7637C27.6315 48.7637 27.4312 48.9606 27.4312 49.2211C27.4312 49.4878 27.6315 49.6879 27.8968 49.6879C28.1621 49.6879 28.3632 49.487 28.3632 49.2211C28.3632 48.9606 28.1621 48.7637 27.8968 48.7637Z" fill="#0E0E0E"/>
<path d="M26.6234 48.7637C26.3534 48.7637 26.157 48.9559 26.157 49.2211C26.157 49.4917 26.3534 49.6879 26.6234 49.6879C26.8848 49.6879 27.0899 49.4823 27.0899 49.2211C27.0899 48.9645 26.8848 48.7637 26.6234 48.7637Z" fill="#0E0E0E"/>
<path d="M27.3239 44.2275L27.3794 44.2455C27.7668 44.3695 27.7668 44.4299 27.7668 44.6307V46.7843C27.7668 47.3311 27.5485 47.612 27.1181 47.6206H25.5794C25.2108 47.5892 25.1341 47.226 25.1341 46.9263V44.6307C25.1341 44.455 25.1412 44.2228 25.1952 43.9874L25.1991 43.9694H24.7319L24.728 43.9741C24.6826 44.0196 24.6771 44.0533 24.6724 44.08C24.6701 44.0917 24.6685 44.1012 24.663 44.1129C24.6114 44.2651 24.5879 44.3091 24.5793 44.3208C24.5605 44.3083 24.5112 44.2761 24.4376 44.229L24.4337 44.2267C24.2302 44.0941 23.8914 43.8721 23.3858 43.8721C22.2416 43.8721 21.5576 44.9069 21.5576 45.908C21.5576 47.0502 22.2941 47.9791 23.1995 47.9791C23.8773 47.9791 24.2983 47.5312 24.4689 47.1185C24.501 47.896 25.0332 47.9705 25.5779 47.9791H27.2675C28.0681 47.9791 28.5651 47.5319 28.5651 46.8125V43.9937L27.3802 44.2188L27.3239 44.2275ZM24.2561 46.8596C24.1152 47.3303 23.7364 47.6473 23.3154 47.6473C22.9726 47.6473 22.3927 47.2919 22.3927 45.9605C22.3927 44.6699 22.928 44.2118 23.3866 44.2118C23.7802 44.2118 24.0447 44.3773 24.1958 44.7186C24.3351 45.0348 24.3531 45.4584 24.3531 45.7926C24.3523 46.2524 24.3359 46.5921 24.2561 46.8596Z" fill="#0E0E0E"/>
<path d="M31.4444 44.0039H31.4264C31.1353 44.0039 30.8684 44.1475 30.6102 44.4432C30.2204 44.8889 30.0663 44.9265 29.8596 44.9344L29.8416 44.9352L30.013 45.6765L30.0318 45.6491C30.5108 44.9571 30.9983 44.3169 31.32 44.3169C31.781 44.3169 31.871 45.1336 31.871 46.5442V47.6199H29.2805L29.5748 47.9721L29.5795 47.9776H32.7686V47.732C32.7678 46.618 32.6395 44.0243 31.4444 44.0039Z" fill="#0E0E0E"/>
<path d="M51.5589 42.5172L51.6144 42.5352C51.9932 42.6561 51.9932 42.7102 51.9932 42.911V46.7835C51.9932 47.3382 51.7631 47.6198 51.31 47.6198H51.1003V47.6285H51.0001C50.511 47.6285 50.1478 47.1083 50.0422 46.5976V44.0008L48.8182 44.2361L48.873 44.2542C49.2423 44.375 49.2423 44.4291 49.2423 44.63V46.8188C49.2423 47.3735 49.0123 47.6544 48.5591 47.6544C47.9761 47.6544 47.6184 46.8479 47.6184 46.2689V44.3193L46.3694 44.5547L46.4226 44.5727C46.81 44.7053 46.81 44.7375 46.81 44.9132V46.8188C46.81 47.3735 46.5776 47.6544 46.1182 47.6544C45.6079 47.6544 45.262 47.0314 45.1955 46.4462V44.6386L44.0098 44.8543L43.9535 44.8645L44.0083 44.8834C44.3957 45.0128 44.3956 45.0419 44.3956 45.2325V46.7827C44.3956 47.3374 44.1687 47.6191 43.721 47.6191H41.3943C41.1243 47.6191 41.0038 47.5704 40.899 47.4857C41.2676 47.2856 41.6839 47.0416 41.9977 46.7459C42.3632 46.4022 42.5409 46.0437 42.5409 45.6483C42.5409 44.6865 41.799 44.0651 40.6509 44.0651C40.0702 44.0651 39.3736 44.2958 38.6356 44.732C38.5942 44.7563 38.5676 44.7759 38.5472 44.7924C38.537 44.8002 38.5292 44.8065 38.5206 44.812L38.5057 44.8222L38.5183 44.8347C38.5394 44.8559 38.6059 44.9477 38.6638 45.0285L38.7343 45.1242C38.8837 45.3204 39.1631 45.6852 39.3017 45.9472C39.7689 46.8918 39.9356 47.157 40.1852 47.4433C39.9567 47.5728 39.4456 47.6183 39.3502 47.6183H36.935C36.9757 47.259 36.9953 46.8 36.9953 46.2147V44.029H36.3082C35.5584 44.029 34.9136 44.2691 34.4424 44.7225C33.9643 45.1839 33.7107 45.8256 33.7107 46.5788C33.7107 47.4786 34.5199 47.976 35.0787 47.976H36.0765C35.758 49.0414 35.0075 49.3427 34.3149 49.4973L33.9862 49.5522L34.1043 49.5624C34.4385 49.5898 34.7093 49.6063 34.8306 49.6063C35.2931 49.6063 35.6664 49.5129 35.9716 49.3207C36.3872 49.0595 36.683 48.6068 36.8497 47.976H39.563C40.0365 47.976 40.2627 47.8787 40.5037 47.7501C40.5069 47.7517 40.5092 47.7532 40.5123 47.754C40.6383 47.838 40.8512 47.976 41.5172 47.976H43.8963C44.4637 47.976 44.8871 47.7673 45.093 47.3861C45.4123 47.8105 45.7691 47.9847 46.3201 47.9847C46.8695 47.9847 47.4079 47.6622 47.5441 47.2582C47.7538 47.7007 48.2203 47.9847 48.7438 47.9847C49.3503 47.9847 49.8074 47.7093 49.9749 47.2464C50.1901 47.6763 50.6745 47.9847 51.141 47.9847H51.2623V47.976H51.4955C52.3016 47.976 52.8024 47.5288 52.8024 46.8094V42.2803L51.6168 42.5054L51.5589 42.5172ZM36.1877 47.3602C36.1877 47.4645 36.1806 47.532 36.1728 47.6104L36.172 47.6198H35.2736C34.7962 47.6198 34.5105 47.0644 34.5105 46.527C34.5105 45.216 35.3346 44.335 36.1047 44.335H36.1877V47.3602ZM39.9387 46.0249C39.7305 45.5644 39.5083 45.198 39.2406 44.8747C39.7211 44.6088 40.211 44.4684 40.6595 44.4684C41.2707 44.4684 41.6354 44.8967 41.6354 45.6146C41.6354 46.4556 41.2104 46.789 40.6094 47.164C40.3754 46.8965 40.1023 46.3512 39.9387 46.0249Z" fill="#0E0E0E"/>
<path d="M53.5242 42.5166L53.5782 42.5347C53.9483 42.6586 53.9483 42.7167 53.9483 42.9105V47.977H54.756V42.2812L53.5797 42.5064L53.5242 42.5166Z" fill="#0E0E0E"/>
<path d="M58.474 43.2617C58.7346 43.2617 58.9396 43.057 58.9396 42.7949C58.9396 42.5329 58.7346 42.3281 58.474 42.3281C58.204 42.3281 58.0076 42.5243 58.0076 42.7949C58.0076 43.0656 58.204 43.2617 58.474 43.2617Z" fill="#0E0E0E"/>
<path d="M59.7481 43.2617C60.0134 43.2617 60.2138 43.0609 60.2138 42.7949C60.2138 42.5282 60.0134 42.3281 59.7481 42.3281C59.4828 42.3281 59.2825 42.529 59.2825 42.7949C59.2817 43.0617 59.482 43.2617 59.7481 43.2617Z" fill="#0E0E0E"/>
<path d="M62.2157 48.7637C61.9457 48.7637 61.75 48.9559 61.75 49.2211C61.75 49.4917 61.9464 49.6879 62.2157 49.6879C62.4763 49.6879 62.6813 49.4823 62.6813 49.2211C62.6813 48.9645 62.4763 48.7637 62.2157 48.7637Z" fill="#0E0E0E"/>
<path d="M63.4889 48.7637C63.2236 48.7637 63.0225 48.9606 63.0225 49.2211C63.0225 49.4878 63.2236 49.6879 63.4889 49.6879C63.7542 49.6879 63.9553 49.487 63.9553 49.2211C63.9553 48.9606 63.7542 48.7637 63.4889 48.7637Z" fill="#0E0E0E"/>
<path d="M67.0774 43.9921L65.8925 44.2173L65.8354 44.2283L65.8909 44.2463C66.2783 44.3695 66.2783 44.4307 66.2783 44.6315V46.7851C66.2783 47.3319 66.06 47.6128 65.6295 47.6214H64.8336C64.2287 47.6214 63.8577 46.8353 63.8577 46.2712V43.9929L62.6728 44.2181L62.6181 44.2283L62.6705 44.2463C63.0258 44.371 63.0493 44.4056 63.0493 44.5868V46.8117C63.0493 47.3562 62.8372 47.6206 62.4021 47.6206H61.164C60.7954 47.5892 60.7187 47.226 60.7187 46.9263V44.6307C60.7187 44.455 60.7257 44.2235 60.7797 43.9866L60.7836 43.9686H60.3164L60.3125 43.9733C60.2671 44.0188 60.2608 44.0525 60.2561 44.08C60.2538 44.091 60.2522 44.1012 60.2475 44.1121C60.2021 44.2479 60.1747 44.3044 60.163 44.32C60.1442 44.3075 60.0957 44.2753 60.0221 44.2283L60.0167 44.2251C59.8132 44.0925 59.4735 43.8721 58.9695 43.8721C57.8254 43.8721 57.1414 44.9069 57.1414 45.908C57.1414 47.0502 57.8778 47.9791 58.7833 47.9791C59.4602 47.9791 59.8813 47.5312 60.0527 47.1185C60.0848 47.896 60.6177 47.9705 61.1624 47.9791H62.5601C63.0289 47.9791 63.6339 47.8615 63.8718 47.3044C64.1668 47.7399 64.5574 47.9791 64.9745 47.9791H65.7798C66.5804 47.9791 67.0774 47.5319 67.0774 46.8125V43.9921ZM59.8398 46.8596C59.6981 47.3303 59.3194 47.6473 58.8991 47.6473C58.5563 47.6473 57.9764 47.2919 57.9764 45.9605C57.9764 44.6699 58.5117 44.2118 58.9703 44.2118C59.364 44.2118 59.6285 44.3773 59.7795 44.7186C59.9188 45.0348 59.9368 45.4584 59.9368 45.7926C59.9361 46.2508 59.9196 46.5897 59.8398 46.8596Z" fill="#0E0E0E"/>
<path d="M66.0107 48.7451C65.7446 48.7451 65.5356 48.9538 65.5356 49.2205C65.5356 49.4779 65.7493 49.6874 66.0107 49.6874C66.2721 49.6874 66.485 49.4779 66.485 49.2205C66.485 48.9538 66.2768 48.7451 66.0107 48.7451Z" fill="#0E0E0E"/>
<path d="M76.9178 42.5172L76.9734 42.5352C77.3522 42.6561 77.3522 42.7102 77.3522 42.911V46.7835C77.3522 47.3382 77.1221 47.6198 76.669 47.6198H74.3509C74.0817 47.6198 73.9612 47.5712 73.8555 47.4865C74.7109 47.022 75.4974 46.4768 75.4974 45.6491C75.4974 44.6872 74.7555 44.0659 73.6074 44.0659C73.0275 44.0659 72.331 44.2965 71.5922 44.7327C71.5491 44.7571 71.5233 44.7775 71.5022 44.7939C71.4928 44.801 71.4842 44.8073 71.4764 44.8128L71.4615 44.823L71.474 44.8355C71.4959 44.8575 71.5664 44.9548 71.6282 45.0411L71.6994 45.136C71.8575 45.3439 72.122 45.6907 72.2582 45.948C72.7238 46.891 72.8921 47.157 73.1418 47.4441C72.914 47.5736 72.4022 47.6191 72.3067 47.6191H69.7507C69.8345 47.1319 69.8454 46.6141 69.8454 46.2155V43.9906L68.594 44.2259L68.6496 44.244C69.037 44.3671 69.037 44.4283 69.037 44.6292V46.8792C68.9822 48.1871 68.6316 49.0822 67.0578 49.5067L66.9756 49.5286L67.0609 49.5357C67.3497 49.5592 67.5641 49.571 67.6995 49.571C68.7795 49.571 69.4283 49.0493 69.6834 47.976H72.5204C72.9931 47.976 73.22 47.8787 73.4618 47.7501C73.465 47.7516 73.4673 47.7532 73.4705 47.754C73.5957 47.8379 73.807 47.976 74.4753 47.976H76.8545C77.6605 47.976 78.1614 47.5288 78.1614 46.8094V42.2803L76.9758 42.5054L76.9178 42.5172ZM72.896 46.0249C72.6886 45.5651 72.4664 45.1995 72.1979 44.8747C72.6785 44.6088 73.1692 44.4684 73.6176 44.4684C74.2288 44.4684 74.5935 44.8967 74.5935 45.6146C74.5935 46.4564 74.1685 46.7898 73.5667 47.164C73.3492 46.9161 73.1065 46.4462 72.896 46.0249Z" fill="#0E0E0E"/>
<path d="M78.8867 42.5166L78.9407 42.5347C79.3109 42.6586 79.3109 42.7167 79.3109 42.9105V47.977H80.1185V42.2812L78.9423 42.5064L78.8867 42.5166Z" fill="#0E0E0E"/>
<path d="M83.8328 43.2617C84.0935 43.2617 84.2985 43.057 84.2985 42.7949C84.2985 42.5329 84.0935 42.3281 83.8328 42.3281C83.5628 42.3281 83.3672 42.5243 83.3672 42.7949C83.3664 43.0656 83.5628 43.2617 83.8328 43.2617Z" fill="#0E0E0E"/>
<path d="M85.1085 43.2617C85.3738 43.2617 85.5741 43.0609 85.5741 42.7949C85.5741 42.5282 85.3738 42.3281 85.1085 42.3281C84.8432 42.3281 84.6428 42.529 84.6428 42.7949C84.6428 43.0617 84.8432 43.2617 85.1085 43.2617Z" fill="#0E0E0E"/>
<path d="M107.256 42.5262C107.653 42.6494 107.653 42.7082 107.653 42.902V46.7831C107.653 47.02 107.609 47.2852 107.447 47.4523C107.442 47.4586 107.434 47.4625 107.428 47.468C107.367 47.5253 107.292 47.57 107.197 47.5951C107.187 47.5982 107.176 47.599 107.166 47.6014C107.116 47.6116 107.064 47.6194 107.004 47.6194H106.323C105.909 47.6194 105.618 47.2193 105.481 46.8443C105.498 46.7486 105.507 46.6419 105.507 46.5266C105.507 46.0919 105.348 45.6196 105.083 45.2635C104.862 44.9677 104.469 44.6154 103.847 44.6154C102.525 44.6154 102.309 45.4541 102.099 46.2661C101.987 46.6968 101.848 47.2326 101.582 47.4908C101.488 47.57 101.355 47.5982 101.275 47.6155L101.256 47.6202H100.681C100.267 47.6202 99.9741 47.2201 99.838 46.8451C99.8552 46.7494 99.8646 46.6427 99.8646 46.5273C99.8646 46.0927 99.7057 45.6204 99.4396 45.2642C99.2189 44.9685 98.8253 44.6162 98.2039 44.6162C96.8813 44.6162 96.6653 45.4549 96.4555 46.2669C96.3436 46.6976 96.2043 47.2334 95.939 47.4915C95.8443 47.5708 95.7105 47.599 95.6299 47.6163L95.6119 47.621H95.0727C94.4716 47.621 94.0881 46.8215 94.0881 46.2708V42.2642L92.9119 42.4893L92.8579 42.4995L92.9103 42.5176C93.2664 42.6423 93.2891 42.6768 93.2891 42.8588V46.8114C93.2891 47.348 93.0707 47.6202 92.6403 47.6202H90.7714V46.1108C90.7714 45.2509 89.9724 44.4499 88.9769 44.2969C89.8394 44.027 91.0626 43.3711 91.1072 42.9036L91.108 42.8981L90.5124 42.0869L90.4889 42.0547L90.4858 42.0947C90.4177 43.0134 88.7382 44.2169 88.1575 44.2169H87.9368L87.7146 44.5566H88.5551C88.9988 44.5566 89.362 44.7449 89.6069 45.1018C89.7971 45.3804 89.9114 45.7679 89.9114 46.1366V47.6194H86.5219C86.1533 47.588 86.0766 47.2248 86.0766 46.9251V44.6295C86.0766 44.4538 86.0836 44.2224 86.1376 43.9854L86.1415 43.9674H85.6743L85.6704 43.9721C85.625 44.0176 85.6187 44.0513 85.6141 44.0788C85.6117 44.0898 85.6101 44.1 85.6054 44.111C85.5601 44.2467 85.5327 44.3032 85.5209 44.3189C85.5021 44.3063 85.4536 44.2741 85.38 44.2271L85.3746 44.2239C85.1711 44.0914 84.8314 43.8709 84.3274 43.8709C83.1833 43.8709 82.4993 44.9057 82.4993 45.9068C82.4993 47.0491 83.2357 47.978 84.1412 47.978C84.8181 47.978 85.2392 47.53 85.4106 47.1173C85.4427 47.8948 85.9756 47.9693 86.5203 47.978H92.8C93.1967 47.978 93.5067 47.887 93.7414 47.7285C93.7485 47.7238 93.7555 47.7175 93.7626 47.7128C93.8596 47.6437 93.941 47.5606 94.0067 47.4641C94.0114 47.457 94.0154 47.4508 94.02 47.4437C94.0506 47.3966 94.0889 47.3566 94.1116 47.3033C94.4067 47.7387 94.8003 47.978 95.2229 47.978H95.6033C96.0118 47.978 96.2904 47.8689 96.5314 47.6132C96.8187 47.9764 97.1927 48.3585 97.9738 48.3585C98.0677 48.3585 98.1514 48.3373 98.2407 48.3263C98.2634 48.3239 98.286 48.3216 98.308 48.3184C98.4613 48.2957 98.6046 48.2565 98.74 48.2023C98.7705 48.1906 98.8018 48.1796 98.8307 48.1655C98.9536 48.109 99.0647 48.0376 99.168 47.956C99.1907 47.9379 99.215 47.9207 99.2361 47.9019C99.33 47.8187 99.4114 47.7246 99.4858 47.6202C99.5046 47.5935 99.5241 47.5669 99.5414 47.5386C99.5719 47.4892 99.6126 47.4492 99.6392 47.3966C99.964 47.8085 100.318 47.9772 100.857 47.9772H101.247C101.657 47.9772 101.935 47.8681 102.174 47.6132C102.463 47.9764 102.838 48.3585 103.617 48.3585C103.711 48.3585 103.796 48.3373 103.885 48.3263C103.907 48.3239 103.929 48.3216 103.951 48.3184C104.106 48.2949 104.25 48.2557 104.387 48.2008C104.416 48.189 104.446 48.1788 104.473 48.1662C104.599 48.1082 104.711 48.036 104.817 47.9521C104.837 47.9356 104.859 47.9199 104.879 47.9026C104.974 47.8179 105.057 47.7214 105.132 47.6155C105.15 47.5904 105.168 47.5669 105.183 47.541C105.214 47.4908 105.256 47.4507 105.283 47.3966C105.607 47.8085 105.961 47.9772 106.5 47.9772H107.146C107.952 47.9772 108.453 47.53 108.453 46.8106V42.2728L107.2 42.5089L107.256 42.5262ZM85.1954 46.8592C85.0537 47.3299 84.6749 47.6469 84.2547 47.6469C83.9119 47.6469 83.332 47.2915 83.332 45.9601C83.332 44.6696 83.8673 44.2114 84.3259 44.2114C84.7195 44.2114 84.984 44.3769 85.1351 44.7182C85.2744 45.0344 85.2924 45.458 85.2924 45.7922C85.2916 46.2504 85.276 46.5893 85.1954 46.8592ZM97.9996 48.0188C97.4275 48.0188 97.0127 47.5072 96.8367 47.2915C96.8351 47.2876 96.8202 47.2578 96.7983 47.2405C96.9501 46.9479 97.0284 46.6544 97.1027 46.3704L97.1207 46.3014L97.1395 46.2473C97.3047 45.5992 97.476 44.9292 98.0442 44.9292H98.0787C98.7282 44.9559 99.0194 45.7734 99.0194 46.5713C99.0194 47.3558 98.5521 48.0188 97.9996 48.0188ZM103.643 48.0188C103.072 48.0188 102.657 47.5096 102.478 47.2899C102.471 47.2758 102.458 47.2538 102.441 47.2397C102.594 46.9439 102.673 46.6474 102.747 46.3602L102.763 46.3006L102.781 46.2465C102.946 45.5985 103.118 44.9285 103.687 44.9285H103.721C104.371 44.9551 104.662 45.7726 104.662 46.5705C104.663 47.3558 104.196 48.0188 103.643 48.0188Z" fill="#0E0E0E"/>
<path d="M109.236 42.5064L109.181 42.5166L109.235 42.5347C109.605 42.6586 109.605 42.7167 109.605 42.9105V47.977H110.413V42.2812L109.236 42.5064Z" fill="#0E0E0E"/>
<path d="M110.794 37.583H68.9361C36.6074 37.583 10.4001 37.9635 10.4001 38.4327C10.4001 38.9018 36.6074 39.2823 68.9361 39.2823H110.794V37.583Z" fill="#8AC340"/>
<path d="M12.0569 32.8474L11.5826 31.3003H9.78969L9.31543 32.8474H8.58447L10.3172 27.6396H11.1757L12.9162 32.8474H12.0569ZM10.7014 28.3865H10.6866L9.94856 30.8021H11.4324L10.7014 28.3865Z" fill="#0E0E0E"/>
<path d="M14.7623 34.5462C14.4086 34.5462 14.0689 34.4928 13.73 34.4026V33.6557C14.0916 33.8746 14.4453 34.0935 14.8828 34.0935C15.8994 34.0935 15.7719 33.0822 15.7719 32.3502H15.757C15.5457 32.7127 15.2373 32.8484 14.8226 32.8484C13.7684 32.8484 13.4741 31.9046 13.4741 31.0142C13.4741 30.0931 13.73 29.1729 14.8226 29.1729C15.2749 29.1729 15.5911 29.4372 15.757 29.8444H15.7719V29.256H16.5326V32.7433C16.5318 33.9648 16.0199 34.5462 14.7623 34.5462ZM15.026 29.6553C14.378 29.6553 14.3029 30.538 14.3029 31.0142C14.3029 31.4896 14.371 32.4106 15.026 32.4106C15.7194 32.4106 15.7492 31.5579 15.7492 31.0518C15.7492 30.5607 15.6959 29.6553 15.026 29.6553Z" fill="#0E0E0E"/>
<path d="M18.5893 31.2023V32.8474H17.8286V29.255H18.5893V30.1682H18.6042C18.8601 29.6473 19.1317 29.2244 19.764 29.1719V29.9643C18.9211 29.987 18.5893 30.3495 18.5893 31.2023Z" fill="#0E0E0E"/>
<path d="M20.6765 28.3944V27.6396H21.4975V28.3944H20.6765ZM20.7063 32.8474V29.255H21.4669V32.8474H20.7063Z" fill="#0E0E0E"/>
<path d="M24.5637 30.425C24.5637 30.0547 24.541 29.489 24.0441 29.489C23.4939 29.489 23.3812 30.2437 23.3812 30.6517C23.3812 31.4441 23.7052 32.5315 24.6694 32.5315C24.8877 32.5315 25.1061 32.4781 25.3096 32.3957V32.7504C25.0004 32.8633 24.6764 32.9316 24.3532 32.9316C23.0877 32.9316 22.5532 32.1015 22.5532 30.909C22.5532 29.8978 22.9899 29.1729 24.0746 29.1729C24.9183 29.1729 25.3628 29.573 25.3628 30.4258L24.5637 30.425Z" fill="#0E0E0E"/>
<path d="M28.383 32.8473V31.9945H28.3681C28.1271 32.5225 27.735 32.9305 27.1175 32.9305C26.5149 32.9305 26.2136 32.4401 26.2136 31.8815V29.2549H26.9743V31.5042C26.9743 31.8211 26.9892 32.3648 27.4259 32.3648C28.1341 32.3648 28.3901 31.301 28.3901 30.7424V29.2557H29.1508V32.8481L28.383 32.8473Z" fill="#0E0E0E"/>
<path d="M30.4937 32.8474V27.6396H31.2543V32.8474H30.4937Z" fill="#0E0E0E"/>
<path d="M33.5897 29.6476V31.7156C33.5897 32.1534 33.5975 32.5001 34.132 32.5001C34.2525 32.5001 34.3731 32.4852 34.4858 32.4397V32.8775C34.3128 32.923 34.132 32.9301 33.9583 32.9301C33.3032 32.9301 32.8282 32.7567 32.8282 32.0169V29.6468H32.2561V29.2545H32.8282V28.4088L33.5889 27.9482V29.2545H34.5679V29.6468L33.5897 29.6476Z" fill="#0E0E0E"/>
<path d="M37.6052 32.8473V31.9945H37.5903C37.3493 32.5225 36.9572 32.9305 36.3397 32.9305C35.7371 32.9305 35.4358 32.4401 35.4358 31.8815V29.2549H36.1965V31.5042C36.1965 31.8211 36.2114 32.3648 36.6481 32.3648C37.3563 32.3648 37.6122 31.301 37.6122 30.7424V29.2557H38.3729V32.8481L37.6052 32.8473Z" fill="#0E0E0E"/>
<path d="M40.4382 31.2023V32.8474H39.6775V29.255H40.4382V30.1682H40.4531C40.709 29.6473 40.9805 29.2244 41.6129 29.1719V29.9643C40.7692 29.987 40.4382 30.3495 40.4382 31.2023Z" fill="#0E0E0E"/>
<path d="M44.1446 32.8474V32.3493H44.1297C43.9184 32.7117 43.542 32.9306 43.1202 32.9306C42.6083 32.9306 42.1411 32.576 42.1411 32.0323C42.1411 31.021 43.3839 30.8853 44.1446 30.8477V30.5307C44.1446 30.1682 44.1524 29.4888 43.6398 29.4888C43.1577 29.4888 43.0826 29.8811 43.0599 30.2734H42.2609C42.3211 29.4355 42.8408 29.1719 43.6398 29.1719C44.6337 29.1719 44.9053 29.6096 44.9053 30.5307V32.8474H44.1446ZM44.1446 31.1646C43.6774 31.1952 42.9691 31.3152 42.9691 31.9193C42.9691 32.1837 43.1123 32.4552 43.4058 32.4552C43.5036 32.4552 43.6093 32.4254 43.6922 32.3799C43.9935 32.2214 44.1446 31.9193 44.1446 31.5875V31.1646Z" fill="#0E0E0E"/>
<path d="M46.2319 32.8474V27.6396H46.9926V32.8474H46.2319Z" fill="#0E0E0E"/>
<path d="M51.829 32.8474H50.6614V27.6396H51.829C53.5844 27.6396 54.187 28.4705 54.187 30.191C54.187 31.9342 53.6447 32.8474 51.829 32.8474ZM52.6124 28.2665C52.3714 28.1606 52.0928 28.1386 51.829 28.1386H51.4902V32.35H51.829C53.2377 32.35 53.3582 31.3615 53.3582 30.191C53.3582 29.5422 53.3058 28.5756 52.6124 28.2665Z" fill="#0E0E0E"/>
<path d="M55.7774 30.6437C55.7774 31.4965 56.1765 32.5305 57.1704 32.5305C57.4044 32.5305 57.6376 32.4771 57.856 32.3799V32.7266C57.4944 32.8773 57.2009 32.9298 56.8088 32.9298C55.566 32.9298 55.0159 32.0621 55.0159 30.8924C55.0159 29.8662 55.4455 29.1719 56.5451 29.1719C57.5163 29.1719 57.9233 29.7226 57.9233 30.6437H55.7774ZM56.5153 29.4888C56.056 29.4888 55.8298 29.8811 55.8 30.2961H57.1782C57.1782 29.874 56.9904 29.4888 56.5153 29.4888Z" fill="#0E0E0E"/>
<path d="M60.4559 32.8473H59.793L58.4297 29.2549H59.2358L60.1624 31.8211H60.1772L61.0209 29.2549H61.7213L60.4559 32.8473Z" fill="#0E0E0E"/>
<path d="M62.9946 30.6437C62.9946 31.4965 63.3938 32.5305 64.3877 32.5305C64.6217 32.5305 64.8549 32.4771 65.0732 32.3799V32.7266C64.7117 32.8773 64.4182 32.9298 64.0261 32.9298C62.7833 32.9298 62.2332 32.0621 62.2332 30.8924C62.2332 29.8662 62.662 29.1719 63.7624 29.1719C64.7336 29.1719 65.1405 29.7226 65.1405 30.6437H62.9946ZM63.7326 29.4888C63.2732 29.4888 63.0471 29.8811 63.0173 30.2961H64.3955C64.3963 29.874 64.2077 29.4888 63.7326 29.4888Z" fill="#0E0E0E"/>
<path d="M66.2119 32.8474V27.6396H66.9726V32.8474H66.2119Z" fill="#0E0E0E"/>
<path d="M69.6476 32.9308C68.4799 32.9308 68.0659 32.1157 68.0659 31.0518C68.0659 29.988 68.4799 29.1729 69.6476 29.1729C70.8152 29.1729 71.237 29.9801 71.237 31.0518C71.237 32.1235 70.8152 32.9308 69.6476 32.9308ZM69.6476 29.489C68.9323 29.489 68.8939 30.538 68.8939 31.051C68.8939 31.5641 68.9315 32.6131 69.6476 32.6131C70.3707 32.6131 70.4083 31.5641 70.4083 31.051C70.4083 30.538 70.3707 29.489 69.6476 29.489Z" fill="#0E0E0E"/>
<path d="M73.9871 32.9306C73.5426 32.9306 73.2561 32.7345 73.0605 32.3493H73.0456V34.4628H72.2849V29.255H73.0456V29.8434H73.0605C73.2334 29.4433 73.5355 29.1719 73.9871 29.1719C75.0945 29.1719 75.3426 30.1306 75.3426 31.0508C75.3426 31.9491 75.0561 32.9306 73.9871 32.9306ZM73.7914 29.6552C73.1286 29.6552 73.0753 30.5684 73.0753 31.0516C73.0753 31.5498 73.091 32.4928 73.7914 32.4928C74.4394 32.4928 74.5146 31.5192 74.5146 31.0516C74.5146 30.5762 74.4465 29.6552 73.7914 29.6552Z" fill="#0E0E0E"/>
<path d="M80.3739 32.8474V30.5307C80.3739 30.2216 80.3591 29.7383 79.9372 29.7383C79.2822 29.7383 79.139 30.8704 79.139 31.3537V32.8482H78.3783V30.599C78.3783 30.2671 78.3861 29.7383 77.9267 29.7383C77.2568 29.7383 77.1433 30.8704 77.1433 31.3607V32.8474H76.3818V29.255H77.1425V30.1078H77.1574C77.3077 29.6175 77.6997 29.1719 78.2421 29.1719C78.7696 29.1719 79.1006 29.5563 79.1311 30.0623H79.146C79.3644 29.5791 79.6359 29.1719 80.2307 29.1719C80.9844 29.1719 81.1346 29.783 81.1346 30.4091V32.8467L80.3739 32.8474Z" fill="#0E0E0E"/>
<path d="M82.9409 30.6437C82.9409 31.4965 83.3401 32.5305 84.334 32.5305C84.568 32.5305 84.8012 32.4771 85.0195 32.3799V32.7266C84.658 32.8773 84.3645 32.9298 83.9724 32.9298C82.7296 32.9298 82.1794 32.0621 82.1794 30.8924C82.1794 29.8662 82.6083 29.1719 83.7087 29.1719C84.6799 29.1719 85.0868 29.7226 85.0868 30.6437H82.9409ZM83.6789 29.4888C83.2195 29.4888 82.9934 29.8811 82.9636 30.2961H84.3418C84.3418 29.874 84.154 29.4888 83.6789 29.4888Z" fill="#0E0E0E"/>
<path d="M88.2939 32.8472V30.598C88.2939 30.281 88.279 29.7373 87.8423 29.7373C87.134 29.7373 86.8781 30.8012 86.8781 31.3598V32.8465H86.1174V29.2541H86.8781V30.1069H86.893C87.134 29.5789 87.5332 29.1709 88.1514 29.1709C88.754 29.1709 89.0553 29.6612 89.0553 30.2198V32.8465L88.2939 32.8472Z" fill="#0E0E0E"/>
<path d="M91.3461 29.6476V31.7156C91.3461 32.1534 91.3531 32.5001 91.8884 32.5001C92.0089 32.5001 92.1295 32.4852 92.2422 32.4397V32.8775C92.0692 32.923 91.8884 32.9301 91.7147 32.9301C91.0596 32.9301 90.5846 32.7567 90.5846 32.0169V29.6468H90.0117V29.2545H90.5846V28.4088L91.3453 27.9482V29.2545H92.3243V29.6468L91.3461 29.6476Z" fill="#0E0E0E"/>
<path d="M96.3392 28.1378V29.8889H98.064V30.3871H96.3392V32.8474H95.5104V27.6396H98.1619V28.1378H96.3392Z" fill="#0E0E0E"/>
<path d="M101.183 32.8473V31.9945H101.168C100.927 32.5225 100.535 32.9305 99.9172 32.9305C99.3146 32.9305 99.0133 32.4401 99.0133 31.8815V29.2549H99.774V31.5042C99.774 31.8211 99.7889 32.3648 100.226 32.3648C100.934 32.3648 101.19 31.301 101.19 30.7424V29.2557H101.95V32.8481L101.183 32.8473Z" fill="#0E0E0E"/>
<path d="M105.433 32.8472V30.598C105.433 30.281 105.418 29.7373 104.981 29.7373C104.273 29.7373 104.017 30.8012 104.017 31.3598V32.8465H103.257V29.2541H104.017V30.1069H104.032C104.273 29.5789 104.672 29.1709 105.291 29.1709C105.893 29.1709 106.194 29.6612 106.194 30.2198V32.8465L105.433 32.8472Z" fill="#0E0E0E"/>
<path d="M109.542 32.8476V32.2592H109.527C109.354 32.6593 109.045 32.9308 108.593 32.9308C107.494 32.9308 107.245 31.9721 107.245 31.0518C107.245 30.1613 107.531 29.1728 108.593 29.1728C109.038 29.1728 109.323 29.369 109.527 29.7542H109.542V27.6406H110.303V32.8484L109.542 32.8476ZM108.797 29.6098C108.149 29.6098 108.074 30.5834 108.074 31.051C108.074 31.5264 108.142 32.4475 108.797 32.4475C109.46 32.4475 109.513 31.5343 109.513 31.051C109.512 30.5536 109.497 29.6098 108.797 29.6098Z" fill="#0E0E0E"/>
<path d="M1.93235 14.6375C2.28452 14.6375 2.57644 14.3456 2.57644 14.0044C2.57644 13.6639 2.28452 13.3838 1.93235 13.3838C1.59191 13.3838 1.30078 13.6639 1.30078 14.0044C1.3 14.3449 1.59191 14.6375 1.93235 14.6375Z" fill="#0E0E0E"/>
<path d="M3.57173 14.6375C3.91217 14.6375 4.2033 14.3456 4.2033 14.0044C4.2033 13.6639 3.91138 13.3838 3.57173 13.3838C3.2313 13.3838 2.9519 13.6639 2.9519 14.0044C2.95269 14.3449 3.23208 14.6375 3.57173 14.6375Z" fill="#0E0E0E"/>
<path d="M8.20186 22.2949C7.84968 22.2949 7.58203 22.575 7.58203 22.9163C7.58203 23.2576 7.84968 23.5494 8.20186 23.5494C8.54229 23.5494 8.83342 23.2576 8.83342 22.9163C8.83342 22.575 8.54151 22.2949 8.20186 22.2949Z" fill="#0E0E0E"/>
<path d="M9.82954 22.2949C9.48911 22.2949 9.20972 22.575 9.20972 22.9163C9.20972 23.2576 9.48911 23.5494 9.82954 23.5494C10.17 23.5494 10.4611 23.2576 10.4611 22.9163C10.4611 22.575 10.17 22.2949 9.82954 22.2949Z" fill="#0E0E0E"/>
<path d="M13.669 20.1887V17.9119C13.669 17.2176 14.1065 16.6943 14.8351 16.6943C15.1998 16.6943 15.5277 16.8646 15.8197 17.2176L16.6821 16.4386C16.1961 15.9639 15.6248 15.7207 14.969 15.7207C14.2036 15.7207 13.5963 15.9521 13.1588 16.4142C12.7338 16.8653 12.5147 17.4373 12.5147 18.1065V20.1887H11.1663V20.213H10.7773C9.97513 20.213 9.57444 19.8113 9.57444 19.0079V15.7207L8.43261 16.0612V18.9711C8.43261 19.7987 8.03191 20.213 7.21722 20.213H5.97835C5.1887 20.213 4.788 19.7987 4.788 18.9711V15.7207H2.32043C0.777913 15.7207 0 16.6221 0 18.4234C0 20.2859 0.777913 21.2117 2.32043 21.2117C3.23217 21.2117 3.82696 20.9316 4.10635 20.3589C4.36148 20.9316 4.96878 21.2117 5.91652 21.2117H7.29C8.03113 21.2117 8.60244 20.9928 9.01565 20.5668C9.42887 20.9928 9.98765 21.2117 10.7045 21.2117H17.6549L16.7924 20.1887H13.669ZM3.63287 18.4234C3.63287 19.0197 3.54756 19.4582 3.38948 19.7258C3.20713 20.0545 2.8667 20.213 2.39322 20.213C1.91974 20.213 1.5793 20.0545 1.39696 19.7258C1.23887 19.4582 1.15435 19.0197 1.15435 18.4234C1.15435 17.8264 1.23965 17.3886 1.39696 17.1329C1.5793 16.8159 1.91974 16.6574 2.39322 16.6574H3.63287V18.4234Z" fill="#0E0E0E"/>
<path d="M18.6997 21.2116H19.8541V13.3584L18.6997 13.724V21.2116Z" fill="#0E0E0E"/>
<path d="M23.4258 20.8832C23.4258 21.9062 22.8302 22.5385 21.8465 22.5385C21.1539 22.5385 20.5466 22.3801 19.9995 22.0764L20.5466 23.2211C20.8987 23.44 21.3245 23.5498 21.8465 23.5498C22.6846 23.5498 23.353 23.3066 23.839 22.8069C24.3375 22.3079 24.5801 21.6622 24.5801 20.8471V15.7217L23.4258 16.0622V20.8832Z" fill="#0E0E0E"/>
<path d="M28.6506 14.6374C28.991 14.6374 29.2704 14.3455 29.2704 14.0043C29.2704 13.6512 28.991 13.3594 28.6506 13.3594C28.3102 13.3594 28.019 13.6512 28.019 14.0043C28.019 14.3448 28.3102 14.6374 28.6506 14.6374Z" fill="#0E0E0E"/>
<path d="M32.6357 18.9468C32.6357 19.7745 32.2342 20.1887 31.4445 20.1887H29.3064V15.7207L28.1521 16.0612V20.883C28.1521 21.906 27.5565 22.5384 26.5728 22.5384C25.8802 22.5384 25.2729 22.3799 24.7258 22.0763L25.2729 23.2209C25.625 23.4398 26.0508 23.5497 26.5728 23.5497C28.1404 23.5497 29.1366 22.6239 29.2947 21.2117H31.5064C32.199 21.2117 32.7577 21.0046 33.171 20.6029C33.5842 20.1895 33.7908 19.678 33.7908 19.0566V13.3828L32.6364 13.7233L32.6357 18.9468Z" fill="#0E0E0E"/>
<path d="M34.8347 21.2116H35.9891V13.3584L34.8347 13.724V21.2116Z" fill="#0E0E0E"/>
<path d="M40.9343 14.6375C41.2865 14.6375 41.5784 14.3456 41.5784 14.0044C41.5784 13.6639 41.2865 13.3838 40.9343 13.3838C40.5939 13.3838 40.3027 13.6639 40.3027 14.0044C40.3027 14.3449 40.5939 14.6375 40.9343 14.6375Z" fill="#0E0E0E"/>
<path d="M42.5747 14.6375C42.9151 14.6375 43.2062 14.3456 43.2062 14.0044C43.2062 13.6639 42.9143 13.3838 42.5747 13.3838C42.2342 13.3838 41.9548 13.6639 41.9548 14.0044C41.9548 14.3449 42.2342 14.6375 42.5747 14.6375Z" fill="#0E0E0E"/>
<path d="M47.2038 22.2949C46.8516 22.2949 46.584 22.575 46.584 22.9163C46.584 23.2576 46.8516 23.5494 47.2038 23.5494C47.5442 23.5494 47.8354 23.2576 47.8354 22.9163C47.8362 22.575 47.5442 22.2949 47.2038 22.2949Z" fill="#0E0E0E"/>
<path d="M48.8325 22.2949C48.492 22.2949 48.2126 22.575 48.2126 22.9163C48.2126 23.2576 48.492 23.5494 48.8325 23.5494C49.1729 23.5494 49.464 23.2576 49.464 22.9163C49.464 22.575 49.1721 22.2949 48.8325 22.2949Z" fill="#0E0E0E"/>
<path d="M60.7759 14.6375C61.1163 14.6375 61.4082 14.3456 61.4082 14.0044C61.4082 13.6639 61.1163 13.3838 60.7759 13.3838C60.4354 13.3838 60.1443 13.6639 60.1443 14.0044C60.1443 14.3449 60.4362 14.6375 60.7759 14.6375Z" fill="#0E0E0E"/>
<path d="M64.6765 14.6375C65.0169 14.6375 65.3088 14.3456 65.3088 14.0044C65.3088 13.6639 65.0169 13.3838 64.6765 13.3838C64.3243 13.3838 64.0566 13.6639 64.0566 14.0044C64.0566 14.3449 64.3235 14.6375 64.6765 14.6375Z" fill="#0E0E0E"/>
<path d="M66.3042 14.6375C66.6446 14.6375 66.9365 14.3456 66.9365 14.0044C66.9365 13.6639 66.6446 13.3838 66.3042 13.3838C65.9762 13.3838 65.6843 13.6639 65.6843 14.0044C65.6843 14.3449 65.9762 14.6375 66.3042 14.6375Z" fill="#0E0E0E"/>
<path d="M69.5849 18.9468C69.5849 19.7745 69.1842 20.1887 68.3946 20.1887H67.6777V20.213H67.313C66.5108 20.213 66.1101 19.8113 66.1101 19.008V15.7207L64.9675 16.0612V18.9711C64.9675 19.7988 64.5668 20.213 63.7529 20.213H62.5868C61.7847 20.213 61.384 19.8113 61.384 19.008V15.7207L60.2414 16.0612V18.9711C60.2414 19.7988 59.8407 20.213 59.0268 20.213H58.4805V20.1887L58.2371 20.213C57.3747 20.213 56.8761 19.8113 56.7423 19.0197C56.6328 18.3019 56.4144 17.766 56.0622 17.4373C55.6733 17.0725 55.0902 16.8897 54.3006 16.8897C52.8668 16.8897 52.0529 17.5958 51.8463 19.0197C51.7493 19.7988 51.2633 20.1887 50.4001 20.1887H50.0839V20.213H49.7802C48.9781 20.213 48.5774 19.8113 48.5774 19.008V15.7207L47.4355 16.0612V18.9711C47.4355 19.7988 47.0348 20.213 46.2201 20.213H44.9805C44.1908 20.213 43.7901 19.7988 43.7901 18.9711V15.7207H41.3234C39.7801 15.7207 39.0029 16.6222 39.0029 18.4235C39.0029 20.286 39.7808 21.2117 41.3234 21.2117C42.2351 21.2117 42.8299 20.9317 43.1093 20.3589C43.3644 20.9317 43.9717 21.2117 44.9194 21.2117H46.2921C47.0333 21.2117 47.6046 20.9928 48.0178 20.5668C48.431 20.9928 48.9898 21.2117 49.7067 21.2117H50.4721C51.1279 21.2117 51.6264 21.0046 51.9786 20.6029C52.3065 21.5287 53.194 22.0637 54.299 22.0637C55.4651 22.0637 56.3643 21.4675 56.6562 20.4445C57.0264 20.9317 57.5539 21.1843 58.223 21.207V21.2117H59.0972C59.8383 21.2117 60.4096 20.9928 60.8221 20.5668C61.2353 20.9928 61.7941 21.2117 62.5109 21.2117H63.8234C64.5645 21.2117 65.1358 20.9928 65.5482 20.5668C65.9614 20.9928 66.5202 21.2117 67.2371 21.2117H68.4525C69.1451 21.2117 69.7039 21.0046 70.1171 20.6029C70.5303 20.1895 70.7369 19.678 70.7369 19.0566V13.3828L69.5826 13.7233V18.9468H69.5849ZM42.6358 18.4235C42.6358 19.0197 42.5505 19.4583 42.3924 19.7258C42.2101 20.0545 41.8696 20.213 41.3961 20.213C40.9219 20.213 40.5822 20.0545 40.3999 19.7258C40.2418 19.4583 40.1573 19.0197 40.1573 18.4235C40.1573 17.8264 40.2426 17.3887 40.3999 17.1329C40.5822 16.816 40.9227 16.6575 41.3961 16.6575H42.6358V18.4235ZM54.2998 21.0901C53.4374 21.0901 53.0116 20.5543 53.0116 19.4708C53.0116 18.3874 53.4366 17.8515 54.2998 17.8515C55.1505 17.8515 55.5754 18.3874 55.5754 19.4708C55.5754 20.5543 55.1505 21.0901 54.2998 21.0901Z" fill="#0E0E0E"/>
<path d="M71.7839 21.2116H72.9383V13.3584L71.7839 13.724V21.2116Z" fill="#0E0E0E"/>
<path d="M81.2036 14.6375C81.544 14.6375 81.8352 14.3456 81.8352 14.0044C81.8352 13.6639 81.5432 13.3838 81.2036 13.3838C80.8639 13.3838 80.572 13.6639 80.572 14.0044C80.5712 14.3449 80.8632 14.6375 81.2036 14.6375Z" fill="#0E0E0E"/>
<path d="M79.56 14.6375C79.9122 14.6375 80.2041 14.3456 80.2041 14.0044C80.2041 13.6639 79.9122 13.3838 79.56 13.3838C79.2196 13.3838 78.9285 13.6639 78.9285 14.0044C78.9285 14.3449 79.2204 14.6375 79.56 14.6375Z" fill="#0E0E0E"/>
<path d="M80.374 15.7939C79.5358 15.7939 78.916 16.0866 78.5145 16.6711C78.1866 17.1457 78.0168 17.7788 78.0168 18.5579C78.0168 19.3369 78.1866 19.97 78.5145 20.469C78.9152 21.0535 79.535 21.3461 80.374 21.3461C80.8842 21.3461 81.2732 21.212 81.5526 20.9562V21.0049C81.5643 21.5776 81.3335 21.991 80.86 22.235C80.5196 22.4053 80.0578 22.4782 79.4623 22.4665C78.5756 22.4665 77.9315 22.235 77.5543 21.7847C77.1778 21.3344 76.9829 20.531 76.9829 19.3864L75.9507 19.7637C76.0477 21.0786 76.3154 22.0036 76.7403 22.5394C77.2749 23.2086 78.1741 23.5499 79.4497 23.5499C81.5886 23.5499 82.6694 22.7097 82.6936 21.0174C82.6936 20.8833 82.7062 20.5789 82.7179 20.1168C82.7547 19.69 82.7664 19.3377 82.7664 19.0694C82.768 16.8899 81.9658 15.7939 80.374 15.7939ZM80.374 20.3105C79.5601 20.3105 79.1469 19.7261 79.1469 18.5579C79.1469 17.3889 79.5601 16.8044 80.374 16.8044C81.1879 16.8044 81.6011 17.3889 81.6011 18.5579C81.6011 19.7268 81.1879 20.3105 80.374 20.3105Z" fill="#0E0E0E"/>
<path d="M86.181 15.9277C85.3428 15.9277 84.7104 16.2204 84.3097 16.7923C83.9818 17.2677 83.812 17.8883 83.812 18.6548C83.812 19.4213 83.9818 20.0309 84.3097 20.5055C84.7104 21.09 85.3428 21.3819 86.181 21.3819C86.6067 21.3819 86.9831 21.2846 87.3353 21.09C87.2383 22.0032 86.7523 22.4904 85.8773 22.539C85.2818 22.5759 84.6377 22.4418 83.9451 22.113L84.4553 23.2334C84.7958 23.4405 85.2692 23.5495 85.8773 23.5495C86.7398 23.5495 87.3964 23.2695 87.8456 22.7218C88.2705 22.2346 88.4779 21.5772 88.4897 20.737C88.4897 20.6154 88.5022 20.3596 88.5264 19.9705C88.539 19.6174 88.539 19.313 88.539 19.0816C88.539 18.1441 88.4051 17.4262 88.1375 16.9265C87.7603 16.2565 87.1044 15.9277 86.181 15.9277ZM86.181 20.3714C85.3671 20.3714 84.9538 19.7987 84.9538 18.6548C84.9538 17.4984 85.3671 16.9257 86.181 16.9257C86.9949 16.9257 87.3964 17.4984 87.3964 18.6548C87.3956 19.7994 86.9949 20.3714 86.181 20.3714Z" fill="#0E0E0E"/>
<path d="M98.3113 14.6375C98.6517 14.6375 98.9436 14.3456 98.9436 14.0044C98.9436 13.6639 98.6517 13.3838 98.3113 13.3838C97.9708 13.3838 97.6797 13.6639 97.6797 14.0044C97.6797 14.3449 97.9716 14.6375 98.3113 14.6375Z" fill="#0E0E0E"/>
<path d="M109.745 17.1815C109.15 16.2197 108.25 15.745 107.072 15.7811C105.723 15.8172 104.666 16.4142 103.901 17.5832C103.524 18.1434 103.256 18.7396 103.098 19.3853V16.7798L101.944 17.1086V20.1887H100.51V20.213H100.121C99.3192 20.213 98.9185 19.8113 98.9185 19.0079V15.7207L97.7759 16.0612V18.9711C97.7759 19.7987 97.3752 20.213 96.5613 20.213H96.0628V20.1887H94.4107V17.8146C94.4107 17.1815 94.1915 16.6825 93.7423 16.3052C93.2931 15.9278 92.7218 15.7333 92.0049 15.7333C91.4579 15.7333 90.9108 15.9765 90.3646 16.4511V17.766C90.7653 17.0599 91.3123 16.7069 92.0049 16.7069C92.8431 16.7069 93.2681 17.1086 93.2681 17.9002V20.2138H90.2793L89.5867 21.2125H96.6341C97.3752 21.2125 97.9465 20.9936 98.3589 20.5676C98.7721 20.9936 99.3309 21.2125 100.048 21.2125H110.23C110.279 20.0435 110.303 19.532 110.303 19.6662C110.304 18.618 110.122 17.7903 109.745 17.1815ZM109.125 20.1887H103.706C103.754 19.4951 104.095 18.8008 104.739 18.0822C105.456 17.2545 106.234 16.8402 107.096 16.8402C107.801 16.8402 108.336 17.1329 108.712 17.7174C109.016 18.2163 109.161 18.8377 109.161 19.5924C109.162 19.7995 109.15 19.9941 109.125 20.1887Z" fill="#0E0E0E"/>
</g>
<defs>
<linearGradient id="paint0_linear_6819_12422" x1="123.222" y1="42.482" x2="177.323" y2="17.6193" gradientUnits="userSpaceOnUse">
<stop offset="0.0056" stop-color="#BD890F"/>
<stop offset="0.2528" stop-color="white" stop-opacity="0"/>
<stop offset="0.2891" stop-color="#FAF6EE" stop-opacity="0.1058"/>
<stop offset="0.3612" stop-color="#EEE0C1" stop-opacity="0.3164"/>
<stop offset="0.4625" stop-color="#DABD78" stop-opacity="0.6118"/>
<stop offset="0.5879" stop-color="#BE8C16" stop-opacity="0.9779"/>
<stop offset="0.5955" stop-color="#BD890F"/>
<stop offset="0.7564" stop-color="#D6B66C" stop-opacity="0.7264"/>
<stop offset="1" stop-color="white" stop-opacity="0.312"/>
</linearGradient>
<radialGradient id="paint1_radial_6819_12422" cx="0" cy="0" r="1" gradientUnits="userSpaceOnUse" gradientTransform="translate(149.92 29.5858) scale(27.9137 27.9658)">
<stop offset="0.0374" stop-color="#FFEFDF" stop-opacity="0"/>
<stop offset="0.1175" stop-color="#F9EDDB" stop-opacity="0.0909"/>
<stop offset="0.2285" stop-color="#E7E6D0" stop-opacity="0.217"/>
<stop offset="0.3578" stop-color="#C9DBBF" stop-opacity="0.3637"/>
<stop offset="0.5008" stop-color="#A0CCA6" stop-opacity="0.5261"/>
<stop offset="0.6551" stop-color="#6BB987" stop-opacity="0.7013"/>
<stop offset="0.8163" stop-color="#2CA261" stop-opacity="0.8843"/>
<stop offset="0.9182" stop-color="#009247"/>
</radialGradient>
<clipPath id="clip0_6819_12422">
<rect width="180" height="59.625" fill="white" transform="translate(0 0.1875)"/>
</clipPath>
</defs>
</svg>
