<svg width="106" height="36" viewBox="0 0 106 36" fill="none" xmlns="http://www.w3.org/2000/svg">
<g clip-path="url(#clip0_9836_14103)">
<mask id="mask0_9836_14103" style="mask-type:luminance" maskUnits="userSpaceOnUse" x="0" y="0" width="106" height="36">
<path d="M106 0.548828H0V35.4513H106V0.548828Z" fill="white"/>
</mask>
<g mask="url(#mask0_9836_14103)">
<path d="M17.5213 35.4513C27.1981 35.4513 35.0427 27.6381 35.0427 18C35.0427 8.36201 27.1981 0.548828 17.5213 0.548828C7.84455 0.548828 0 8.36201 0 18C0 27.6381 7.84455 35.4513 17.5213 35.4513Z" fill="#F9D129"/>
<path d="M17.5213 35.4513C27.1981 35.4513 35.0427 27.6381 35.0427 18C35.0427 8.36201 27.1981 0.548828 17.5213 0.548828C7.84455 0.548828 0 8.36201 0 18C0 27.6381 7.84455 35.4513 17.5213 35.4513Z" fill="url(#paint0_linear_9836_14103)"/>
<path d="M17.526 34.4415C26.6428 34.4415 34.0334 27.0802 34.0334 17.9997C34.0334 8.91912 26.6428 1.55786 17.526 1.55786C8.40917 1.55786 1.01855 8.91912 1.01855 17.9997C1.01855 27.0802 8.40917 34.4415 17.526 34.4415Z" fill="white"/>
<path d="M17.5259 34.2222C26.521 34.2222 33.813 26.9595 33.813 18.0004C33.813 9.04134 26.521 1.77856 17.5259 1.77856C8.53079 1.77856 1.23877 9.04134 1.23877 18.0004C1.23877 26.9595 8.53079 34.2222 17.5259 34.2222Z" fill="#8BC441"/>
<path style="mix-blend-mode:multiply" d="M17.5215 34.2222C26.5171 34.2222 33.8095 26.9595 33.8095 18.0004C33.8095 9.04134 26.5171 1.77856 17.5215 1.77856C8.5258 1.77856 1.2334 9.04134 1.2334 18.0004C1.2334 26.9595 8.5258 34.2222 17.5215 34.2222Z" fill="url(#paint1_radial_9836_14103)"/>
<path d="M6.82458 25.2734C6.82458 25.2734 15.0036 25.8117 22.1296 30.1924C22.1296 30.1924 21.401 31.4222 20.5101 31.7295C20.5101 31.7295 14.558 26.5033 6.82458 25.2734Z" fill="white"/>
<path d="M27.9555 25.2734C27.9555 25.2734 19.7765 25.8117 12.6505 30.1924C12.6505 30.1924 13.3791 31.4222 14.27 31.7295C14.27 31.7295 20.2221 26.5033 27.9555 25.2734Z" fill="white"/>
<path d="M8.17493 11.7224C10.4668 9.42983 11.9388 9.02203 13.7713 8.73638C11.8941 9.92306 10.141 12.6826 10.6871 14.6248C11.6785 12.5642 13.409 10.5504 15.0046 9.81652C14.1022 11.0767 14.0731 12.6464 14.9419 13.9869C15.1433 12.2477 16.3664 10.5766 17.3886 9.45739C18.4108 10.577 19.634 12.2477 19.8354 13.9869C20.7041 12.6464 20.6751 11.0767 19.7727 9.81652C21.3682 10.5504 23.0983 12.5642 24.0901 14.6248C24.6367 12.6826 22.8831 9.92306 21.0065 8.73638C22.8393 9.02249 24.3109 9.42983 26.6028 11.7224C25.8465 8.65555 23.1836 7.59286 21.0548 7.21353C23.3974 7.01376 23.8625 7.25073 25.9313 8.10354C23.6846 5.90423 22.1098 5.5079 19.8598 5.72191C20.2456 5.38666 20.6143 5.20526 21.1811 5.05648C20.2373 4.68633 18.7606 4.88105 18.1859 5.42845C18.1859 5.42845 18.073 4.42089 17.3955 4.01492V4.00574C17.3928 4.00712 17.3909 4.00895 17.3882 4.01079C17.3854 4.00941 17.3836 4.00757 17.3808 4.00574V4.01538C16.7033 4.42135 16.5904 5.42891 16.5904 5.42891C16.0157 4.88151 14.5395 4.68679 13.5952 5.05694C14.1625 5.20572 14.5308 5.38666 14.9165 5.72237C12.6666 5.5079 11.0918 5.90469 8.84503 8.104C10.9139 7.25119 11.3789 7.01376 13.7215 7.21399C11.5941 7.59286 8.93121 8.65555 8.17493 11.7224Z" fill="white"/>
<path d="M18.2588 13.2043C18.1381 12.8971 17.427 11.2971 17.4274 11.2943C17.4279 11.2971 15.8314 14.188 15.8854 15.7265C15.9084 16.385 16.107 16.9931 16.4163 17.4064C16.6444 17.7141 16.8523 17.7728 17.1675 17.8509C17.2403 17.8881 17.3887 17.878 17.4085 17.8133C17.898 16.2045 17.4643 14.5591 17.4643 14.5591C17.4643 14.5591 18.1298 15.5189 17.9957 17.8041C17.9906 17.9019 18.0468 17.9074 18.0584 17.9056C19.1211 17.7494 19.117 16.2417 19.0847 15.5823C19.0515 14.9164 18.5722 13.8146 18.2588 13.2043Z" fill="white"/>
<path d="M12.908 22.2407C13.4495 22.451 16.141 22.3794 16.5028 25.2781C16.1866 25.0283 15.5308 24.9479 15.0888 24.863C11.9927 24.2673 11.7987 21.7654 11.7061 21.2749C11.7876 21.4145 12.0061 21.7093 13.9012 21.7865C15.2041 21.8393 17.8988 22.0924 18.0126 26.5286L17.5462 26.7339L17.077 26.5286C17.2535 21.6134 13.4191 22.3367 12.908 22.2407Z" fill="white"/>
<path d="M21.1347 21.786C20.1429 21.8265 18.4962 21.9353 17.6422 23.3837C17.7911 23.651 17.9091 23.9486 17.9957 24.2765C19.0585 22.0152 21.6817 22.3243 22.1279 22.2402C21.685 22.4124 19.7839 22.4956 18.7137 24.0836C18.4842 24.4239 18.1653 25.3567 18.1662 25.3709C18.5022 25.1279 19.5129 24.9465 19.947 24.863C23.0431 24.2673 23.2372 21.7654 23.3298 21.2749C23.2482 21.4141 23.0298 21.7089 21.1347 21.786Z" fill="white"/>
<path d="M17.6689 20.9161C17.5412 19.9196 17.8998 18.9538 18.4653 18.2952C19.0307 17.6367 19.7741 17.3161 20.5147 17.2018C20.7618 17.1637 21.012 17.1462 21.2517 17.0585C21.4913 16.9708 21.7259 16.8041 21.8688 16.5281C21.7973 17.6422 20.8493 21.8429 17.9385 21.8089C17.8707 20.8624 19.2713 19.5926 19.982 19.1977C18.4362 19.5338 17.8712 20.597 17.6689 20.9161Z" fill="white"/>
<path d="M17.337 20.9161C17.4647 19.9196 17.1061 18.9538 16.5406 18.2952C15.9751 17.6367 15.2317 17.3161 14.4911 17.2018C14.2441 17.1637 13.9938 17.1462 13.7542 17.0585C13.5141 16.9712 13.28 16.8041 13.1371 16.5281C13.2085 17.6422 14.1565 21.8429 17.0674 21.8089C17.1351 20.8624 15.7345 19.5214 15.0239 19.1265C16.5692 19.4626 17.1347 20.597 17.337 20.9161Z" fill="white"/>
<path d="M54.2337 24.8719C54.3872 24.8719 54.5079 24.7521 54.5079 24.5987C54.5079 24.4453 54.3872 24.3254 54.2337 24.3254C54.0747 24.3254 53.9595 24.4403 53.9595 24.5987C53.9595 24.7571 54.0752 24.8719 54.2337 24.8719Z" fill="white"/>
<path d="M54.9841 24.8719C55.1403 24.8719 55.2583 24.7544 55.2583 24.5987C55.2583 24.4425 55.1403 24.3254 54.9841 24.3254C54.8278 24.3254 54.7098 24.443 54.7098 24.5987C54.7098 24.7548 54.8274 24.8719 54.9841 24.8719Z" fill="white"/>
<path d="M57.1819 28.0917C57.0257 28.0917 56.9077 28.2069 56.9077 28.3594C56.9077 28.5156 57.0257 28.6327 57.1819 28.6327C57.3382 28.6327 57.4566 28.5151 57.4566 28.3594C57.4566 28.2069 57.3382 28.0917 57.1819 28.0917Z" fill="white"/>
<path d="M56.4321 28.0917C56.2731 28.0917 56.1575 28.2042 56.1575 28.3594C56.1575 28.5179 56.2731 28.6327 56.4321 28.6327C56.5861 28.6327 56.7068 28.5123 56.7068 28.3594C56.7068 28.2092 56.5861 28.0917 56.4321 28.0917Z" fill="white"/>
<path d="M56.8445 25.4367L56.8773 25.4472C57.1054 25.5198 57.1054 25.5552 57.1054 25.6727V26.9333C57.1054 27.2534 56.9768 27.4178 56.7233 27.4229H55.8173C55.6002 27.4045 55.555 27.1919 55.555 27.0165V25.6727C55.555 25.5699 55.5592 25.4339 55.591 25.2961L55.5933 25.2856H55.3181L55.3158 25.2883C55.2891 25.315 55.2859 25.3347 55.2831 25.3503C55.2817 25.3572 55.2808 25.3627 55.2776 25.3696C55.2472 25.4587 55.2333 25.4844 55.2283 25.4913C55.2172 25.484 55.1882 25.4651 55.1449 25.4376L55.1425 25.4362C55.0227 25.3586 54.8232 25.2286 54.5254 25.2286C53.8517 25.2286 53.4489 25.8344 53.4489 26.4204C53.4489 27.089 53.8825 27.6328 54.4158 27.6328C54.8149 27.6328 55.0628 27.3705 55.1633 27.129C55.1822 27.5841 55.4956 27.6277 55.8163 27.6328H56.8114C57.2828 27.6328 57.5755 27.371 57.5755 26.9499V25.2998L56.8777 25.4316L56.8445 25.4367ZM55.0379 26.9774C54.955 27.253 54.7319 27.4385 54.484 27.4385C54.2821 27.4385 53.9406 27.2305 53.9406 26.4511C53.9406 25.6957 54.2558 25.4275 54.5259 25.4275C54.7577 25.4275 54.9135 25.5244 55.0024 25.7242C55.0845 25.9092 55.0951 26.1572 55.0951 26.3529C55.0946 26.622 55.0849 26.8208 55.0379 26.9774Z" fill="white"/>
<path d="M59.271 25.3058H59.2604C59.089 25.3058 58.9318 25.3898 58.7797 25.563C58.5502 25.8238 58.4594 25.8459 58.3377 25.8504L58.3271 25.8509L58.4281 26.2849L58.4391 26.2688C58.7212 25.8638 59.0083 25.489 59.1977 25.489C59.4692 25.489 59.5222 25.9671 59.5222 26.7928V27.4224H57.9967L58.17 27.6286L58.1728 27.6319H60.0508V27.4881C60.0503 26.836 59.9748 25.3177 59.271 25.3058Z" fill="white"/>
<path d="M71.1163 24.4353L71.149 24.4459C71.3721 24.5166 71.3721 24.5483 71.3721 24.6659V26.9327C71.3721 27.2574 71.2366 27.4222 70.9697 27.4222H70.8462V27.4273H70.7872C70.4992 27.4273 70.2854 27.1228 70.2231 26.8238V25.3038L69.5023 25.4415L69.5346 25.4521C69.7521 25.5228 69.7521 25.5545 69.7521 25.6721V26.9533C69.7521 27.278 69.6166 27.4424 69.3498 27.4424C69.0064 27.4424 68.7958 26.9703 68.7958 26.6314V25.4902L68.0603 25.628L68.0916 25.6385C68.3197 25.7162 68.3197 25.735 68.3197 25.8378V26.9533C68.3197 27.278 68.1829 27.4424 67.9123 27.4424C67.6118 27.4424 67.4081 27.0778 67.369 26.7352V25.6771L66.6708 25.8034L66.6376 25.8094L66.6698 25.8204C66.898 25.8962 66.898 25.9132 66.898 26.0248V26.9322C66.898 27.2569 66.7643 27.4218 66.5007 27.4218H65.1305C64.9715 27.4218 64.9006 27.3933 64.8388 27.3437C65.0559 27.2266 65.301 27.0838 65.4859 26.9106C65.7011 26.7095 65.8057 26.4996 65.8057 26.2682C65.8057 25.7051 65.3688 25.3414 64.6927 25.3414C64.3507 25.3414 63.9406 25.4764 63.506 25.7318C63.4815 25.746 63.4659 25.7575 63.4539 25.7671C63.4479 25.7717 63.4433 25.7754 63.4382 25.7786L63.4295 25.7846L63.4368 25.7919C63.4493 25.8043 63.4884 25.8581 63.5226 25.9054L63.564 25.9614C63.6521 26.0762 63.8166 26.2897 63.8982 26.4431C64.1733 26.9961 64.2715 27.1513 64.4185 27.3189C64.2839 27.3947 63.983 27.4213 63.9267 27.4213H62.5045C62.5285 27.211 62.54 26.9423 62.54 26.5997V25.3203H62.1353C61.6938 25.3203 61.3141 25.4608 61.0366 25.7263C60.755 25.9963 60.6057 26.3719 60.6057 26.8128C60.6057 27.3396 61.0823 27.6307 61.4113 27.6307H61.9989C61.8113 28.2544 61.3694 28.4307 60.9615 28.5212L60.7679 28.5534L60.8375 28.5593C61.0343 28.5754 61.1938 28.585 61.2652 28.585C61.5376 28.585 61.7574 28.5304 61.9372 28.4179C62.1819 28.2649 62.3561 28 62.4543 27.6307H64.0521C64.3309 27.6307 64.4641 27.5738 64.6061 27.4985C64.6079 27.4994 64.6093 27.5003 64.6111 27.5008C64.6853 27.5499 64.8107 27.6307 65.2029 27.6307H66.6039C66.9381 27.6307 67.1874 27.5086 67.3086 27.2854C67.4966 27.5338 67.7068 27.6358 68.0312 27.6358C68.3548 27.6358 68.6718 27.447 68.752 27.2105C68.8756 27.4695 69.1502 27.6358 69.4586 27.6358C69.8157 27.6358 70.0849 27.4746 70.1835 27.2036C70.3102 27.4553 70.5955 27.6358 70.8702 27.6358H70.9416V27.6307H71.079C71.5537 27.6307 71.8486 27.369 71.8486 26.9478V24.2966L71.1504 24.4284L71.1163 24.4353ZM62.0644 27.2702C62.0644 27.3313 62.0602 27.3708 62.0556 27.4167L62.0551 27.4222H61.5261C61.2449 27.4222 61.0767 27.0971 61.0767 26.7825C61.0767 26.0151 61.562 25.4994 62.0155 25.4994H62.0644V27.2702ZM64.2733 26.4886C64.1507 26.219 64.0198 26.0046 63.8622 25.8153C64.1452 25.6597 64.4337 25.5775 64.6978 25.5775C65.0577 25.5775 65.2725 25.8282 65.2725 26.2484C65.2725 26.7407 65.0222 26.9359 64.6683 27.1554C64.5305 26.9988 64.3696 26.6796 64.2733 26.4886Z" fill="white"/>
<path d="M72.2736 24.4354L72.3054 24.4459C72.5234 24.5185 72.5233 24.5525 72.5233 24.6659V27.6317H72.999V24.2976L72.3063 24.4294L72.2736 24.4354Z" fill="white"/>
<path d="M75.1886 24.8719C75.3421 24.8719 75.4628 24.7521 75.4628 24.5987C75.4628 24.4453 75.3421 24.3254 75.1886 24.3254C75.0296 24.3254 74.9139 24.4403 74.9139 24.5987C74.9139 24.7571 75.0296 24.8719 75.1886 24.8719Z" fill="white"/>
<path d="M75.9389 24.8719C76.0951 24.8719 76.2131 24.7544 76.2131 24.5987C76.2131 24.4425 76.0951 24.3254 75.9389 24.3254C75.7827 24.3254 75.6647 24.443 75.6647 24.5987C75.6642 24.7548 75.7822 24.8719 75.9389 24.8719Z" fill="white"/>
<path d="M77.392 28.0917C77.233 28.0917 77.1178 28.2042 77.1178 28.3594C77.1178 28.5179 77.2335 28.6327 77.392 28.6327C77.5455 28.6327 77.6662 28.5123 77.6662 28.3594C77.6662 28.2092 77.5455 28.0917 77.392 28.0917Z" fill="white"/>
<path d="M78.1419 28.0917C77.9856 28.0917 77.8672 28.2069 77.8672 28.3594C77.8672 28.5156 77.9856 28.6327 78.1419 28.6327C78.2981 28.6327 78.4165 28.5151 78.4165 28.3594C78.4165 28.2069 78.2981 28.0917 78.1419 28.0917Z" fill="white"/>
<path d="M80.2549 25.2989L79.5571 25.4307L79.5235 25.4371L79.5562 25.4477C79.7843 25.5198 79.7843 25.5556 79.7843 25.6732V26.9338C79.7843 27.2539 79.6558 27.4183 79.4023 27.4234H78.9336C78.5773 27.4234 78.3589 26.9632 78.3589 26.633V25.2994L77.6611 25.4312L77.6289 25.4371L77.6597 25.4477C77.869 25.5207 77.8828 25.5409 77.8828 25.647V26.9494C77.8828 27.2681 77.7579 27.4229 77.5017 27.4229H76.7726C76.5555 27.4045 76.5103 27.1919 76.5103 27.0165V25.6727C76.5103 25.5699 76.5145 25.4344 76.5463 25.2957L76.5486 25.2851H76.2734L76.2711 25.2879C76.2444 25.3145 76.2407 25.3343 76.2379 25.3503C76.2366 25.3568 76.2356 25.3627 76.2329 25.3692C76.2061 25.4486 76.19 25.4817 76.1831 25.4909C76.172 25.4835 76.1435 25.4647 76.1001 25.4371L76.0969 25.4353C75.9771 25.3577 75.7771 25.2286 75.4803 25.2286C74.8065 25.2286 74.4037 25.8344 74.4037 26.4204C74.4037 27.089 74.8374 27.6328 75.3706 27.6328C75.7692 27.6328 76.0172 27.3705 76.1181 27.129C76.137 27.5841 76.4509 27.6277 76.7716 27.6328H77.5947C77.8708 27.6328 78.2271 27.5639 78.3672 27.2378C78.5409 27.4927 78.7709 27.6328 79.0165 27.6328H79.4908C79.9622 27.6328 80.2549 27.371 80.2549 26.9499V25.2989ZM75.9928 26.9774C75.9093 27.253 75.6863 27.4385 75.4388 27.4385C75.2369 27.4385 74.8954 27.2305 74.8954 26.4511C74.8954 25.6957 75.2107 25.4275 75.4807 25.4275C75.7126 25.4275 75.8683 25.5244 75.9573 25.7242C76.0393 25.9092 76.0499 26.1572 76.0499 26.3529C76.0495 26.6211 76.0398 26.8195 75.9928 26.9774Z" fill="white"/>
<path d="M79.6268 28.0809C79.4701 28.0809 79.347 28.2031 79.347 28.3592C79.347 28.5099 79.4729 28.6325 79.6268 28.6325C79.7807 28.6325 79.9061 28.5099 79.9061 28.3592C79.9061 28.2031 79.7835 28.0809 79.6268 28.0809Z" fill="white"/>
<path d="M86.0498 24.4353L86.0826 24.4459C86.3056 24.5166 86.3056 24.5483 86.3056 24.6659V26.9327C86.3056 27.2574 86.1701 27.4222 85.9033 27.4222H84.5382C84.3796 27.4222 84.3087 27.3938 84.2465 27.3442C84.7502 27.0723 85.2134 26.7531 85.2134 26.2686C85.2134 25.7056 84.7765 25.3419 84.1004 25.3419C83.7589 25.3419 83.3487 25.4769 82.9136 25.7322C82.8883 25.7465 82.8731 25.7584 82.8606 25.768C82.8551 25.7722 82.85 25.7759 82.8454 25.7791L82.8367 25.785L82.844 25.7924C82.8569 25.8052 82.8984 25.8622 82.9348 25.9127L82.9768 25.9683C83.0699 26.09 83.2256 26.293 83.3058 26.4436C83.58 26.9956 83.6791 27.1513 83.8261 27.3194C83.692 27.3951 83.3906 27.4218 83.3344 27.4218H81.8292C81.8785 27.1366 81.885 26.8335 81.885 26.6002V25.2978L81.148 25.4356L81.1807 25.4461C81.4089 25.5182 81.4089 25.554 81.4089 25.6716V26.9887C81.3766 27.7543 81.1702 28.2783 80.2433 28.5267L80.1949 28.5396L80.2452 28.5437C80.4152 28.5575 80.5415 28.5644 80.6213 28.5644C81.2573 28.5644 81.6393 28.259 81.7896 27.6307H83.4602C83.7386 27.6307 83.8722 27.5738 84.0146 27.4985C84.0165 27.4994 84.0179 27.5003 84.0197 27.5008C84.0934 27.5499 84.2179 27.6307 84.6115 27.6307H86.0125C86.4872 27.6307 86.7822 27.369 86.7822 26.9478V24.2966L86.0839 24.4284L86.0498 24.4353ZM83.6814 26.4886C83.5593 26.2195 83.4284 26.0055 83.2703 25.8153C83.5533 25.6597 83.8423 25.5775 84.1063 25.5775C84.4663 25.5775 84.6811 25.8282 84.6811 26.2484C84.6811 26.7412 84.4308 26.9364 84.0764 27.1554C83.9483 27.0103 83.8054 26.7352 83.6814 26.4886Z" fill="white"/>
<path d="M87.2095 24.4354L87.2413 24.4459C87.4593 24.5185 87.4593 24.5525 87.4593 24.6659V27.6317H87.9349V24.2976L87.2422 24.4294L87.2095 24.4354Z" fill="white"/>
<path d="M90.1221 24.8719C90.2756 24.8719 90.3963 24.7521 90.3963 24.5987C90.3963 24.4453 90.2756 24.3254 90.1221 24.3254C89.9631 24.3254 89.8479 24.4403 89.8479 24.5987C89.8474 24.7571 89.9631 24.8719 90.1221 24.8719Z" fill="white"/>
<path d="M90.8733 24.8719C91.0296 24.8719 91.1476 24.7544 91.1476 24.5987C91.1476 24.4425 91.0296 24.3254 90.8733 24.3254C90.7171 24.3254 90.5991 24.443 90.5991 24.5987C90.5991 24.7548 90.7171 24.8719 90.8733 24.8719Z" fill="white"/>
<path d="M103.916 24.4408C104.15 24.5129 104.15 24.5473 104.15 24.6608V26.9327C104.15 27.0713 104.124 27.2266 104.028 27.3244C104.025 27.3281 104.021 27.3304 104.017 27.3336C103.981 27.3671 103.937 27.3933 103.881 27.408C103.875 27.4098 103.868 27.4103 103.862 27.4116C103.833 27.4176 103.803 27.4222 103.768 27.4222H103.367C103.123 27.4222 102.951 27.188 102.87 26.9685C102.88 26.9124 102.886 26.85 102.886 26.7825C102.886 26.5281 102.792 26.2516 102.636 26.0431C102.506 25.87 102.274 25.6638 101.908 25.6638C101.13 25.6638 101.002 26.1547 100.879 26.63C100.813 26.8821 100.731 27.1958 100.575 27.3469C100.519 27.3933 100.441 27.4098 100.394 27.4199L100.382 27.4227H100.044C99.7999 27.4227 99.6275 27.1884 99.5474 26.9689C99.5575 26.9129 99.563 26.8504 99.563 26.7829C99.563 26.5285 99.4695 26.2521 99.3128 26.0436C99.1828 25.8704 98.951 25.6642 98.5851 25.6642C97.8062 25.6642 97.679 26.1552 97.5555 26.6305C97.4896 26.8826 97.4075 27.1963 97.2513 27.3473C97.1955 27.3937 97.1167 27.4103 97.0693 27.4204L97.0587 27.4231H96.7411C96.3872 27.4231 96.1613 26.9552 96.1613 26.6328V24.2874L95.4687 24.4192L95.4369 24.4252L95.4677 24.4357C95.6774 24.5088 95.6908 24.529 95.6908 24.6355V26.9492C95.6908 27.2633 95.5622 27.4227 95.3087 27.4227H94.2082V26.5391C94.2082 26.0357 93.7376 25.5669 93.1514 25.4773C93.6593 25.3193 94.3796 24.9354 94.4059 24.6617L94.4064 24.6585L94.0556 24.1836L94.0418 24.1648L94.04 24.1882C93.9999 24.726 93.0108 25.4305 92.6689 25.4305H92.5389L92.408 25.6293H92.903C93.1643 25.6293 93.3782 25.7395 93.5224 25.9485C93.6344 26.1115 93.7017 26.3384 93.7017 26.5542V27.4222H91.7057C91.4886 27.4038 91.4434 27.1912 91.4434 27.0158V25.672C91.4434 25.5692 91.4476 25.4337 91.4794 25.295L91.4817 25.2844H91.2065L91.2042 25.2872C91.1775 25.3138 91.1738 25.3336 91.1711 25.3496C91.1697 25.3561 91.1688 25.362 91.166 25.3685C91.1393 25.4479 91.1231 25.481 91.1162 25.4902C91.1052 25.4828 91.0766 25.464 91.0333 25.4364L91.03 25.4346C90.9102 25.357 90.7102 25.2279 90.4134 25.2279C89.7396 25.2279 89.3368 25.8337 89.3368 26.4197C89.3368 27.0883 89.7705 27.6321 90.3037 27.6321C90.7024 27.6321 90.9503 27.3698 91.0512 27.1283C91.0701 27.5834 91.384 27.627 91.7047 27.6321H95.4028C95.6364 27.6321 95.8189 27.5788 95.9572 27.486C95.9613 27.4833 95.9655 27.4796 95.9696 27.4769C96.0268 27.4364 96.0747 27.3878 96.1134 27.3313C96.1162 27.3271 96.1185 27.3235 96.1213 27.3193C96.1392 27.2918 96.1618 27.2684 96.1752 27.2371C96.3489 27.492 96.5807 27.6321 96.8296 27.6321H97.0536C97.2942 27.6321 97.4582 27.5682 97.6002 27.4185C97.7693 27.6312 97.9896 27.8548 98.4496 27.8548C98.5049 27.8548 98.5542 27.8424 98.6067 27.836C98.6201 27.8346 98.6335 27.8332 98.6464 27.8314C98.7367 27.8181 98.821 27.7951 98.9008 27.7634C98.9187 27.7565 98.9372 27.7501 98.9542 27.7418C99.0266 27.7088 99.092 27.667 99.1529 27.6192C99.1662 27.6087 99.1805 27.5986 99.1929 27.5875C99.2483 27.5389 99.2962 27.4837 99.34 27.4227C99.351 27.407 99.3625 27.3914 99.3727 27.3749C99.3907 27.346 99.4146 27.3225 99.4303 27.2918C99.6216 27.5329 99.8303 27.6316 100.147 27.6316H100.377C100.618 27.6316 100.782 27.5678 100.923 27.4185C101.093 27.6312 101.314 27.8548 101.773 27.8548C101.828 27.8548 101.878 27.8424 101.931 27.836C101.943 27.8346 101.957 27.8332 101.969 27.8314C102.06 27.8176 102.146 27.7946 102.226 27.7625C102.243 27.7556 102.261 27.7496 102.277 27.7423C102.351 27.7083 102.417 27.6661 102.479 27.6169C102.491 27.6073 102.504 27.5981 102.516 27.588C102.572 27.5384 102.621 27.4819 102.665 27.4199C102.675 27.4052 102.686 27.3914 102.695 27.3763C102.714 27.3469 102.738 27.3235 102.754 27.2918C102.944 27.5329 103.153 27.6316 103.471 27.6316H103.851C104.326 27.6316 104.621 27.3698 104.621 26.9487V24.2925L103.883 24.4307L103.916 24.4408ZM90.9245 26.9772C90.8411 27.2527 90.618 27.4383 90.3705 27.4383C90.1687 27.4383 89.8272 27.2302 89.8272 26.4509C89.8272 25.6954 90.1424 25.4273 90.4125 25.4273C90.6443 25.4273 90.8001 25.5242 90.889 25.7239C90.971 25.909 90.9816 26.157 90.9816 26.3526C90.9812 26.6208 90.972 26.8192 90.9245 26.9772ZM98.4648 27.656C98.1279 27.656 97.8836 27.3565 97.7799 27.2302C97.779 27.2279 97.7702 27.2105 97.7573 27.2004C97.8468 27.0291 97.8928 26.8573 97.9366 26.6911L97.9472 26.6507L97.9583 26.619C98.0555 26.2397 98.1565 25.8475 98.491 25.8475H98.5113C98.8939 25.8631 99.0653 26.3416 99.0653 26.8087C99.0653 27.2679 98.7901 27.656 98.4648 27.656ZM101.788 27.656C101.452 27.656 101.207 27.3579 101.102 27.2293C101.098 27.2211 101.09 27.2082 101.08 27.1999C101.171 27.0268 101.217 26.8532 101.26 26.6851L101.27 26.6502L101.281 26.6185C101.378 26.2392 101.479 25.847 101.814 25.847H101.834C102.217 25.8626 102.388 26.3411 102.388 26.8082C102.389 27.2679 102.114 27.656 101.788 27.656Z" fill="white"/>
<path d="M105.082 24.4294L105.049 24.4354L105.081 24.4459C105.299 24.5185 105.299 24.5525 105.299 24.6659V27.6317H105.775V24.2976L105.082 24.4294Z" fill="white"/>
<path d="M105.999 21.5475H81.3495C62.3114 21.5475 46.8783 21.7702 46.8783 22.0448C46.8783 22.3195 62.3114 22.5422 81.3495 22.5422H105.999V21.5475Z" fill="#8AC340"/>
<path d="M47.854 18.7756L47.5747 17.87H46.5188L46.2395 18.7756H45.8091L46.8294 15.7272H47.335L48.36 18.7756H47.854ZM47.0557 16.1644H47.047L46.6124 17.5784H47.4862L47.0557 16.1644Z" fill="white"/>
<path d="M49.4472 19.7695C49.2389 19.7695 49.0389 19.7383 48.8393 19.6855V19.2483C49.0522 19.3764 49.2605 19.5045 49.5182 19.5045C50.1168 19.5045 50.0417 18.9126 50.0417 18.4841H50.033C49.9085 18.6962 49.7269 18.7757 49.4827 18.7757C48.8619 18.7757 48.6886 18.2232 48.6886 17.702C48.6886 17.1628 48.8393 16.6241 49.4827 16.6241C49.7491 16.6241 49.9353 16.7789 50.033 17.0173H50.0417V16.6728H50.4897V18.7142C50.4892 19.4292 50.1878 19.7695 49.4472 19.7695ZM49.6025 16.9066C49.2209 16.9066 49.1767 17.4232 49.1767 17.702C49.1767 17.9803 49.2168 18.5194 49.6025 18.5194C50.0108 18.5194 50.0283 18.0202 50.0283 17.724C50.0283 17.4365 49.997 16.9066 49.6025 16.9066Z" fill="white"/>
<path d="M51.7008 17.8127V18.7757H51.2528V16.6728H51.7008V17.2074H51.7095C51.8602 16.9024 52.0202 16.6549 52.3925 16.6241V17.088C51.8962 17.1013 51.7008 17.3135 51.7008 17.8127Z" fill="white"/>
<path d="M52.9299 16.169V15.7272H53.4134V16.169H52.9299ZM52.9474 18.7756V16.6728H53.3954V18.7756H52.9474Z" fill="white"/>
<path d="M55.2191 17.3571C55.2191 17.1403 55.2058 16.8092 54.9131 16.8092C54.5891 16.8092 54.5228 17.251 54.5228 17.4898C54.5228 17.9537 54.7136 18.5902 55.2813 18.5902C55.4099 18.5902 55.5385 18.5589 55.6583 18.5107V18.7183C55.4763 18.7844 55.2855 18.8244 55.0952 18.8244C54.3499 18.8244 54.0352 18.3385 54.0352 17.6405C54.0352 17.0485 54.2923 16.6241 54.9311 16.6241C55.4279 16.6241 55.6897 16.8584 55.6897 17.3576L55.2191 17.3571Z" fill="white"/>
<path d="M57.4681 18.7755V18.2763H57.4593C57.3174 18.5854 57.0865 18.8242 56.7229 18.8242C56.368 18.8242 56.1906 18.5371 56.1906 18.2102V16.6726H56.6385V17.9893C56.6385 18.1748 56.6473 18.493 56.9044 18.493C57.3215 18.493 57.4722 17.8703 57.4722 17.5433V16.6731H57.9202V18.7759L57.4681 18.7755Z" fill="white"/>
<path d="M58.7111 18.7756V15.7272H59.159V18.7756H58.7111Z" fill="white"/>
<path d="M60.5343 16.9022V18.1128C60.5343 18.369 60.539 18.572 60.8537 18.572C60.9247 18.572 60.9957 18.5633 61.062 18.5366V18.7929C60.9602 18.8195 60.8537 18.8237 60.7514 18.8237C60.3657 18.8237 60.0859 18.7222 60.0859 18.2891V16.9017H59.749V16.6721H60.0859V16.177L60.5339 15.9075V16.6721H61.1104V16.9017L60.5343 16.9022Z" fill="white"/>
<path d="M62.899 18.7755V18.2763H62.8902C62.7483 18.5854 62.5174 18.8242 62.1538 18.8242C61.7989 18.8242 61.6215 18.5371 61.6215 18.2102V16.6726H62.0694V17.9893C62.0694 18.1748 62.0782 18.493 62.3353 18.493C62.7524 18.493 62.9031 17.8703 62.9031 17.5433V16.6731H63.3511V18.7759L62.899 18.7755Z" fill="white"/>
<path d="M64.5674 17.8127V18.7757H64.1194V16.6728H64.5674V17.2074H64.5761C64.7268 16.9024 64.8867 16.6549 65.2591 16.6241V17.088C64.7623 17.1013 64.5674 17.3135 64.5674 17.8127Z" fill="white"/>
<path d="M66.75 18.7757V18.4841H66.7413C66.6168 18.6962 66.3952 18.8244 66.1467 18.8244C65.8453 18.8244 65.5702 18.6168 65.5702 18.2985C65.5702 17.7066 66.3021 17.6271 66.75 17.6051V17.4196C66.75 17.2074 66.7546 16.8097 66.4528 16.8097C66.1689 16.8097 66.1246 17.0393 66.1113 17.2689H65.6407C65.6762 16.7785 65.9822 16.6241 66.4528 16.6241C67.0381 16.6241 67.198 16.8804 67.198 17.4196V18.7757H66.75ZM66.75 17.7906C66.4749 17.8085 66.0578 17.8788 66.0578 18.2324C66.0578 18.3872 66.1421 18.5461 66.315 18.5461C66.3726 18.5461 66.4348 18.5286 66.4836 18.502C66.6611 18.4092 66.75 18.2324 66.75 18.0382V17.7906Z" fill="white"/>
<path d="M67.9791 18.7756V15.7272H68.4271V18.7756H67.9791Z" fill="white"/>
<path d="M71.2753 18.7756H70.5876V15.7272H71.2753C72.309 15.7272 72.6639 16.2135 72.6639 17.2206C72.6639 18.2411 72.3445 18.7756 71.2753 18.7756ZM71.7366 16.0941C71.5946 16.0321 71.4306 16.0193 71.2753 16.0193H71.0757V18.4845H71.2753C72.1048 18.4845 72.1758 17.9058 72.1758 17.2206C72.1758 16.8408 72.1449 16.275 71.7366 16.0941Z" fill="white"/>
<path d="M73.6004 17.4857C73.6004 17.9849 73.8354 18.5902 74.4208 18.5902C74.5586 18.5902 74.6959 18.5589 74.8245 18.502V18.705C74.6116 18.7931 74.4387 18.8239 74.2078 18.8239C73.476 18.8239 73.152 18.316 73.152 17.6313C73.152 17.0306 73.405 16.6241 74.0525 16.6241C74.6245 16.6241 74.8641 16.9465 74.8641 17.4857H73.6004ZM74.035 16.8097C73.7645 16.8097 73.6313 17.0393 73.6138 17.2822H74.4254C74.4254 17.0352 74.3148 16.8097 74.035 16.8097Z" fill="white"/>
<path d="M76.3555 18.7755H75.9652L75.1624 16.6726H75.637L76.1827 18.1748H76.1915L76.6883 16.6726H77.1008L76.3555 18.7755Z" fill="white"/>
<path d="M77.8505 17.4857C77.8505 17.9849 78.0856 18.5902 78.6709 18.5902C78.8087 18.5902 78.946 18.5589 79.0746 18.502V18.705C78.8617 18.7931 78.6888 18.8239 78.458 18.8239C77.7261 18.8239 77.4021 18.316 77.4021 17.6313C77.4021 17.0306 77.6547 16.6241 78.3026 16.6241C78.8746 16.6241 79.1142 16.9465 79.1142 17.4857H77.8505ZM78.2851 16.8097C78.0146 16.8097 77.8814 17.0393 77.8639 17.2822H78.6755C78.6759 17.0352 78.5649 16.8097 78.2851 16.8097Z" fill="white"/>
<path d="M79.7452 18.7756V15.7272H80.1932V18.7756H79.7452Z" fill="white"/>
<path d="M81.7685 18.8239C81.0808 18.8239 80.837 18.3468 80.837 17.724C80.837 17.1013 81.0808 16.6241 81.7685 16.6241C82.4561 16.6241 82.7045 17.0967 82.7045 17.724C82.7045 18.3514 82.4561 18.8239 81.7685 18.8239ZM81.7685 16.8092C81.3472 16.8092 81.3246 17.4232 81.3246 17.7236C81.3246 18.0239 81.3468 18.6379 81.7685 18.6379C82.1943 18.6379 82.2164 18.0239 82.2164 17.7236C82.2164 17.4232 82.1943 16.8092 81.7685 16.8092Z" fill="white"/>
<path d="M84.3239 18.8244C84.0621 18.8244 83.8935 18.7096 83.7783 18.4841H83.7695V19.7213H83.3215V16.6728H83.7695V17.0173H83.7783C83.8801 16.783 84.058 16.6241 84.3239 16.6241C84.976 16.6241 85.1221 17.1853 85.1221 17.724C85.1221 18.2499 84.9535 18.8244 84.3239 18.8244ZM84.2087 16.907C83.8183 16.907 83.787 17.4416 83.787 17.7245C83.787 18.0161 83.7962 18.5681 84.2087 18.5681C84.5903 18.5681 84.6346 17.9982 84.6346 17.7245C84.6346 17.4462 84.5944 16.907 84.2087 16.907Z" fill="white"/>
<path d="M88.085 18.7757V17.4196C88.085 17.2386 88.0763 16.9557 87.8279 16.9557C87.4421 16.9557 87.3578 17.6184 87.3578 17.9013V18.7762H86.9098V17.4595C86.9098 17.2652 86.9144 16.9557 86.6439 16.9557C86.2494 16.9557 86.1826 17.6184 86.1826 17.9054V18.7757H85.7341V16.6728H86.1821V17.172H86.1909C86.2793 16.885 86.5102 16.6241 86.8296 16.6241C87.1403 16.6241 87.3352 16.8492 87.3532 17.1454H87.3619C87.4905 16.8625 87.6504 16.6241 88.0007 16.6241C88.4445 16.6241 88.533 16.9819 88.533 17.3484V18.7752L88.085 18.7757Z" fill="white"/>
<path d="M89.5967 17.4857C89.5967 17.9849 89.8318 18.5902 90.4171 18.5902C90.5549 18.5902 90.6922 18.5589 90.8208 18.502V18.705C90.6079 18.7931 90.4351 18.8239 90.2042 18.8239C89.4723 18.8239 89.1483 18.316 89.1483 17.6313C89.1483 17.0306 89.4009 16.6241 90.0489 16.6241C90.6208 16.6241 90.8604 16.9465 90.8604 17.4857H89.5967ZM90.0313 16.8097C89.7608 16.8097 89.6276 17.0393 89.6101 17.2822H90.4217C90.4217 17.0352 90.3111 16.8097 90.0313 16.8097Z" fill="white"/>
<path d="M92.7491 18.7753V17.4587C92.7491 17.2731 92.7403 16.9549 92.4832 16.9549C92.0661 16.9549 91.9154 17.5776 91.9154 17.9046V18.7748H91.4674V16.672H91.9154V17.1712H91.9241C92.0661 16.8621 92.3011 16.6233 92.6652 16.6233C93.0201 16.6233 93.1975 16.9103 93.1975 17.2373V18.7748L92.7491 18.7753Z" fill="white"/>
<path d="M94.5465 16.9022V18.1128C94.5465 18.369 94.5507 18.572 94.8659 18.572C94.9369 18.572 95.0079 18.5633 95.0742 18.5366V18.7929C94.9724 18.8195 94.8659 18.8237 94.7636 18.8237C94.3779 18.8237 94.0981 18.7222 94.0981 18.2891V16.9017H93.7607V16.6721H94.0981V16.177L94.5461 15.9075V16.6721H95.1226V16.9017L94.5465 16.9022Z" fill="white"/>
<path d="M97.4868 16.0188V17.0438H98.5026V17.3354H97.4868V18.7756H96.9988V15.7272H98.5602V16.0188H97.4868Z" fill="white"/>
<path d="M100.34 18.7755V18.2763H100.33C100.188 18.5854 99.958 18.8242 99.5939 18.8242C99.2391 18.8242 99.0616 18.5371 99.0616 18.2102V16.6726H99.5096V17.9893C99.5096 18.1748 99.5184 18.493 99.7755 18.493C100.193 18.493 100.343 17.8703 100.343 17.5433V16.6731H100.791V18.7759L100.34 18.7755Z" fill="white"/>
<path d="M102.842 18.7753V17.4587C102.842 17.2731 102.833 16.9549 102.576 16.9549C102.159 16.9549 102.008 17.5776 102.008 17.9046V18.7748H101.56V16.672H102.008V17.1712H102.017C102.159 16.8621 102.394 16.6233 102.758 16.6233C103.113 16.6233 103.291 16.9103 103.291 17.2373V18.7748L102.842 18.7753Z" fill="white"/>
<path d="M105.262 18.776V18.4316H105.253C105.151 18.6658 104.969 18.8247 104.703 18.8247C104.056 18.8247 103.909 18.2635 103.909 17.7248C103.909 17.2036 104.078 16.6249 104.703 16.6249C104.965 16.6249 105.133 16.7397 105.253 16.9652H105.262V15.728H105.71V18.7765L105.262 18.776ZM104.823 16.8807C104.441 16.8807 104.397 17.4506 104.397 17.7244C104.397 18.0027 104.437 18.5418 104.823 18.5418C105.213 18.5418 105.245 18.0072 105.245 17.7244C105.244 17.4332 105.235 16.8807 104.823 16.8807Z" fill="white"/>
<path d="M41.8916 8.11571C42.099 8.11571 42.2709 7.94487 42.2709 7.7451C42.2709 7.54579 42.099 7.38184 41.8916 7.38184C41.6911 7.38184 41.5197 7.54579 41.5197 7.7451C41.5192 7.94441 41.6911 8.11571 41.8916 8.11571Z" fill="white"/>
<path d="M42.8571 8.11571C43.0576 8.11571 43.229 7.94487 43.229 7.7451C43.229 7.54579 43.0571 7.38184 42.8571 7.38184C42.6566 7.38184 42.4921 7.54579 42.4921 7.7451C42.4925 7.94441 42.6571 8.11571 42.8571 8.11571Z" fill="white"/>
<path d="M45.5835 12.5986C45.3761 12.5986 45.2185 12.7626 45.2185 12.9624C45.2185 13.1621 45.3761 13.333 45.5835 13.333C45.784 13.333 45.9554 13.1621 45.9554 12.9624C45.9554 12.7626 45.7835 12.5986 45.5835 12.5986Z" fill="white"/>
<path d="M46.5423 12.5986C46.3418 12.5986 46.1772 12.7626 46.1772 12.9624C46.1772 13.1621 46.3418 13.333 46.5423 13.333C46.7427 13.333 46.9142 13.1621 46.9142 12.9624C46.9142 12.7626 46.7427 12.5986 46.5423 12.5986Z" fill="white"/>
<path d="M48.8033 11.366V10.0333C48.8033 9.62685 49.061 9.32053 49.49 9.32053C49.7048 9.32053 49.8979 9.42019 50.0698 9.62685L50.5777 9.17082C50.2915 8.89298 49.9551 8.75061 49.5689 8.75061C49.1181 8.75061 48.7605 8.88609 48.5029 9.15658C48.2526 9.42065 48.1236 9.75543 48.1236 10.1472V11.366H47.3295V11.3802H47.1004C46.628 11.3802 46.3921 11.1451 46.3921 10.6748V8.75061L45.7195 8.94992V10.6533C45.7195 11.1378 45.4836 11.3802 45.0038 11.3802H44.2742C43.8092 11.3802 43.5733 11.1378 43.5733 10.6533V8.75061H42.1201C41.2118 8.75061 40.7537 9.27828 40.7537 10.3327C40.7537 11.4229 41.2118 11.9648 42.1201 11.9648C42.6571 11.9648 43.0073 11.8009 43.1718 11.4657C43.3221 11.8009 43.6797 11.9648 44.2378 11.9648H45.0467C45.4831 11.9648 45.8195 11.8367 46.0629 11.5874C46.3064 11.8367 46.6354 11.9648 47.0576 11.9648H51.1506L50.6427 11.366H48.8033ZM42.893 10.3327C42.893 10.6817 42.8428 10.9384 42.7497 11.095C42.6423 11.2875 42.4418 11.3802 42.163 11.3802C41.8842 11.3802 41.6837 11.2875 41.5763 11.095C41.4832 10.9384 41.4334 10.6817 41.4334 10.3327C41.4334 9.98322 41.4837 9.72696 41.5763 9.57725C41.6837 9.39171 41.8842 9.29895 42.163 9.29895H42.893V10.3327Z" fill="white"/>
<path d="M51.7657 11.9646H52.4455V7.36755L51.7657 7.58156V11.9646Z" fill="white"/>
<path d="M54.5489 11.772C54.5489 12.3708 54.1982 12.741 53.6189 12.741C53.211 12.741 52.8534 12.6482 52.5312 12.4705L52.8534 13.1405C53.0608 13.2686 53.3115 13.3329 53.6189 13.3329C54.1125 13.3329 54.5061 13.1906 54.7923 12.898C55.0858 12.606 55.2287 12.228 55.2287 11.7508V8.75061L54.5489 8.94992V11.772Z" fill="white"/>
<path d="M57.6257 8.11651C57.8262 8.11651 57.9907 7.94568 57.9907 7.74591C57.9907 7.53925 57.8262 7.36841 57.6257 7.36841C57.4252 7.36841 57.2538 7.53925 57.2538 7.74591C57.2538 7.94522 57.4252 8.11651 57.6257 8.11651Z" fill="white"/>
<path d="M59.9725 10.6388C59.9725 11.1233 59.736 11.3658 59.271 11.3658H58.0119V8.75038L57.3321 8.94969V11.7722C57.3321 12.371 56.9814 12.7412 56.4021 12.7412C55.9942 12.7412 55.6366 12.6484 55.3145 12.4707L55.6366 13.1407C55.844 13.2689 56.0947 13.3332 56.4021 13.3332C57.3252 13.3332 57.9119 12.7913 58.005 11.9646H59.3074C59.7153 11.9646 60.0444 11.8434 60.2877 11.6082C60.531 11.3662 60.6527 11.0668 60.6527 10.7031V7.38184L59.9729 7.58115L59.9725 10.6388Z" fill="white"/>
<path d="M61.2676 11.9646H61.9474V7.36755L61.2676 7.58156V11.9646Z" fill="white"/>
<path d="M64.8596 8.11571C65.067 8.11571 65.2389 7.94487 65.2389 7.7451C65.2389 7.54579 65.067 7.38184 64.8596 7.38184C64.6591 7.38184 64.4877 7.54579 64.4877 7.7451C64.4877 7.94441 64.6591 8.11571 64.8596 8.11571Z" fill="white"/>
<path d="M65.8256 8.11571C66.0261 8.11571 66.1975 7.94487 66.1975 7.7451C66.1975 7.54579 66.0256 7.38184 65.8256 7.38184C65.6251 7.38184 65.4606 7.54579 65.4606 7.7451C65.4606 7.94441 65.6251 8.11571 65.8256 8.11571Z" fill="white"/>
<path d="M68.5515 12.5986C68.3441 12.5986 68.1865 12.7626 68.1865 12.9624C68.1865 13.1621 68.3441 13.333 68.5515 13.333C68.752 13.333 68.9235 13.1621 68.9235 12.9624C68.9239 12.7626 68.752 12.5986 68.5515 12.5986Z" fill="white"/>
<path d="M69.5106 12.5986C69.3102 12.5986 69.1456 12.7626 69.1456 12.9624C69.1456 13.1621 69.3102 13.333 69.5106 13.333C69.7111 13.333 69.8826 13.1621 69.8826 12.9624C69.8826 12.7626 69.7107 12.5986 69.5106 12.5986Z" fill="white"/>
<path d="M76.544 8.11571C76.7445 8.11571 76.9164 7.94487 76.9164 7.7451C76.9164 7.54579 76.7445 7.38184 76.544 7.38184C76.3436 7.38184 76.1721 7.54579 76.1721 7.7451C76.1721 7.94441 76.344 8.11571 76.544 8.11571Z" fill="white"/>
<path d="M78.841 8.11571C79.0414 8.11571 79.2133 7.94487 79.2133 7.7451C79.2133 7.54579 79.0414 7.38184 78.841 7.38184C78.6336 7.38184 78.476 7.54579 78.476 7.7451C78.476 7.94441 78.6331 8.11571 78.841 8.11571Z" fill="white"/>
<path d="M79.7996 8.11571C80.0001 8.11571 80.172 7.94487 80.172 7.7451C80.172 7.54579 80.0001 7.38184 79.7996 7.38184C79.6065 7.38184 79.4346 7.54579 79.4346 7.7451C79.4346 7.94441 79.6065 8.11571 79.7996 8.11571Z" fill="white"/>
<path d="M81.7316 10.6388C81.7316 11.1233 81.4956 11.3658 81.0306 11.3658H80.6084V11.38H80.3937C79.9213 11.38 79.6853 11.1449 79.6853 10.6746V8.75038L79.0124 8.94969V10.653C79.0124 11.1375 78.7765 11.38 78.2972 11.38H77.6105C77.1381 11.38 76.9021 11.1449 76.9021 10.6746V8.75038L76.2292 8.94969V10.653C76.2292 11.1375 75.9933 11.38 75.514 11.38H75.1923V11.3658L75.049 11.38C74.5411 11.38 74.2475 11.1449 74.1687 10.6815C74.1042 10.2613 73.9756 9.94762 73.7682 9.7552C73.5392 9.54165 73.1958 9.43465 72.7308 9.43465C71.8865 9.43465 71.4072 9.84797 71.2855 10.6815C71.2283 11.1375 70.9422 11.3658 70.4338 11.3658H70.2476V11.38H70.0688C69.5964 11.38 69.3604 11.1449 69.3604 10.6746V8.75038L68.688 8.94969V10.653C68.688 11.1375 68.4521 11.38 67.9723 11.38H67.2423C66.7773 11.38 66.5413 11.1375 66.5413 10.653V8.75038H65.0886C64.1798 8.75038 63.7222 9.27805 63.7222 10.3325C63.7222 11.4227 64.1803 11.9646 65.0886 11.9646C65.6256 11.9646 65.9758 11.8007 66.1403 11.4654C66.2906 11.8007 66.6482 11.9646 67.2063 11.9646H68.0147C68.4511 11.9646 68.7876 11.8365 69.0309 11.5871C69.2743 11.8365 69.6033 11.9646 70.0255 11.9646H70.4762C70.8624 11.9646 71.156 11.8434 71.3634 11.6082C71.5565 12.1502 72.0791 12.4634 72.7299 12.4634C73.4166 12.4634 73.9461 12.1143 74.118 11.5155C74.336 11.8007 74.6466 11.9485 75.0407 11.9619V11.9646H75.5555C75.9919 11.9646 76.3283 11.8365 76.5712 11.5871C76.8146 11.8365 77.1436 11.9646 77.5658 11.9646H78.3386C78.7751 11.9646 79.1115 11.8365 79.3544 11.5871C79.5977 11.8365 79.9268 11.9646 80.349 11.9646H81.0647C81.4726 11.9646 81.8016 11.8434 82.045 11.6082C82.2883 11.3662 82.41 11.0668 82.41 10.7031V7.38184L81.7302 7.58115V10.6388H81.7316ZM65.8615 10.3325C65.8615 10.6815 65.8113 10.9382 65.7182 11.0948C65.6108 11.2872 65.4103 11.38 65.1315 11.38C64.8522 11.38 64.6522 11.2872 64.5448 11.0948C64.4517 10.9382 64.402 10.6815 64.402 10.3325C64.402 9.98299 64.4522 9.72673 64.5448 9.57702C64.6522 9.39148 64.8527 9.29871 65.1315 9.29871H65.8615V10.3325ZM72.7303 11.8934C72.2224 11.8934 71.9717 11.5798 71.9717 10.9456C71.9717 10.3113 72.222 9.99768 72.7303 9.99768C73.2313 9.99768 73.4815 10.3113 73.4815 10.9456C73.4815 11.5798 73.2313 11.8934 72.7303 11.8934Z" fill="white"/>
<path d="M83.0266 11.9646H83.7064V7.36755L83.0266 7.58156V11.9646Z" fill="white"/>
<path d="M88.5736 8.11571C88.7741 8.11571 88.9455 7.94487 88.9455 7.7451C88.9455 7.54579 88.7736 7.38184 88.5736 7.38184C88.3736 7.38184 88.2017 7.54579 88.2017 7.7451C88.2012 7.94441 88.3731 8.11571 88.5736 8.11571Z" fill="white"/>
<path d="M87.6058 8.11571C87.8132 8.11571 87.9851 7.94487 87.9851 7.7451C87.9851 7.54579 87.8132 7.38184 87.6058 7.38184C87.4053 7.38184 87.2339 7.54579 87.2339 7.7451C87.2339 7.94441 87.4058 8.11571 87.6058 8.11571Z" fill="white"/>
<path d="M88.0851 8.79272C87.5915 8.79272 87.2265 8.96402 86.99 9.30616C86.7969 9.584 86.6969 9.95461 86.6969 10.4106C86.6969 10.8667 86.7969 11.2373 86.99 11.5294C87.226 11.8715 87.591 12.0428 88.0851 12.0428C88.3856 12.0428 88.6146 11.9643 88.7791 11.8145V11.843C88.786 12.1783 88.6501 12.4203 88.3713 12.5631C88.1708 12.6628 87.8989 12.7055 87.5481 12.6986C87.026 12.6986 86.6467 12.5631 86.4245 12.2995C86.2029 12.0359 86.0881 11.5656 86.0881 10.8956L85.4802 11.1165C85.5374 11.8862 85.695 12.4276 85.9452 12.7413C86.26 13.133 86.7896 13.3328 87.5408 13.3328C88.8003 13.3328 89.4368 12.8409 89.4511 11.8504C89.4511 11.7718 89.4585 11.5936 89.4654 11.3232C89.487 11.0733 89.4939 10.8671 89.4939 10.7101C89.4949 9.43429 89.0225 8.79272 88.0851 8.79272ZM88.0851 11.4366C87.6058 11.4366 87.3624 11.0944 87.3624 10.4106C87.3624 9.72636 87.6058 9.38423 88.0851 9.38423C88.5644 9.38423 88.8077 9.72636 88.8077 10.4106C88.8077 11.0949 88.5644 11.4366 88.0851 11.4366Z" fill="white"/>
<path d="M91.5047 8.8717C91.0111 8.8717 90.6387 9.043 90.4027 9.37779C90.2096 9.65609 90.1096 10.0194 90.1096 10.468C90.1096 10.9167 90.2096 11.2735 90.4027 11.5514C90.6387 11.8935 91.0111 12.0644 91.5047 12.0644C91.7554 12.0644 91.9771 12.0074 92.1845 11.8935C92.1273 12.4281 91.8411 12.7133 91.3259 12.7417C90.9751 12.7633 90.5958 12.6848 90.188 12.4924L90.4885 13.1482C90.6889 13.2694 90.9678 13.3332 91.3259 13.3332C91.8337 13.3332 92.2204 13.1693 92.4849 12.8487C92.7352 12.5636 92.8573 12.1787 92.8642 11.6869C92.8642 11.6157 92.8716 11.466 92.8859 11.2382C92.8933 11.0315 92.8933 10.8533 92.8933 10.7179C92.8933 10.1691 92.8145 9.74886 92.6568 9.45632C92.4347 9.06413 92.0485 8.8717 91.5047 8.8717ZM91.5047 11.4729C91.0254 11.4729 90.782 11.1376 90.782 10.468C90.782 9.79111 91.0254 9.45586 91.5047 9.45586C91.984 9.45586 92.2204 9.79111 92.2204 10.468C92.2199 11.1381 91.984 11.4729 91.5047 11.4729Z" fill="white"/>
<path d="M98.6482 8.11571C98.8486 8.11571 99.0206 7.94487 99.0206 7.7451C99.0206 7.54579 98.8486 7.38184 98.6482 7.38184C98.4477 7.38184 98.2762 7.54579 98.2762 7.7451C98.2762 7.94441 98.4482 8.11571 98.6482 8.11571Z" fill="white"/>
<path d="M105.381 9.60572C105.031 9.04269 104.501 8.76485 103.807 8.78597C103.013 8.8071 102.39 9.15658 101.94 9.84085C101.718 10.1688 101.56 10.5178 101.467 10.8957V9.37059L100.788 9.56301V11.366H99.9432V11.3802H99.7141C99.2417 11.3802 99.0058 11.1451 99.0058 10.6748V8.75061L98.3329 8.94992V10.6533C98.3329 11.1378 98.097 11.3802 97.6176 11.3802H97.3241V11.366H96.3512V9.97633C96.3512 9.60572 96.2221 9.31364 95.9576 9.09275C95.6931 8.87185 95.3566 8.75796 94.9345 8.75796C94.6123 8.75796 94.2902 8.90032 93.9685 9.17817V9.94786C94.2044 9.53454 94.5266 9.32788 94.9345 9.32788C95.4281 9.32788 95.6783 9.56301 95.6783 10.0264V11.3807H93.9183L93.5104 11.9653H97.6605C98.097 11.9653 98.4334 11.8372 98.6763 11.5878C98.9196 11.8372 99.2487 11.9653 99.6708 11.9653H105.667C105.696 11.281 105.71 10.9816 105.71 11.0601C105.711 10.4466 105.603 9.96209 105.381 9.60572ZM105.016 11.366H101.825C101.853 10.96 102.054 10.5536 102.433 10.1329C102.855 9.64843 103.314 9.40595 103.821 9.40595C104.237 9.40595 104.551 9.57725 104.773 9.91938C104.952 10.2115 105.038 10.5752 105.038 11.017C105.038 11.1382 105.031 11.2521 105.016 11.366Z" fill="white"/>
</g>
</g>
<defs>
<linearGradient id="paint0_linear_9836_14103" x1="1.60751" y1="25.3066" x2="33.4003" y2="10.608" gradientUnits="userSpaceOnUse">
<stop offset="0.0056" stop-color="#BD890F"/>
<stop offset="0.2528" stop-color="white" stop-opacity="0"/>
<stop offset="0.2891" stop-color="#FAF6EE" stop-opacity="0.1058"/>
<stop offset="0.3612" stop-color="#EEE0C1" stop-opacity="0.3164"/>
<stop offset="0.4625" stop-color="#DABD78" stop-opacity="0.6118"/>
<stop offset="0.5879" stop-color="#BE8C16" stop-opacity="0.9779"/>
<stop offset="0.5955" stop-color="#BD890F"/>
<stop offset="0.7564" stop-color="#D6B66C" stop-opacity="0.7264"/>
<stop offset="1" stop-color="white" stop-opacity="0.312"/>
</linearGradient>
<radialGradient id="paint1_radial_9836_14103" cx="0" cy="0" r="1" gradientUnits="userSpaceOnUse" gradientTransform="translate(17.3301 17.7577) scale(16.4381 16.3702)">
<stop offset="0.0374" stop-color="#FFEFDF" stop-opacity="0"/>
<stop offset="0.1175" stop-color="#F9EDDB" stop-opacity="0.0909"/>
<stop offset="0.2285" stop-color="#E7E6D0" stop-opacity="0.217"/>
<stop offset="0.3578" stop-color="#C9DBBF" stop-opacity="0.3637"/>
<stop offset="0.5008" stop-color="#A0CCA6" stop-opacity="0.5261"/>
<stop offset="0.6551" stop-color="#6BB987" stop-opacity="0.7013"/>
<stop offset="0.8163" stop-color="#2CA261" stop-opacity="0.8843"/>
<stop offset="0.9182" stop-color="#009247"/>
</radialGradient>
<clipPath id="clip0_9836_14103">
<rect width="106" height="34.9024" fill="white" transform="translate(0 0.548828)"/>
</clipPath>
</defs>
</svg>
