<svg width="20" height="20" viewBox="0 0 20 20" fill="none" xmlns="http://www.w3.org/2000/svg">
<path d="M8.27175 18.0762C8.05592 18.0353 7.85258 17.9978 7.77674 17.9945M8.27175 18.0762C8.84092 18.1828 9.42258 18.237 10.0001 18.2362C14.9401 18.2362 18.9584 14.3803 18.9584 9.63949C18.9584 4.89865 14.9401 1.04199 10.0001 1.04199C5.06008 1.04199 1.04175 4.89865 1.04175 9.63949C1.04175 11.8445 1.91008 13.9403 3.48675 15.5412L7.77674 17.9945M8.27175 18.0762L8.37418 17.5348L7.77674 17.9945M8.27175 18.0762L8.37325 17.5346C8.37236 17.5344 8.37146 17.5343 8.37057 17.5341C8.37051 17.5341 8.37044 17.5341 8.37038 17.5341L8.36606 17.5332L8.36584 17.5332C8.03965 17.4723 7.89057 17.4485 7.80097 17.4434C7.75609 17.4409 7.72614 17.4431 7.69634 17.4478L7.69214 17.4485C7.6628 17.4528 7.63302 17.4599 7.59102 17.4756C7.50011 17.5094 7.35192 17.5831 7.02699 17.7558L7.02189 17.7586L7.02125 17.7589L7.01703 17.7612L7.01498 17.7624L7.01496 17.7623C7.01438 17.7626 7.01379 17.763 7.0132 17.7633L7.27175 18.2495M7.77674 17.9945C7.69758 18.0228 7.49508 18.1303 7.28091 18.2445L7.27175 18.2495M7.27175 18.2495L7.0078 17.7661C6.24765 18.1695 5.40566 18.3868 4.55826 18.4068L4.42925 18.4098V18.9587C5.4123 18.9585 6.39283 18.7169 7.27175 18.2495ZM4.42842 18.9587V18.4099L3.42372 18.4336L3.34508 18.8595M4.42842 18.9587L3.45824 18.2436L3.45787 18.2456L3.4577 18.2465L3.43587 18.3653L3.40192 18.4341L3.42333 18.4336L3.34508 18.8595M4.42842 18.9587C4.06619 18.9586 3.70314 18.9253 3.34508 18.8595M4.42842 18.9587L3.34508 18.8595M6.69508 17.1395L6.95355 17.6257C6.95291 17.6261 6.95227 17.6264 6.95162 17.6268L6.95161 17.6267L6.94968 17.6278L6.94543 17.6301L6.94475 17.6305L6.93969 17.6332C6.20082 18.0255 5.38038 18.2375 4.55473 18.2572C4.51291 18.2582 4.47108 18.2587 4.42925 18.2587L18.2584 9.63867C18.2584 9.63894 18.2584 9.63922 18.2584 9.63949C18.2584 13.9668 14.581 17.5362 10.0001 17.5362L9.99925 17.5362H9.99907C9.99883 17.5362 9.99858 17.5362 9.99833 17.5362C9.46517 17.5369 8.92726 17.4868 8.40069 17.3881C8.40017 17.3881 8.39965 17.388 8.39913 17.3879L8.50007 16.8463L8.39799 17.3876C8.39644 17.3873 8.3949 17.3871 8.39336 17.3868C8.3933 17.3868 8.39325 17.3867 8.39319 17.3867C8.28836 17.3669 8.18125 17.3469 8.08953 17.3312C8.0109 17.3178 7.89698 17.2991 7.80749 17.2952L7.67159 17.2892L7.67023 17.2891L7.66837 17.2898L7.54087 17.3354C7.45082 17.3677 7.33914 17.4239 7.26047 17.4642C7.16922 17.5109 7.06267 17.5676 6.95891 17.6229L6.69508 17.1395ZM6.69508 17.1395L6.68591 17.1445L17.7084 9.63867C17.7084 13.6895 14.2509 16.9853 9.99925 16.9853C9.49925 16.9845 8.99508 16.9395 8.50008 16.8462L8.49429 16.8451C8.04731 16.7616 7.82241 16.7197 7.58842 16.7562C7.34925 16.792 7.13092 16.9078 6.69508 17.1395ZM10.0075 13.6753C10.0277 13.6753 10.0457 13.6841 10.0571 13.6954C10.0687 13.707 10.0792 13.7269 10.0792 13.7503C10.0792 13.7839 10.0509 13.8211 10.0075 13.825C10.0063 13.8251 10.0051 13.8252 10.0038 13.8252C10.0025 13.8252 10.0013 13.8251 9.99998 13.825C9.96194 13.8212 9.93248 13.7894 9.93248 13.7503C9.93248 13.7113 9.96194 13.6794 9.99998 13.6757C10.0024 13.6755 10.0049 13.6753 10.0075 13.6753Z" fill="#161616" stroke="#6C737F" stroke-width="1.4"/>
</svg>
