<svg width="20" height="20" viewBox="0 0 20 20" fill="none" xmlns="http://www.w3.org/2000/svg">
<path fill-rule="evenodd" clip-rule="evenodd" d="M6.29864 6.04167C6.01456 6.04162 5.74238 6.04157 5.51863 6.07166C5.26778 6.10538 4.98652 6.18688 4.75341 6.42C4.5203 6.65311 4.4388 6.93437 4.40507 7.18521C4.37499 7.40896 4.37504 7.68114 4.37509 7.96522V8.70145C4.37504 8.98553 4.37499 9.25772 4.40507 9.48147C4.4388 9.73232 4.5203 10.0136 4.75341 10.2467C4.98652 10.4798 5.26778 10.5613 5.51863 10.595C5.74238 10.6251 6.01456 10.6251 6.29865 10.625H7.03487C7.31895 10.6251 7.59113 10.6251 7.81488 10.595C8.06573 10.5613 8.34699 10.4798 8.5801 10.2467C8.81321 10.0136 8.89472 9.73232 8.92844 9.48147C8.95852 9.25772 8.95848 8.98553 8.95843 8.70145V7.96523C8.95848 7.68115 8.95852 7.40897 8.92844 7.18521C8.89472 6.93437 8.81321 6.65311 8.5801 6.42C8.34699 6.18688 8.06573 6.10538 7.81488 6.07166C7.59113 6.04157 7.31895 6.04162 7.03487 6.04167H6.29864ZM5.60467 7.3272C5.60463 7.32718 5.60528 7.32688 5.60674 7.32635L5.60467 7.3272ZM5.68519 7.31051C5.67123 7.31239 5.65941 7.31428 5.6495 7.31608C5.64769 7.326 5.6458 7.33781 5.64392 7.35177C5.62642 7.48199 5.62509 7.66807 5.62509 8.00001V8.66667C5.62509 8.99861 5.62642 9.18469 5.64392 9.31491C5.6458 9.32887 5.64769 9.34069 5.6495 9.3506C5.65941 9.3524 5.67123 9.3543 5.68519 9.35617C5.8154 9.37368 6.00148 9.37501 6.33342 9.37501H7.00009C7.33203 9.37501 7.51811 9.37368 7.64832 9.35617C7.66229 9.3543 7.6741 9.3524 7.68401 9.3506C7.68582 9.34069 7.68771 9.32887 7.68959 9.31491C7.7071 9.18469 7.70842 8.99861 7.70842 8.66668V8.00001C7.70842 7.66807 7.7071 7.48199 7.68959 7.35177C7.68771 7.33781 7.68582 7.326 7.68401 7.31608C7.6741 7.31428 7.66229 7.31239 7.64832 7.31051C7.51811 7.293 7.33203 7.29167 7.00009 7.29167H6.33342C6.00148 7.29167 5.8154 7.293 5.68519 7.31051ZM5.60467 9.33948L5.60674 9.34033C5.60528 9.3398 5.60463 9.3395 5.60467 9.33948ZM5.65977 9.39335L5.66062 9.39543C5.6606 9.39547 5.6603 9.39482 5.65977 9.39335ZM7.6729 9.39543L7.67375 9.39336C7.67322 9.39482 7.67292 9.39547 7.6729 9.39543ZM7.72677 9.34033L7.72884 9.33948C7.72889 9.3395 7.72824 9.3398 7.72677 9.34033ZM7.72884 7.3272C7.72887 7.32719 7.72933 7.3274 7.72884 7.3272V7.3272ZM7.67375 7.27333L7.6729 7.27125C7.67292 7.27121 7.67322 7.27186 7.67375 7.27333ZM5.65977 7.27333C5.6603 7.27186 5.6606 7.27121 5.66062 7.27125L5.65977 7.27333Z" fill="#6C737F"/>
<path d="M4.37508 13.3333C4.37508 12.9882 4.6549 12.7083 5.00008 12.7083H8.33341C8.67859 12.7083 8.95841 12.9882 8.95841 13.3333C8.95841 13.6785 8.67859 13.9583 8.33341 13.9583H5.00008C4.6549 13.9583 4.37508 13.6785 4.37508 13.3333Z" fill="#6C737F"/>
<path d="M11.6667 6.04167C11.3216 6.04167 11.0417 6.32149 11.0417 6.66667C11.0417 7.01184 11.3216 7.29167 11.6667 7.29167H15.0001C15.3453 7.29167 15.6251 7.01184 15.6251 6.66667C15.6251 6.32149 15.3453 6.04167 15.0001 6.04167H11.6667Z" fill="#6C737F"/>
<path d="M11.0417 10C11.0417 9.65482 11.3216 9.375 11.6667 9.375H15.0001C15.3453 9.375 15.6251 9.65482 15.6251 10C15.6251 10.3452 15.3453 10.625 15.0001 10.625H11.6667C11.3216 10.625 11.0417 10.3452 11.0417 10Z" fill="#6C737F"/>
<path d="M11.6667 12.7083C11.3216 12.7083 11.0417 12.9882 11.0417 13.3333C11.0417 13.6785 11.3216 13.9583 11.6667 13.9583H15.0001C15.3453 13.9583 15.6251 13.6785 15.6251 13.3333C15.6251 12.9882 15.3453 12.7083 15.0001 12.7083H11.6667Z" fill="#6C737F"/>
<path fill-rule="evenodd" clip-rule="evenodd" d="M10.0436 1.875H9.95661C8.02924 1.87499 6.5252 1.87499 5.35304 2.01682C4.16026 2.16115 3.21622 2.46133 2.46903 3.13379C1.71243 3.81474 1.36598 4.68956 1.20116 5.79289C1.04172 6.86018 1.04173 8.22435 1.04175 9.94792V10.0521C1.04173 11.7757 1.04172 13.1398 1.20116 14.2071C1.36598 15.3104 1.71243 16.1853 2.46903 16.8662C3.21622 17.5387 4.16026 17.8389 5.35304 17.9832C6.5252 18.125 8.02924 18.125 9.9566 18.125H10.0436C11.9709 18.125 13.475 18.125 14.6471 17.9832C15.8399 17.8389 16.7839 17.5387 17.5311 16.8662C18.2877 16.1853 18.6342 15.3104 18.799 14.2071C18.9584 13.1398 18.9584 11.7757 18.9584 10.0521V9.94789C18.9584 8.22434 18.9584 6.86017 18.799 5.79289C18.6342 4.68956 18.2877 3.81474 17.5311 3.13379C16.7839 2.46133 15.8399 2.16115 14.6471 2.01682C13.475 1.87499 11.9709 1.87499 10.0436 1.875ZM3.30524 4.06291C3.77845 3.63702 4.42669 3.38803 5.5032 3.25777C6.59152 3.12608 8.01995 3.125 10.0001 3.125C11.9802 3.125 13.4086 3.12608 14.497 3.25777C15.5735 3.38803 16.2217 3.63702 16.6949 4.06291C17.1587 4.48031 17.4224 5.03855 17.5627 5.97757C17.7068 6.94191 17.7084 8.21266 17.7084 10C17.7084 11.7873 17.7068 13.0581 17.5627 14.0224C17.4224 14.9615 17.1587 15.5197 16.6949 15.9371C16.2217 16.363 15.5735 16.612 14.497 16.7422C13.4086 16.8739 11.9802 16.875 10.0001 16.875C8.01995 16.875 6.59152 16.8739 5.5032 16.7422C4.42669 16.612 3.77845 16.363 3.30524 15.9371C2.84146 15.5197 2.57771 14.9615 2.43744 14.0224C2.29338 13.0581 2.29175 11.7873 2.29175 10C2.29175 8.21266 2.29338 6.94191 2.43744 5.97757C2.57771 5.03855 2.84146 4.48031 3.30524 4.06291Z" fill="#6C737F"/>
</svg>
