<svg width="24" height="24" viewBox="0 0 24 24" fill="none" xmlns="http://www.w3.org/2000/svg">
<path d="M13.7504 20.2926C13.3598 20.4304 13.1549 20.8588 13.2928 21.2494C13.4306 21.64 13.859 21.8449 14.2496 21.707L14.9545 21.4582C16.208 21.0159 17.2082 20.6628 17.9829 20.287C18.7834 19.8986 19.4108 19.4553 19.8776 18.7956C20.3444 18.1358 20.5536 17.3966 20.6534 16.5125C20.75 15.6569 20.75 14.5962 20.75 13.2669L20.75 10.7327C20.75 9.40342 20.75 8.34272 20.6534 7.48713C20.5536 6.60298 20.3444 5.86381 19.8776 5.20403C19.4108 4.54426 18.7834 4.10096 17.9829 3.71258C17.2082 3.33674 16.208 2.98372 14.9545 2.54132L14.2496 2.29255C13.859 2.15469 13.4306 2.35958 13.2928 2.75018C13.1549 3.14078 13.3598 3.56918 13.7504 3.70704L14.4129 3.94088C15.7184 4.40163 16.6385 4.72753 17.3281 5.06213C18.0007 5.38841 18.3853 5.69183 18.6531 6.07039C18.9209 6.44896 19.0791 6.91262 19.1629 7.6554C19.2489 8.41712 19.25 9.39318 19.25 10.7776L19.25 13.222C19.25 14.6064 19.2489 15.5825 19.1629 16.3442C19.0791 17.087 18.9209 17.5506 18.6531 17.9292C18.3853 18.3078 18.0007 18.6112 17.3281 18.9375C16.6385 19.2721 15.7184 19.598 14.4129 20.0587L13.7504 20.2926Z" fill="#D92D20"/>
<path d="M5.97726 15.0376C6.27428 15.3263 6.74911 15.3195 7.03781 15.0225C7.32651 14.7255 7.31977 14.2506 7.02274 13.9619C6.86115 13.8049 6.60404 13.6026 6.35931 13.4104L6.30235 13.3657C6.05663 13.1728 5.79386 12.9665 5.54522 12.7558L5.53807 12.7498L14 12.7498C14.4142 12.7498 14.75 12.414 14.75 11.9998C14.75 11.5855 14.4142 11.2498 14 11.2498L5.53807 11.2498L5.54522 11.2437C5.79384 11.033 6.05659 10.8268 6.3023 10.6339L6.35931 10.5891C6.60404 10.3969 6.86115 10.1946 7.02274 10.0376C7.31977 9.74886 7.32651 9.27404 7.03781 8.97701C6.74911 8.67999 6.27428 8.67324 5.97726 8.96194C5.886 9.05064 5.70419 9.19627 5.43276 9.40946L5.37281 9.45653C5.13068 9.64659 4.84661 9.86958 4.57551 10.0993C4.28495 10.3455 3.98316 10.6211 3.74854 10.8965C3.63096 11.0346 3.51499 11.1902 3.42542 11.3576C3.33902 11.519 3.25 11.7415 3.25 11.9998C3.25 12.258 3.33902 12.4805 3.42542 12.6419C3.51499 12.8093 3.63096 12.9649 3.74854 13.103C3.98316 13.3784 4.28495 13.654 4.57551 13.9002C4.84662 14.1299 5.13068 14.3529 5.37282 14.543L5.43276 14.59C5.70419 14.8032 5.886 14.9489 5.97726 15.0376Z" fill="#D92D20"/>
</svg>
