<svg width="20" height="22" viewBox="0 0 20 22" fill="none" xmlns="http://www.w3.org/2000/svg">
<path d="M13.7502 9.5V5C13.7502 4.00544 13.3551 3.05161 12.6519 2.34835C11.9486 1.64509 10.9948 1.25 10.0002 1.25C9.00567 1.25 8.05184 1.64509 7.34858 2.34835C6.64532 3.05161 6.25023 4.00544 6.25023 5V9.5M17.6062 7.507L18.8692 19.507C18.9392 20.172 18.4192 20.75 17.7502 20.75H2.25023C2.09244 20.7502 1.93637 20.7171 1.79218 20.6531C1.64798 20.589 1.51888 20.4953 1.41325 20.3781C1.30763 20.2608 1.22784 20.1227 1.17908 19.9726C1.13032 19.8226 1.11368 19.6639 1.13023 19.507L2.39423 7.507C2.42339 7.23056 2.55385 6.9747 2.76048 6.78876C2.96711 6.60281 3.23526 6.49995 3.51323 6.5H16.4872C17.0632 6.5 17.5462 6.935 17.6062 7.507ZM6.62523 9.5C6.62523 9.59946 6.58572 9.69484 6.51539 9.76517C6.44507 9.83549 6.34969 9.875 6.25023 9.875C6.15077 9.875 6.05539 9.83549 5.98506 9.76517C5.91474 9.69484 5.87523 9.59946 5.87523 9.5C5.87523 9.40054 5.91474 9.30516 5.98506 9.23483C6.05539 9.16451 6.15077 9.125 6.25023 9.125C6.34969 9.125 6.44507 9.16451 6.51539 9.23483C6.58572 9.30516 6.62523 9.40054 6.62523 9.5ZM14.1252 9.5C14.1252 9.59946 14.0857 9.69484 14.0154 9.76517C13.9451 9.83549 13.8497 9.875 13.7502 9.875C13.6508 9.875 13.5554 9.83549 13.4851 9.76517C13.4147 9.69484 13.3752 9.59946 13.3752 9.5C13.3752 9.40054 13.4147 9.30516 13.4851 9.23483C13.5554 9.16451 13.6508 9.125 13.7502 9.125C13.8497 9.125 13.9451 9.16451 14.0154 9.23483C14.0857 9.30516 14.1252 9.40054 14.1252 9.5Z" stroke="#777777" stroke-width="1.2" stroke-linecap="round" stroke-linejoin="round"/>
</svg>
