<svg width="20" height="20" viewBox="0 0 20 20" fill="none" xmlns="http://www.w3.org/2000/svg">
<path d="M6.66667 5.20866C6.32149 5.20866 6.04167 5.48848 6.04167 5.83366C6.04167 6.17884 6.32149 6.45866 6.66667 6.45866H13.3333C13.6785 6.45866 13.9583 6.17884 13.9583 5.83366C13.9583 5.48848 13.6785 5.20866 13.3333 5.20866H6.66667Z" fill="#6C737F"/>
<path d="M6.04167 10.0003C6.04167 9.65515 6.32149 9.37533 6.66667 9.37533H13.3333C13.6785 9.37533 13.9583 9.65515 13.9583 10.0003C13.9583 10.3455 13.6785 10.6253 13.3333 10.6253H6.66667C6.32149 10.6253 6.04167 10.3455 6.04167 10.0003Z" fill="#6C737F"/>
<path d="M6.66667 13.542C6.32149 13.542 6.04167 13.8218 6.04167 14.167C6.04167 14.5122 6.32149 14.792 6.66667 14.792H10C10.3452 14.792 10.625 14.5122 10.625 14.167C10.625 13.8218 10.3452 13.542 10 13.542H6.66667Z" fill="#6C737F"/>
<path fill-rule="evenodd" clip-rule="evenodd" d="M10.4861 1.04199H9.51393C7.88821 1.04198 6.60784 1.04197 5.60737 1.16901C4.58323 1.29905 3.75804 1.57178 3.1046 2.18892C2.44612 2.81082 2.1505 3.60422 2.01046 4.588C1.87497 5.53973 1.87499 6.75483 1.875 8.28422V11.7164C1.87498 13.2458 1.87497 14.4609 2.01046 15.4126C2.1505 16.3964 2.44612 17.1898 3.1046 17.8117C3.75804 18.4289 4.58323 18.7016 5.60737 18.8316C6.60784 18.9587 7.88822 18.9587 9.51395 18.9587H10.4861C12.1118 18.9587 13.3922 18.9587 14.3926 18.8316C15.4168 18.7016 16.242 18.4289 16.8954 17.8117C17.5539 17.1898 17.8495 16.3964 17.9895 15.4127C18.125 14.4609 18.125 13.2458 18.125 11.7164V8.28428C18.125 6.75488 18.125 5.53974 17.9895 4.588C17.8495 3.60422 17.5539 2.81082 16.8954 2.18892C16.242 1.57179 15.4168 1.29905 14.3926 1.16901C13.3922 1.04197 12.1118 1.04198 10.4861 1.04199ZM3.96288 3.09769C4.34319 2.73851 4.86676 2.52309 5.76483 2.40905C6.67739 2.29318 7.87833 2.29199 9.55883 2.29199H10.4412C12.1217 2.29199 13.3226 2.29318 14.2352 2.40905C15.1332 2.52309 15.6568 2.73851 16.0371 3.09769C16.4124 3.4521 16.6336 3.93252 16.752 4.76417C16.8735 5.61763 16.875 6.74363 16.875 8.33366V11.667C16.875 13.257 16.8735 14.383 16.752 15.2365C16.6336 16.0681 16.4124 16.5486 16.0371 16.903C15.6568 17.2621 15.1332 17.4776 14.2352 17.5916C13.3226 17.7075 12.1217 17.7087 10.4412 17.7087H9.55883C7.87833 17.7087 6.67739 17.7075 5.76483 17.5916C4.86676 17.4776 4.34319 17.2621 3.96288 16.903C3.58762 16.5486 3.36637 16.0681 3.24798 15.2365C3.12649 14.383 3.125 13.257 3.125 11.667L3.125 8.33366C3.125 6.74363 3.12649 5.61763 3.24798 4.76417C3.36637 3.93252 3.58762 3.4521 3.96288 3.09769Z" fill="#6C737F"/>
</svg>
