<svg width="20" height="20" viewBox="0 0 20 20" fill="none" xmlns="http://www.w3.org/2000/svg">
<path d="M13.1251 5.83366C13.1251 6.17884 12.8453 6.45866 12.5001 6.45866H7.50008C7.1549 6.45866 6.87508 6.17884 6.87508 5.83366C6.87508 5.48848 7.1549 5.20866 7.50008 5.20866H12.5001C12.8453 5.20866 13.1251 5.48848 13.1251 5.83366Z" fill="#6C737F"/>
<path d="M10.0001 9.79199C10.3453 9.79199 10.6251 9.51217 10.6251 9.16699C10.6251 8.82181 10.3453 8.54199 10.0001 8.54199H7.50008C7.1549 8.54199 6.87508 8.82181 6.87508 9.16699C6.87508 9.51217 7.1549 9.79199 7.50008 9.79199H10.0001Z" fill="#6C737F"/>
<path fill-rule="evenodd" clip-rule="evenodd" d="M9.5364 1.04199H10.4638C11.9952 1.04198 13.2083 1.04197 14.1576 1.16961C15.1346 1.30096 15.9254 1.57773 16.549 2.20136C17.1727 2.825 17.4494 3.61579 17.5808 4.59281C17.7084 5.54215 17.7084 6.75516 17.7084 8.28661V14.1075C17.7084 14.1174 17.7082 14.1274 17.7077 14.1372C17.7078 14.1381 17.7078 14.139 17.7078 14.1399C17.7082 14.1489 17.7084 14.1579 17.7084 14.167C17.7084 14.5122 17.4286 14.792 17.0834 14.792C16.278 14.792 15.6251 15.4449 15.6251 16.2503C15.6251 17.0557 16.278 17.7087 17.0834 17.7087C17.4286 17.7087 17.7084 17.9885 17.7084 18.3337C17.7084 18.6788 17.4286 18.9587 17.0834 18.9587H5.00008C3.50431 18.9587 2.29175 17.7461 2.29175 16.2503V8.28664C2.29174 6.75518 2.29173 5.54215 2.41936 4.59281C2.55072 3.61579 2.82748 2.825 3.45112 2.20136C4.07475 1.57773 4.86554 1.30096 5.84256 1.16961C6.79191 1.04197 8.00494 1.04198 9.5364 1.04199ZM14.8008 17.7087C14.5313 17.2877 14.3751 16.7873 14.3751 16.2503C14.3751 15.7134 14.5313 15.2129 14.8008 14.792H5.00008C4.19511 14.792 3.54247 15.4442 3.54175 16.249V16.2503C3.54214 17.0554 4.19491 17.7087 5.00008 17.7087H14.8008ZM16.4584 8.33366V13.542H5.00008C4.46315 13.542 3.96271 13.6982 3.54175 13.9677V8.33366C3.54175 6.74464 3.54308 5.61575 3.65821 4.75937C3.77094 3.92096 3.98233 3.43792 4.335 3.08525C4.68768 2.73257 5.17072 2.52118 6.00912 2.40846C6.86551 2.29332 7.9944 2.29199 9.58342 2.29199H10.4167C12.0058 2.29199 13.1347 2.29332 13.991 2.40846C14.8295 2.52118 15.3125 2.73257 15.6652 3.08525C16.0178 3.43792 16.2292 3.92096 16.3419 4.75937C16.4571 5.61575 16.4584 6.74464 16.4584 8.33366Z" fill="#6C737F"/>
</svg>
