<svg width="25" height="25" viewBox="0 0 25 25" fill="none" xmlns="http://www.w3.org/2000/svg">
<path fill-rule="evenodd" clip-rule="evenodd" d="M12.5 2.01562C9.6005 2.01562 7.25 4.36613 7.25 7.26562C7.25 10.1651 9.6005 12.5156 12.5 12.5156C15.3995 12.5156 17.75 10.1651 17.75 7.26562C17.75 4.36613 15.3995 2.01562 12.5 2.01562ZM8.75 7.26562C8.75 5.19456 10.4289 3.51562 12.5 3.51562C14.5711 3.51562 16.25 5.19456 16.25 7.26562C16.25 9.33669 14.5711 11.0156 12.5 11.0156C10.4289 11.0156 8.75 9.33669 8.75 7.26562Z" fill="#161616"/>
<path fill-rule="evenodd" clip-rule="evenodd" d="M18.7288 15.8448C18.5662 15.7531 18.4226 15.672 18.3063 15.6028C14.7523 13.4866 10.2481 13.4866 6.69404 15.6028C6.57773 15.6721 6.43405 15.7531 6.27139 15.8449C5.55857 16.247 4.48106 16.8549 3.7429 17.5775C3.28123 18.0294 2.84257 18.6248 2.76283 19.3544C2.67802 20.1302 3.01649 20.8583 3.6955 21.5052C4.86695 22.6213 6.27274 23.5156 8.09104 23.5156H16.9093C18.7276 23.5156 20.1334 22.6213 21.3048 21.5052C21.9839 20.8583 22.3223 20.1302 22.2375 19.3544C22.1578 18.6248 21.7191 18.0294 21.2575 17.5775C20.5193 16.8549 19.4417 16.247 18.7288 15.8448ZM7.46146 16.8916C10.5426 15.057 14.4577 15.057 17.5389 16.8916C17.7068 16.9916 17.8907 17.096 18.0834 17.2053C18.796 17.6096 19.6281 18.0816 20.2082 18.6494C20.5683 19.0019 20.7218 19.2927 20.7464 19.5174C20.7659 19.6957 20.7208 19.9899 20.2702 20.4192C19.2343 21.406 18.1818 22.0156 16.9093 22.0156H8.09104C6.8186 22.0156 5.76602 21.406 4.73017 20.4192C4.27954 19.9899 4.23445 19.6957 4.25395 19.5174C4.27851 19.2927 4.43202 19.0019 4.79214 18.6494C5.37223 18.0816 6.20426 17.6096 6.91686 17.2053C7.10953 17.096 7.2936 16.9916 7.46146 16.8916Z" fill="#161616"/>
</svg>
