<svg width="24" height="25" viewBox="0 0 24 25" fill="none" xmlns="http://www.w3.org/2000/svg">
<path fill-rule="evenodd" clip-rule="evenodd" d="M11.9998 2.01562C9.10026 2.01562 6.74976 4.36613 6.74976 7.26562C6.74976 10.1651 9.10026 12.5156 11.9998 12.5156C14.8993 12.5156 17.2498 10.1651 17.2498 7.26562C17.2498 4.36613 14.8993 2.01562 11.9998 2.01562ZM8.24976 7.26562C8.24976 5.19456 9.92869 3.51562 11.9998 3.51562C14.0708 3.51562 15.7498 5.19456 15.7498 7.26562C15.7498 9.33669 14.0708 11.0156 11.9998 11.0156C9.92869 11.0156 8.24976 9.33669 8.24976 7.26562Z" fill="white"/>
<path fill-rule="evenodd" clip-rule="evenodd" d="M18.2286 15.8448C18.066 15.7531 17.9224 15.672 17.8061 15.6028C14.252 13.4866 9.74785 13.4866 6.1938 15.6028C6.07748 15.6721 5.93381 15.7531 5.77114 15.8449C5.05833 16.247 3.98082 16.8549 3.24265 17.5775C2.78098 18.0294 2.34233 18.6248 2.26258 19.3544C2.17778 20.1302 2.51624 20.8583 3.19526 21.5052C4.36671 22.6213 5.77249 23.5156 7.5908 23.5156H16.4091C18.2274 23.5156 19.6332 22.6213 20.8046 21.5052C21.4836 20.8583 21.8221 20.1302 21.7373 19.3544C21.6575 18.6248 21.2189 18.0294 20.7572 17.5775C20.019 16.8549 18.9414 16.247 18.2286 15.8448ZM6.96122 16.8916C10.0424 15.057 13.9575 15.057 17.0386 16.8916C17.2065 16.9916 17.3905 17.096 17.5832 17.2053C18.2958 17.6096 19.1279 18.0816 19.708 18.6494C20.0681 19.0019 20.2216 19.2927 20.2462 19.5174C20.2657 19.6957 20.2206 19.9899 19.7699 20.4192C18.7341 21.406 17.6815 22.0156 16.4091 22.0156H7.5908C6.31835 22.0156 5.26578 21.406 4.22993 20.4192C3.7793 19.9899 3.7342 19.6957 3.7537 19.5174C3.77826 19.2927 3.93177 19.0019 4.2919 18.6494C4.87199 18.0816 5.70401 17.6096 6.41662 17.2053C6.60928 17.096 6.79335 16.9916 6.96122 16.8916Z" fill="white"/>
</svg>
