<svg width="20" height="20" viewBox="0 0 20 20" fill="none" xmlns="http://www.w3.org/2000/svg">
<path d="M13.0799 4.45795C13.7329 4.45795 14.3591 4.71736 14.8209 5.17911C15.2826 5.64086 15.5421 6.26713 15.5421 6.92014M18.0042 6.92014C18.0043 7.63837 17.8473 8.34794 17.5442 8.99908C17.2411 9.65021 16.7992 10.2272 16.2496 10.6895C15.6999 11.1518 15.0558 11.4883 14.3623 11.6753C13.6689 11.8624 12.9429 11.8955 12.2353 11.7723C11.7733 11.6927 11.2841 11.7936 10.9525 12.1252L8.77103 14.3067H6.92438V16.1534H5.07774V18H2V15.6872C2 15.1972 2.19451 14.7269 2.54086 14.3814L7.87479 9.04747C8.20636 8.7159 8.30731 8.22674 8.2277 7.76467C8.11132 7.09263 8.13581 6.40374 8.29962 5.74166C8.46343 5.07958 8.76299 4.45874 9.17932 3.9185C9.59564 3.37826 10.1197 2.9304 10.7181 2.60329C11.3166 2.27619 11.9765 2.07697 12.6561 2.01827C13.3356 1.95957 14.0199 2.04267 14.6656 2.2623C15.3113 2.48193 15.9044 2.8333 16.4072 3.29414C16.91 3.75498 17.3115 4.31525 17.5865 4.93943C17.8614 5.56361 18.0037 6.2381 18.0042 6.92014Z" stroke="black" stroke-linecap="round" stroke-linejoin="round"/>
</svg>
