<svg width="25" height="24" viewBox="0 0 25 24" fill="none" xmlns="http://www.w3.org/2000/svg">
<path d="M17.4167 15.5C17.0945 15.5 16.8333 15.7612 16.8333 16.0833C16.8333 16.4055 17.0945 16.6667 17.4167 16.6667H19.75C20.0722 16.6667 20.3333 16.4055 20.3333 16.0833C20.3333 15.7612 20.0722 15.5 19.75 15.5H17.4167ZM4 8.20833C4 6.43642 5.43642 5 7.20833 5H19.4583C21.2302 5 22.6667 6.43642 22.6667 8.20833V15.7917C22.6667 17.5636 21.2302 19 19.4583 19H7.20833C5.43642 19 4 17.5636 4 15.7917V8.20833ZM7.20833 6.16667C6.08075 6.16667 5.16667 7.08075 5.16667 8.20833V9.66667H21.5V8.20833C21.5 7.08075 20.5859 6.16667 19.4583 6.16667H7.20833ZM21.5 10.8333H5.16667V15.7917C5.16667 16.9192 6.08075 17.8333 7.20833 17.8333H19.4583C20.5859 17.8333 21.5 16.9192 21.5 15.7917V10.8333Z" fill="#B54708"/>
</svg>
