<svg width="40" height="40" viewBox="0 0 40 40" fill="none" xmlns="http://www.w3.org/2000/svg">
<path d="M0 20C0 8.95431 8.95431 0 20 0C31.0457 0 40 8.95431 40 20C40 31.0457 31.0457 40 20 40C8.95431 40 0 31.0457 0 20Z" fill="#F9FAFB"/>
<path d="M20.0003 16.4577C19.425 16.4577 18.9587 16.9241 18.9587 17.4993C18.9587 17.8445 18.6788 18.1243 18.3337 18.1243C17.9885 18.1243 17.7087 17.8445 17.7087 17.4993C17.7087 16.2337 18.7347 15.2077 20.0003 15.2077C21.266 15.2077 22.292 16.2337 22.292 17.4993C22.292 17.9546 22.1586 18.3807 21.9285 18.7382C21.7844 18.9622 21.6159 19.176 21.4606 19.369L21.3768 19.4729C21.2479 19.6324 21.1295 19.7789 21.0202 19.9292C20.7506 20.2998 20.6253 20.5783 20.6253 20.8327V21.2493C20.6253 21.5945 20.3455 21.8743 20.0003 21.8743C19.6551 21.8743 19.3753 21.5945 19.3753 21.2493V20.8327C19.3753 20.1666 19.7023 19.6158 20.0095 19.1937C20.1392 19.0154 20.2814 18.8395 20.4107 18.6795L20.4867 18.5854C20.641 18.3936 20.7724 18.2249 20.8773 18.0618C20.9815 17.8999 21.042 17.7077 21.042 17.4993C21.042 16.9241 20.5756 16.4577 20.0003 16.4577Z" fill="#161616"/>
<path d="M19.9938 23.3327C19.5336 23.3327 19.1605 23.7058 19.1605 24.166C19.1605 24.6263 19.5336 24.9993 19.9938 24.9993H20.0013C20.4615 24.9993 20.8346 24.6263 20.8346 24.166C20.8346 23.7058 20.4615 23.3327 20.0013 23.3327H19.9938Z" fill="#161616"/>
<path fill-rule="evenodd" clip-rule="evenodd" d="M11.042 19.9993C11.042 15.0518 15.0528 11.041 20.0003 11.041C24.9479 11.041 28.9587 15.0518 28.9587 19.9993C28.9587 24.9469 24.9479 28.9577 20.0003 28.9577C15.0528 28.9577 11.042 24.9469 11.042 19.9993ZM20.0003 12.291C15.7431 12.291 12.292 15.7422 12.292 19.9993C12.292 24.2565 15.7431 27.7077 20.0003 27.7077C24.2575 27.7077 27.7087 24.2565 27.7087 19.9993C27.7087 15.7422 24.2575 12.291 20.0003 12.291Z" fill="#161616"/>
</svg>
