<svg width="24" height="24" viewBox="0 0 24 24" fill="none" xmlns="http://www.w3.org/2000/svg">
<path d="M2 5.1C2 3.9402 2.9402 3 4.1 3H14.2496C15.4094 3 16.3496 3.9402 16.3496 5.1V6.60007L17.4079 6.59993C18.0898 6.59983 18.7132 6.98505 19.0181 7.59494L20.9597 11.4781C21.0847 11.7281 21.1497 12.0037 21.1497 12.2831V16.7998C21.1497 17.7939 20.3438 18.5998 19.3497 18.5998H17.4896C17.2117 19.9693 16.001 21 14.5496 21C13.0982 21 11.8876 19.9693 11.6096 18.6H10.2896C10.0116 19.9693 8.80098 21 7.34961 21C5.89823 21 4.68758 19.9693 4.40962 18.6H4.1C2.9402 18.6 2 17.6598 2 16.5V5.1ZM11.6096 17.4C11.8876 16.0307 13.0982 15 14.5496 15C14.7551 15 14.9557 15.0207 15.1496 15.06V5.1C15.1496 4.60294 14.7467 4.2 14.2496 4.2H4.1C3.60294 4.2 3.2 4.60294 3.2 5.1V16.5C3.2 16.9971 3.60294 17.4 4.1 17.4H4.40962C4.68758 16.0307 5.89823 15 7.34961 15C8.80098 15 10.0116 16.0307 10.2896 17.4H11.6096ZM16.3496 15.5998C16.9257 16.0325 17.3409 16.6677 17.4896 17.3998H19.3497C19.6811 17.3998 19.9497 17.1312 19.9497 16.7998V12.5999H16.3496V15.5998ZM16.3496 11.3999H19.579L17.9448 8.1316C17.8432 7.9283 17.6354 7.79989 17.4081 7.79993L16.3496 7.80007V11.3999ZM7.34961 16.2C6.3555 16.2 5.54961 17.0059 5.54961 18C5.54961 18.9941 6.3555 19.8 7.34961 19.8C8.34372 19.8 9.14961 18.9941 9.14961 18C9.14961 17.0059 8.34372 16.2 7.34961 16.2ZM12.7496 18C12.7496 18.9941 13.5555 19.8 14.5496 19.8C15.5437 19.8 16.3496 18.9941 16.3496 18C16.3496 17.0059 15.5437 16.2 14.5496 16.2C13.5555 16.2 12.7496 17.0059 12.7496 18Z" fill="#B54708"/>
</svg>
