<svg width="40" height="40" viewBox="0 0 40 40" fill="none" xmlns="http://www.w3.org/2000/svg">
<path d="M0 20C0 8.95431 8.95431 0 20 0C31.0457 0 40 8.95431 40 20C40 31.0457 31.0457 40 20 40C8.95431 40 0 31.0457 0 20Z" fill="#F9FAFB"/>
<path d="M19.5759 19.792C19.518 19.7911 19.4511 19.791 19.3685 19.791C19.0233 19.791 18.7435 19.5112 18.7435 19.166C18.7435 18.8209 19.0233 18.541 19.3685 18.541L19.3972 18.541C19.5681 18.541 19.753 18.5409 19.909 18.5619C20.0918 18.5864 20.3252 18.6496 20.5217 18.8461C20.7182 19.0426 20.7814 19.2761 20.806 19.4589C20.827 19.6149 20.8269 19.7997 20.8269 19.9707L20.8268 24.166C20.8268 24.5112 20.547 24.791 20.2018 24.791C19.8567 24.791 19.5768 24.5112 19.5768 24.166V19.9994C19.5768 19.9168 19.5768 19.8499 19.5759 19.792Z" fill="#161616"/>
<path d="M19.9935 15.8327C19.5333 15.8327 19.1602 16.2058 19.1602 16.666C19.1602 17.1263 19.5333 17.4993 19.9935 17.4993H20.001C20.4612 17.4993 20.8343 17.1263 20.8343 16.666C20.8343 16.2058 20.4612 15.8327 20.001 15.8327H19.9935Z" fill="#161616"/>
<path fill-rule="evenodd" clip-rule="evenodd" d="M11.0417 19.9993C11.0417 24.9469 15.0525 28.9577 20 28.9577C24.9476 28.9577 28.9584 24.9469 28.9584 19.9993C28.9584 15.0518 24.9476 11.041 20 11.041C15.0525 11.041 11.0417 15.0518 11.0417 19.9993ZM20 27.7077C15.7428 27.7077 12.2917 24.2565 12.2917 19.9993C12.2917 15.7422 15.7428 12.291 20 12.291C24.2572 12.291 27.7084 15.7422 27.7084 19.9993C27.7084 24.2565 24.2572 27.7077 20 27.7077Z" fill="#161616"/>
</svg>
