<svg width="40" height="40" viewBox="0 0 40 40" fill="none" xmlns="http://www.w3.org/2000/svg">
<path d="M0 20C0 8.95431 8.95431 0 20 0C31.0457 0 40 8.95431 40 20C40 31.0457 31.0457 40 20 40C8.95431 40 0 31.0457 0 20Z" fill="#ECFDF3"/>
<path d="M19.166 19.7913L16.666 19.7913C16.321 19.7913 16.041 19.5113 16.041 19.1663C16.041 18.8213 16.321 18.5413 16.666 18.5413L19.166 18.5413C19.511 18.5413 19.791 18.8213 19.791 19.1663C19.791 19.5113 19.511 19.7913 19.166 19.7913Z" fill="#067647"/>
<path d="M16.666 16.458L21.666 16.458C22.011 16.458 22.291 16.178 22.291 15.833C22.291 15.488 22.011 15.208 21.666 15.208L16.666 15.208C16.321 15.208 16.041 15.488 16.041 15.833C16.041 16.178 16.321 16.458 16.666 16.458Z" fill="#067647"/>
<path fill-rule="evenodd" clip-rule="evenodd" d="M19.9993 28.958C19.5794 28.958 19.2628 28.7581 18.7839 28.4558L17.1901 27.4505C16.9776 27.3164 16.736 27.1638 16.6726 27.1572L16.6718 27.1572C16.6084 27.1572 16.3242 27.3358 16.1486 27.4462L16.1418 27.4505C16.0753 27.4927 15.9866 27.5546 15.8927 27.6202L15.8851 27.6255C15.2759 28.0522 14.256 28.7655 13.3793 28.2005C12.7076 27.7672 12.7076 26.9755 12.7076 25.5372L12.7076 16.7105C12.7076 14.2438 12.7076 12.8855 13.6218 11.9647C14.5368 11.0405 15.8851 11.0405 18.3325 11.0405L21.666 11.0405C24.1142 11.0405 25.4626 11.0405 26.3776 11.9647C27.291 12.8855 27.291 14.2438 27.291 16.7105L27.291 25.5372C27.291 26.9746 27.291 27.7672 26.6201 28.1997C25.743 28.7644 24.7243 28.0519 24.1142 27.6252L24.1135 27.6247L24.08 27.6013C23.996 27.5425 23.9179 27.488 23.8568 27.4497C23.6443 27.3155 23.4026 27.163 23.3393 27.1563L23.3384 27.1563C23.2751 27.1563 22.9909 27.335 22.8152 27.4454L22.8085 27.4497L21.216 28.4539C20.736 28.7572 20.4193 28.958 19.9993 28.958ZM16.6693 25.908L16.7151 25.908C17.1093 25.9213 17.4068 26.1089 17.8568 26.393L19.4493 27.3972C19.6759 27.5405 19.9318 27.7014 19.9993 27.7072C20.0657 27.7015 20.3143 27.5449 20.5366 27.4049L22.1444 26.3914C22.6047 26.1014 22.9368 25.8922 23.3818 25.908C23.7759 25.9213 24.0735 26.1089 24.5235 26.393C24.6176 26.4522 24.721 26.5247 24.8301 26.6014C25.5851 27.1297 25.8485 27.1963 25.9351 27.1538C26.041 26.9922 26.041 26.253 26.041 25.538L26.041 16.7113C26.041 14.5073 26.041 13.4013 25.4901 12.8455C24.9418 12.2913 23.8468 12.2913 21.6661 12.2913L18.3326 12.2913C16.1519 12.2913 15.0576 12.2913 14.5093 12.8455C13.9576 13.4013 13.9576 14.508 13.9576 16.7113L13.9576 25.538C13.9576 26.2538 13.9576 26.993 14.0635 27.1547C14.1493 27.1972 14.4126 27.1313 15.1684 26.6022C15.2776 26.5255 15.381 26.4538 15.4751 26.3938C15.921 26.113 16.2468 25.908 16.6693 25.908Z" fill="#067647"/>
</svg>
