<svg width="40" height="40" viewBox="0 0 40 40" fill="none" xmlns="http://www.w3.org/2000/svg">
<path d="M0 20C0 8.95431 8.95431 0 20 0C31.0457 0 40 8.95431 40 20C40 31.0457 31.0457 40 20 40C8.95431 40 0 31.0457 0 20Z" fill="#FEF3F2"/>
<path d="M19.1595 23.3335C19.1595 22.8733 19.5326 22.5002 19.9928 22.5002H20.0003C20.4606 22.5002 20.8337 22.8733 20.8337 23.3335C20.8337 23.7937 20.4606 24.1668 20.0003 24.1668H19.9928C19.5326 24.1668 19.1595 23.7937 19.1595 23.3335Z" fill="#D92D20"/>
<path d="M19.3743 20.8335C19.3743 21.1787 19.6542 21.4585 19.9993 21.4585C20.3445 21.4585 20.6243 21.1787 20.6243 20.8335V17.5002C20.6243 17.155 20.3445 16.8752 19.9993 16.8752C19.6542 16.8752 19.3743 17.155 19.3743 17.5002V20.8335Z" fill="#D92D20"/>
<path fill-rule="evenodd" clip-rule="evenodd" d="M18.6343 11.6793C19.5214 11.3849 20.4773 11.3849 21.3644 11.6793C22.2477 11.9726 22.9413 12.668 23.6381 13.6451C24.3326 14.619 25.1 15.9769 26.0892 17.7272L26.128 17.796C27.1174 19.5466 27.8848 20.9044 28.363 22.0056C28.8435 23.1121 29.0829 24.0675 28.8919 24.9853C28.6996 25.9094 28.2255 26.7497 27.535 27.3849C26.8462 28.0185 25.9083 28.2858 24.7273 28.4142C23.5531 28.5418 22.017 28.5418 20.04 28.5418H19.9587C17.9817 28.5418 16.4456 28.5418 15.2714 28.4142C14.0904 28.2858 13.1525 28.0185 12.4637 27.3849C11.7732 26.7497 11.2991 25.9094 11.1068 24.9853C10.9158 24.0675 11.1552 23.1121 11.6357 22.0056C12.1139 20.9044 12.8813 19.5466 13.8707 17.796L13.9095 17.7272C14.8987 15.9769 15.6661 14.619 16.3606 13.6451C17.0574 12.668 17.751 11.9726 18.6343 11.6793ZM20.9706 12.8657C20.3392 12.6561 19.6595 12.6561 19.0281 12.8657C18.5315 13.0305 18.0322 13.4539 17.3783 14.3709C16.7266 15.2847 15.991 16.5847 14.9782 18.3768C13.9655 20.1687 13.2312 21.4697 12.7823 22.5035C12.3325 23.539 12.2199 24.1984 12.3306 24.7306C12.4703 25.4019 12.814 26.0087 13.3099 26.4649C13.6995 26.8232 14.3064 27.0519 15.4065 27.1715C16.5052 27.2909 17.9732 27.2918 19.9994 27.2918C22.0255 27.2918 23.4936 27.2909 24.5922 27.1715C25.6923 27.0519 26.2992 26.8232 26.6888 26.4649C27.1847 26.0087 27.5284 25.4019 27.6681 24.7306C27.7788 24.1984 27.6662 23.539 27.2164 22.5035C26.7675 21.4697 26.0332 20.1687 25.0205 18.3768C24.0077 16.5847 23.2721 15.2847 22.6204 14.3709C21.9665 13.4539 21.4672 13.0305 20.9706 12.8657Z" fill="#D92D20"/>
</svg>
