<svg width="40" height="40" viewBox="0 0 40 40" fill="none" xmlns="http://www.w3.org/2000/svg">
<path d="M0 20C0 8.95431 8.95431 0 20 0C31.0457 0 40 8.95431 40 20C40 31.0457 31.0457 40 20 40C8.95431 40 0 31.0457 0 20Z" fill="#ECFDF3"/>
<path d="M23.7944 17.9222C24.0276 17.6677 24.0104 17.2724 23.756 17.0391C23.5015 16.8059 23.1062 16.8231 22.8729 17.0775L18.7307 21.5963L17.1089 19.9746C16.8649 19.7305 16.4691 19.7305 16.2251 19.9746C15.981 20.2186 15.981 20.6144 16.2251 20.8584L18.3084 22.9418C18.4289 23.0623 18.5935 23.1284 18.7639 23.1247C18.9343 23.121 19.0959 23.0478 19.211 22.9222L23.7944 17.9222Z" fill="#067647"/>
<path fill-rule="evenodd" clip-rule="evenodd" d="M20.0003 28.9582C15.0528 28.9582 11.042 24.9474 11.042 19.9998C11.042 15.0523 15.0528 11.0415 20.0003 11.0415C24.9479 11.0415 28.9587 15.0523 28.9587 19.9998C28.9587 24.9474 24.9479 28.9582 20.0003 28.9582ZM12.292 19.9998C12.292 24.257 15.7431 27.7082 20.0003 27.7082C24.2575 27.7082 27.7087 24.257 27.7087 19.9998C27.7087 15.7426 24.2575 12.2915 20.0003 12.2915C15.7431 12.2915 12.292 15.7426 12.292 19.9998Z" fill="#067647"/>
</svg>
