<svg width="42" height="35" viewBox="0 0 42 35" fill="none" xmlns="http://www.w3.org/2000/svg">
<g clip-path="url(#clip0_6135_59802)">
<path d="M23.2577 25.5269H25.1929C27.0563 25.5269 28.8481 24.9893 30.3891 23.9501L31.7867 22.9825C32.0376 22.8392 32.1092 22.5166 31.9301 22.2658C31.715 21.9433 31.4284 21.6924 31.1058 21.5132C30.4249 21.119 29.5649 21.1549 28.8481 21.5132C26.2321 22.8033 23.9028 21.7282 23.9028 21.7282C23.0427 21.1907 22.2543 20.7965 21.4659 20.474C18.2406 19.148 14.5137 19.6497 11.6826 21.6566" stroke="#0A7A58" stroke-width="1.2" stroke-miterlimit="10"/>
<path d="M11.7185 28.4297C11.7185 28.4297 16.0905 27.5696 23.7595 27.9996C25.7663 28.1072 27.8089 27.6771 29.6008 26.7095L41.2117 20.5816C41.4625 20.4382 41.5342 20.1157 41.355 19.9007C40.925 19.3631 39.9933 18.6106 38.0939 19.1123C37.8789 19.1839 37.6639 19.2556 37.4489 19.3273L31.6076 21.8358" stroke="#0A7A58" stroke-width="1.2" stroke-miterlimit="10"/>
<path d="M7.31055 31.2254H11.6109V20.1162H7.31055" stroke="#0A7A58" stroke-width="1.2" stroke-miterlimit="10"/>
<path d="M0.537598 34.1634H7.31064V16.8545H0.537598" stroke="#0A7A58" stroke-width="1.2" stroke-miterlimit="10" stroke-linecap="round"/>
<path d="M37.0906 12.5898H13.9404" stroke="#0A7A58" stroke-width="1.2" stroke-miterlimit="10"/>
<path d="M19.5665 4.56303C19.5665 5.38727 18.9214 6.03232 18.0972 6.03232C17.273 6.03232 16.6279 5.38727 16.6279 4.56303C16.6279 3.7388 17.273 3.09375 18.0972 3.09375C18.9214 3.12959 19.5665 3.77464 19.5665 4.56303Z" stroke="#0A7A58" stroke-width="1.2" stroke-miterlimit="10"/>
<path d="M21.2148 5.88897C21.394 5.99648 21.609 6.03232 21.8241 6.03232C22.6483 6.03232 23.2933 5.38727 23.2933 4.56303C23.2933 3.7388 22.6483 3.09375 21.8241 3.09375C21.609 3.09375 21.394 3.12959 21.2148 3.23709" stroke="#0A7A58" stroke-width="1.2" stroke-miterlimit="10" stroke-linecap="round"/>
<path d="M16.6279 9.75879H19.2798" stroke="#0A7A58" stroke-width="1.2" stroke-miterlimit="10"/>
<path d="M21.645 9.75879H24.3327" stroke="#0A7A58" stroke-width="1.2" stroke-miterlimit="10"/>
<path d="M26.698 9.75879H29.3499" stroke="#0A7A58" stroke-width="1.2" stroke-miterlimit="10"/>
<path d="M31.7148 9.75879H34.4026" stroke="#0A7A58" stroke-width="1.2" stroke-miterlimit="10"/>
<path d="M33.5428 6.03232H31.2493C30.7834 6.03232 30.425 5.67395 30.425 5.20808V3.91798C30.425 3.45211 30.7834 3.09375 31.2493 3.09375H33.5428C34.0087 3.09375 34.367 3.45211 34.367 3.91798V5.20808C34.367 5.67395 34.0087 6.03232 33.5428 6.03232Z" stroke="#0A7A58" stroke-width="1.2" stroke-miterlimit="10"/>
<path d="M35.1196 0.835938H15.8756C14.8005 0.835938 13.9404 1.69601 13.9404 2.77109V13.3428C13.9404 14.4179 14.8005 15.2779 15.8756 15.2779H35.1196C36.1947 15.2779 37.0548 14.4179 37.0548 13.3428V2.77109C37.0906 1.69601 36.1947 0.835938 35.1196 0.835938Z" stroke="#0A7A58" stroke-width="1.2" stroke-miterlimit="10"/>
</g>
<defs>
<clipPath id="clip0_6135_59802">
<rect width="42" height="34.4027" fill="white" transform="translate(0 0.298828)"/>
</clipPath>
</defs>
</svg>
