<svg width="20" height="20" viewBox="0 0 20 20" fill="none" xmlns="http://www.w3.org/2000/svg">
<g clip-path="url(#clip0_7557_41219)">
<path d="M9.5381 1.60508C9.70889 1.19444 10.2906 1.19444 10.4614 1.60508L12.5275 6.57256C12.5995 6.74568 12.7623 6.86396 12.9492 6.87895L18.312 7.30888C18.7553 7.34442 18.9351 7.89768 18.5973 8.18701L14.5114 11.687C14.3691 11.809 14.3069 12.0004 14.3504 12.1828L15.5987 17.416C15.7019 17.8486 15.2312 18.1905 14.8517 17.9587L10.2604 15.1543C10.1004 15.0566 9.89914 15.0566 9.73913 15.1543L5.14781 17.9587C4.76827 18.1905 4.29764 17.8486 4.40083 17.416L5.64914 12.1828C5.69265 12.0004 5.63046 11.809 5.48806 11.687L1.40217 8.18701C1.0644 7.89768 1.24416 7.34442 1.68749 7.30888L7.0503 6.87895C7.2372 6.86396 7.4 6.74568 7.472 6.57256L9.5381 1.60508Z" fill="#F5F5F5"/>
<g clip-path="url(#clip1_7557_41219)">
<path d="M9.5381 1.60508C9.70889 1.19444 10.2906 1.19444 10.4614 1.60508L12.5275 6.57256C12.5995 6.74568 12.7623 6.86396 12.9492 6.87895L18.312 7.30888C18.7553 7.34442 18.9351 7.89768 18.5973 8.18701L14.5114 11.687C14.3691 11.809 14.3069 12.0004 14.3504 12.1828L15.5987 17.416C15.7019 17.8486 15.2312 18.1905 14.8517 17.9587L10.2604 15.1543C10.1004 15.0566 9.89914 15.0566 9.73913 15.1543L5.14781 17.9587C4.76827 18.1905 4.29764 17.8486 4.40083 17.416L5.64914 12.1828C5.69265 12.0004 5.63046 11.809 5.48806 11.687L1.40217 8.18701C1.0644 7.89768 1.24416 7.34442 1.68749 7.30888L7.0503 6.87895C7.2372 6.86396 7.4 6.74568 7.472 6.57256L9.5381 1.60508Z" fill="#C73A3A"/>
</g>
</g>
<defs>
<clipPath id="clip0_7557_41219">
<rect width="20" height="20" fill="white" transform="translate(-0.000244141 -0.00488281)"/>
</clipPath>
<clipPath id="clip1_7557_41219">
<rect width="20" height="20" fill="white" transform="translate(-0.000244141 -0.00488281)"/>
</clipPath>
</defs>
</svg>
