<svg width="21" height="20" viewBox="0 0 21 20" fill="none" xmlns="http://www.w3.org/2000/svg">
<path d="M16.75 9.99995C16.75 8.97328 16.7117 7.95578 16.635 6.94828C16.576 6.15007 16.2323 5.39961 15.6663 4.83365C15.1003 4.2677 14.3499 3.92391 13.5517 3.86495C11.5201 3.71168 9.47989 3.71168 7.44833 3.86495C6.65012 3.92391 5.89966 4.2677 5.3337 4.83365C4.76775 5.39961 4.42396 6.15007 4.365 6.94828C4.35083 7.13162 4.33833 7.31578 4.32667 7.49995M16.75 9.99995L19.25 7.49995M16.75 9.99995L14.25 7.49995M4.25 9.99995C4.25 11.0266 4.28833 12.0441 4.365 13.0516C4.42396 13.8498 4.76775 14.6003 5.3337 15.1662C5.89966 15.7322 6.65012 16.076 7.44833 16.135C9.47989 16.2883 11.5201 16.2883 13.5517 16.135C14.3499 16.076 15.1003 15.7322 15.6663 15.1662C16.2323 14.6003 16.576 13.8498 16.635 13.0516C16.6492 12.8683 16.6617 12.6841 16.6733 12.5M4.25 9.99995L6.75 12.5M4.25 9.99995L1.75 12.5" stroke="#0E0E0E" stroke-linecap="round" stroke-linejoin="round"/>
</svg>
