<svg width="21" height="20" viewBox="0 0 21 20" fill="none" xmlns="http://www.w3.org/2000/svg">
<g clip-path="url(#clip0_6548_78343)">
<rect x="0.666504" y="2.85742" width="20" height="14.2857" rx="2" fill="white"/>
<mask id="mask0_6548_78343" style="mask-type:luminance" maskUnits="userSpaceOnUse" x="0" y="2" width="21" height="16">
<rect x="0.666504" y="2.85742" width="20" height="14.2857" rx="2" fill="white"/>
</mask>
<g mask="url(#mask0_6548_78343)">
<rect x="0.666504" y="2.85742" width="20" height="14.2857" fill="#128C4B"/>
<path fill-rule="evenodd" clip-rule="evenodd" d="M5.42847 11.4289H13.0475V11.0651C13.0475 10.5759 13.5623 10.2577 13.9999 10.4765V11.4289H15.2697C15.6204 11.4289 15.9047 11.7132 15.9047 12.0638C15.9047 12.7651 15.3361 13.3337 14.6348 13.3337H13.7142C13.346 13.3337 13.0475 13.0352 13.0475 12.667V12.3813H6.65699C6.48018 12.3813 6.31061 12.311 6.18559 12.186L5.42847 11.4289Z" fill="white"/>
<path fill-rule="evenodd" clip-rule="evenodd" d="M5.42847 8.70885C5.42847 8.62044 5.46359 8.53566 5.5261 8.47315L5.66896 8.33029C5.79913 8.20011 5.79913 7.98906 5.66896 7.85888L5.5261 7.71603C5.46359 7.65352 5.42847 7.56873 5.42847 7.48033V6.99935C5.42847 6.81525 5.57771 6.66602 5.7618 6.66602H6.19896C6.29941 6.66602 6.38085 6.74745 6.38085 6.8479C6.38085 7.03984 6.63959 7.10092 6.72542 6.92925L6.79641 6.78727C6.83357 6.71296 6.90952 6.66602 6.99261 6.66602H8.04751C8.17901 6.66602 8.28561 6.77261 8.28561 6.90411C8.28561 7.03561 8.17901 7.14221 8.04751 7.14221H7.57132C7.43983 7.14221 7.33323 7.2488 7.33323 7.3803C7.33323 7.5118 7.43983 7.6184 7.57132 7.6184H7.95228C8.13637 7.6184 8.28561 7.76763 8.28561 7.95173V9.18983C8.28561 9.37392 8.13637 9.52316 7.95228 9.52316H7.66656C7.48247 9.52316 7.33323 9.37392 7.33323 9.18983V8.80887C7.33323 8.67738 7.43983 8.57078 7.57132 8.57078C7.70282 8.57078 7.80942 8.46418 7.80942 8.33268C7.80942 8.20119 7.70282 8.09459 7.57132 8.09459H7.19037C7.00628 8.09459 6.85704 8.24383 6.85704 8.42792V9.28506C6.85704 9.41656 6.75044 9.52316 6.61894 9.52316C6.48745 9.52316 6.38085 9.41656 6.38085 9.28506V8.80887C6.38085 8.67738 6.27425 8.57078 6.14275 8.57078C6.01126 8.57078 5.90466 8.67738 5.90466 8.80887V9.28506C5.90466 9.41656 5.79806 9.52316 5.66656 9.52316C5.53507 9.52316 5.42847 9.41656 5.42847 9.28506V8.70885Z" fill="white"/>
<path fill-rule="evenodd" clip-rule="evenodd" d="M13.0476 8.70885C13.0476 8.62044 13.0827 8.53566 13.1452 8.47315L13.2881 8.33029C13.4183 8.20011 13.4183 7.98906 13.2881 7.85888L13.1452 7.71603C13.0827 7.65352 13.0476 7.56873 13.0476 7.48033V6.99935C13.0476 6.81525 13.1968 6.66602 13.3809 6.66602H13.8181C13.9186 6.66602 14 6.74745 14 6.8479C14 7.03984 14.2587 7.10092 14.3446 6.92925L14.4155 6.78727C14.4527 6.71296 14.5287 6.66602 14.6117 6.66602H15.6667C15.7981 6.66602 15.9047 6.77261 15.9047 6.90411C15.9047 7.03561 15.7982 7.14221 15.6667 7.14221H15.1905C15.059 7.14221 14.9524 7.2488 14.9524 7.3803C14.9524 7.5118 15.059 7.6184 15.1905 7.6184H15.5714C15.7555 7.6184 15.9047 7.76763 15.9047 7.95173V9.18983C15.9047 9.37392 15.7555 9.52316 15.5714 9.52316H15.2857C15.1016 9.52316 14.9524 9.37392 14.9524 9.18983V8.80887C14.9524 8.67738 15.059 8.57078 15.1905 8.57078C15.322 8.57078 15.4286 8.46418 15.4286 8.33268C15.4286 8.20119 15.322 8.09459 15.1905 8.09459H14.8095C14.6254 8.09459 14.4762 8.24383 14.4762 8.42792V9.28506C14.4762 9.41656 14.3696 9.52316 14.2381 9.52316C14.1066 9.52316 14 9.41656 14 9.28506V8.80887C14 8.67738 13.8934 8.57078 13.7619 8.57078C13.6304 8.57078 13.5238 8.67738 13.5238 8.80887V9.28506C13.5238 9.41656 13.4172 9.52316 13.2857 9.52316C13.1542 9.52316 13.0476 9.41656 13.0476 9.28506V8.70885Z" fill="white"/>
<path fill-rule="evenodd" clip-rule="evenodd" d="M12.0952 7.37807C12.0952 7.5108 12.0208 7.6928 11.9233 7.79031L11.7909 7.92267C11.696 8.01762 11.6934 8.16899 11.7909 8.2665L11.9233 8.39886C12.0182 8.49381 12.0952 8.6727 12.0952 8.8111V9.28283C12.0952 9.41556 11.9933 9.52316 11.8549 9.52316H11.3831C11.2504 9.52316 11.1428 9.42124 11.1428 9.28283V8.8111C11.1428 8.67838 11.0989 8.65867 11.0324 8.79167L10.7771 9.30227C10.7161 9.42426 10.5545 9.52316 10.4307 9.52316H9.47394C9.34365 9.52316 9.23804 9.41271 9.23804 9.28506C9.23804 9.15357 9.33996 9.04697 9.47836 9.04697H9.95009C10.0828 9.04697 10.1904 8.93652 10.1904 8.80887C10.1904 8.67738 10.0885 8.57078 9.95009 8.57078H9.47836C9.34563 8.57078 9.23804 8.46837 9.23804 8.33722V6.89958C9.23804 6.77058 9.33996 6.66602 9.47836 6.66602H9.95009C10.0828 6.66602 10.1904 6.76794 10.1904 6.90634V7.37807C10.1904 7.5108 10.08 7.6184 9.95232 7.6184C9.82083 7.6184 9.71423 7.72884 9.71423 7.85649C9.71423 7.98799 9.81615 8.09459 9.95455 8.09459H10.4263C10.559 8.09459 10.6666 7.98249 10.6666 7.85869V6.90192C10.6666 6.77163 10.7771 6.66602 10.9047 6.66602C11.0362 6.66602 11.1428 6.76794 11.1428 6.90634V7.37807C11.1428 7.5108 11.2532 7.6184 11.3809 7.6184C11.5124 7.6184 11.619 7.51648 11.619 7.37807V6.90634C11.619 6.77361 11.7294 6.66602 11.8571 6.66602C11.9886 6.66602 12.0952 6.76794 12.0952 6.90634V7.37807Z" fill="white"/>
</g>
</g>
<defs>
<clipPath id="clip0_6548_78343">
<rect width="20" height="20" fill="white" transform="translate(0.666504)"/>
</clipPath>
</defs>
</svg>
