<svg width="42" height="35" viewBox="0 0 42 35" fill="none" xmlns="http://www.w3.org/2000/svg">
<g clip-path="url(#clip0_6135_59824)">
<path d="M22.042 25.3627C22.042 25.5521 21.8841 25.6785 21.7262 25.6785C21.5367 25.6785 21.4104 25.5206 21.4104 25.3627C21.4104 25.1732 21.5683 25.0469 21.7262 25.0469C21.8841 25.0469 22.042 25.2048 22.042 25.3627Z" stroke="#0A7A58" stroke-width="1.2" stroke-miterlimit="10" stroke-linecap="round" stroke-linejoin="round"/>
<path d="M21.7262 27.415H27.5367C27.5367 27.415 27.4104 28.8993 27.6946 30.3519C27.9157 31.4571 28.7367 32.4677 29.9367 33.0677C30.2841 33.2571 30.1262 33.6361 29.7157 33.6361H21.7262H13.7367C13.3262 33.6361 13.1683 33.2256 13.5157 33.0677C14.7157 32.4361 15.5367 31.4571 15.7578 30.3519C16.042 28.8993 15.9157 27.415 15.9157 27.415H21.7262Z" stroke="#0A7A58" stroke-width="1.2" stroke-miterlimit="10" stroke-linecap="round" stroke-linejoin="round"/>
<path d="M4.86304 23.3096H38.5578" stroke="#0A7A58" stroke-width="1.2" stroke-miterlimit="10" stroke-linecap="round" stroke-linejoin="round"/>
<path d="M39.6631 27.4153H2.33679C1.32626 27.4153 0.473633 26.5942 0.473633 25.5521V3.19421C0.473633 2.18369 1.29469 1.33105 2.33679 1.33105H39.6631C40.6736 1.33105 41.5263 2.15211 41.5263 3.19421V25.5837C41.5263 26.5942 40.7052 27.4153 39.6631 27.4153Z" stroke="#0A7A58" stroke-width="1.2" stroke-miterlimit="10" stroke-linecap="round" stroke-linejoin="round"/>
<path d="M9.28425 5.81543H5.62109V9.47859H9.28425V5.81543Z" stroke="#0A7A58" stroke-width="1.2" stroke-miterlimit="10" stroke-linecap="round" stroke-linejoin="round"/>
<path d="M16.4212 5.81543H12.7581V9.47859H16.4212V5.81543Z" stroke="#0A7A58" stroke-width="1.2" stroke-miterlimit="10" stroke-linecap="round" stroke-linejoin="round"/>
<path d="M23.5579 5.81543H19.8948V9.47859H23.5579V5.81543Z" stroke="#0A7A58" stroke-width="1.2" stroke-miterlimit="10" stroke-linecap="round" stroke-linejoin="round"/>
<path d="M30.6632 5.81543H27V9.47859H30.6632V5.81543Z" stroke="#0A7A58" stroke-width="1.2" stroke-miterlimit="10" stroke-linecap="round" stroke-linejoin="round"/>
<path d="M37.8001 5.81543H34.137V9.47859H37.8001V5.81543Z" stroke="#0A7A58" stroke-width="1.2" stroke-miterlimit="10" stroke-linecap="round" stroke-linejoin="round"/>
<path d="M9.28425 12.2578H5.62109V15.921H9.28425V12.2578Z" stroke="#0A7A58" stroke-width="1.2" stroke-miterlimit="10" stroke-linecap="round" stroke-linejoin="round"/>
<path d="M16.4212 12.2578H12.7581V15.921H16.4212V12.2578Z" stroke="#0A7A58" stroke-width="1.2" stroke-miterlimit="10" stroke-linecap="round" stroke-linejoin="round"/>
<path d="M23.5579 12.2578H19.8948V15.921H23.5579V12.2578Z" stroke="#0A7A58" stroke-width="1.2" stroke-miterlimit="10" stroke-linecap="round" stroke-linejoin="round"/>
<path d="M30.6632 12.2578H27V15.921H30.6632V12.2578Z" stroke="#0A7A58" stroke-width="1.2" stroke-miterlimit="10" stroke-linecap="round" stroke-linejoin="round"/>
<path d="M37.8001 12.2578H34.137V15.921H37.8001V12.2578Z" stroke="#0A7A58" stroke-width="1.2" stroke-miterlimit="10" stroke-linecap="round" stroke-linejoin="round"/>
</g>
<defs>
<clipPath id="clip0_6135_59824">
<rect width="42" height="33.2842" fill="white" transform="translate(0 0.857422)"/>
</clipPath>
</defs>
</svg>
