<svg width="24" height="25" viewBox="0 0 24 25" fill="none" xmlns="http://www.w3.org/2000/svg">
<path fill-rule="evenodd" clip-rule="evenodd" d="M11 1.42188C5.61522 1.42188 1.25 5.7871 1.25 11.1719C1.25 16.5567 5.61522 20.9219 11 20.9219C13.4224 20.9219 15.6385 20.0384 17.3437 18.5762L21.4697 22.7022C21.7626 22.9951 22.2374 22.9951 22.5303 22.7022C22.8232 22.4093 22.8232 21.9344 22.5303 21.6415L18.4043 17.5155C19.8666 15.8104 20.75 13.5943 20.75 11.1719C20.75 5.7871 16.3848 1.42188 11 1.42188ZM2.75 11.1719C2.75 6.61553 6.44365 2.92188 11 2.92188C15.5563 2.92188 19.25 6.61553 19.25 11.1719C19.25 15.7282 15.5563 19.4219 11 19.4219C6.44365 19.4219 2.75 15.7282 2.75 11.1719Z" fill="white"/>
</svg>
