<svg width="21" height="22" viewBox="0 0 21 22" fill="none" xmlns="http://www.w3.org/2000/svg">
<path fill-rule="evenodd" clip-rule="evenodd" d="M16.4822 5.26945C16.8484 6.80085 16.9014 8.40241 16.6239 9.97615C16.1509 12.6586 14.7479 15.0886 12.6614 16.8394C11.9924 17.4008 11.2668 17.8808 10.5 18.2739C9.73312 17.8808 9.00755 17.4008 8.33854 16.8394C6.252 15.0886 4.84902 12.6586 4.37605 9.97615C4.09853 8.40236 4.15158 6.80072 4.51788 5.26924C5.15441 4.88544 5.83022 4.56151 6.53734 4.30416C9.09687 3.37257 11.9028 3.37257 14.4623 4.30416C15.1695 4.56157 15.8455 4.88557 16.4822 5.26945Z" fill="#FAD02B"/>
<path fill-rule="evenodd" clip-rule="evenodd" d="M10.0078 7.06109L10.3141 11.9625C10.3202 12.0606 10.4016 12.1371 10.5 12.1371C10.5984 12.1371 10.6798 12.0606 10.6859 11.9625L10.9923 7.06109C11.01 6.77714 10.7845 6.53711 10.5 6.53711C10.2155 6.53711 9.99001 6.77714 10.0078 7.06109ZM10.5 14.2371C10.3067 14.2371 10.15 14.3938 10.15 14.5871C10.15 14.7804 10.3067 14.9371 10.5 14.9371C10.6933 14.9371 10.85 14.7804 10.85 14.5871C10.85 14.3938 10.6933 14.2371 10.5 14.2371Z" fill="#EB5757"/>
<path d="M10.8381 11.9293L10.5317 7.02793L9.48377 7.09345L9.79011 11.9948L10.8381 11.9293ZM10.5 11.6117C10.6789 11.6117 10.8269 11.7508 10.8381 11.9293L9.79011 11.9948C9.81353 12.3697 10.1244 12.6617 10.5 12.6617V11.6117ZM10.1619 11.9293C10.1731 11.7508 10.3211 11.6117 10.5 11.6117V12.6617C10.8756 12.6617 11.1865 12.3697 11.2099 11.9948L10.1619 11.9293ZM10.4683 7.02793L10.1619 11.9293L11.2099 11.9948L11.5162 7.09345L10.4683 7.02793ZM10.5 7.06172C10.4817 7.06172 10.4671 7.04626 10.4683 7.02793L11.5162 7.09345C11.5529 6.50727 11.0873 6.01172 10.5 6.01172V7.06172ZM10.5317 7.02793C10.5329 7.04626 10.5183 7.06172 10.5 7.06172V6.01172C9.91267 6.01172 9.44713 6.50727 9.48377 7.09345L10.5317 7.02793ZM10.675 14.5867C10.675 14.6834 10.5966 14.7617 10.5 14.7617V13.7117C10.0168 13.7117 9.625 14.1035 9.625 14.5867H10.675ZM10.5 14.4117C10.5966 14.4117 10.675 14.4901 10.675 14.5867H9.625C9.625 15.07 10.0168 15.4617 10.5 15.4617V14.4117ZM10.325 14.5867C10.325 14.4901 10.4034 14.4117 10.5 14.4117V15.4617C10.9833 15.4617 11.375 15.07 11.375 14.5867H10.325ZM10.5 14.7617C10.4033 14.7617 10.325 14.6834 10.325 14.5867H11.375C11.375 14.1035 10.9833 13.7117 10.5 13.7117V14.7617Z" fill="#EB5757"/>
</svg>
