<svg width="24" height="25" viewBox="0 0 24 25" fill="none" xmlns="http://www.w3.org/2000/svg">
<path fill-rule="evenodd" clip-rule="evenodd" d="M1.99993 1.295C1.58571 1.295 1.24993 1.63078 1.24993 2.045C1.24993 2.45921 1.58571 2.795 1.99993 2.795L2.96593 2.795C3.58181 2.795 4.09632 3.20076 4.23685 3.74684L7.21211 15.3084C7.30421 15.6663 7.22658 16.0476 6.9945 16.3482L6.25459 17.3066C6.17073 17.2989 6.08579 17.295 5.99993 17.295C4.48114 17.295 3.24993 18.5262 3.24993 20.045C3.24993 21.5638 4.48114 22.795 5.99993 22.795C7.2587 22.795 8.31995 21.9493 8.64641 20.795L14.3534 20.795C14.6799 21.9493 15.7411 22.795 16.9999 22.795C18.5187 22.795 19.7499 21.5638 19.7499 20.045C19.7499 18.5262 18.5187 17.295 16.9999 17.295C15.7411 17.295 14.6799 18.1407 14.3534 19.295L8.64641 19.295C8.48671 18.7304 8.15119 18.2396 7.70273 17.8855L8.18183 17.2649C8.30485 17.1055 8.40868 16.935 8.49254 16.7566L16.7824 16.0658C18.1389 15.9528 19.2311 15.7421 19.9745 15.0189C20.7179 14.2957 20.9585 13.2097 21.1088 11.8568L21.6713 6.795L21.9999 6.795C22.4141 6.795 22.7499 6.45921 22.7499 6.045C22.7499 5.63079 22.4141 5.295 21.9999 5.295L6.18412 5.295L5.68952 3.37301C5.37181 2.13843 4.23941 1.295 2.96593 1.295L1.99993 1.295ZM6.57014 6.795L8.66478 14.9346C8.69017 15.0332 8.7098 15.1326 8.72379 15.2321L16.6578 14.571C18.0297 14.4567 18.608 14.2556 18.9286 13.9438C19.2491 13.6319 19.466 13.0593 19.618 11.6911L20.162 6.795L6.57014 6.795ZM5.99993 18.795C5.30957 18.795 4.74993 19.3546 4.74993 20.045C4.74993 20.7354 5.30957 21.295 5.99993 21.295C6.69028 21.295 7.24993 20.7354 7.24993 20.045C7.24993 19.3546 6.69028 18.795 5.99993 18.795ZM16.9999 21.295C16.3096 21.295 15.7499 20.7354 15.7499 20.045C15.7499 19.3546 16.3096 18.795 16.9999 18.795C17.6903 18.795 18.2499 19.3546 18.2499 20.045C18.2499 20.7354 17.6903 21.295 16.9999 21.295Z" fill="white"/>
</svg>
