<svg width="25" height="25" viewBox="0 0 25 25" fill="none" xmlns="http://www.w3.org/2000/svg">
<path fill-rule="evenodd" clip-rule="evenodd" d="M2.50017 1.295C2.08596 1.295 1.75017 1.63078 1.75017 2.045C1.75017 2.45921 2.08596 2.795 2.50017 2.795L3.46617 2.795C4.08206 2.795 4.59657 3.20076 4.73709 3.74684L7.71235 15.3084C7.80446 15.6663 7.72682 16.0476 7.49474 16.3482L6.75483 17.3066C6.67098 17.2989 6.58603 17.295 6.50017 17.295C4.98139 17.295 3.75017 18.5262 3.75017 20.045C3.75017 21.5638 4.98139 22.795 6.50017 22.795C7.75895 22.795 8.82019 21.9493 9.14665 20.795L14.8537 20.795C15.1802 21.9493 16.2414 22.795 17.5002 22.795C19.019 22.795 20.2502 21.5638 20.2502 20.045C20.2502 18.5262 19.019 17.295 17.5002 17.295C16.2414 17.295 15.1802 18.1407 14.8537 19.295L9.14665 19.295C8.98696 18.7304 8.65143 18.2396 8.20297 17.8855L8.68208 17.2649C8.80509 17.1055 8.90892 16.935 8.99279 16.7566L17.2826 16.0658C18.6392 15.9528 19.7314 15.7421 20.4748 15.0189C21.2182 14.2957 21.4588 13.2097 21.6091 11.8568L22.1715 6.795L22.5002 6.795C22.9144 6.795 23.2502 6.45921 23.2502 6.045C23.2502 5.63079 22.9144 5.295 22.5002 5.295L6.68437 5.295L6.18976 3.37301C5.87205 2.13843 4.73965 1.295 3.46617 1.295L2.50017 1.295ZM7.07038 6.795L9.16502 14.9346C9.19041 15.0332 9.21005 15.1326 9.22403 15.2321L17.158 14.571C18.5299 14.4567 19.1082 14.2556 19.4288 13.9438C19.7494 13.6319 19.9662 13.0593 20.1183 11.6911L20.6623 6.795L7.07038 6.795ZM6.50017 18.795C5.80982 18.795 5.25017 19.3546 5.25017 20.045C5.25017 20.7354 5.80981 21.295 6.50017 21.295C7.19053 21.295 7.75017 20.7354 7.75017 20.045C7.75017 19.3546 7.19053 18.795 6.50017 18.795ZM17.5002 21.295C16.8098 21.295 16.2502 20.7354 16.2502 20.045C16.2502 19.3546 16.8098 18.795 17.5002 18.795C18.1905 18.795 18.7502 19.3546 18.7502 20.045C18.7502 20.7354 18.1905 21.295 17.5002 21.295Z" fill="#161616"/>
</svg>
