<svg width="33" height="32" viewBox="0 0 33 32" fill="none" xmlns="http://www.w3.org/2000/svg">
<path d="M1.16675 4C1.16675 2.067 2.73375 0.5 4.66675 0.5H28.6667C30.5997 0.5 32.1667 2.067 32.1667 4V28C32.1667 29.933 30.5997 31.5 28.6667 31.5H4.66675C2.73375 31.5 1.16675 29.933 1.16675 28V4Z" stroke="white" stroke-opacity="0.3"/>
<path fill-rule="evenodd" clip-rule="evenodd" d="M16.6667 19.125C14.9408 19.125 13.5417 17.7258 13.5417 16C13.5417 14.2741 14.9408 12.875 16.6667 12.875C18.3926 12.875 19.7917 14.2741 19.7917 16C19.7917 17.7258 18.3926 19.125 16.6667 19.125ZM14.7917 16C14.7917 17.0355 15.6312 17.875 16.6667 17.875C17.7022 17.875 18.5417 17.0355 18.5417 16C18.5417 14.9644 17.7022 14.125 16.6667 14.125C15.6312 14.125 14.7917 14.9644 14.7917 16Z" fill="white"/>
<path fill-rule="evenodd" clip-rule="evenodd" d="M16.6667 9.54163C14.5246 9.54163 12.6883 10.4845 11.267 11.5941C9.84432 12.7048 8.79276 14.0164 8.20455 14.8412L8.1602 14.9031C7.94924 15.1965 7.70837 15.5315 7.70837 16C7.70837 16.4685 7.94924 16.8034 8.1602 17.0968L8.20455 17.1587C8.79276 17.9835 9.84432 19.2952 11.267 20.4058C12.6883 21.5155 14.5246 22.4583 16.6667 22.4583C18.8088 22.4583 20.6451 21.5155 22.0665 20.4058C23.4891 19.2952 24.5407 17.9835 25.1289 17.1587L25.1732 17.0968C25.3842 16.8034 25.625 16.4685 25.625 16C25.625 15.5315 25.3842 15.1965 25.1732 14.9031L25.1289 14.8412C24.5407 14.0164 23.4891 12.7048 22.0665 11.5941C20.6451 10.4845 18.8088 9.54163 16.6667 9.54163ZM9.22227 15.567C9.77243 14.7955 10.7437 13.5884 12.0362 12.5794C13.3299 11.5694 14.9012 10.7916 16.6667 10.7916C18.4323 10.7916 20.0035 11.5694 21.2972 12.5794C22.5897 13.5884 23.561 14.7955 24.1111 15.567C24.2473 15.7579 24.312 15.851 24.3506 15.9252C24.3752 15.9724 24.3751 15.9853 24.375 15.998L24.375 16L24.375 16.002C24.3751 16.0146 24.3752 16.0275 24.3506 16.0747C24.312 16.1489 24.2473 16.2421 24.1112 16.4329C23.561 17.2044 22.5897 18.4115 21.2972 19.4205C20.0035 20.4305 18.4323 21.2083 16.6667 21.2083C14.9012 21.2083 13.3299 20.4305 12.0362 19.4205C10.7437 18.4115 9.77244 17.2044 9.22227 16.4329C9.08616 16.2421 9.02139 16.1489 8.98278 16.0747C8.95823 16.0275 8.9583 16.0146 8.95837 16.002L8.95837 16L8.95837 15.998C8.9583 15.9853 8.95823 15.9724 8.98278 15.9252C9.02139 15.851 9.08616 15.7579 9.22227 15.567Z" fill="white"/>
</svg>
