<svg width="33" height="32" viewBox="0 0 33 32" fill="none" xmlns="http://www.w3.org/2000/svg">
<path d="M1.16675 4C1.16675 2.067 2.73375 0.5 4.66675 0.5H28.6667C30.5997 0.5 32.1667 2.067 32.1667 4V28C32.1667 29.933 30.5997 31.5 28.6667 31.5H4.66675C2.73375 31.5 1.16675 29.933 1.16675 28V4Z" stroke="white" stroke-opacity="0.3"/>
<path d="M16.4584 12.25C16.4584 11.9048 16.1786 11.625 15.8334 11.625C15.4882 11.625 15.2084 11.9048 15.2084 12.25V14.5416H12.9167C12.5715 14.5416 12.2917 14.8214 12.2917 15.1666C12.2917 15.5118 12.5715 15.7916 12.9167 15.7916H15.2084V18.0833C15.2084 18.4285 15.4882 18.7083 15.8334 18.7083C16.1786 18.7083 16.4584 18.4285 16.4584 18.0833V15.7916H18.75C19.0952 15.7916 19.375 15.5118 19.375 15.1666C19.375 14.8214 19.0952 14.5416 18.75 14.5416H16.4584V12.25Z" fill="white"/>
<path fill-rule="evenodd" clip-rule="evenodd" d="M7.70837 15.1666C7.70837 10.6793 11.3461 7.04163 15.8334 7.04163C20.3207 7.04163 23.9584 10.6793 23.9584 15.1666C23.9584 17.1853 23.2222 19.032 22.0036 20.453L25.442 23.8914C25.6861 24.1354 25.6861 24.5312 25.442 24.7752C25.1979 25.0193 24.8022 25.0193 24.5581 24.7752L21.1198 21.3369C19.6988 22.5554 17.8521 23.2916 15.8334 23.2916C11.3461 23.2916 7.70837 19.6539 7.70837 15.1666ZM15.8334 8.29163C12.0364 8.29163 8.95837 11.3697 8.95837 15.1666C8.95837 18.9636 12.0364 22.0416 15.8334 22.0416C19.6303 22.0416 22.7084 18.9636 22.7084 15.1666C22.7084 11.3697 19.6303 8.29163 15.8334 8.29163Z" fill="white"/>
</svg>
