<svg width="33" height="32" viewBox="0 0 33 32" fill="none" xmlns="http://www.w3.org/2000/svg">
<path d="M1.16675 4C1.16675 2.067 2.73375 0.5 4.66675 0.5H28.6667C30.5997 0.5 32.1667 2.067 32.1667 4V28C32.1667 29.933 30.5997 31.5 28.6667 31.5H4.66675C2.73375 31.5 1.16675 29.933 1.16675 28V4Z" stroke="white" stroke-opacity="0.3"/>
<path d="M13.1251 14.3333C13.1251 13.9881 12.8453 13.7083 12.5001 13.7083C12.1549 13.7083 11.8751 13.9881 11.8751 14.3333L11.8751 20.1666C11.8751 20.5118 12.1549 20.7916 12.5001 20.7916C12.8453 20.7916 13.1251 20.5118 13.1251 20.1666L13.1251 14.3333Z" fill="white"/>
<path d="M15.8335 13.7083C16.1786 13.7083 16.4583 13.9879 16.4585 14.333C16.9807 13.9407 17.63 13.7083 18.3335 13.7083C20.0593 13.7083 21.4585 15.1074 21.4585 16.8333L21.4585 20.1666C21.4585 20.5118 21.1786 20.7916 20.8335 20.7916C20.4883 20.7916 20.2085 20.5118 20.2085 20.1666L20.2085 16.8333C20.2085 15.7977 19.369 14.9583 18.3335 14.9583C17.2979 14.9583 16.4585 15.7977 16.4585 16.8333L16.4585 20.1666C16.4585 20.5118 16.1786 20.7916 15.8335 20.7916C15.4883 20.7916 15.2085 20.5118 15.2085 20.1666L15.2085 14.3333C15.2085 13.9881 15.4883 13.7083 15.8335 13.7083Z" fill="white"/>
<path d="M13.3402 11.8333C13.3402 12.2935 12.9671 12.6666 12.5068 12.6666H12.4994C12.0391 12.6666 11.666 12.2935 11.666 11.8333C11.666 11.373 12.0391 10.9999 12.4994 10.9999H12.5068C12.9671 10.9999 13.3402 11.373 13.3402 11.8333Z" fill="white"/>
<path fill-rule="evenodd" clip-rule="evenodd" d="M16.7145 7.45825H16.6191C14.7936 7.45824 13.3597 7.45823 12.2401 7.60875C11.0929 7.76299 10.1827 8.08551 9.46755 8.80068C8.75238 9.51584 8.42986 10.4261 8.27562 11.5733C8.1251 12.6928 8.12511 14.1267 8.12512 15.9523V16.0476C8.12511 17.8732 8.1251 19.307 8.27562 20.4266C8.42986 21.5738 8.75238 22.484 9.46755 23.1992C10.1827 23.9143 11.0929 24.2368 12.2401 24.3911C13.3597 24.5416 14.7935 24.5416 16.6191 24.5416H16.7144C18.54 24.5416 19.9739 24.5416 21.0934 24.3911C22.2407 24.2368 23.1509 23.9143 23.866 23.1992C24.5812 22.484 24.9037 21.5738 25.058 20.4266C25.2085 19.3071 25.2085 17.8732 25.2085 16.0476V15.9523C25.2085 14.1267 25.2085 12.6928 25.058 11.5733C24.9037 10.4261 24.5812 9.51584 23.866 8.80068C23.1509 8.08551 22.2407 7.76299 21.0934 7.60875C19.9739 7.45823 18.54 7.45824 16.7145 7.45825ZM10.3514 9.68456C10.7956 9.24036 11.3981 8.9832 12.4067 8.8476C13.4333 8.70958 14.7831 8.70825 16.6668 8.70825C18.5504 8.70825 19.9003 8.70958 20.9269 8.8476C21.9355 8.9832 22.5379 9.24036 22.9821 9.68456C23.4263 10.1288 23.6835 10.7312 23.8191 11.7398C23.9571 12.7664 23.9585 14.1163 23.9585 15.9999C23.9585 17.8836 23.9571 19.2334 23.8191 20.26C23.6835 21.2686 23.4263 21.8711 22.9821 22.3153C22.5379 22.7595 21.9355 23.0166 20.9269 23.1522C19.9003 23.2903 18.5504 23.2916 16.6668 23.2916C14.7831 23.2916 13.4333 23.2903 12.4067 23.1522C11.3981 23.0166 10.7956 22.7595 10.3514 22.3153C9.90723 21.8711 9.65007 21.2686 9.51447 20.26C9.37645 19.2334 9.37512 17.8836 9.37512 15.9999C9.37512 14.1163 9.37645 12.7664 9.51447 11.7398C9.65007 10.7312 9.90723 10.1288 10.3514 9.68456Z" fill="white"/>
</svg>
