<svg width="33" height="32" viewBox="0 0 33 32" fill="none" xmlns="http://www.w3.org/2000/svg">
<path d="M1.16675 4C1.16675 2.067 2.73375 0.5 4.66675 0.5H28.6667C30.5997 0.5 32.1667 2.067 32.1667 4V28C32.1667 29.933 30.5997 31.5 28.6667 31.5H4.66675C2.73375 31.5 1.16675 29.933 1.16675 28V4Z" stroke="white" stroke-opacity="0.3"/>
<path fill-rule="evenodd" clip-rule="evenodd" d="M8.61027 8.21547C8.71712 8.00649 8.93204 7.875 9.16675 7.875H13.3334C13.5341 7.875 13.7226 7.97137 13.8401 8.13407L17.9534 13.8294L23.7248 8.05806C23.9689 7.81398 24.3646 7.81398 24.6087 8.05806C24.8528 8.30214 24.8528 8.69786 24.6087 8.94194L18.6947 14.8559L24.6734 23.1341C24.8108 23.3243 24.8301 23.5756 24.7232 23.7845C24.6164 23.9935 24.4015 24.125 24.1668 24.125H20.0001C19.7994 24.125 19.6109 24.0286 19.4934 23.8659L15.3801 18.1706L9.60869 23.9419C9.36461 24.186 8.96889 24.186 8.72481 23.9419C8.48073 23.6979 8.48073 23.3021 8.72481 23.0581L14.6388 17.1441L8.66008 8.86593C8.52266 8.67566 8.50342 8.42444 8.61027 8.21547ZM10.3891 9.125L20.3197 22.875H22.9444L13.0138 9.125H10.3891Z" fill="white"/>
</svg>
