<svg width="33" height="32" viewBox="0 0 33 32" fill="none" xmlns="http://www.w3.org/2000/svg">
<path d="M1.16675 4C1.16675 2.067 2.73375 0.5 4.66675 0.5H28.6667C30.5997 0.5 32.1667 2.067 32.1667 4V28C32.1667 29.933 30.5997 31.5 28.6667 31.5H4.66675C2.73375 31.5 1.16675 29.933 1.16675 28V4Z" stroke="white" stroke-opacity="0.3"/>
<path fill-rule="evenodd" clip-rule="evenodd" d="M12.2918 15.9999C12.2918 13.5837 14.2505 11.6249 16.6668 11.6249C19.083 11.6249 21.0418 13.5837 21.0418 15.9999C21.0418 18.4162 19.083 20.3749 16.6668 20.3749C14.2505 20.3749 12.2918 18.4162 12.2918 15.9999ZM16.6668 12.8749C14.9409 12.8749 13.5418 14.274 13.5418 15.9999C13.5418 17.7258 14.9409 19.1249 16.6668 19.1249C18.3927 19.1249 19.7918 17.7258 19.7918 15.9999C19.7918 14.274 18.3927 12.8749 16.6668 12.8749Z" fill="white"/>
<path d="M21.2566 12.2499C21.7169 12.2499 22.09 11.8768 22.09 11.4166C22.09 10.9563 21.7169 10.5833 21.2566 10.5833H21.2491C20.7889 10.5833 20.4158 10.9563 20.4158 11.4166C20.4158 11.8768 20.7889 12.2499 21.2491 12.2499H21.2566Z" fill="white"/>
<path fill-rule="evenodd" clip-rule="evenodd" d="M16.7144 7.45825C18.54 7.45824 19.9739 7.45823 21.0934 7.60875C22.2407 7.76299 23.1509 8.08551 23.866 8.80068C24.5812 9.51584 24.9037 10.4261 25.058 11.5733C25.2085 12.6928 25.2085 14.1267 25.2085 15.9522V16.0476C25.2085 17.8731 25.2085 19.3071 25.058 20.4266C24.9037 21.5738 24.5812 22.484 23.866 23.1992C23.1509 23.9143 22.2407 24.2368 21.0934 24.3911C19.9739 24.5416 18.54 24.5416 16.7145 24.5416H16.6192C14.7936 24.5416 13.3597 24.5416 12.2401 24.3911C11.0929 24.2368 10.1827 23.9143 9.46755 23.1992C8.75238 22.484 8.42986 21.5738 8.27562 20.4266C8.1251 19.307 8.12511 17.8732 8.12512 16.0476V15.9523C8.12511 14.1267 8.1251 12.6928 8.27562 11.5733C8.42986 10.4261 8.75238 9.51584 9.46755 8.80068C10.1827 8.08551 11.0929 7.76299 12.2401 7.60875C13.3597 7.45823 14.7935 7.45824 16.6191 7.45825H16.7144ZM12.4067 8.8476C11.3981 8.9832 10.7956 9.24036 10.3514 9.68456C9.90723 10.1288 9.65007 10.7312 9.51447 11.7398C9.37645 12.7664 9.37512 14.1163 9.37512 15.9999C9.37512 17.8836 9.37645 19.2334 9.51447 20.26C9.65007 21.2686 9.90723 21.8711 10.3514 22.3153C10.7956 22.7595 11.3981 23.0166 12.4067 23.1522C13.4333 23.2903 14.7831 23.2916 16.6668 23.2916C18.5504 23.2916 19.9003 23.2903 20.9269 23.1522C21.9355 23.0166 22.5379 22.7595 22.9821 22.3153C23.4263 21.8711 23.6835 21.2686 23.8191 20.26C23.9571 19.2334 23.9585 17.8836 23.9585 15.9999C23.9585 14.1163 23.9571 12.7664 23.8191 11.7398C23.6835 10.7312 23.4263 10.1288 22.9821 9.68456C22.5379 9.24036 21.9355 8.9832 20.9269 8.8476C19.9003 8.70958 18.5504 8.70825 16.6668 8.70825C14.7831 8.70825 13.4333 8.70958 12.4067 8.8476Z" fill="white"/>
</svg>
