<svg width="33" height="32" viewBox="0 0 33 32" fill="none" xmlns="http://www.w3.org/2000/svg">
<path d="M1.16675 4C1.16675 2.067 2.73375 0.5 4.66675 0.5H28.6667C30.5997 0.5 32.1667 2.067 32.1667 4V28C32.1667 29.933 30.5997 31.5 28.6667 31.5H4.66675C2.73375 31.5 1.16675 29.933 1.16675 28V4Z" stroke="white" stroke-opacity="0.3"/>
<path d="M16.606 24.1248C16.5569 24.1248 16.5077 24.1189 16.4577 24.1073C16.1227 24.0256 15.9169 23.6873 15.9985 23.3523C16.0827 23.0065 16.4852 21.8214 18.1218 21.1106C18.141 21.1023 18.161 21.0947 18.181 21.0881C18.2052 21.0772 18.2335 21.0647 18.2677 21.0531C18.9643 20.7964 19.8269 20.3598 20.1544 20.0964C20.1702 20.084 20.1868 20.0715 20.2043 20.0606L22.5335 18.5406C22.5744 18.5031 22.5735 18.4848 22.5727 18.4781C22.5693 18.4181 22.5019 18.2923 22.3594 18.1998C21.3135 17.504 20.3468 17.9081 18.8785 18.6564C18.7777 18.7081 18.6768 18.7597 18.576 18.8097C17.7818 19.2031 16.8035 19.1448 16.0194 18.6581C15.2752 18.1965 14.8311 17.4272 14.8311 16.6014C14.8311 15.7756 15.2752 15.0006 16.0811 14.454C17.2111 13.6881 18.9085 13.4456 20.0477 13.884L21.8494 14.4098C22.0177 14.4598 22.1918 14.4406 22.341 14.3565C22.486 14.2748 22.5885 14.1431 22.6302 13.9848C22.7085 13.6923 22.5451 13.3898 22.251 13.2781L20.2869 12.5456C20.2869 12.5456 20.2835 12.5439 20.281 12.5431L19.5394 12.3156C18.9294 12.1331 18.4885 12.0656 18.1593 12.1056C17.6035 12.1747 16.1169 12.8314 15.3102 13.2289C15.0011 13.3814 14.6261 13.2548 14.4736 12.9448C14.3211 12.6356 14.4476 12.2606 14.7576 12.1081C14.9901 11.9931 17.0593 10.9831 18.0076 10.8648C18.516 10.8031 19.1177 10.8848 19.9027 11.1198L20.6611 11.3523C20.6694 11.3548 20.6777 11.3573 20.686 11.3606C20.6927 11.3631 20.7002 11.3656 20.7069 11.3681L20.7185 11.3722C20.871 11.4272 21.0344 11.4197 21.1794 11.3514C21.331 11.2806 21.4443 11.1523 21.4993 10.9915C21.6068 10.6823 21.4544 10.3456 21.1519 10.2215L19.5693 9.56723L19.4343 9.51727C18.9868 9.35227 18.7402 9.26223 18.5177 9.20973C18.241 9.1464 17.9344 9.11725 17.6094 9.12558L17.586 9.12729C17.5044 9.13229 17.4585 9.13563 17.2794 9.1723C17.2727 9.17396 17.266 9.1748 17.2594 9.17563C17.0819 9.20563 16.9827 9.23892 16.7643 9.31308L16.336 9.45892C14.9102 9.94392 14.3194 10.1448 13.7061 10.5906C12.0802 11.7764 11.0943 13.1264 10.8402 13.9389C10.5693 14.8056 10.5693 15.8706 10.5693 17.9939V23.5023C10.5693 23.8473 10.2893 24.1273 9.94434 24.1273C9.59934 24.1273 9.31934 23.8473 9.31934 23.5023V17.9939C9.31934 15.7447 9.31931 14.6156 9.64681 13.5664C10.1151 12.0731 11.6702 10.5289 12.9702 9.58058C13.7385 9.02308 14.4718 8.77313 15.9335 8.27646L16.3643 8.12974C16.6002 8.04974 16.7719 7.99224 17.0402 7.94557C17.2777 7.89807 17.3743 7.88896 17.5035 7.88063L17.5369 7.87811C17.546 7.87811 17.5543 7.87723 17.5635 7.8764C17.9993 7.86473 18.4152 7.90395 18.8002 7.99228C19.0994 8.06228 19.3719 8.16226 19.866 8.34393L20.0127 8.39813C20.0202 8.40146 20.0286 8.40391 20.0361 8.40724L21.6285 9.06561C22.5435 9.44144 23.0069 10.4664 22.6819 11.3989C22.6086 11.6148 22.4977 11.8114 22.3577 11.9823L22.6927 12.1073C23.5927 12.4481 24.0852 13.3923 23.8402 14.3048C23.7127 14.7906 23.3986 15.1964 22.9561 15.4456C22.5094 15.6972 21.9919 15.7556 21.4985 15.6089L19.6727 15.0764C19.6535 15.0706 19.6344 15.064 19.616 15.0573C18.8544 14.7531 17.5843 14.9473 16.7843 15.4889C16.3193 15.8039 16.0835 16.1789 16.0835 16.6014C16.0835 16.9981 16.301 17.3606 16.681 17.5964C17.1002 17.8565 17.6135 17.8931 18.021 17.6914C18.1168 17.6431 18.2152 17.5931 18.3144 17.5431C19.656 16.8597 21.326 16.0089 23.051 17.1564C23.5085 17.4548 23.7994 17.9265 23.8244 18.4148C23.8469 18.844 23.6618 19.2397 23.3052 19.5289C23.2885 19.5422 23.271 19.5548 23.2535 19.5664L20.916 21.0923C20.4135 21.4848 19.4176 21.964 18.7126 22.224L18.701 22.2306C18.6627 22.2506 18.6227 22.2664 18.5819 22.2781C18.3435 22.3881 17.4093 22.8664 17.2185 23.6498C17.1493 23.9356 16.8935 24.1273 16.6118 24.1273L16.606 24.1248ZM18.6735 22.2348C18.6735 22.2348 18.6735 22.2348 18.6727 22.2348C18.6727 22.2348 18.6727 22.2348 18.6735 22.2348Z" fill="white"/>
</svg>
