<svg width="48" height="48" viewBox="0 0 48 48" fill="none" xmlns="http://www.w3.org/2000/svg">
<rect x="0.5" y="0.5" width="47" height="47" rx="1.5" fill="#EAF7E9"/>
<rect x="0.5" y="0.5" width="47" height="47" rx="1.5" stroke="#D5F0D3"/>
<path d="M28.0242 15.225C27.2443 14.925 26.3809 14.925 25.601 15.225L21.7069 16.7227C21.0552 16.9733 20.6252 17.5995 20.6252 18.2978V19.5356C20.9987 19.4886 21.3767 19.4886 21.7502 19.5357V18.2978C21.7502 18.065 21.8936 17.8563 22.1108 17.7727L26.0049 16.275C26.5248 16.075 27.1004 16.075 27.6203 16.275L31.5144 17.7727C31.7316 17.8563 31.875 18.065 31.875 18.2978V27.0505C31.875 27.2832 31.7316 27.4919 31.5144 27.5755L28.4998 28.7349V29.3007C28.4998 29.5303 28.4719 29.7551 28.4188 29.9715L31.9182 28.6255C32.57 28.3749 33 27.7487 33 27.0505V18.2978C33 17.5995 32.57 16.9733 31.9182 16.7227L28.0242 15.225ZM30.8531 18.505C30.7416 18.215 30.4161 18.0704 30.1261 18.1819L27.0144 19.3787C26.8844 19.4287 26.7405 19.4287 26.6106 19.3787L23.4989 18.1819C23.2089 18.0704 22.8834 18.215 22.7719 18.505C22.6604 18.7949 22.805 19.1204 23.095 19.2319L26.2067 20.4287C26.5966 20.5787 27.0284 20.5787 27.4183 20.4287L30.53 19.2319C30.8199 19.1204 30.9646 18.7949 30.8531 18.505ZM25.2279 24.1303C25.1164 23.8404 24.7909 23.6957 24.5009 23.8073L21.1873 25.0817L17.8737 23.8073C17.5837 23.6957 17.2582 23.8404 17.1467 24.1303C17.0352 24.4203 17.1799 24.7458 17.4698 24.8573L20.6248 26.0708V28.8718C20.6248 29.1825 20.8766 29.4343 21.1873 29.4343C21.498 29.4343 21.7498 29.1825 21.7498 28.8718V26.0708L24.9048 24.8573C25.1948 24.7458 25.3394 24.4203 25.2279 24.1303ZM22.399 20.8501C21.6191 20.5502 20.7557 20.5502 19.9758 20.8501L16.0818 22.3479C15.43 22.5985 15 23.2247 15 23.9229V29.3005C15 29.9988 15.43 30.6249 16.0818 30.8756L19.9758 32.3733C20.7557 32.6733 21.6191 32.6733 22.399 32.3733L26.2931 30.8756C26.9448 30.6249 27.3748 29.9988 27.3748 29.3005V23.9229C27.3748 23.2247 26.9448 22.5985 26.2931 22.3479L22.399 20.8501ZM20.3797 21.9002C20.8996 21.7002 21.4752 21.7002 21.9951 21.9002L25.8892 23.3979C26.1064 23.4815 26.2498 23.6902 26.2498 23.9229V29.3005C26.2498 29.5333 26.1064 29.742 25.8892 29.8256L21.9951 31.3233C21.4752 31.5232 20.8996 31.5232 20.3797 31.3233L16.4856 29.8256C16.2684 29.742 16.125 29.5333 16.125 29.3005V23.9229C16.125 23.6902 16.2684 23.4815 16.4856 23.3979L20.3797 21.9002Z" fill="#1B8354"/>
</svg>
