<svg width="48" height="48" viewBox="0 0 48 48" fill="none" xmlns="http://www.w3.org/2000/svg">
<rect x="0.5" y="0.5" width="47" height="47" rx="1.5" fill="#EAF6FE"/>
<rect x="0.5" y="0.5" width="47" height="47" rx="1.5" stroke="#D5EDFD"/>
<path d="M21 24H27" stroke="#2DA5F3" stroke-width="1.5" stroke-linecap="round" stroke-linejoin="round"/>
<path d="M21 27H27" stroke="#2DA5F3" stroke-width="1.5" stroke-linecap="round" stroke-linejoin="round"/>
<path d="M17.25 15.75H30.75C30.9489 15.75 31.1397 15.829 31.2803 15.9697C31.421 16.1103 31.5 16.3011 31.5 16.5V30.75C31.5 31.3467 31.2629 31.919 30.841 32.341C30.419 32.7629 29.8467 33 29.25 33H18.75C18.1533 33 17.581 32.7629 17.159 32.341C16.7371 31.919 16.5 31.3467 16.5 30.75V16.5C16.5 16.3011 16.579 16.1103 16.7197 15.9697C16.8603 15.829 17.0511 15.75 17.25 15.75V15.75Z" stroke="#2DA5F3" stroke-width="1.5" stroke-linecap="round" stroke-linejoin="round"/>
<path d="M19.5 14.25V17.25" stroke="#2DA5F3" stroke-width="1.5" stroke-linecap="round" stroke-linejoin="round"/>
<path d="M24 14.25V17.25" stroke="#2DA5F3" stroke-width="1.5" stroke-linecap="round" stroke-linejoin="round"/>
<path d="M28.5 14.25V17.25" stroke="#2DA5F3" stroke-width="1.5" stroke-linecap="round" stroke-linejoin="round"/>
</svg>
