<svg width="33" height="32" viewBox="0 0 33 32" fill="none" xmlns="http://www.w3.org/2000/svg">
<path opacity="0.2" d="M22.834 18H2.83398V23C2.83398 23.2652 2.93934 23.5196 3.12688 23.7071C3.31441 23.8946 3.56877 24 3.83398 24H6.33398C6.33398 23.2044 6.65005 22.4413 7.21266 21.8787C7.77527 21.3161 8.53833 21 9.33398 21C10.1296 21 10.8927 21.3161 11.4553 21.8787C12.0179 22.4413 12.334 23.2044 12.334 24H21.334C21.3336 23.4731 21.4721 22.9553 21.7354 22.4989C21.9987 22.0425 22.3776 21.6635 22.834 21.4V18Z" fill="#29912D"/>
<path opacity="0.2" d="M27.334 24C27.3343 23.4732 27.196 22.9557 26.9328 22.4993C26.6696 22.043 26.2909 21.664 25.8348 21.4005C25.3787 21.1369 24.8612 20.9982 24.3345 20.9981C23.8077 20.998 23.2902 21.1366 22.834 21.4V15H30.834V23C30.834 23.2652 30.7286 23.5196 30.5411 23.7071C30.3536 23.8946 30.0992 24 29.834 24H27.334Z" fill="#29912D"/>
<path d="M22.834 10H28.159C28.3582 9.99872 28.5532 10.0577 28.7183 10.1693C28.8834 10.2808 29.0108 10.4397 29.084 10.625L30.834 15" stroke="#29912D" stroke-width="2" stroke-linecap="round" stroke-linejoin="round"/>
<path d="M2.83398 18H22.834" stroke="#29912D" stroke-width="2" stroke-linecap="round" stroke-linejoin="round"/>
<path d="M24.334 27C25.9908 27 27.334 25.6569 27.334 24C27.334 22.3431 25.9908 21 24.334 21C22.6771 21 21.334 22.3431 21.334 24C21.334 25.6569 22.6771 27 24.334 27Z" stroke="#29912D" stroke-width="2" stroke-miterlimit="10"/>
<path d="M9.33398 27C10.9908 27 12.334 25.6569 12.334 24C12.334 22.3431 10.9908 21 9.33398 21C7.67713 21 6.33398 22.3431 6.33398 24C6.33398 25.6569 7.67713 27 9.33398 27Z" stroke="#29912D" stroke-width="2" stroke-miterlimit="10"/>
<path d="M21.334 24H12.334" stroke="#29912D" stroke-width="2" stroke-linecap="round" stroke-linejoin="round"/>
<path d="M6.33398 24H3.83398C3.56877 24 3.31441 23.8946 3.12688 23.7071C2.93934 23.5196 2.83398 23.2652 2.83398 23V9C2.83398 8.73478 2.93934 8.48043 3.12688 8.29289C3.31441 8.10536 3.56877 8 3.83398 8H22.834V21.4" stroke="#29912D" stroke-width="2" stroke-linecap="round" stroke-linejoin="round"/>
<path d="M22.834 15H30.834V23C30.834 23.2652 30.7286 23.5196 30.5411 23.7071C30.3536 23.8946 30.0992 24 29.834 24H27.334" stroke="#29912D" stroke-width="2" stroke-linecap="round" stroke-linejoin="round"/>
</svg>
