<svg width="33" height="32" viewBox="0 0 33 32" fill="none" xmlns="http://www.w3.org/2000/svg">
<path opacity="0.2" d="M25.5 19.1118L20.9 23.7118C20.7746 23.829 20.6227 23.9141 20.4573 23.9599C20.2918 24.0056 20.1178 24.0105 19.95 23.9743L12.7 22.1618C12.5676 22.1249 12.4442 22.061 12.3375 21.9743L5.5 16.6368L9.575 8.97429L15.9875 7.09929C16.2154 7.03395 16.459 7.05167 16.675 7.14929L21 9.11179H18.4125C18.2826 9.11134 18.154 9.1365 18.0339 9.18583C17.9138 9.23516 17.8045 9.3077 17.7125 9.39929L12.8125 14.2868C12.7125 14.3895 12.6354 14.5123 12.5863 14.647C12.5373 14.7818 12.5174 14.9254 12.5281 15.0684C12.5387 15.2114 12.5796 15.3505 12.648 15.4765C12.7164 15.6025 12.8109 15.7125 12.925 15.7993L13.6 16.3118C14.2932 16.8292 15.135 17.1087 16 17.1087C16.865 17.1087 17.7068 16.8292 18.4 16.3118L20 15.1118L25.5 19.1118Z" fill="#1B8354"/>
<path d="M30.5875 15.2241L27.5 16.7616L23.5 9.11161L26.625 7.54911C26.8572 7.43073 27.1269 7.40898 27.3751 7.48859C27.6233 7.56821 27.83 7.74274 27.95 7.97411L31.025 13.8616C31.0874 13.9795 31.1255 14.1086 31.1372 14.2414C31.1489 14.3742 31.134 14.5081 31.0932 14.635C31.0525 14.762 30.9867 14.8795 30.8999 14.9806C30.813 15.0818 30.7068 15.1646 30.5875 15.2241V15.2241Z" stroke="#1B8354" stroke-width="2" stroke-linecap="round" stroke-linejoin="round"/>
<path d="M5.49979 16.6385L2.41229 15.0885C2.29341 15.0302 2.18746 14.9486 2.10073 14.8486C2.01401 14.7486 1.94829 14.6321 1.90747 14.5062C1.86666 14.3802 1.85159 14.2474 1.86315 14.1155C1.87471 13.9836 1.91268 13.8554 1.97479 13.7385L5.04979 7.85097C5.17008 7.61976 5.37588 7.44464 5.62337 7.36293C5.87086 7.28121 6.14047 7.29934 6.37479 7.41347L9.49979 8.97597L5.49979 16.6385Z" stroke="#1B8354" stroke-width="2" stroke-linecap="round" stroke-linejoin="round"/>
<path d="M27.5 16.7617L25.5 19.1117L20.9 23.7117C20.7746 23.829 20.6227 23.9141 20.4573 23.9598C20.2918 24.0055 20.1178 24.0105 19.95 23.9742L12.7 22.1617C12.5676 22.1248 12.4442 22.061 12.3375 21.9742L5.5 16.6367" stroke="#1B8354" stroke-width="2" stroke-linecap="round" stroke-linejoin="round"/>
<path d="M25.5001 19.1133L20.0001 15.1133L18.4001 16.3133C17.7069 16.8307 16.8651 17.1102 16.0001 17.1102C15.1351 17.1102 14.2933 16.8307 13.6001 16.3133L12.9251 15.8008C12.811 15.714 12.7166 15.604 12.6481 15.478C12.5797 15.352 12.5388 15.2129 12.5282 15.0699C12.5175 14.9269 12.5374 14.7833 12.5864 14.6485C12.6355 14.5138 12.7126 14.391 12.8126 14.2883L17.7126 9.40079C17.8047 9.3092 17.9139 9.23666 18.034 9.18732C18.1541 9.13799 18.2828 9.11283 18.4126 9.11329H23.5001" stroke="#1B8354" stroke-width="2" stroke-linecap="round" stroke-linejoin="round"/>
<path d="M9.57422 8.97429L15.9867 7.09929C16.2146 7.03395 16.4582 7.05167 16.6742 7.14929L20.9992 9.11179" stroke="#1B8354" stroke-width="2" stroke-linecap="round" stroke-linejoin="round"/>
<path d="M14.5 26.6125L10.7375 25.6625C10.5842 25.6279 10.4422 25.5547 10.325 25.45L7.5 23" stroke="#1B8354" stroke-width="2" stroke-linecap="round" stroke-linejoin="round"/>
</svg>
