<svg width="33" height="32" viewBox="0 0 33 32" fill="none" xmlns="http://www.w3.org/2000/svg">
<path opacity="0.2" d="M4.30352 9.32422C4.21294 9.47979 4.16548 9.6567 4.16602 9.83672V22.1617C4.16698 22.3397 4.21486 22.5144 4.30484 22.668C4.39481 22.8216 4.52371 22.9488 4.67852 23.0367L15.6785 29.2242C15.8268 29.309 15.9952 29.3521 16.166 29.3492L16.2785 15.9992L4.30352 9.32422Z" fill="#1B8354"/>
<path d="M28.166 22.1627V9.83766C28.1651 9.65963 28.1172 9.485 28.0272 9.33137C27.9372 9.17775 27.8083 9.05057 27.6535 8.96266L16.6535 2.77516C16.5053 2.68958 16.3372 2.64453 16.166 2.64453C15.9949 2.64453 15.8267 2.68958 15.6785 2.77516L4.67852 8.96266C4.5237 9.05057 4.39481 9.17775 4.30483 9.33137C4.21485 9.485 4.16697 9.65963 4.16602 9.83766V22.1627C4.16697 22.3407 4.21485 22.5153 4.30483 22.6689C4.39481 22.8226 4.5237 22.9497 4.67852 23.0377L15.6785 29.2252C15.8267 29.3107 15.9949 29.3558 16.166 29.3558C16.3372 29.3558 16.5053 29.3107 16.6535 29.2252L27.6535 23.0377C27.8083 22.9497 27.9372 22.8226 28.0272 22.6689C28.1172 22.5153 28.1651 22.3407 28.166 22.1627V22.1627Z" stroke="#1B8354" stroke-width="2" stroke-linecap="round" stroke-linejoin="round"/>
<path d="M22.291 19.0625V12.5625L10.166 5.875" stroke="#1B8354" stroke-width="2" stroke-linecap="round" stroke-linejoin="round"/>
<path d="M28.0277 9.32422L16.2777 15.9992L4.30273 9.32422" stroke="#1B8354" stroke-width="2" stroke-linecap="round" stroke-linejoin="round"/>
<path d="M16.2785 16L16.166 29.35" stroke="#1B8354" stroke-width="2" stroke-linecap="round" stroke-linejoin="round"/>
</svg>
