<svg width="106" height="26" viewBox="0 0 106 26" fill="none" xmlns="http://www.w3.org/2000/svg">
<path d="M96.5533 12.7845C96.4007 12.875 96.3036 13.0221 96.3036 13.1805V17.197C96.3036 17.4686 96.5671 17.6835 96.9 17.6835C97.2329 17.6835 97.4965 17.4686 97.4965 17.197V13.4294L102.726 10.4425C102.906 10.5217 103.1 10.5556 103.322 10.5556C104.029 10.5556 104.612 10.0917 104.612 9.50339C104.612 8.92637 104.043 8.45117 103.322 8.45117C102.615 8.45117 102.032 8.91506 102.032 9.50339C102.032 9.54865 102.032 9.59391 102.046 9.62785L96.5533 12.7845Z" fill="white"/>
<path d="M92.8497 11.721V15.7262C92.4335 15.9072 92.1561 16.2466 92.1561 16.654C92.1561 17.231 92.7248 17.7062 93.4461 17.7062C94.1535 17.7062 94.736 17.2423 94.736 16.654C94.736 16.2466 94.4586 15.8959 94.0425 15.7262V11.9812L101.782 7.56867C101.935 7.47816 102.032 7.33107 102.032 7.17267V4.18573C102.032 3.91419 101.768 3.69922 101.436 3.69922C101.103 3.69922 100.839 3.91419 100.839 4.18573V6.91245L93.0993 11.325C92.9329 11.4042 92.8358 11.5513 92.8497 11.721Z" fill="white"/>
<path d="M102.115 13.0553L100.146 14.1867C99.8682 14.3451 99.8127 14.6393 100.007 14.8656C100.118 15.0014 100.312 15.0692 100.492 15.0692C100.617 15.0692 100.728 15.0466 100.839 14.9787L102.809 13.8473C103.086 13.6889 103.142 13.3947 102.947 13.1685C102.767 12.9535 102.393 12.8969 102.115 13.0553Z" fill="white"/>
<path d="M105.888 15.8969C105.694 15.6706 105.319 15.614 105.042 15.7724L95.7072 21.1014L86.3723 15.7724C86.0949 15.614 85.7203 15.6706 85.5262 15.8969C85.332 16.1232 85.4013 16.4287 85.6787 16.5871L94.653 21.7124L92.0315 23.2172C91.8511 23.138 91.6431 23.104 91.435 23.104C90.7138 23.104 90.1312 23.5792 90.1312 24.1676C90.1312 24.7559 90.7138 25.2311 91.435 25.2311C92.1563 25.2311 92.7388 24.7559 92.7388 24.1676C92.7388 24.1223 92.7389 24.077 92.725 24.0318L95.721 22.3234L98.7171 24.0318C98.7171 24.077 98.7032 24.1223 98.7032 24.1676C98.7032 24.7559 99.2858 25.2311 100.007 25.2311C100.728 25.2311 101.311 24.7559 101.311 24.1676C101.311 23.5792 100.728 23.104 100.007 23.104C99.7851 23.104 99.5909 23.1493 99.4106 23.2172L96.7891 21.7124L105.763 16.5871C106.013 16.4287 106.082 16.1232 105.888 15.8969Z" fill="white"/>
<path d="M89.2989 4.34425L91.2685 3.21283C91.5459 3.05443 91.6014 2.76026 91.4072 2.53398C91.2962 2.39821 91.1021 2.33032 90.9217 2.33032C90.7969 2.33032 90.6859 2.35295 90.575 2.42083L88.6054 3.55225C88.3279 3.71065 88.2725 4.00482 88.4666 4.2311C88.647 4.44607 89.0215 4.50264 89.2989 4.34425Z" fill="white"/>
<path d="M97.3715 2.74903V5.43049L89.6317 9.84302C89.4792 9.93353 89.3821 10.0806 89.3821 10.239V13.226C89.3821 13.4975 89.6456 13.7125 89.9785 13.7125C90.3114 13.7125 90.5749 13.4975 90.5749 13.226V10.4992L98.3147 6.08671C98.4673 5.9962 98.5644 5.84911 98.5644 5.69071V2.74903C98.9805 2.568 99.2579 2.22857 99.2579 1.82126C99.2579 1.24424 98.6892 0.769043 97.968 0.769043C97.2606 0.769043 96.678 1.23293 96.678 1.82126C96.6919 2.21726 96.9693 2.568 97.3715 2.74903Z" fill="white"/>
<path d="M88.0782 8.92734C88.7856 8.92734 89.3681 8.46346 89.3681 7.87512C89.3681 7.82987 89.3681 7.78461 89.3543 7.75067L94.847 4.61664C94.9996 4.52612 95.0967 4.37904 95.0967 4.22064V1.26764C95.0967 0.996096 94.8331 0.781128 94.5002 0.781128C94.1673 0.781128 93.9038 0.996096 93.9038 1.26764V3.97173L88.6746 6.94736C88.4943 6.86816 88.3001 6.83422 88.0782 6.83422C87.3708 6.83422 86.7882 7.2981 86.7882 7.88643C86.8021 8.46346 87.3708 8.92734 88.0782 8.92734Z" fill="white"/>
<path d="M25.3004 5.95968C25.8136 5.54106 26.0632 4.97535 26.0632 4.27387C26.0632 3.57239 25.8136 3.01799 25.3004 2.59937C24.801 2.19206 24.1214 1.9884 23.2614 1.9884H21.375V6.58196H23.2614C24.1075 6.58196 24.7872 6.37831 25.3004 5.95968ZM22.5263 5.77866V2.79171H23.2198C24.3156 2.79171 24.8565 3.2669 24.8565 4.27387C24.8565 5.28083 24.3017 5.77866 23.2198 5.77866H22.5263Z" fill="white"/>
<path d="M28.0053 3.23303H26.8956V6.58203H28.0053V3.23303Z" fill="white"/>
<path d="M27.4505 2.79167C27.6447 2.79167 27.8112 2.74641 27.9221 2.6559C28.0331 2.56539 28.0886 2.44093 28.0886 2.29384C28.0886 2.14676 28.0331 2.02231 27.9221 1.93179C27.8112 1.84128 27.6586 1.79602 27.4505 1.79602C27.2425 1.79602 27.0899 1.84128 26.9789 1.93179C26.868 2.02231 26.8125 2.14676 26.8125 2.29384C26.8125 2.44093 26.868 2.56539 26.9789 2.6559C27.0899 2.7351 27.2425 2.79167 27.4505 2.79167Z" fill="white"/>
<path d="M29.4471 3.61598C29.0449 3.93277 28.8507 4.34008 28.8507 4.87185C28.8507 5.36968 29.0172 5.75436 29.3639 6.0259C29.7107 6.29744 30.1684 6.43321 30.7787 6.43321C31.0284 6.43321 31.2781 6.39926 31.5277 6.32007V6.46715C31.5277 6.65949 31.4445 6.81789 31.2642 6.91972C31.0977 7.02155 30.8481 7.07812 30.529 7.07812C30.1129 7.07812 29.7523 7.02155 29.4194 6.91972L29.1836 7.63251C29.5997 7.76828 30.0574 7.83617 30.5845 7.83617C31.2226 7.83617 31.708 7.71171 32.0825 7.45148C32.4432 7.20257 32.6235 6.84052 32.6235 6.37664V3.42363C32.138 3.25392 31.611 3.16341 31.0145 3.16341C30.3626 3.15209 29.8355 3.31049 29.4471 3.61598ZM31.5277 5.56202C31.3335 5.64122 31.1394 5.67516 30.9452 5.67516C30.64 5.67516 30.4042 5.59596 30.2378 5.43756C30.0713 5.27916 29.9881 5.06419 29.9881 4.79265C29.9881 4.52111 30.0852 4.30614 30.2655 4.14774C30.4458 3.98935 30.6955 3.91015 31.0284 3.91015C31.181 3.91015 31.3474 3.93277 31.5416 3.97803V5.56202H31.5277Z" fill="white"/>
<path d="M34.8015 3.23303H33.6919V6.58203H34.8015V3.23303Z" fill="white"/>
<path d="M34.2468 2.79167C34.441 2.79167 34.6074 2.74641 34.7184 2.6559C34.8294 2.56539 34.8849 2.44093 34.8849 2.29384C34.8849 2.14676 34.8294 2.02231 34.7184 1.93179C34.6074 1.84128 34.4549 1.79602 34.2468 1.79602C34.0388 1.79602 33.8862 1.84128 33.7752 1.93179C33.6642 2.02231 33.6088 2.14676 33.6088 2.29384C33.6088 2.44093 33.6642 2.56539 33.7752 2.6559C33.8862 2.7351 34.0526 2.79167 34.2468 2.79167Z" fill="white"/>
<path d="M38.1443 6.5924L38.0889 5.8683C37.9501 5.89093 37.8114 5.90224 37.6589 5.90224C37.2844 5.90224 37.104 5.72121 37.104 5.34784V3.94489H37.9918V3.22078H37.104V2.45142L35.9944 2.49667V3.22078H35.4396V3.94489H35.9944V5.35916C35.9944 6.21904 36.4799 6.64898 37.4369 6.64898C37.7143 6.66029 37.9501 6.63766 38.1443 6.5924Z" fill="white"/>
<path d="M40.183 4.60182C39.6976 4.60182 39.3092 4.70365 39.004 4.88467C38.7128 5.0657 38.5602 5.33724 38.5602 5.64272C38.5602 5.94821 38.6989 6.19712 38.9902 6.38946C39.2676 6.5818 39.6837 6.67231 40.2108 6.67231C40.9182 6.67231 41.5007 6.57049 41.9585 6.37814V4.55656C41.9585 4.10399 41.8059 3.76457 41.5146 3.52697C41.2233 3.28937 40.7795 3.16492 40.1969 3.16492C39.656 3.16492 39.1982 3.2328 38.8098 3.35726L39.004 4.07005C39.3092 3.96822 39.6698 3.91165 40.0721 3.91165C40.613 3.91165 40.8904 4.10399 40.8904 4.49999V4.65839C40.6269 4.61313 40.3911 4.60182 40.183 4.60182ZM40.8904 5.91426C40.7517 5.97083 40.5714 6.00478 40.3356 6.00478C39.8918 6.00478 39.6698 5.86901 39.6698 5.58615C39.6698 5.3033 39.8918 5.15621 40.3356 5.15621C40.5159 5.15621 40.7101 5.16753 40.9043 5.21279V5.91426H40.8904Z" fill="white"/>
<path d="M44.4831 5.9145C44.1918 5.9145 44.0531 5.73347 44.0531 5.37142V1.83008L42.9435 1.88665V5.38273C42.9435 6.2313 43.3735 6.66123 44.2334 6.66123C44.3999 6.66123 44.5941 6.64992 44.7883 6.60466L44.705 5.89187C44.6496 5.90318 44.5802 5.9145 44.4831 5.9145Z" fill="white"/>
<path d="M2.56605 12.6227H3.49538V13.641C3.25958 13.6862 3.03765 13.7089 2.81572 13.7089C2.28864 13.7089 1.87253 13.5731 1.59511 13.3129C1.3177 13.0526 1.179 12.6793 1.179 12.2154C1.179 11.7062 1.3177 11.3216 1.59511 11.0387C1.87253 10.7559 2.28864 10.6201 2.82959 10.6201C3.27345 10.6201 3.68957 10.688 4.07795 10.8124L4.34149 10.0204C3.89763 9.86204 3.38442 9.78284 2.81572 9.78284C1.94188 9.78284 1.24835 10.0091 0.749011 10.4504C0.24967 10.9029 0 11.5026 0 12.2041C0 12.9056 0.249671 13.4713 0.73514 13.8899C1.22061 14.3085 1.90027 14.5235 2.77411 14.5235C3.38442 14.5235 3.98085 14.399 4.54955 14.1614V11.842H2.57993V12.6227H2.56605Z" fill="white"/>
<path d="M7.28235 11.0154C6.65817 11.0154 6.1727 11.1738 5.81207 11.4906C5.45143 11.8074 5.27112 12.2373 5.27112 12.7578C5.27112 13.2782 5.45143 13.7082 5.81207 14.0363C6.1727 14.3644 6.65817 14.5228 7.28235 14.5228C7.89265 14.5228 8.39199 14.3644 8.73876 14.0476C9.09939 13.7308 9.27971 13.3008 9.27971 12.7691C9.27971 12.2373 9.09939 11.8187 8.73876 11.5019C8.39199 11.1738 7.90653 11.0154 7.28235 11.0154ZM7.9204 13.5045C7.76782 13.6855 7.55976 13.776 7.28235 13.776C7.00494 13.776 6.78301 13.6855 6.63043 13.5045C6.47786 13.3235 6.39463 13.0746 6.39463 12.7691C6.39463 12.4636 6.47786 12.2147 6.63043 12.0337C6.78301 11.8526 7.00494 11.7621 7.28235 11.7621C7.55976 11.7621 7.78169 11.8526 7.9204 12.0223C8.07297 12.2034 8.14232 12.441 8.14232 12.7578C8.15619 13.0859 8.07297 13.3235 7.9204 13.5045Z" fill="white"/>
<path d="M12.3595 14.4446C12.7756 13.8562 13.0807 13.3132 13.2888 12.8153C13.483 12.3175 13.6217 11.7518 13.7049 11.0956H12.5953C12.5675 11.6273 12.4704 12.1025 12.3317 12.5099C12.193 12.9172 11.985 13.3245 11.7353 13.7205C11.2498 12.9285 10.9585 12.0573 10.8892 11.0956H9.77954C9.83502 11.7518 9.97373 12.3175 10.1679 12.804C10.3621 13.2905 10.695 13.8336 11.125 14.4446H12.3595Z" fill="white"/>
<path d="M16.3124 14.5228C16.8534 14.5228 17.3111 14.4436 17.7134 14.2965L17.5331 13.5724C17.1585 13.6968 16.7979 13.7647 16.4234 13.7647C15.7715 13.7647 15.397 13.5158 15.2999 13.0067H17.8382C17.8659 12.8257 17.8659 12.6672 17.8659 12.5089C17.8659 12.0676 17.7134 11.7055 17.3943 11.434C17.0753 11.1625 16.6592 11.0154 16.1321 11.0154C15.5496 11.0154 15.0641 11.1738 14.6896 11.5019C14.3151 11.83 14.1348 12.226 14.1348 12.7691C14.1348 13.3122 14.329 13.7308 14.7312 14.0476C15.1334 14.3644 15.6605 14.5228 16.3124 14.5228ZM15.5634 11.9318C15.716 11.8074 15.8963 11.7395 16.1321 11.7395C16.3541 11.7395 16.5066 11.7961 16.6315 11.9205C16.7563 12.0337 16.8118 12.1921 16.8118 12.3731V12.4523H15.286C15.3276 12.226 15.4247 12.0563 15.5634 11.9318Z" fill="white"/>
<path d="M20.9725 11.8195L21.1251 11.084C20.9309 11.0501 20.6951 11.0275 20.4038 11.0275C19.7519 11.0275 19.1832 11.1293 18.7255 11.3103V14.4444H19.8351V11.876C20.0293 11.8081 20.2512 11.7629 20.5009 11.7629C20.6951 11.7629 20.8477 11.7742 20.9725 11.8195Z" fill="white"/>
<path d="M24.3158 12.4304V14.4557H25.4255V12.3739C25.4255 11.9439 25.259 11.6045 24.94 11.3782C24.621 11.1519 24.1632 11.0275 23.5668 11.0275C22.901 11.0275 22.3046 11.1293 21.7498 11.3216V14.467H22.8594V11.8987C23.0675 11.8195 23.3033 11.7855 23.5668 11.7855C24.0661 11.7629 24.3158 11.9892 24.3158 12.4304Z" fill="white"/>
<path d="M30.682 11.0154C30.252 11.0154 29.8082 11.1059 29.3782 11.2869C29.1008 11.1059 28.7124 11.0154 28.2408 11.0154C27.575 11.0154 26.9786 11.1172 26.4376 11.3096V14.4549H27.5473V11.8866C27.7553 11.8074 27.9634 11.7734 28.1992 11.7734C28.4489 11.7734 28.6292 11.83 28.754 11.9318C28.865 12.045 28.9205 12.2034 28.9205 12.4297V14.4549H30.0024V12.5428C30.0024 12.3165 29.9746 12.1015 29.9053 11.9318C30.1411 11.83 30.3907 11.7734 30.6543 11.7734C31.1397 11.7734 31.3755 11.9997 31.3755 12.441V14.4662H32.4852V12.3844C32.4852 11.9545 32.3326 11.6263 32.0275 11.3888C31.6946 11.1398 31.2507 11.0154 30.682 11.0154Z" fill="white"/>
<path d="M35.4398 14.5228C35.9807 14.5228 36.4384 14.4436 36.8407 14.2965L36.6604 13.5724C36.2859 13.6968 35.9252 13.7647 35.5507 13.7647C34.8988 13.7647 34.5243 13.5158 34.4272 13.0067H36.9655C36.9933 12.8257 36.9933 12.6672 36.9933 12.5089C36.9933 12.0676 36.8407 11.7055 36.5217 11.434C36.2026 11.1625 35.7865 11.0154 35.2594 11.0154C34.6769 11.0154 34.1914 11.1738 33.8169 11.5019C33.4424 11.83 33.2621 12.226 33.2621 12.7691C33.2621 13.3122 33.4563 13.7308 33.8585 14.0476C34.2608 14.3644 34.7878 14.5228 35.4398 14.5228ZM34.6908 11.9318C34.8433 11.8074 35.0236 11.7395 35.2594 11.7395C35.4814 11.7395 35.634 11.7961 35.7588 11.9205C35.8836 12.0337 35.9391 12.1921 35.9391 12.3731V12.4523H34.4133C34.4411 12.226 34.5382 12.0563 34.6908 11.9318Z" fill="white"/>
<path d="M38.9353 11.888C39.1434 11.8088 39.3792 11.7749 39.6427 11.7749C40.1421 11.7749 40.3917 12.0011 40.3917 12.4424V14.4676H41.5014V12.3858C41.5014 11.9559 41.3349 11.6165 41.0159 11.3902C40.6969 11.1639 40.2392 11.0394 39.6427 11.0394C38.9769 11.0394 38.3805 11.1413 37.8257 11.3336V14.4789H38.9353C38.9353 14.445 38.9353 11.888 38.9353 11.888Z" fill="white"/>
<path d="M44.7329 13.7308C44.5942 13.7535 44.4555 13.7648 44.3029 13.7648C43.9284 13.7648 43.7481 13.5838 43.7481 13.2104V11.8074H44.6358V11.0833H43.7481V10.314L42.6384 10.3592V11.0833H42.0836V11.8074H42.6384V13.233C42.6384 14.0929 43.1239 14.5228 44.081 14.5228C44.3584 14.5228 44.5942 14.5002 44.7745 14.4663L44.7329 13.7308Z" fill="white"/>
<path d="M12.4007 17.7256C11.7349 18.8683 11.0969 20.3957 10.4449 22.3191H11.6239C11.7349 21.9571 11.8459 21.6177 11.9568 21.3122H14.0236L14.3564 22.3191H15.5354C14.9113 20.441 14.2593 18.9023 13.5797 17.7256H12.4007ZM12.2481 20.5089C12.5533 19.6603 12.8029 19.072 12.9971 18.7212C13.1774 19.0267 13.4271 19.6264 13.7461 20.5089H12.2481Z" fill="white"/>
<path d="M18.6983 21.5278C18.4903 21.607 18.2684 21.6409 18.0048 21.6409C17.5193 21.6409 17.2697 21.4146 17.2697 20.9847V18.9594H16.16V20.9847C16.16 21.4372 16.2987 21.7767 16.5762 22.0256C16.8536 22.2632 17.3113 22.3876 17.9632 22.3876C18.6151 22.3876 19.2254 22.2858 19.7941 22.0935V18.9481H18.6845V21.5278H18.6983Z" fill="white"/>
<path d="M22.6513 21.6414C22.2768 21.6414 22.0965 21.4604 22.0965 21.087V19.684H22.9842V18.9599H22.0965V18.1906L20.9868 18.2358V18.9599H20.432V19.684H20.9868V21.0983C20.9868 21.9582 21.4723 22.3881 22.4294 22.3881C22.7068 22.3881 22.9426 22.3655 23.1229 22.3315L23.0674 21.6074C22.9426 21.6301 22.79 21.6414 22.6513 21.6414Z" fill="white"/>
<path d="M25.758 18.8789C25.4251 18.8789 25.1616 18.9242 24.9258 19.0147V17.5552L23.8162 17.6004V22.3071H24.9258V19.7614C25.1339 19.6822 25.3558 19.637 25.5777 19.637C26.1048 19.637 26.3683 19.8633 26.3683 20.3045V22.3184H27.478V20.2366C27.478 19.8067 27.3254 19.4786 27.0064 19.241C26.6874 19.0034 26.2851 18.8789 25.758 18.8789Z" fill="white"/>
<path d="M30.2938 18.892C29.6696 18.892 29.1842 19.0504 28.8235 19.3672C28.4629 19.684 28.2826 20.1139 28.2826 20.6344C28.2826 21.1548 28.4629 21.5847 28.8235 21.9129C29.1842 22.241 29.6696 22.3994 30.2938 22.3994C30.9041 22.3994 31.4035 22.241 31.7502 21.9242C32.1109 21.6074 32.2912 21.1774 32.2912 20.6457C32.2912 20.1139 32.1109 19.6953 31.7502 19.3785C31.3896 19.0504 30.9041 18.892 30.2938 18.892ZM30.9319 21.3811C30.7793 21.5621 30.5712 21.6526 30.2938 21.6526C30.0164 21.6526 29.7945 21.5621 29.6419 21.3811C29.4893 21.2001 29.4061 20.9511 29.4061 20.6457C29.4061 20.3402 29.4893 20.0913 29.6419 19.9102C29.7945 19.7292 30.0164 19.6387 30.2938 19.6387C30.5712 19.6387 30.7932 19.7292 30.9319 19.8989C31.0844 20.08 31.1538 20.3176 31.1538 20.6344C31.1538 20.9512 31.0706 21.2001 30.9319 21.3811Z" fill="white"/>
<path d="M33.1367 19.1748V22.3089H34.2464V19.7405C34.4406 19.6613 34.6625 19.6274 34.9122 19.6274C35.1063 19.6274 35.2589 19.6387 35.3838 19.684L35.5363 18.9485C35.3421 18.9146 35.1063 18.892 34.8151 18.892C34.1631 18.892 33.6083 18.9825 33.1367 19.1748Z" fill="white"/>
<path d="M36.7301 17.5111C36.522 17.5111 36.3694 17.5564 36.2585 17.6469C36.1475 17.7374 36.092 17.8619 36.092 18.0089C36.092 18.156 36.1475 18.2805 36.2585 18.371C36.3694 18.4615 36.5359 18.5068 36.7301 18.5068C36.9243 18.5068 37.0907 18.4615 37.2017 18.371C37.3127 18.2805 37.3681 18.156 37.3681 18.0089C37.3681 17.8619 37.3127 17.7374 37.2017 17.6469C37.0907 17.5564 36.9381 17.5111 36.7301 17.5111Z" fill="white"/>
<path d="M37.2848 18.9702H36.1752V22.3192H37.2848V18.9702Z" fill="white"/>
<path d="M40.1421 21.6414C39.7676 21.6414 39.5873 21.4604 39.5873 21.087V19.684H40.475V18.9599H39.5873V18.1906L38.4777 18.2358V18.9599H37.9229V19.684H38.4777V21.0983C38.4777 21.9582 38.9631 22.3881 39.9202 22.3881C40.1976 22.3881 40.4334 22.3655 40.6137 22.3315L40.5583 21.6074C40.4334 21.6301 40.2947 21.6414 40.1421 21.6414Z" fill="white"/>
<path d="M43.4571 20.3279C43.36 20.69 43.1935 21.0633 42.9855 21.4367C42.4307 20.6673 42.1255 19.8527 42.0839 18.9702H40.9742C41.0297 19.5925 41.1823 20.1582 41.4042 20.6447C41.64 21.1312 41.9729 21.629 42.4168 22.1269C42.2919 22.2853 42.1116 22.4324 41.862 22.5455C41.6123 22.67 41.3626 22.7378 41.1129 22.7718L41.2933 23.5411C42.2226 23.4167 42.9855 22.9189 43.6097 22.0364C44.2893 21.052 44.6777 20.0337 44.7748 18.9702H43.6651C43.6374 19.502 43.568 19.9545 43.4571 20.3279Z" fill="white"/>
<path d="M49.6428 5.90165C49.9618 6.07136 50.3918 6.15056 50.9466 6.15056C51.1685 6.15056 51.4182 6.13924 51.6817 6.11661C51.8759 6.45604 52.2782 6.62575 52.8885 6.62575H53.3046H55.2326H57.1467H57.3687C57.9928 6.62575 58.4506 6.52392 58.7557 6.32027C59.0886 6.52392 59.5602 6.62575 60.1428 6.62575H60.337H60.3508H62.2789H64.2069H64.4288C65.053 6.62575 65.5107 6.52392 65.8158 6.32027C66.1487 6.52392 66.6203 6.62575 67.2029 6.62575H67.3971H67.411H69.339H71.267H73.195H73.3892C74.0272 6.62575 74.5682 6.54655 75.012 6.37684C75.7056 6.68232 76.413 6.82941 77.1481 6.82941C77.7861 6.82941 78.119 6.45604 78.119 5.68667C78.119 5.10965 77.8139 4.5892 77.1897 4.13663C76.5655 3.68407 75.8027 3.3899 74.9011 3.24281C74.1937 3.84246 73.833 4.4308 73.833 5.01914C73.833 5.23411 73.9024 5.43776 74.0272 5.6301C73.7776 5.65273 73.5279 5.66405 73.2921 5.66405H73.1811H71.2531H69.3251H67.411H67.3694C66.9671 5.66405 66.6203 5.6301 66.3291 5.55091C66.3568 5.40382 66.3707 5.22279 66.3707 5.04177V4.14795L65.3997 4.20452V5.12096C65.3997 5.29068 65.3304 5.42645 65.1917 5.51696C65.053 5.60747 64.7617 5.65273 64.3317 5.65273H64.2069H62.2789H60.3508H60.3092C59.907 5.65273 59.5602 5.61879 59.2689 5.53959C59.2967 5.39251 59.3106 5.21148 59.3106 5.03045V4.13663L58.3396 4.1932V5.10965C58.3396 5.27937 58.2703 5.41514 58.1316 5.50565C57.9928 5.59616 57.7016 5.64142 57.2716 5.64142H57.1467H55.2187H53.2907H53.1936C52.8885 5.64142 52.6804 5.60748 52.5695 5.52828C52.4585 5.46039 52.403 5.31331 52.403 5.09834V3.17493C51.8205 3.17493 51.2795 3.25413 50.794 3.40121C50.3086 3.54829 49.9063 3.77458 49.6012 4.08006C49.296 4.37423 49.1434 4.72497 49.1434 5.10965C49.1573 5.48302 49.3238 5.73193 49.6428 5.90165ZM76.5239 4.73628C77.0094 5.07571 77.2452 5.44908 77.2452 5.84508C77.2452 5.95822 77.162 6.01479 77.0233 6.01479C76.7597 6.01479 76.3991 5.9469 75.9414 5.79982C76.3297 5.4717 76.5239 5.12097 76.5239 4.73628ZM74.9704 4.17057C75.5114 4.28372 75.7888 4.49869 75.7888 4.81548C75.7888 4.906 75.7333 5.01914 75.6085 5.13228C75.4975 5.24542 75.3172 5.35856 75.0814 5.46039C74.7624 5.29068 74.5959 5.09834 74.5959 4.86074C74.6098 4.64577 74.7346 4.40817 74.9704 4.17057ZM50.4195 4.4308C50.6969 4.26109 51.0576 4.15926 51.5014 4.114V5.30199C51.4182 5.31331 51.2934 5.31331 51.1269 5.31331C50.7663 5.31331 50.4889 5.27936 50.2947 5.20017C50.1005 5.12097 50.0034 5.03045 50.0034 4.91731C50.0173 4.77023 50.1421 4.60051 50.4195 4.4308Z" fill="white"/>
<path d="M51.1963 2.39449L51.8344 2.82442V2.83574L52.4031 2.31528L51.7234 1.84009L51.2241 2.31528L50.586 1.86272L50.0173 2.39449L50.697 2.84705L51.1963 2.39449Z" fill="white"/>
<path d="M57.5773 4.00076C58.1738 3.80842 58.7563 3.68396 59.3528 3.59345L59.2557 3.18614C58.9228 3.24271 58.687 3.27665 58.576 3.27665C58.4373 3.27665 58.3263 3.24271 58.2431 3.18614C58.1738 3.11826 58.1322 3.05037 58.1322 2.95986C58.1322 2.88066 58.1738 2.82409 58.2431 2.77883C58.3263 2.73357 58.4096 2.71094 58.5344 2.71094C58.6731 2.71094 58.8118 2.73357 58.9644 2.76751L59.1308 2.40546C58.9089 2.31495 58.7147 2.28101 58.465 2.28101C58.2154 2.28101 58.0351 2.33757 57.8686 2.46203C57.7022 2.57517 57.6189 2.73357 57.6189 2.93723C57.6189 3.17482 57.7299 3.34454 57.938 3.469C57.8131 3.50294 57.6467 3.55951 57.4109 3.63871L57.5773 4.00076Z" fill="white"/>
<path d="M66.2043 7.59914L65.5385 7.13525L65.0391 7.59914L64.3872 7.14657L63.8324 7.67833L64.512 8.14222L65.0114 7.67833L65.6494 8.11959L66.2043 7.59914Z" fill="white"/>
<path d="M52.334 10.1799L51.6682 9.70471L51.1689 10.1799L50.5308 9.72734L49.9622 10.2591L50.6418 10.7117L51.1412 10.2591L51.7792 10.7004L52.334 10.1799Z" fill="white"/>
<path d="M49.5741 13.7664C49.8931 13.9361 50.3231 14.0153 50.8779 14.0153C51.0998 14.0153 51.3495 14.004 51.613 13.9814C51.8072 14.3208 52.2095 14.4905 52.8198 14.4905H53.2359H55.1639H55.2333C55.6355 14.4905 55.9545 14.3887 56.2181 14.1737C56.6897 14.3887 57.2445 14.5018 57.8825 14.5018C58.4374 14.5018 58.8674 14.4566 59.2141 14.3547C59.3944 14.0153 59.4915 13.5967 59.4915 13.178C59.4915 12.7481 59.3528 12.3861 59.0615 12.0919C58.7841 11.7977 58.4096 11.6506 57.9519 11.6506C57.5358 11.6506 57.2168 11.7411 56.981 11.9109C56.7452 12.0806 56.5232 12.3295 56.3152 12.6576C56.3152 12.6689 56.3013 12.6802 56.3013 12.6915C56.3013 12.7029 56.2874 12.7142 56.2874 12.7255C56.2874 12.7368 56.2736 12.7481 56.2597 12.7594C56.0932 13.031 55.9407 13.2346 55.8158 13.3591C55.691 13.4835 55.5245 13.5401 55.3165 13.5401H55.1778H55.1639H53.2636H53.1665C52.8614 13.5401 52.6533 13.5062 52.5424 13.427C52.4314 13.3591 52.3759 13.212 52.3759 12.997V11.0736C51.7934 11.0736 51.2524 11.1528 50.7669 11.2999C50.2815 11.447 49.8792 11.6733 49.5741 11.9787C49.2689 12.2729 49.1163 12.6237 49.1163 13.0083C49.1025 13.3478 49.255 13.5967 49.5741 13.7664ZM56.8839 13.3478C57.1058 13.0083 57.2722 12.7707 57.4109 12.6689C57.5497 12.5558 57.7161 12.4992 57.9241 12.4992C58.1322 12.4992 58.2987 12.5784 58.4235 12.7255C58.5483 12.8726 58.6038 13.0649 58.6038 13.2912C58.6038 13.393 58.5899 13.5062 58.5761 13.6193C58.4096 13.6306 58.257 13.6419 58.0906 13.6419C57.6051 13.6419 57.189 13.5854 56.8422 13.4835C56.8284 13.4496 56.8422 13.4043 56.8839 13.3478ZM50.3647 12.3069C50.6421 12.1371 51.0027 12.0353 51.4466 11.9901V13.178C51.3634 13.1894 51.2385 13.1894 51.0721 13.1894C50.7115 13.1894 50.434 13.1554 50.2399 13.0762C50.0457 12.997 49.9486 12.9065 49.9486 12.7934C49.9486 12.635 50.0873 12.4653 50.3647 12.3069Z" fill="white"/>
<path d="M75.0403 9.80554C75.0541 10.9143 75.068 11.7855 75.068 12.4078C75.068 12.8377 75.0541 13.1998 75.0403 13.4713C74.7767 13.5166 74.4854 13.5392 74.1664 13.5392H74.0971H73.9722C73.6532 13.5392 73.4035 13.5053 73.2093 13.4261C73.0152 13.3469 72.7516 13.1772 72.391 12.9169C71.9333 12.5775 71.642 12.3625 71.531 12.2833C70.8791 11.8195 70.352 11.5932 69.9359 11.5932C69.6307 11.5932 69.3811 11.6724 69.1591 11.8195C68.9511 11.9665 68.7569 12.2155 68.6043 12.5549L69.3256 12.7812C69.4227 12.6567 69.5059 12.5662 69.5891 12.5209C69.6724 12.4757 69.7695 12.4531 69.8943 12.4531C70.1856 12.4531 70.7265 12.7699 71.5449 13.3921C70.8097 13.5053 69.8111 13.5618 68.5488 13.5618H68.2437H68.1466C68.0634 13.5618 68.0079 13.5505 67.9385 13.5392C67.8831 13.5279 67.8276 13.5053 67.786 13.494C67.7443 13.4826 67.7027 13.4487 67.6473 13.3921C67.5918 13.3356 67.5502 13.3016 67.5363 13.279C67.5086 13.2564 67.4669 13.1998 67.4115 13.1206C67.356 13.0414 67.3005 12.9848 67.2866 12.9622C67.1479 12.7925 67.0369 12.6567 66.9676 12.5775C66.8844 12.4983 66.7595 12.3625 66.5931 12.2041C66.4266 12.0344 66.2325 11.8873 66.0244 11.7516C65.8163 11.6158 65.5805 11.4914 65.317 11.3782C66.066 10.9935 66.926 10.6994 67.8969 10.507V9.62451C66.607 9.87342 65.428 10.292 64.3877 10.8917V11.9552C64.9009 12.1363 65.3031 12.3399 65.5944 12.5662C65.8857 12.7925 66.1492 13.0527 66.3712 13.3582C65.8857 13.494 65.1922 13.5732 64.2767 13.5732H64.138H63.6803C63.6664 12.9509 63.4861 12.4531 63.1671 12.1023C62.8342 11.7403 62.4181 11.5592 61.9048 11.5592C61.4471 11.5592 61.0587 11.7176 60.7397 12.0344C60.4346 12.3512 60.282 12.7359 60.282 13.1885C60.282 13.5732 60.3929 13.8786 60.6287 14.0936C60.8645 14.3086 61.2668 14.4217 61.8494 14.4217C62.1684 14.4217 62.4597 14.4104 62.6816 14.3878C62.5984 14.5575 62.4181 14.7159 62.1406 14.863C61.8632 14.9988 61.4887 15.0779 61.0171 15.0779C60.7952 15.0779 60.5733 15.0666 60.3791 15.0327L60.282 15.8134C60.5871 15.8813 60.8923 15.9152 61.1697 15.9152C62.4458 15.9152 63.2503 15.4513 63.5554 14.5236H64.138H64.3183C65.428 14.5236 66.3018 14.3991 66.9676 14.1389C67.245 14.3991 67.6334 14.5236 68.1327 14.5236H68.2576H68.3547C69.7972 14.5236 71.1426 14.3878 72.4326 14.0936C72.6823 14.252 72.9042 14.3652 73.1261 14.4217C73.3481 14.4896 73.6116 14.5236 73.9168 14.5236H74.0693H74.0832H74.1248C74.43 14.5236 74.749 14.4896 75.0819 14.433C75.4148 14.3765 75.6644 14.2973 75.8586 14.2181C75.9419 14.0031 75.9973 13.7542 76.0251 13.4713C76.0528 13.1885 76.0667 12.8038 76.0667 12.306C76.0667 11.7629 76.0667 10.9143 76.0667 9.77159L75.0403 9.80554ZM62.1684 13.5392C61.7939 13.5392 61.5303 13.494 61.3639 13.4034C61.2113 13.3129 61.1281 13.1772 61.1281 13.0188C61.1281 12.8491 61.1836 12.702 61.3084 12.5662C61.4332 12.4417 61.5997 12.3739 61.8216 12.3739C62.099 12.3739 62.321 12.4983 62.4735 12.7359C62.64 12.9848 62.7232 13.2451 62.7509 13.5392H62.1684Z" fill="white"/>
<path d="M77.0232 14.49H78.0357V9.72668L77.0232 9.80589V14.49Z" fill="white"/>
<path d="M52.4862 18.0431L51.8065 17.5792L51.3072 18.0431L50.6692 17.5905L50.1005 18.1223L50.7801 18.5862L51.2795 18.1223L51.9175 18.5636L52.4862 18.0431Z" fill="white"/>
<path d="M56.1484 23.3376L55.4965 22.8851L54.9417 23.4168L55.6213 23.8694L56.1206 23.4168L56.7587 23.8581L57.3135 23.3376L56.6477 22.8624L56.1484 23.3376Z" fill="white"/>
<path d="M69.02 17.5562L68.3404 17.0923L67.841 17.5562L67.203 17.1036L66.6343 17.6354L67.3139 18.0993L67.8133 17.6354L68.4513 18.0766L69.02 17.5562Z" fill="white"/>
<path d="M69.0481 18.948C68.729 18.5633 68.3268 18.371 67.8274 18.371C67.3836 18.371 67.0091 18.5181 66.7039 18.8235C66.3988 19.129 66.2462 19.4911 66.2462 19.9323C66.2462 20.6451 66.7317 20.9959 67.7026 20.9959C68.0632 20.9959 68.3823 20.9619 68.6735 20.8827C68.6735 20.9845 68.6736 21.0977 68.6458 21.2108C68.0771 21.3353 67.1339 21.4032 65.8301 21.4032H65.6775C65.6636 21.4032 65.6498 21.4032 65.6498 21.4032H65.5111C65.2475 21.4032 65.0672 21.3692 64.9701 21.29C64.873 21.2108 64.7898 21.0411 64.7204 20.7922C64.4708 19.9436 63.9714 19.5137 63.2363 19.5137C62.834 19.5137 62.5012 19.5929 62.2654 19.7626C62.0296 19.9323 61.8076 20.1812 61.5996 20.5093C61.5996 20.5207 61.5857 20.532 61.5718 20.5433C61.558 20.5546 61.558 20.5659 61.5441 20.5772C61.5302 20.5886 61.5302 20.5885 61.5302 20.5999C61.4331 20.7469 61.3638 20.8601 61.3221 20.928C61.2805 20.9959 61.2112 21.0751 61.1418 21.1543C61.0586 21.2448 60.9754 21.3013 60.8922 21.3353C60.8089 21.3692 60.7118 21.3805 60.6009 21.3805H60.4622H58.5342H58.4926C58.0903 21.3805 57.7435 21.3466 57.4523 21.2674C57.48 21.1203 57.4939 20.9393 57.4939 20.7583V19.8644L56.5229 19.921V20.8375C56.5229 21.0072 56.4536 21.1429 56.3149 21.2335C56.1762 21.324 55.8849 21.3692 55.4549 21.3692H55.3301H53.4021H53.305C52.9998 21.3692 52.7918 21.3353 52.6808 21.2561C52.5698 21.1882 52.5143 21.0411 52.5143 20.8261V18.9027C51.9318 18.9027 51.4047 18.9819 50.9054 19.129C50.4199 19.2761 50.0176 19.5024 49.7125 19.8079C49.4073 20.102 49.2548 20.4528 49.2548 20.8375C49.2548 21.1769 49.4073 21.4258 49.7264 21.5955C50.0454 21.7652 50.4754 21.8444 51.0302 21.8444C51.2521 21.8444 51.5018 21.8331 51.7653 21.8105C51.9595 22.1499 52.3618 22.3196 52.9721 22.3196H53.3882H55.3162H55.5381C56.1623 22.3196 56.62 22.2178 56.9252 22.0141C57.2581 22.2178 57.7297 22.3196 58.3122 22.3196H58.5064H58.5203H60.4344H60.4483H60.5177C60.906 22.3196 61.2251 22.2178 61.4886 22.0141C61.9186 22.2291 62.4595 22.3309 63.1115 22.3309C63.6108 22.3309 64.0408 22.2404 64.4153 22.0707C64.6511 22.2404 64.9979 22.3196 65.4556 22.3196H65.6914H65.8856C67.5223 22.3196 68.6597 22.1725 69.3255 21.8784C69.4642 21.5616 69.5474 21.109 69.5474 20.532C69.5335 19.8758 69.3671 19.3327 69.0481 18.948ZM68.091 20.2831C67.4391 20.2831 67.1062 20.1134 67.1062 19.7852C67.1062 19.6268 67.1617 19.4798 67.2726 19.344C67.3836 19.2195 67.55 19.1516 67.7858 19.1516C68.0078 19.1516 68.202 19.2422 68.3407 19.4345C68.4794 19.6268 68.5765 19.8871 68.6319 20.2265C68.4655 20.2604 68.2852 20.2831 68.091 20.2831ZM51.585 21.0411C51.5018 21.0524 51.377 21.0524 51.2105 21.0524C50.8499 21.0524 50.5725 21.0185 50.3783 20.9393C50.1841 20.8601 50.087 20.7696 50.087 20.6564C50.087 20.498 50.2257 20.3283 50.5031 20.1699C50.7805 20.0002 51.1412 19.8984 51.585 19.8531V21.0411ZM63.2224 21.4937C62.8063 21.4937 62.4179 21.4371 62.0712 21.3353L62.1405 21.2221C62.3624 20.8827 62.5289 20.6564 62.6676 20.5433C62.8063 20.4301 62.9728 20.3736 63.1669 20.3736C63.375 20.3736 63.5276 20.4528 63.6385 20.5999C63.7495 20.7583 63.8466 21.0185 63.9576 21.4032C63.7356 21.4597 63.4998 21.4937 63.2224 21.4937Z" fill="white"/>
<path d="M74.6099 17.6691C74.6238 18.7779 74.6376 19.6491 74.6376 20.2714C74.6376 20.7013 74.6238 21.0633 74.6099 21.3349C74.3464 21.3801 74.0551 21.4028 73.7361 21.4028H73.6667H73.4725C73.0148 21.4028 72.7096 21.2783 72.5432 21.0181C72.5154 20.9728 72.4877 20.9163 72.4461 20.8597C72.4184 20.8031 72.3906 20.7465 72.3767 20.7013C72.3629 20.656 72.3351 20.5881 72.3074 20.5089C72.2796 20.4297 72.2658 20.3732 72.2519 20.3279C72.238 20.2827 72.2242 20.2148 72.1826 20.1016C72.1409 19.9885 72.1271 19.9206 72.1132 19.8754L71.1561 20.113C71.3781 20.7465 71.489 21.2331 71.489 21.5385C71.489 21.9119 71.3642 22.2287 71.1284 22.4776C70.8926 22.7378 70.5181 22.8623 70.0187 22.8623C69.88 22.8623 69.7413 22.851 69.6026 22.8397L69.5194 23.6203C69.7691 23.6656 70.0187 23.6882 70.2684 23.6882C70.8648 23.6882 71.3364 23.5412 71.6832 23.247C72.03 22.9528 72.2519 22.5568 72.349 22.059C72.5987 22.2287 72.9454 22.3192 73.3893 22.3192H73.6667H73.6806H73.7222C74.0273 22.3192 74.3464 22.2853 74.6793 22.2287C75.0122 22.1721 75.2618 22.0929 75.456 22.0137C75.5392 21.7875 75.5947 21.5499 75.6225 21.267C75.6502 20.9841 75.6641 20.5995 75.6641 20.1016C75.6641 19.5586 75.6641 18.71 75.6641 17.5673L74.6099 17.6691Z" fill="white"/>
<path d="M77.0232 22.3533H78.0357V17.6013L77.0232 17.6692V22.3533Z" fill="white"/>
</svg>
