<svg width="56" height="56" viewBox="0 0 56 56" fill="none" xmlns="http://www.w3.org/2000/svg">
<rect width="56" height="56" rx="2" fill="white"/>
<path d="M36 21.6004V20.8004C36 19.4749 34.9255 18.4004 33.6 18.4004H19.2C17.8746 18.4004 16.8 19.4749 16.8 20.8004V35.2004C16.8 36.5259 17.8746 37.6004 19.2 37.6004H36.8C38.1255 37.6004 39.2 36.5259 39.2 35.2004V24.0004C39.2 22.6749 38.1255 21.6004 36.8 21.6004H36ZM36 21.6004H21" stroke="#5D60FE" stroke-width="2" stroke-linecap="round" stroke-linejoin="round"/>
<path d="M32.8 29.1996C32.8 28.316 33.5164 27.5996 34.4 27.5996C35.2837 27.5996 36 28.316 36 29.1996C36 30.0832 35.2837 30.7996 34.4 30.7996C33.5164 30.7996 32.8 30.0832 32.8 29.1996Z" stroke="#5D60FE" stroke-width="2" stroke-linecap="round" stroke-linejoin="round"/>
</svg>
