<svg width="24" height="22" viewBox="0 0 24 22" fill="none" xmlns="http://www.w3.org/2000/svg">
<path d="M19.9998 4.5999V3.7999C19.9998 2.47442 18.9253 1.3999 17.5998 1.3999H3.1998C1.87432 1.3999 0.799805 2.47442 0.799805 3.7999V18.1999C0.799805 19.5254 1.87432 20.5999 3.1998 20.5999H20.7998C22.1253 20.5999 23.1998 19.5254 23.1998 18.1999V6.9999C23.1998 5.67442 22.1253 4.5999 20.7998 4.5999H19.9998ZM19.9998 4.5999H4.9998H19.9998Z" fill="#9395FE" fill-opacity="0.2"/>
<path d="M19.9998 4.5999V3.7999C19.9998 2.47442 18.9253 1.3999 17.5998 1.3999H3.1998C1.87432 1.3999 0.799805 2.47442 0.799805 3.7999V18.1999C0.799805 19.5254 1.87432 20.5999 3.1998 20.5999H20.7998C22.1253 20.5999 23.1998 19.5254 23.1998 18.1999V6.9999C23.1998 5.67442 22.1253 4.5999 20.7998 4.5999H19.9998ZM19.9998 4.5999H4.9998" stroke="#5D60FE" stroke-width="1.2" stroke-linecap="round" stroke-linejoin="round"/>
</svg>
