<svg width="21" height="22" viewBox="0 0 21 22" fill="none" xmlns="http://www.w3.org/2000/svg">
<path fill-rule="evenodd" clip-rule="evenodd" d="M2.04175 10.4993C2.04175 15.4469 6.05253 19.4577 11.0001 19.4577C15.9476 19.4577 19.9584 15.4469 19.9584 10.4993C19.9584 5.5518 15.9476 1.54102 11.0001 1.54102C6.05253 1.54102 2.04175 5.5518 2.04175 10.4993ZM10.735 9.68873C10.9409 9.71641 11.2256 9.7905 11.4673 10.0322C11.709 10.2738 11.7831 10.5586 11.8107 10.7645C11.8337 10.935 11.8335 11.1333 11.8334 11.2999L11.8334 14.666C11.8334 15.1263 11.4603 15.4994 11.0001 15.4994C10.5398 15.4994 10.1667 15.1263 10.1667 14.666V11.3327C9.70651 11.3327 9.33342 10.9596 9.33342 10.4994C9.33342 10.0391 9.70651 9.66604 10.1667 9.66604L10.1996 9.66603C10.3661 9.66593 10.5644 9.6658 10.735 9.68873ZM10.9963 6.33268C10.5381 6.33268 10.1667 6.70578 10.1667 7.16602C10.1667 7.62625 10.5381 7.99935 10.9963 7.99935H11.0037C11.4619 7.99935 11.8333 7.62625 11.8333 7.16602C11.8333 6.70578 11.4619 6.33268 11.0037 6.33268H10.9963Z" fill="#FEC84B"/>
</svg>
