<svg width="40" height="40" viewBox="0 0 40 40" fill="none" xmlns="http://www.w3.org/2000/svg">
<path d="M0 20C0 8.95431 8.95431 0 20 0C31.0457 0 40 8.95431 40 20C40 31.0457 31.0457 40 20 40C8.95431 40 0 31.0457 0 20Z" fill="#FFFAEB"/>
<path d="M19.1602 22.4993C19.1602 22.0391 19.5333 21.666 19.9936 21.666H20.0011C20.4613 21.666 20.8344 22.0391 20.8344 22.4993C20.8344 22.9596 20.4613 23.3327 20.0011 23.3327H19.9936C19.5333 23.3327 19.1602 22.9596 19.1602 22.4993Z" fill="#B54708"/>
<path d="M19.3751 19.9993C19.3751 20.3445 19.6549 20.6243 20.0001 20.6243C20.3453 20.6243 20.6251 20.3445 20.6251 19.9993V16.666C20.6251 16.3208 20.3453 16.041 20.0001 16.041C19.6549 16.041 19.3751 16.3208 19.3751 16.666V19.9993Z" fill="#B54708"/>
<path fill-rule="evenodd" clip-rule="evenodd" d="M11.0417 19.9993C11.0417 15.0518 15.0525 11.041 20.0001 11.041C24.9476 11.041 28.9584 15.0518 28.9584 19.9993C28.9584 24.9469 24.9476 28.9577 20.0001 28.9577C15.0525 28.9577 11.0417 24.9469 11.0417 19.9993ZM20.0001 12.291C15.7429 12.291 12.2917 15.7422 12.2917 19.9993C12.2917 24.2565 15.7429 27.7077 20.0001 27.7077C24.2573 27.7077 27.7084 24.2565 27.7084 19.9993C27.7084 15.7422 24.2573 12.291 20.0001 12.291Z" fill="#B54708"/>
</svg>
