<svg width="76" height="43" viewBox="0 0 76 43" fill="none" xmlns="http://www.w3.org/2000/svg">
<path d="M40.9884 38.4556H20.4523" stroke="#0E0E0E" stroke-width="1.4" stroke-linecap="round" stroke-linejoin="round"/>
<path d="M13.3174 32.2227V24.3633H49.9376V28.5177" stroke="#0E0E0E" stroke-width="1.4" stroke-linecap="round" stroke-linejoin="round"/>
<path d="M52.8712 35.779C53.7322 32.1312 51.473 28.476 47.8252 27.6151C44.1774 26.7541 40.5223 29.0133 39.6613 32.6611C38.8004 36.3089 41.0596 39.9641 44.7074 40.825C48.3551 41.686 52.0102 39.4268 52.8712 35.779Z" stroke="#0E0E0E" stroke-width="1.4" stroke-linecap="round" stroke-linejoin="round"/>
<path d="M49.1341 34.8966C49.5075 33.3142 48.5276 31.7288 46.9453 31.3553C45.3629 30.9818 43.7775 31.9618 43.404 33.5441C43.0305 35.1265 44.0105 36.7119 45.5928 37.0854C47.1752 37.4589 48.7606 36.4789 49.1341 34.8966Z" stroke="#0E0E0E" stroke-width="1.4" stroke-linecap="round" stroke-linejoin="round"/>
<path d="M16.1543 41.0397C18.8413 41.0397 21.0195 38.8616 21.0195 36.1746C21.0195 33.4877 18.8413 31.3096 16.1543 31.3096C13.4674 31.3096 11.2893 33.4877 11.2893 36.1746C11.2893 38.8616 13.4674 41.0397 16.1543 41.0397Z" stroke="#0E0E0E" stroke-width="1.4" stroke-linecap="round" stroke-linejoin="round"/>
<path d="M18.0758 36.1747C18.0758 37.2365 17.2162 38.0961 16.1544 38.0961C15.0926 38.0961 14.2332 37.2365 14.2332 36.1747C14.2332 35.1129 15.0926 34.2534 16.1544 34.2534C17.2162 34.2534 18.0758 35.1129 18.0758 36.1747Z" stroke="#0E0E0E" stroke-width="1.4" stroke-linecap="round" stroke-linejoin="round"/>
<path d="M56.9798 24.3632H45.9462V5.99271C45.9462 4.93374 46.8057 4.07422 47.8647 4.07422H63.5105L61.3224 20.5599C61.033 22.7368 59.1764 24.3632 56.9798 24.3632Z" stroke="#0E0E0E" stroke-width="1.4" stroke-linecap="round" stroke-linejoin="round"/>
<path d="M61.3615 19.5879H50.0332V7.77344H62.929" stroke="#0E0E0E" stroke-width="1.4" stroke-linecap="round" stroke-linejoin="round"/>
<path d="M49.2355 4.07415L47.3901 2.22866C46.9996 1.83822 46.4687 1.61914 45.9181 1.61914H26.5195V9.61618H13.7867L9.6969 12.2313V24.3631H13.3204" stroke="#0E0E0E" stroke-width="1.4" stroke-linecap="round" stroke-linejoin="round"/>
<path d="M26.5279 7.00374H8.7782L5.24728 10.5346C4.64897 11.1329 3.6799 11.1329 3.08159 10.5346L1.43847 8.89134C0.84017 8.29303 0.84017 7.32396 1.43847 6.72566L5.42434 2.73979C6.14343 2.0207 7.11804 1.61621 8.13769 1.61621H26.5306" stroke="#0E0E0E" stroke-width="1.4" stroke-linecap="round" stroke-linejoin="round"/>
<path d="M49.9404 25.3042L60.384 32.1524" stroke="#0E0E0E" stroke-width="1.4" stroke-linecap="round" stroke-linejoin="round"/>
<path d="M60.3841 29.5542V39.436C60.3841 40.3208 61.1004 41.0371 61.9852 41.0371H74.5103L60.3813 29.5542H60.3841Z" stroke="#0E0E0E" stroke-width="1.4" stroke-linecap="round" stroke-linejoin="round"/>
<path d="M53.1005 34.2534L60.384 37.5343" stroke="#0E0E0E" stroke-width="1.4" stroke-linecap="round" stroke-linejoin="round"/>
<path d="M20.764 34.2534H39.5306" stroke="#0E0E0E" stroke-width="1.4" stroke-linecap="round" stroke-linejoin="round"/>
<path d="M9.69385 19.9165H45.946" stroke="#0E0E0E" stroke-width="1.4" stroke-linecap="round" stroke-linejoin="round"/>
<path d="M16.1544 12.9897H22.6206" stroke="#0E0E0E" stroke-width="1.4" stroke-linecap="round" stroke-linejoin="round"/>
<path d="M16.1544 16.4531H22.6206" stroke="#0E0E0E" stroke-width="1.4" stroke-linecap="round" stroke-linejoin="round"/>
<path d="M26.5166 9.61328H39.4152" stroke="#0E0E0E" stroke-width="1.4" stroke-linecap="round" stroke-linejoin="round"/>
</svg>
