<svg width="38" height="72" viewBox="0 0 38 72" fill="none" xmlns="http://www.w3.org/2000/svg">
<path d="M30.8301 1.5H7.66994C4.10665 1.5 1.21802 4.38863 1.21802 7.95192V64.0481C1.21802 67.6114 4.10665 70.5 7.66994 70.5H30.8301C34.3934 70.5 37.282 67.6114 37.282 64.0481V7.95192C37.282 4.38863 34.3934 1.5 30.8301 1.5Z" stroke="#0E0E0E" stroke-width="1.4" stroke-linecap="round" stroke-linejoin="round"/>
<path d="M9.78442 1.5L10.4639 4.85334C10.6074 5.55623 11.1463 6.0541 11.7701 6.0541H26.7299C27.3537 6.0541 27.8955 5.55623 28.0361 4.85334L28.7155 1.5" stroke="#0E0E0E" stroke-width="1.4" stroke-linecap="round" stroke-linejoin="round"/>
<path d="M27.38 66.3472H11.1199" stroke="#0E0E0E" stroke-width="1.4" stroke-linecap="round" stroke-linejoin="round"/>
<path d="M19.2529 23.518C19.3554 22.9762 20.0173 19.7488 22.9782 17.8656C25.7517 16.1026 28.575 16.7645 29.5736 16.9987C32.3852 17.6577 34.0545 19.4413 34.6607 20.1588C34.1219 21.1428 32.8626 23.1256 30.4816 24.5899C29.4741 25.2108 27.3449 26.5199 24.5099 26.2212C21.6047 25.9166 19.8035 24.1155 19.2559 23.5151L19.2529 23.518Z" stroke="#0E0E0E" stroke-width="1.4" stroke-linecap="round" stroke-linejoin="round"/>
<path d="M27.4035 20.6714C27.3566 20.6714 27.2951 20.6626 27.2248 20.6538C24.3606 20.32 21.5109 21.3157 19.4491 23.3307C19.373 23.4039 19.3086 23.4654 19.2529 23.5152" stroke="#0E0E0E" stroke-width="1.4" stroke-linecap="round" stroke-linejoin="round"/>
<path d="M19.2499 23.5151C19.1474 22.9733 18.4855 19.7458 15.5246 17.8627C12.7511 16.0996 9.92786 16.7615 8.92918 16.9958C6.11763 17.6548 4.44828 19.4383 3.84204 20.1559C4.38092 21.1399 5.64023 23.1226 8.02126 24.587C9.02873 25.2079 11.1579 26.517 13.9929 26.2183C16.8982 25.9108 18.6993 24.1125 19.247 23.5122L19.2499 23.5151Z" stroke="#0E0E0E" stroke-width="1.4" stroke-linecap="round" stroke-linejoin="round"/>
<path d="M19.25 23.5151V35.5931" stroke="#0E0E0E" stroke-width="1.4" stroke-linecap="round" stroke-linejoin="round"/>
<path d="M11.0964 20.6714C11.1433 20.6714 11.2048 20.6626 11.2751 20.6538C14.1394 20.32 16.989 21.3157 19.0508 23.3307C19.127 23.4039 19.1914 23.4654 19.247 23.5152" stroke="#0E0E0E" stroke-width="1.4" stroke-linecap="round" stroke-linejoin="round"/>
<path d="M5.18359 35.5928H33.3166" stroke="#0E0E0E" stroke-width="1.4" stroke-linecap="round" stroke-linejoin="round"/>
<path d="M19.25 61.8222V48.8013" stroke="#0E0E0E" stroke-width="1.4" stroke-linecap="round" stroke-linejoin="round"/>
<path d="M19.25 44.7011V40.0503" stroke="#0E0E0E" stroke-width="1.4" stroke-linecap="round" stroke-linejoin="round"/>
<path d="M28.1123 61.8223V57.728" stroke="#0E0E0E" stroke-width="1.4" stroke-linecap="round" stroke-linejoin="round"/>
<path d="M28.1123 53.6277V40.0503" stroke="#0E0E0E" stroke-width="1.4" stroke-linecap="round" stroke-linejoin="round"/>
<path d="M32.7132 53.6279H23.5083V57.7281H32.7132V53.6279Z" stroke="#0E0E0E" stroke-width="1.4" stroke-linecap="round" stroke-linejoin="round"/>
<path d="M23.8509 44.7012H14.646V48.8013H23.8509V44.7012Z" stroke="#0E0E0E" stroke-width="1.4" stroke-linecap="round" stroke-linejoin="round"/>
<path d="M10.3877 61.8222V57.3179" stroke="#0E0E0E" stroke-width="1.4" stroke-linecap="round" stroke-linejoin="round"/>
<path d="M10.3877 53.001V40.0503" stroke="#0E0E0E" stroke-width="1.4" stroke-linecap="round" stroke-linejoin="round"/>
<path d="M14.9917 53.001H5.78687V57.1011H14.9917V53.001Z" stroke="#0E0E0E" stroke-width="1.4" stroke-linecap="round" stroke-linejoin="round"/>
</svg>
