<svg width="70" height="70" viewBox="0 0 70 70" fill="none" xmlns="http://www.w3.org/2000/svg">
<path d="M41.9957 22.5198H51.3916V14.1885H14.0608V22.5198H23.4567" stroke="#0E0E0E" stroke-width="1.4" stroke-linecap="round" stroke-linejoin="round"/>
<path d="M10.5663 26.1237C8.63658 26.1237 7.07202 24.5591 7.07202 22.6293V12.6211H14.0607V22.6293C14.0607 24.5591 12.4961 26.1237 10.5663 26.1237Z" stroke="#0E0E0E" stroke-width="1.4" stroke-linecap="round" stroke-linejoin="round"/>
<path d="M54.8857 26.1237C52.9559 26.1237 51.3914 24.5591 51.3914 22.6293V12.6211H58.38V22.6293C58.38 24.5591 56.8154 26.1237 54.8857 26.1237Z" stroke="#0E0E0E" stroke-width="1.4" stroke-linecap="round" stroke-linejoin="round"/>
<path d="M23.7935 14.1885V12.2812C23.7935 10.2925 25.4058 8.68018 27.3945 8.68018H37.8606C39.8494 8.68018 41.4617 10.2925 41.4617 12.2812V14.1885" stroke="#0E0E0E" stroke-width="1.4" stroke-linecap="round" stroke-linejoin="round"/>
<path d="M43.9675 14.4443L41.1894 25.9413C40.6922 28.0452 38.8131 29.534 36.653 29.534H28.802C26.6392 29.534 24.7599 28.048 24.2656 25.9413L21.4875 14.4443" stroke="#0E0E0E" stroke-width="1.4" stroke-linecap="round" stroke-linejoin="round"/>
<path d="M24.0659 25.1045H41.1892" stroke="#0E0E0E" stroke-width="1.4" stroke-linecap="round" stroke-linejoin="round"/>
<path d="M24.0659 17.6885H25.7513" stroke="#0E0E0E" stroke-width="1.4" stroke-linecap="round" stroke-linejoin="round"/>
<path d="M28.501 17.6885H38.1272" stroke="#0E0E0E" stroke-width="1.4" stroke-linecap="round" stroke-linejoin="round"/>
<path d="M39.5037 17.6885H41.189" stroke="#0E0E0E" stroke-width="1.4" stroke-linecap="round" stroke-linejoin="round"/>
<path d="M10.5662 10.0539V0.790039" stroke="#0E0E0E" stroke-width="1.4" stroke-linecap="round" stroke-linejoin="round"/>
<path d="M3.79688 3.28418H17.336" stroke="#0E0E0E" stroke-width="1.4" stroke-linecap="round" stroke-linejoin="round"/>
<path d="M8.76025 12.6212V10.0791H12.3754V12.6212" stroke="#0E0E0E" stroke-width="1.4" stroke-linecap="round" stroke-linejoin="round"/>
<path d="M54.8857 10.0539V0.790039" stroke="#0E0E0E" stroke-width="1.4" stroke-linecap="round" stroke-linejoin="round"/>
<path d="M48.1162 3.28418H61.6553" stroke="#0E0E0E" stroke-width="1.4" stroke-linecap="round" stroke-linejoin="round"/>
<path d="M53.0769 12.6212V10.0791H56.692V12.6212" stroke="#0E0E0E" stroke-width="1.4" stroke-linecap="round" stroke-linejoin="round"/>
<path d="M29.9171 29.5366H35.5322V31.1602C35.5322 32.6798 34.299 33.913 32.7794 33.913H32.6671C31.1474 33.913 29.9143 32.6798 29.9143 31.1602V29.5366H29.9171Z" stroke="#0E0E0E" stroke-width="1.4" stroke-linecap="round" stroke-linejoin="round"/>
<path d="M32.7261 37.5703V45.4297" stroke="#0E0E0E" stroke-width="1.4" stroke-linecap="round" stroke-linejoin="round"/>
<path d="M28.4957 36.4355L25.9985 40.7641" stroke="#0E0E0E" stroke-width="1.4" stroke-linecap="round" stroke-linejoin="round"/>
<path d="M24.4143 44.0112L23.0352 46.3988" stroke="#0E0E0E" stroke-width="1.4" stroke-linecap="round" stroke-linejoin="round"/>
<path d="M25.3974 33.3398L18.5913 37.2696" stroke="#0E0E0E" stroke-width="1.4" stroke-linecap="round" stroke-linejoin="round"/>
<path d="M14.6647 39.5366L7.85864 43.4635" stroke="#0E0E0E" stroke-width="1.4" stroke-linecap="round" stroke-linejoin="round"/>
<path d="M40.0547 33.3398L46.8607 37.2696" stroke="#0E0E0E" stroke-width="1.4" stroke-linecap="round" stroke-linejoin="round"/>
<path d="M50.7876 39.5366L57.5937 43.4635" stroke="#0E0E0E" stroke-width="1.4" stroke-linecap="round" stroke-linejoin="round"/>
<path d="M39.4534 40.7641L36.9563 36.4355" stroke="#0E0E0E" stroke-width="1.4" stroke-linecap="round" stroke-linejoin="round"/>
<path d="M42.7539 46.6657L41.2202 44.0112" stroke="#0E0E0E" stroke-width="1.4" stroke-linecap="round" stroke-linejoin="round"/>
<path d="M1.1731 69.207H68.3574" stroke="#0E0E0E" stroke-width="1.4" stroke-linecap="round" stroke-linejoin="round"/>
<path d="M9.4427 52.955C11.3752 54.764 11.6421 57.6235 10.0354 59.3397C8.4287 61.056 5.55794 60.9802 3.62539 59.1684C1.69284 57.3594 1.14233 51.0112 1.14233 51.0112C1.14233 51.0112 7.51015 51.1432 9.44551 52.9522L9.4427 52.955Z" stroke="#0E0E0E" stroke-width="1.4" stroke-linecap="round" stroke-linejoin="round"/>
<path d="M18.2292 61.0311C16.9343 62.2137 15.0298 62.2418 13.9793 61.0901C12.9288 59.9384 13.1282 58.048 14.4231 56.8627C15.7181 55.6801 19.9427 55.6436 19.9427 55.6436C19.9427 55.6436 19.5269 59.8457 18.2292 61.0283V61.0311Z" stroke="#0E0E0E" stroke-width="1.4" stroke-linecap="round" stroke-linejoin="round"/>
<path d="M12.9119 69.2108C12.8894 67.5591 12.6366 65.93 12.1732 64.3654C11.6619 62.6435 10.8922 61.0003 9.88103 59.4947C9.1198 58.3571 8.22099 57.2981 7.19292 56.3458L7.15918 56.3149" stroke="#0E0E0E" stroke-width="1.4" stroke-linecap="round" stroke-linejoin="round"/>
<path d="M14.8191 61.6963C14.0523 62.6907 13.1618 63.5867 12.1731 64.3648" stroke="#0E0E0E" stroke-width="1.4" stroke-linecap="round" stroke-linejoin="round"/>
<path d="M34.1672 52.955C32.2347 54.764 31.9679 57.6235 33.5746 59.3397C35.1813 61.056 38.0521 60.9802 39.9846 59.1684C41.9172 57.3594 42.4677 51.0112 42.4677 51.0112C42.4677 51.0112 36.0998 51.1432 34.1644 52.9522L34.1672 52.955Z" stroke="#0E0E0E" stroke-width="1.4" stroke-linecap="round" stroke-linejoin="round"/>
<path d="M25.3807 61.0311C26.6756 62.2137 28.5801 62.2418 29.6306 61.0901C30.6812 59.9384 30.4817 58.048 29.1868 56.8627C27.8919 55.6801 23.6672 55.6436 23.6672 55.6436C23.6672 55.6436 24.083 59.8457 25.3807 61.0283V61.0311Z" stroke="#0E0E0E" stroke-width="1.4" stroke-linecap="round" stroke-linejoin="round"/>
<path d="M36.448 56.3149L36.4143 56.3458C35.3862 57.2981 34.4874 58.3571 33.7262 59.4947C32.715 61.0003 31.9453 62.6435 31.434 64.3654C30.9706 65.93 30.7178 67.5591 30.6953 69.2108" stroke="#0E0E0E" stroke-width="1.4" stroke-linecap="round" stroke-linejoin="round"/>
<path d="M31.4341 64.3648C30.4453 63.5867 29.5549 62.6907 28.7881 61.6963" stroke="#0E0E0E" stroke-width="1.4" stroke-linecap="round" stroke-linejoin="round"/>
<path d="M54.4926 52.955C56.4251 54.764 56.692 57.6235 55.0853 59.3397C53.4786 61.056 50.6078 60.9802 48.6753 59.1684C46.7427 57.3594 46.1921 51.0112 46.1921 51.0112C46.1921 51.0112 52.56 51.1432 54.4954 52.9522L54.4926 52.955Z" stroke="#0E0E0E" stroke-width="1.4" stroke-linecap="round" stroke-linejoin="round"/>
<path d="M63.2788 61.0311C61.9839 62.2137 60.0794 62.2418 59.0289 61.0901C57.9783 59.9384 58.1778 58.048 59.4727 56.8627C60.7676 55.6801 64.9922 55.6436 64.9922 55.6436C64.9922 55.6436 64.5766 59.8457 63.2788 61.0283V61.0311Z" stroke="#0E0E0E" stroke-width="1.4" stroke-linecap="round" stroke-linejoin="round"/>
<path d="M57.9615 69.2108C57.939 67.5591 57.6862 65.93 57.2227 64.3654C56.7115 62.6435 55.9419 61.0003 54.9307 59.4947C54.1694 58.3571 53.2706 57.2981 52.2425 56.3458L52.2087 56.3149" stroke="#0E0E0E" stroke-width="1.4" stroke-linecap="round" stroke-linejoin="round"/>
<path d="M59.8687 61.6963C59.1018 62.6907 58.2114 63.5867 57.2227 64.3648" stroke="#0E0E0E" stroke-width="1.4" stroke-linecap="round" stroke-linejoin="round"/>
</svg>
