<svg width="70" height="50" viewBox="0 0 70 50" fill="none" xmlns="http://www.w3.org/2000/svg">
<path d="M21.3193 38.8804H29.5355H40.1448H48.3609" stroke="#0E0E0E" stroke-width="1.4" stroke-linecap="round" stroke-linejoin="round"/>
<path d="M64.7202 38.8804H53.2766" stroke="#0E0E0E" stroke-width="1.4" stroke-linecap="round" stroke-linejoin="round"/>
<path d="M16.4036 38.8804H7.63965" stroke="#0E0E0E" stroke-width="1.4" stroke-linecap="round" stroke-linejoin="round"/>
<path d="M16.4036 46.748H7.63965" stroke="#0E0E0E" stroke-width="1.4" stroke-linecap="round" stroke-linejoin="round"/>
<path d="M64.7202 46.748H53.2766" stroke="#0E0E0E" stroke-width="1.4" stroke-linecap="round" stroke-linejoin="round"/>
<path d="M48.3609 46.748H21.3193" stroke="#0E0E0E" stroke-width="1.4" stroke-linecap="round" stroke-linejoin="round"/>
<path d="M29.5354 38.8803V30.6895L30.718 26.5098H38.965L40.1447 30.6895V38.8803" stroke="#0E0E0E" stroke-width="1.4" stroke-linecap="round" stroke-linejoin="round"/>
<path d="M36.642 19.4507H33.041V26.5096H36.642V19.4507Z" stroke="#0E0E0E" stroke-width="1.4" stroke-linecap="round" stroke-linejoin="round"/>
<path d="M39.2908 16.2769H30.3893C29.9177 16.2769 29.5354 16.6592 29.5354 17.1308V18.597C29.5354 19.0686 29.9177 19.451 30.3893 19.451H39.2908C39.7624 19.451 40.1447 19.0686 40.1447 18.597V17.1308C40.1447 16.6592 39.7624 16.2769 39.2908 16.2769Z" stroke="#0E0E0E" stroke-width="1.4" stroke-linecap="round" stroke-linejoin="round"/>
<path d="M43.2175 17.4255C50.0095 12.2093 59.2762 11.5998 66.6946 15.8806L68.3407 16.83" stroke="#0E0E0E" stroke-width="1.4" stroke-linecap="round" stroke-linejoin="round"/>
<path d="M26.2826 17.4255C19.4905 12.2093 10.2238 11.5998 2.80542 15.8806L1.15942 16.83" stroke="#0E0E0E" stroke-width="1.4" stroke-linecap="round" stroke-linejoin="round"/>
<path d="M30.7262 13.5942C27.0325 5.8668 19.0467 1.12531 10.4963 1.58317L8.59741 1.68428" stroke="#0E0E0E" stroke-width="1.4" stroke-linecap="round" stroke-linejoin="round"/>
<path d="M39.6194 13.5942C43.3131 5.8668 51.299 1.12531 59.8494 1.58317L61.7482 1.68428" stroke="#0E0E0E" stroke-width="1.4" stroke-linecap="round" stroke-linejoin="round"/>
<path d="M52.2063 37.1836H49.4339C48.8413 37.1836 48.3608 37.664 48.3608 38.2566V47.3744C48.3608 47.967 48.8413 48.4474 49.4339 48.4474H52.2063C52.7989 48.4474 53.2793 47.967 53.2793 47.3744V38.2566C53.2793 37.664 52.7989 37.1836 52.2063 37.1836Z" stroke="#0E0E0E" stroke-width="1.4" stroke-linecap="round" stroke-linejoin="round"/>
<path d="M20.249 37.1836H17.4765C16.8839 37.1836 16.4036 37.664 16.4036 38.2566V47.3744C16.4036 47.967 16.8839 48.4474 17.4765 48.4474H20.249C20.8416 48.4474 21.322 47.967 21.322 47.3744V38.2566C21.322 37.664 20.8416 37.1836 20.249 37.1836Z" stroke="#0E0E0E" stroke-width="1.4" stroke-linecap="round" stroke-linejoin="round"/>
</svg>
