<svg width="58" height="64" viewBox="0 0 58 64" fill="none" xmlns="http://www.w3.org/2000/svg">
<path d="M55.0544 27.9731H1.59741V62.7759H55.0544V27.9731Z" stroke="#0E0E0E" stroke-width="1.4" stroke-linecap="round" stroke-linejoin="round"/>
<path d="M1.59741 27.9733L28.3244 5.55518L55.0544 27.9733" stroke="#0E0E0E" stroke-width="1.4" stroke-linecap="round" stroke-linejoin="round"/>
<path d="M28.3245 27.9733V5.55518" stroke="#0E0E0E" stroke-width="1.4" stroke-linecap="round" stroke-linejoin="round"/>
<path d="M11.8164 60.1357C11.1591 60.4475 9.92316 60.8689 8.51588 60.4925C6.72659 60.0178 5.92605 58.5936 5.64234 58.0908C4.8446 56.6751 4.94573 55.3016 5.01314 54.7763C5.62549 54.6274 6.92883 54.3915 8.44566 54.8184C9.0861 55.001 10.4428 55.383 11.4007 56.6695C11.5692 56.897 11.7068 57.1274 11.8192 57.3577" stroke="#0E0E0E" stroke-width="1.4" stroke-linecap="round" stroke-linejoin="round"/>
<path d="M18.0269 52.3551C17.7825 52.8804 17.0971 54.3607 15.35 54.9758C13.8135 55.5179 12.4118 55.0489 11.8135 54.7876V52.1107C11.9062 51.8747 12.027 51.6332 12.1758 51.3944C13.0269 50.0321 14.3499 49.5433 14.9735 49.313C16.451 48.7681 17.7685 48.8973 18.3921 49.0012C18.5016 49.5181 18.7095 50.8804 18.0269 52.3551Z" stroke="#0E0E0E" stroke-width="1.4" stroke-linecap="round" stroke-linejoin="round"/>
<path d="M11.9316 48.0767C12.204 47.9278 13.8192 47.0121 14.3136 45.0992C14.777 43.3071 13.9315 41.9082 13.6337 41.4167C12.7911 40.0262 11.5467 39.4392 11.058 39.2397C10.6254 39.7004 9.77994 40.7172 9.40916 42.2481C9.25186 42.8942 8.92036 44.2649 9.57203 45.7312C10.2406 47.234 11.5187 47.8857 11.9344 48.0767H11.9316Z" stroke="#0E0E0E" stroke-width="1.4" stroke-linecap="round" stroke-linejoin="round"/>
<path d="M11.8164 62.7758V60.1354V57.3574V54.79V52.1131V48.0767" stroke="#0E0E0E" stroke-width="1.4" stroke-linecap="round" stroke-linejoin="round"/>
<path d="M28.4004 60.1357C27.7431 60.4475 26.5071 60.8689 25.0999 60.4925C23.3106 60.0178 22.51 58.5936 22.2263 58.0908C21.4286 56.6751 21.5297 55.3016 21.5971 54.7763C22.2095 54.6274 23.5128 54.3915 25.0296 54.8184C25.6701 55.001 27.0268 55.383 27.9847 56.6695C28.1532 56.897 28.2908 57.1274 28.4032 57.3577" stroke="#0E0E0E" stroke-width="1.4" stroke-linecap="round" stroke-linejoin="round"/>
<path d="M34.6138 52.3551C34.3694 52.8804 33.684 54.3607 31.9369 54.9758C30.4004 55.5179 28.9987 55.0489 28.4004 54.7876V52.1107C28.4931 51.8747 28.6139 51.6332 28.7628 51.3944C29.6139 50.0321 30.9369 49.5433 31.5604 49.313C33.038 48.7681 34.3554 48.8973 34.979 49.0012C35.0885 49.5181 35.2964 50.8804 34.6138 52.3551Z" stroke="#0E0E0E" stroke-width="1.4" stroke-linecap="round" stroke-linejoin="round"/>
<path d="M28.5156 48.0767C28.7881 47.9278 30.4032 47.0121 30.8976 45.0992C31.361 43.3071 30.5155 41.9082 30.2178 41.4167C29.3751 40.0262 28.1307 39.4392 27.642 39.2397C27.2094 39.7004 26.3639 40.7172 25.9931 42.2481C25.8358 42.8942 25.5044 44.2649 26.156 45.7312C26.8246 47.234 28.1027 47.8857 28.5184 48.0767H28.5156Z" stroke="#0E0E0E" stroke-width="1.4" stroke-linecap="round" stroke-linejoin="round"/>
<path d="M28.4004 62.7758V60.1354V57.3574V54.79V52.1131V48.0767" stroke="#0E0E0E" stroke-width="1.4" stroke-linecap="round" stroke-linejoin="round"/>
<path d="M44.9873 60.1357C44.33 60.4475 43.0941 60.8689 41.6868 60.4925C39.8975 60.0178 39.0969 58.5936 38.8132 58.0908C38.0155 56.6751 38.1166 55.3016 38.184 54.7763C38.7964 54.6274 40.0997 54.3915 41.6166 54.8184C42.257 55.001 43.6137 55.383 44.5716 56.6695C44.7401 56.897 44.8777 57.1274 44.9901 57.3577" stroke="#0E0E0E" stroke-width="1.4" stroke-linecap="round" stroke-linejoin="round"/>
<path d="M51.198 52.3551C50.9536 52.8804 50.2683 54.3607 48.5211 54.9758C46.9846 55.5179 45.5829 55.0489 44.9846 54.7876V52.1107C45.0773 51.8747 45.1981 51.6332 45.347 51.3944C46.1981 50.0321 47.5211 49.5433 48.1447 49.313C49.6222 48.7681 50.9395 48.8973 51.5631 49.0012C51.6727 49.5181 51.8806 50.8804 51.198 52.3551Z" stroke="#0E0E0E" stroke-width="1.4" stroke-linecap="round" stroke-linejoin="round"/>
<path d="M45.1024 48.0767C45.3749 47.9278 46.99 47.0121 47.4844 45.0992C47.9479 43.3071 47.1024 41.9082 46.8047 41.4167C45.962 40.0262 44.7177 39.4392 44.2289 39.2397C43.7963 39.7004 42.9508 40.7172 42.58 42.2481C42.4227 42.8942 42.0913 44.2649 42.743 45.7312C43.4115 47.234 44.6895 47.8857 45.1053 48.0767H45.1024Z" stroke="#0E0E0E" stroke-width="1.4" stroke-linecap="round" stroke-linejoin="round"/>
<path d="M44.9873 62.7758V60.1354V57.3574V54.79V52.1131V48.0767" stroke="#0E0E0E" stroke-width="1.4" stroke-linecap="round" stroke-linejoin="round"/>
<path d="M47.105 21.0465C48.8409 19.7431 49.9617 17.6645 49.9617 15.3275C49.9617 11.3725 46.7567 8.16748 42.8017 8.16748C40.0124 8.16748 37.5967 9.76296 36.417 12.0888" stroke="#0E0E0E" stroke-width="1.4" stroke-linecap="round" stroke-linejoin="round"/>
<path d="M42.5825 1.22363V4.69267" stroke="#0E0E0E" stroke-width="1.4" stroke-linecap="round" stroke-linejoin="round"/>
<path d="M49.6639 3.00439L47.928 6.00995" stroke="#0E0E0E" stroke-width="1.4" stroke-linecap="round" stroke-linejoin="round"/>
<path d="M54.9055 8.08594L51.8999 9.82186" stroke="#0E0E0E" stroke-width="1.4" stroke-linecap="round" stroke-linejoin="round"/>
<path d="M56.9026 15.1084H53.4336" stroke="#0E0E0E" stroke-width="1.4" stroke-linecap="round" stroke-linejoin="round"/>
<path d="M55.1216 22.1895L52.116 20.4536" stroke="#0E0E0E" stroke-width="1.4" stroke-linecap="round" stroke-linejoin="round"/>
<path d="M35.5601 3.2207L37.296 6.22627" stroke="#0E0E0E" stroke-width="1.4" stroke-linecap="round" stroke-linejoin="round"/>
</svg>
