<svg width="81" height="54" viewBox="0 0 81 54" fill="none" xmlns="http://www.w3.org/2000/svg">
<path d="M12.7631 10.2935L31.2178 34.3857C31.4931 34.7453 31.4257 35.2621 31.0661 35.5402L26.0663 39.3688C25.7067 39.6441 25.1898 39.5767 24.9118 39.2171L6.45703 15.1249" stroke="#0E0E0E" stroke-width="1.4" stroke-linecap="round" stroke-linejoin="round"/>
<path d="M30.4482 36.1191L32.2796 38.5096L28.6139 41.3157L26.7825 38.9253" stroke="#0E0E0E" stroke-width="1.4" stroke-linecap="round" stroke-linejoin="round"/>
<path d="M30.4453 39.9141L37.8581 49.588" stroke="#0E0E0E" stroke-width="1.4" stroke-linecap="round" stroke-linejoin="round"/>
<path d="M4.15942 16.8862L15.0609 8.53516" stroke="#0E0E0E" stroke-width="1.4" stroke-linecap="round" stroke-linejoin="round"/>
<path d="M27.1534 29.3887L24.3894 31.5066" stroke="#0E0E0E" stroke-width="1.4" stroke-linecap="round" stroke-linejoin="round"/>
<path d="M22.468 23.271L19.7012 25.3889" stroke="#0E0E0E" stroke-width="1.4" stroke-linecap="round" stroke-linejoin="round"/>
<path d="M17.7799 17.1528L15.0159 19.2708" stroke="#0E0E0E" stroke-width="1.4" stroke-linecap="round" stroke-linejoin="round"/>
<path d="M7.69017 14.1781L3.55542 8.7793" stroke="#0E0E0E" stroke-width="1.4" stroke-linecap="round" stroke-linejoin="round"/>
<path d="M7.39233 5.84131L11.5271 11.2401" stroke="#0E0E0E" stroke-width="1.4" stroke-linecap="round" stroke-linejoin="round"/>
<path d="M1.6875 10.2093L9.26039 4.41162" stroke="#0E0E0E" stroke-width="1.4" stroke-linecap="round" stroke-linejoin="round"/>
<path d="M58.8353 51.3521C60.5404 52.1218 62.3886 52.5403 64.3212 52.5403C72.8772 52.5403 79.8125 44.2792 79.8125 34.0856C79.8125 23.8919 72.852 15.0185 64.3212 15.6308C62.3662 15.7713 60.5404 16.7348 58.8381 17.5044C57.1331 16.7348 55.2708 15.7713 53.3495 15.6308C44.8159 15.0044 37.8582 23.8919 37.8582 34.0856C37.8582 44.2792 44.7934 52.5403 53.3495 52.5403C55.282 52.5403 57.1303 52.119 58.8325 51.3521H58.8353Z" stroke="#0E0E0E" stroke-width="1.4" stroke-linecap="round" stroke-linejoin="round"/>
<path d="M58.8775 17.51L58.6668 15.7011C58.2679 12.2658 57.1078 8.96244 55.2708 6.03271" stroke="#0E0E0E" stroke-width="1.4" stroke-linecap="round" stroke-linejoin="round"/>
<path d="M62.6921 5.37796C59.0404 8.98745 58.6697 14.5295 58.6697 14.5295C58.6697 14.5295 64.2145 14.2205 67.8661 10.611C71.5178 7.00153 71.8885 1.45947 71.8885 1.45947C71.8885 1.45947 66.3437 1.76848 62.6921 5.37796Z" stroke="#0E0E0E" stroke-width="1.4" stroke-linecap="round" stroke-linejoin="round"/>
</svg>
