<svg width="71" height="56" viewBox="0 0 71 56" fill="none" xmlns="http://www.w3.org/2000/svg">
<path d="M11.3502 44.068C11.4204 43.6944 11.8783 41.4698 13.9176 40.1692C15.8277 38.9529 17.7771 39.4108 18.4653 39.5709C20.4034 40.026 21.5551 41.2535 21.9708 41.7506C21.6 42.4276 20.7321 43.7956 19.0888 44.8068C18.395 45.2337 16.926 46.1382 14.971 45.9332C12.9682 45.7225 11.7266 44.4809 11.3474 44.068H11.3502Z" stroke="#0E0E0E" stroke-width="1.4" stroke-linecap="round" stroke-linejoin="round"/>
<path d="M11.3502 44.068C11.28 43.6944 10.8221 41.4698 8.78003 40.1692C6.86995 38.9529 4.92056 39.4108 4.23237 39.5709C2.2942 40.026 1.14253 41.2535 0.726807 41.7506C1.09759 42.4276 1.96555 43.7956 3.60878 44.8068C4.30259 45.2337 5.77166 46.1382 7.72668 45.9332C9.72945 45.7225 10.971 44.4809 11.3502 44.068Z" stroke="#0E0E0E" stroke-width="1.4" stroke-linecap="round" stroke-linejoin="round"/>
<path d="M11.3501 44.0679V50.8599" stroke="#0E0E0E" stroke-width="1.4" stroke-linecap="round" stroke-linejoin="round"/>
<path d="M35.2852 43.6549C35.3554 43.2813 35.8132 41.0567 37.8553 39.7561C39.7654 38.5399 41.7148 38.9977 42.403 39.1578C44.3412 39.6129 45.4928 40.8404 45.9086 41.3375C45.5378 42.0145 44.6698 43.3825 43.0266 44.3937C42.3328 44.8206 40.8637 45.7251 38.9087 45.5201C36.9059 45.3094 35.6644 44.0678 35.2852 43.6549Z" stroke="#0E0E0E" stroke-width="1.4" stroke-linecap="round" stroke-linejoin="round"/>
<path d="M35.285 43.6549C35.2148 43.2813 34.7569 41.0567 32.7148 39.7561C30.8048 38.5399 28.8554 38.9977 28.1672 39.1578C26.229 39.6129 25.0773 40.8404 24.6616 41.3375C25.0324 42.0145 25.9003 43.3825 27.5436 44.3937C28.2374 44.8206 29.7065 45.7251 31.6615 45.5201C33.6643 45.3094 34.9058 44.0678 35.285 43.6549Z" stroke="#0E0E0E" stroke-width="1.4" stroke-linecap="round" stroke-linejoin="round"/>
<path d="M35.2852 43.6548V54.3709" stroke="#0E0E0E" stroke-width="1.4" stroke-linecap="round" stroke-linejoin="round"/>
<path d="M59.1499 45.714C59.2201 45.3404 59.678 43.1157 61.7201 41.8152C63.6302 40.5989 65.5796 41.0568 66.2678 41.2169C68.2059 41.672 69.3576 42.8995 69.7733 43.3966C69.4025 44.0736 68.5346 45.4416 66.8913 46.4528C66.1975 46.8797 64.7285 47.7842 62.7734 47.5792C60.7707 47.3685 59.5291 46.1269 59.1499 45.714Z" stroke="#0E0E0E" stroke-width="1.4" stroke-linecap="round" stroke-linejoin="round"/>
<path d="M59.1499 45.714C59.0797 45.3404 58.6218 43.1157 56.5825 41.8152C54.6724 40.5989 52.723 41.0568 52.0348 41.2169C50.0967 41.672 48.945 42.8995 48.5293 43.3966C48.9001 44.0736 49.768 45.4416 51.4113 46.4528C52.1051 46.8797 53.5741 47.7842 55.5292 47.5792C57.5319 47.3685 58.7735 46.1269 59.1527 45.714H59.1499Z" stroke="#0E0E0E" stroke-width="1.4" stroke-linecap="round" stroke-linejoin="round"/>
<path d="M59.1499 45.7139V52.5059" stroke="#0E0E0E" stroke-width="1.4" stroke-linecap="round" stroke-linejoin="round"/>
<path d="M1.15942 52.3404C6.38686 50.9163 11.9345 51.2 17.294 51.9865C22.6562 52.773 27.9455 54.0454 33.3386 54.5763C45.1334 55.7392 56.9534 53.3291 68.5599 50.9331" stroke="#0E0E0E" stroke-width="1.4" stroke-linecap="round" stroke-linejoin="round"/>
<path d="M1.5498 1.12207H68.9503" stroke="#0E0E0E" stroke-width="1.4" stroke-linecap="round" stroke-linejoin="round"/>
<path d="M68.9503 6.21191H1.5498" stroke="#0E0E0E" stroke-width="1.4" stroke-linecap="round" stroke-linejoin="round"/>
<path d="M59.0151 10.622V6.21191H63.4252V10.622" stroke="#0E0E0E" stroke-width="1.4" stroke-linecap="round" stroke-linejoin="round"/>
<path d="M66.8747 15.2765H55.5659L57.8131 10.6221H64.6276L66.8747 15.2765Z" stroke="#0E0E0E" stroke-width="1.4" stroke-linecap="round" stroke-linejoin="round"/>
<path d="M33.1421 10.622V6.21191H37.5493V10.622" stroke="#0E0E0E" stroke-width="1.4" stroke-linecap="round" stroke-linejoin="round"/>
<path d="M41.0014 15.2765H29.6926L31.9398 10.6221H38.7543L41.0014 15.2765Z" stroke="#0E0E0E" stroke-width="1.4" stroke-linecap="round" stroke-linejoin="round"/>
<path d="M7.26611 10.622V6.21191H11.6761V10.622" stroke="#0E0E0E" stroke-width="1.4" stroke-linecap="round" stroke-linejoin="round"/>
<path d="M15.1257 15.2765H3.81689L6.06405 10.6221H12.8785L15.1257 15.2765Z" stroke="#0E0E0E" stroke-width="1.4" stroke-linecap="round" stroke-linejoin="round"/>
<path d="M4.2439 17.939V24.2478" stroke="#0E0E0E" stroke-width="1.4" stroke-linecap="round" stroke-linejoin="round"/>
<path d="M9.47119 22.397V28.7087" stroke="#0E0E0E" stroke-width="1.4" stroke-linecap="round" stroke-linejoin="round"/>
<path d="M14.6985 19.2422V25.5511" stroke="#0E0E0E" stroke-width="1.4" stroke-linecap="round" stroke-linejoin="round"/>
<path d="M30.0242 17.939V24.2478" stroke="#0E0E0E" stroke-width="1.4" stroke-linecap="round" stroke-linejoin="round"/>
<path d="M35.2488 22.397V28.7087" stroke="#0E0E0E" stroke-width="1.4" stroke-linecap="round" stroke-linejoin="round"/>
<path d="M40.4763 19.2422V25.5511" stroke="#0E0E0E" stroke-width="1.4" stroke-linecap="round" stroke-linejoin="round"/>
<path d="M55.9929 17.939V24.2478" stroke="#0E0E0E" stroke-width="1.4" stroke-linecap="round" stroke-linejoin="round"/>
<path d="M61.2205 22.397V28.7087" stroke="#0E0E0E" stroke-width="1.4" stroke-linecap="round" stroke-linejoin="round"/>
<path d="M66.4478 19.2422V25.5511" stroke="#0E0E0E" stroke-width="1.4" stroke-linecap="round" stroke-linejoin="round"/>
</svg>
