<svg width="72" height="59" viewBox="0 0 72 59" fill="none" xmlns="http://www.w3.org/2000/svg">
<path d="M62.9307 57.3971C62.9307 55.0151 61.0009 53.0853 58.6189 53.0853C57.2425 53.0853 56.0206 53.7314 55.2313 54.7342C54.3971 53.282 52.8353 52.3017 51.0404 52.3017C49.5208 52.3017 48.1667 53.0039 47.2819 54.0994C46.5319 53.4673 45.5657 53.0853 44.5067 53.0853C43.5208 53.0853 42.6135 53.4196 41.886 53.9786C41.4113 52.1135 39.7259 50.7343 37.7119 50.7343C36.6445 50.7343 35.667 51.1247 34.9142 51.768C34.0097 50.8101 32.7317 50.2118 31.3103 50.2118C30.5603 50.2118 29.8526 50.3831 29.2178 50.6781C29.1869 48.3944 27.33 46.5517 25.0379 46.5517C24.1419 46.5517 23.3132 46.8355 22.6335 47.3158C21.9088 46.0771 20.5661 45.2456 19.0268 45.2456C17.01 45.2456 15.3246 46.6753 14.9314 48.5742C14.4876 48.4506 14.0213 48.3804 13.5382 48.3804C10.6506 48.3804 8.31076 50.7202 8.31076 53.6078C8.31076 53.6415 8.31639 53.6752 8.31639 53.7089C7.66471 53.3157 6.90625 53.0853 6.08885 53.0853C3.70687 53.0853 1.7771 55.0151 1.7771 57.3971" stroke="#0E0E0E" stroke-width="1.4" stroke-linecap="round" stroke-linejoin="round"/>
<path d="M69.4482 3.16578L65.821 1.45974C64.8145 0.986314 63.6148 1.41849 63.1413 2.42501L53.8173 22.2486C53.3439 23.2551 53.776 24.4549 54.7825 24.9283L58.4097 26.6343C59.4162 27.1078 60.616 26.6756 61.0894 25.6691L70.4134 5.84545C70.8868 4.83892 70.4547 3.6392 69.4482 3.16578Z" stroke="#0E0E0E" stroke-width="1.4" stroke-linecap="round" stroke-linejoin="round"/>
<path d="M58.6134 26.6254L51.5657 41.6083C51.0517 42.7038 49.7427 43.1729 48.6501 42.6588C47.5546 42.1448 47.0855 40.8358 47.5996 39.7431L54.6472 24.7603" stroke="#0E0E0E" stroke-width="1.4" stroke-linecap="round" stroke-linejoin="round"/>
<path d="M36.3161 50.6417C36.2515 49.2653 36.5155 47.8608 37.1391 46.5322L44.917 30.0044L50.8664 32.8049" stroke="#0E0E0E" stroke-width="1.4" stroke-linecap="round" stroke-linejoin="round"/>
<path d="M54.8325 34.667L60.7817 37.4675L53.4897 52.9701" stroke="#0E0E0E" stroke-width="1.4" stroke-linecap="round" stroke-linejoin="round"/>
<path d="M17.4315 45.5605C17.3191 36.968 14.968 28.5327 10.5805 21.0918L9.61694 19.457C13.7405 23.6452 17.0523 28.4934 19.4399 33.7658C19.6674 34.2714 19.8864 34.777 20.0971 35.2854C21.6336 39.0016 22.7179 42.9117 23.3134 46.9257" stroke="#0E0E0E" stroke-width="1.4" stroke-linecap="round" stroke-linejoin="round"/>
<path d="M22.2121 41.3244C23.7401 36.7402 26.7402 32.7909 30.7457 30.0858L33.139 28.4707L31.7401 28.5381C26.9762 28.7656 22.6223 31.2965 20.0718 35.3273" stroke="#0E0E0E" stroke-width="1.4" stroke-linecap="round" stroke-linejoin="round"/>
<path d="M17.6589 30.2207C20.3105 27.8612 20.2797 24.2573 20.2684 23.7939C20.1757 20.0664 17.6169 17.7097 17.0579 17.1957C12.6928 13.1761 6.15068 14.4963 4.38667 14.853C3.01591 15.1311 1.92611 15.5187 1.22949 15.7996C3.92046 17.6816 5.1536 19.6619 5.74629 21.3164C6.83897 24.3725 5.63394 25.9905 7.16201 28.5101C7.34459 28.8163 9.18161 31.7404 12.5411 32.0241C13.5832 32.1139 14.5046 31.9286 15.249 31.6589" stroke="#0E0E0E" stroke-width="1.4" stroke-linecap="round" stroke-linejoin="round"/>
<path d="M26.4454 33.8948C26.8583 34.1672 27.1813 34.3217 27.2824 34.3638C29.7206 35.4706 32.0464 34.5577 32.5548 34.3582C36.521 32.7993 37.7204 28.1589 38.0462 26.9061C38.2962 25.9314 38.3889 25.1056 38.4255 24.5663C36.3665 25.7151 34.698 25.8921 33.4452 25.7545C31.1306 25.5017 30.4593 24.2151 28.3526 24.409C28.097 24.4314 25.6308 24.7011 24.392 26.7825C23.5128 28.26 23.7712 29.7797 23.8471 30.201C23.9061 30.5268 23.9959 30.833 24.1082 31.1195" stroke="#0E0E0E" stroke-width="1.4" stroke-linecap="round" stroke-linejoin="round"/>
</svg>
