<svg width="68" height="62" viewBox="0 0 68 62" fill="none" xmlns="http://www.w3.org/2000/svg">
<path d="M21.988 25.5522H54.9734C59.8581 25.5522 63.8216 29.5129 63.8216 34.4004V39.7514" stroke="#0E0E0E" stroke-width="1.4" stroke-linecap="round" stroke-linejoin="round"/>
<path d="M44.6028 50.333H30.9851" stroke="#0E0E0E" stroke-width="1.4" stroke-linecap="round" stroke-linejoin="round"/>
<path d="M54.6924 14.8364H51.0015V25.5525H54.6924V14.8364Z" stroke="#0E0E0E" stroke-width="1.4" stroke-linecap="round" stroke-linejoin="round"/>
<path d="M54.864 11.1396H50.8247C50.1126 11.1396 49.5354 11.7169 49.5354 12.429V13.5469C49.5354 14.259 50.1126 14.8362 50.8247 14.8362H54.864C55.576 14.8362 56.1533 14.259 56.1533 13.5469V12.429C56.1533 11.7169 55.576 11.1396 54.864 11.1396Z" stroke="#0E0E0E" stroke-width="1.4" stroke-linecap="round" stroke-linejoin="round"/>
<path d="M55.3105 58.2347C61.4972 58.2347 66.5125 53.2193 66.5125 47.0326C66.5125 40.8459 61.4972 35.8306 55.3105 35.8306C49.1238 35.8306 44.1084 40.8459 44.1084 47.0326C44.1084 53.2193 49.1238 58.2347 55.3105 58.2347Z" stroke="#0E0E0E" stroke-width="1.4" stroke-linecap="round" stroke-linejoin="round"/>
<path d="M55.3106 51.4341C57.7415 51.4341 59.7122 49.4634 59.7122 47.0325C59.7122 44.6015 57.7415 42.6309 55.3106 42.6309C52.8796 42.6309 50.9089 44.6015 50.9089 47.0325C50.9089 49.4634 52.8796 51.4341 55.3106 51.4341Z" stroke="#0E0E0E" stroke-width="1.4" stroke-linecap="round" stroke-linejoin="round"/>
<path d="M32.0777 47.2133C33.8902 39.5342 29.1343 31.8398 21.4552 30.0274C13.7761 28.2149 6.08169 32.9708 4.26925 40.6499C2.45682 48.329 7.21269 56.0235 14.8918 57.8359C22.5709 59.6483 30.2653 54.8924 32.0777 47.2133Z" stroke="#0E0E0E" stroke-width="1.4" stroke-linecap="round" stroke-linejoin="round"/>
<path d="M35.867 50.3357C36.5889 48.3414 36.9822 46.1925 36.9822 43.9482C36.9822 33.5776 28.5751 25.1704 18.2045 25.1704C14.1483 25.1704 10.3956 26.4541 7.32544 28.6394L9.87598 32.3444" stroke="#0E0E0E" stroke-width="1.4" stroke-linecap="round" stroke-linejoin="round"/>
<path d="M18.2015 51.4705C22.356 51.4705 25.7239 48.1026 25.7239 43.9481C25.7239 39.7936 22.356 36.4258 18.2015 36.4258C14.0471 36.4258 10.6792 39.7936 10.6792 43.9481C10.6792 48.1026 14.0471 51.4705 18.2015 51.4705Z" stroke="#0E0E0E" stroke-width="1.4" stroke-linecap="round" stroke-linejoin="round"/>
<path d="M11.0332 26.5858L13.668 5.83057H37.794L43.2967 25.4735" stroke="#0E0E0E" stroke-width="1.4" stroke-linecap="round" stroke-linejoin="round"/>
<path d="M12.3113 0.881836H37.9821C39.2883 0.881836 40.3501 1.94361 40.3501 3.24977V3.46325C40.3501 4.76941 39.2883 5.83119 37.9821 5.83119H12.3113C11.0051 5.83119 9.94336 4.76941 9.94336 3.46325V3.24977C9.94336 1.94361 11.0051 0.881836 12.3113 0.881836Z" stroke="#0E0E0E" stroke-width="1.4" stroke-linecap="round" stroke-linejoin="round"/>
<path d="M25.7239 5.83057V25.0156" stroke="#0E0E0E" stroke-width="1.4" stroke-linecap="round" stroke-linejoin="round"/>
<path d="M62.7006 30.5303H42.6448" stroke="#0E0E0E" stroke-width="1.4" stroke-linecap="round" stroke-linejoin="round"/>
</svg>
