<svg width="56" height="74" viewBox="0 0 56 74" fill="none" xmlns="http://www.w3.org/2000/svg">
<path d="M32.5999 51.3657H13.8699V61.624H32.5999V51.3657Z" stroke="#0E0E0E" stroke-width="1.4" stroke-linecap="round" stroke-linejoin="round"/>
<path d="M34.8132 37.105V42.4307C34.8132 46.5486 36.8834 50.0373 39.7429 51.2283V64.5539" stroke="#0E0E0E" stroke-width="1.4" stroke-linecap="round" stroke-linejoin="round"/>
<path d="M11.6536 37.105V42.4307C11.6536 46.5486 9.58338 50.0373 6.72388 51.2283V64.5539" stroke="#0E0E0E" stroke-width="1.4" stroke-linecap="round" stroke-linejoin="round"/>
<path d="M15.5718 35.397V46.1692H30.8946V35.397" stroke="#0E0E0E" stroke-width="1.4" stroke-linecap="round" stroke-linejoin="round"/>
<path d="M13.6985 18.5209V14.3271C16.7967 13.3131 20.0158 12.8047 23.2349 12.8047C26.4539 12.8047 29.673 13.3131 32.7712 14.3271V18.5209" stroke="#0E0E0E" stroke-width="1.4" stroke-linecap="round" stroke-linejoin="round"/>
<path d="M13.9624 25.6191C14.968 29.8073 18.7376 32.9196 23.2347 32.9196C27.7318 32.9196 31.5014 29.8073 32.507 25.6191" stroke="#0E0E0E" stroke-width="1.4" stroke-linecap="round" stroke-linejoin="round"/>
<path d="M13.9624 25.6192C12.3417 25.2316 11.1338 23.7765 11.1338 22.035C11.1338 20.3889 12.2124 18.9957 13.6983 18.521" stroke="#0E0E0E" stroke-width="1.4" stroke-linecap="round" stroke-linejoin="round"/>
<path d="M32.7713 18.521C34.2573 18.9957 35.3331 20.3889 35.3331 22.035C35.3331 23.7765 34.1281 25.2316 32.5073 25.6192" stroke="#0E0E0E" stroke-width="1.4" stroke-linecap="round" stroke-linejoin="round"/>
<path d="M34.7121 19.9844C37.5126 18.7428 39.2402 17.049 39.2402 15.1839C39.2402 11.3778 32.0746 8.29639 23.2348 8.29639C14.3951 8.29639 7.22949 11.3778 7.22949 15.1839C7.22949 17.049 8.95695 18.7428 11.7575 19.9844" stroke="#0E0E0E" stroke-width="1.4" stroke-linecap="round" stroke-linejoin="round"/>
<path d="M31.875 9.38621L29.1222 2.29364C25.3189 0.906026 21.1476 0.906026 17.3443 2.29364L14.5916 9.38621" stroke="#0E0E0E" stroke-width="1.4" stroke-linecap="round" stroke-linejoin="round"/>
<path d="M28.5072 31.3325V34.1892C28.5072 37.1021 26.1477 39.4644 23.2348 39.4644C20.3219 39.4644 17.9624 37.1021 17.9624 34.1892V31.3325" stroke="#0E0E0E" stroke-width="1.4" stroke-linecap="round" stroke-linejoin="round"/>
<path d="M17.9624 34.189L7.27152 39.1327C3.61709 40.8209 1.28003 44.4809 1.28003 48.5061V64.5536" stroke="#0E0E0E" stroke-width="1.4" stroke-linecap="round" stroke-linejoin="round"/>
<path d="M28.8076 34.189L39.4985 39.1327" stroke="#0E0E0E" stroke-width="1.4" stroke-linecap="round" stroke-linejoin="round"/>
<path d="M51.2175 51.5566C52.5995 51.8178 53.9534 52.2981 55.2202 53.0004V39.9669C55.2202 37.172 54.1809 34.4754 52.3074 32.4024L49.4254 29.2171C49.0574 28.8098 48.4169 28.8098 48.049 29.2171L45.167 32.4024C43.2934 34.4754 42.2542 37.172 42.2542 39.9669V53.0004C43.521 52.2981 44.8749 51.8178 46.2569 51.5566" stroke="#0E0E0E" stroke-width="1.4" stroke-linecap="round" stroke-linejoin="round"/>
<path d="M46.2598 58.1801V44.5146C46.2598 43.1438 47.3693 42.0371 48.7373 42.0371C49.4198 42.0371 50.0406 42.3124 50.4872 42.7618C50.9339 43.2112 51.2147 43.8292 51.2147 44.5146V58.1801" stroke="#0E0E0E" stroke-width="1.4" stroke-linecap="round" stroke-linejoin="round"/>
<path d="M50.3469 58.1016H47.1334C46.122 58.1016 45.302 58.9215 45.302 59.933V70.9159C45.302 71.9274 46.122 72.7474 47.1334 72.7474H50.3469C51.3584 72.7474 52.1783 71.9274 52.1783 70.9159V59.933C52.1783 58.9215 51.3584 58.1016 50.3469 58.1016Z" stroke="#0E0E0E" stroke-width="1.4" stroke-linecap="round" stroke-linejoin="round"/>
</svg>
